<svg xmlns="http://www.w3.org/2000/svg" xmlns:xlink="http://www.w3.org/1999/xlink" width="400" height="249" viewBox="0 0 400 249">
  <defs>
    <clipPath id="clip-path">
      <rect id="Rectángulo_402540" data-name="Rectángulo 402540" width="51" height="111" transform="translate(614 2605)" fill="#fff" stroke="#707070" stroke-width="1"/>
    </clipPath>
    <filter id="Trazado_877866" x="-68.697" y="121.855" width="128.488" height="128.488" filterUnits="userSpaceOnUse">
      <feOffset dy="1" input="SourceAlpha"/>
      <feGaussianBlur stdDeviation="5.5" result="blur"/>
      <feFlood flood-color="#fff" flood-opacity="0.902"/>
      <feComposite operator="in" in2="blur"/>
      <feComposite in="SourceGraphic"/>
    </filter>
    <filter id="Elipse_11611" x="315" y="14.919" width="76" height="76" filterUnits="userSpaceOnUse">
      <feOffset dy="1" input="SourceAlpha"/>
      <feGaussianBlur stdDeviation="5.5" result="blur-2"/>
      <feFlood flood-color="#fff" flood-opacity="0.902"/>
      <feComposite operator="in" in2="blur-2"/>
      <feComposite in="SourceGraphic"/>
    </filter>
    <linearGradient id="linear-gradient" x1="0.35" y1="0.433" x2="0.935" y2="0.848" gradientUnits="objectBoundingBox">
      <stop offset="0" stop-color="#f0c518"/>
      <stop offset="0.371" stop-color="#d1ae1f"/>
      <stop offset="1" stop-color="#78630c"/>
    </linearGradient>
    <clipPath id="clip-path-2">
      <rect id="Rectángulo_403258" data-name="Rectángulo 403258" width="308.885" height="197.255" fill="none"/>
    </clipPath>
    <clipPath id="clip-path-3">
      <rect id="Rectángulo_403262" data-name="Rectángulo 403262" width="84.074" height="118.745" fill="none"/>
    </clipPath>
  </defs>
  <g id="_11" data-name="11" transform="translate(-600 -1641)">
    <rect id="Rectángulo_402539" data-name="Rectángulo 402539" width="400" height="249" rx="13" transform="translate(600 1641)" fill="#fcf4d3"/>
    <g id="Enmascarar_grupo_1098709" data-name="Enmascarar grupo 1098709" transform="translate(-14 -834)" clip-path="url(#clip-path)">
      <g transform="matrix(1, 0, 0, 1, 614, 2475)" filter="url(#Trazado_877866)">
        <g id="Trazado_877866-2" data-name="Trazado 877866" transform="translate(-52.2 137.36)" fill="none">
          <path d="M47.744,0A47.744,47.744,0,1,1,0,47.744,47.744,47.744,0,0,1,47.744,0Z" stroke="none"/>
          <path d="M 47.74413681030273 16 C 30.2403564453125 16 16 30.2403564453125 16 47.74413681030273 C 16 65.24791717529297 30.2403564453125 79.48827362060547 47.74413681030273 79.48827362060547 C 65.24791717529297 79.48827362060547 79.48827362060547 65.24791717529297 79.48827362060547 47.74413681030273 C 79.48827362060547 30.2403564453125 65.24791717529297 16 47.74413681030273 16 M 47.74413681030273 0 C 74.11249542236328 0 95.48827362060547 21.37577819824219 95.48827362060547 47.74413681030273 C 95.48827362060547 74.11249542236328 74.11249542236328 95.48827362060547 47.74413681030273 95.48827362060547 C 21.37577819824219 95.48827362060547 0 74.11249542236328 0 47.74413681030273 C 0 21.37577819824219 21.37577819824219 0 47.74413681030273 0 Z" stroke="none" fill="#f0c518"/>
        </g>
      </g>
    </g>
    <g transform="matrix(1, 0, 0, 1, 600, 1641)" filter="url(#Elipse_11611)">
      <g id="Elipse_11611-2" data-name="Elipse 11611" transform="translate(331.5 30.42)" fill="none" stroke="#a854f3" stroke-width="6">
        <circle cx="21.5" cy="21.5" r="21.5" stroke="none"/>
        <circle cx="21.5" cy="21.5" r="18.5" fill="none"/>
      </g>
    </g>
    <circle id="Elipse_11612" data-name="Elipse 11612" cx="16" cy="16" r="16" transform="translate(953 1660.919)" fill="url(#linear-gradient)"/>
    <g id="Grupo_1101593" data-name="Grupo 1101593" transform="translate(664 1692.744)">
      <g id="Grupo_1101588" data-name="Grupo 1101588" transform="translate(0 0.001)">
        <g id="Grupo_1101587" data-name="Grupo 1101587" clip-path="url(#clip-path-2)">
          <path id="Trazado_879143" data-name="Trazado 879143" d="M296.085,160.262c-14.377,27.1-44.471,35.678-80,35.678-62.041,0-56.2-10.8-85.7-16-44.2-7.45-106.8-4.551-127.354-52.146-13.495-38.5,20.6-80.961,51.08-102.5,96.933-64.569,308.792-.473,241.969,134.967" transform="translate(0 -0.001)" fill="#f2d9af"/>
        </g>
      </g>
      <g id="Grupo_1101590" data-name="Grupo 1101590" transform="translate(222.956 77.161)">
        <g id="Grupo_1101589" data-name="Grupo 1101589" clip-path="url(#clip-path-3)">
          <path id="Trazado_879144" data-name="Trazado 879144" d="M454.383,184.4c5.751,87.866,38.727,104.925,38.727,104.925S507.1,254.929,454.383,184.4" transform="translate(-449.822 -169.226)" fill="#ffa727"/>
          <rect id="Rectángulo_403259" data-name="Rectángulo 403259" width="0.5" height="91.737" transform="matrix(0.938, -0.346, 0.346, 0.938, 10.158, 31.057)" fill="#25292b"/>
          <path id="Trazado_879145" data-name="Trazado 879145" d="M475.007,254.228l-10.925-11.145.358-.35,10.144,10.348.988-14.457.5.034Z" transform="translate(-454.665 -196.301)" fill="#25292b"/>
          <path id="Trazado_879146" data-name="Trazado 879146" d="M507.933,343.437l-10.925-11.146.358-.35,10.144,10.349.988-14.458.5.034Z" transform="translate(-471.104 -240.841)" fill="#25292b"/>
          <path id="Trazado_879147" data-name="Trazado 879147" d="M490.41,295.961l-10.924-11.146.358-.35,10.143,10.348.988-14.457.5.034Z" transform="translate(-462.355 -217.138)" fill="#25292b"/>
          <path id="Trazado_879148" data-name="Trazado 879148" d="M568.853,184.4c-5.751,87.866-38.727,104.925-38.727,104.925S516.141,254.929,568.853,184.4" transform="translate(-486.8 -169.226)" fill="#ffa727"/>
          <rect id="Rectángulo_403260" data-name="Rectángulo 403260" width="91.737" height="0.5" transform="translate(44.216 116.944) rotate(-69.733)" fill="#25292b"/>
          <path id="Trazado_879149" data-name="Trazado 879149" d="M576.566,254.229,575.5,238.658l.5-.034.988,14.458,10.143-10.349.358.35Z" transform="translate(-510.295 -196.301)" fill="#25292b"/>
          <path id="Trazado_879150" data-name="Trazado 879150" d="M543.641,343.437l-1.064-15.571.5-.034.988,14.458,10.143-10.349.358.35Z" transform="translate(-493.856 -240.841)" fill="#25292b"/>
          <path id="Trazado_879151" data-name="Trazado 879151" d="M561.164,295.961l-1.064-15.57.5-.034.988,14.457,10.144-10.348.357.35Z" transform="translate(-502.604 -217.138)" fill="#25292b"/>
          <path id="Trazado_879152" data-name="Trazado 879152" d="M520.685,170.578c25.029,84.422,0,111.844,0,111.844s-25.029-27.422,0-111.844" transform="translate(-477.371 -162.327)" fill="#ffbd29"/>
          <rect id="Rectángulo_403261" data-name="Rectángulo 403261" width="0.501" height="91.737" transform="translate(43.063 25.094)" fill="#25292b"/>
          <path id="Trazado_879153" data-name="Trazado 879153" d="M525.406,247.2l-6.39-14.239.457-.206,5.933,13.221,5.932-13.221.457.206Z" transform="translate(-482.092 -193.371)" fill="#25292b"/>
          <path id="Trazado_879154" data-name="Trazado 879154" d="M525.406,342.29l-6.39-14.239.457-.206,5.933,13.221,5.932-13.221.457.206Z" transform="translate(-482.092 -240.848)" fill="#25292b"/>
          <path id="Trazado_879155" data-name="Trazado 879155" d="M525.406,291.684l-6.39-14.239.457-.206,5.933,13.221,5.932-13.221.457.206Z" transform="translate(-482.092 -215.581)" fill="#25292b"/>
        </g>
      </g>
      <g id="Grupo_1101592" data-name="Grupo 1101592" transform="translate(0 0.001)">
        <g id="Grupo_1101591" data-name="Grupo 1101591" clip-path="url(#clip-path-2)">
          <path id="Trazado_879156" data-name="Trazado 879156" d="M495.446,195.312h0a.251.251,0,0,1-.217-.125l-2.362-4.088a.249.249,0,0,1,0-.25l2.362-4.088a.25.25,0,0,1,.433,0l2.367,4.088a.251.251,0,0,1,0,.251l-2.367,4.088a.25.25,0,0,1-.216.125m-2.073-4.339,2.073,3.588,2.077-3.588-2.077-3.588Z" transform="translate(-246.063 -93.184)" fill="#25292b"/>
          <path id="Trazado_879157" data-name="Trazado 879157" d="M483.512,191.337a1.426,1.426,0,1,1,1.426-1.426,1.428,1.428,0,0,1-1.426,1.426m0-2.351a.925.925,0,1,0,.925.925.926.926,0,0,0-.925-.925" transform="translate(-240.697 -94.108)" fill="#25292b"/>
          <path id="Trazado_879158" data-name="Trazado 879158" d="M492.092,181.221a1.246,1.246,0,1,1,1.246-1.246,1.248,1.248,0,0,1-1.246,1.246m0-1.991a.745.745,0,1,0,.745.745.746.746,0,0,0-.745-.745" transform="translate(-245.071 -89.237)" fill="#25292b"/>
          <path id="Trazado_879159" data-name="Trazado 879159" d="M481.666,183.011a.923.923,0,1,1,.922-.922.923.923,0,0,1-.922.922m0-1.344a.422.422,0,1,0,.422.422.422.422,0,0,0-.422-.422" transform="translate(-240.027 -90.454)" fill="#25292b"/>
          <path id="Trazado_879160" data-name="Trazado 879160" d="M200.39,84.439h0a.249.249,0,0,1-.216-.125l-1.807-3.128a.249.249,0,0,1,0-.25l1.807-3.128a.25.25,0,0,1,.433,0l1.811,3.128a.249.249,0,0,1,0,.25l-1.811,3.128a.25.25,0,0,1-.217.125m-1.518-3.378,1.518,2.628,1.521-2.628-1.521-2.628Z" transform="translate(-99.024 -38.786)" fill="#25292b"/>
          <path id="Trazado_879161" data-name="Trazado 879161" d="M192.481,78.954a1.426,1.426,0,1,1,1.426-1.426,1.428,1.428,0,0,1-1.426,1.426m0-2.352a.926.926,0,1,0,.925.926.927.927,0,0,0-.925-.926" transform="translate(-95.39 -37.996)" fill="#25292b"/>
          <path id="Trazado_879162" data-name="Trazado 879162" d="M201.061,72.269a1.246,1.246,0,1,1,1.246-1.246,1.247,1.247,0,0,1-1.246,1.246m0-1.991a.745.745,0,1,0,.745.745.746.746,0,0,0-.745-.745" transform="translate(-99.764 -34.839)" fill="#25292b"/>
          <path id="Trazado_879163" data-name="Trazado 879163" d="M192.983,70.28a.922.922,0,1,1,.922-.922.923.923,0,0,1-.922.922m0-1.344a.422.422,0,1,0,.422.422.422.422,0,0,0-.422-.422" transform="translate(-95.893 -34.169)" fill="#25292b"/>
          <path id="Trazado_879164" data-name="Trazado 879164" d="M43.53,368.679h0a.251.251,0,0,1-.217-.125l-2.362-4.088a.251.251,0,0,1,0-.25l2.362-4.088a.251.251,0,0,1,.434,0l2.367,4.088a.251.251,0,0,1,0,.251l-2.367,4.088a.251.251,0,0,1-.217.125m-2.072-4.339,2.073,3.588,2.077-3.588-2.077-3.588Z" transform="translate(-20.43 -179.743)" fill="#25292b"/>
          <path id="Trazado_879165" data-name="Trazado 879165" d="M64.3,369.264a1.426,1.426,0,1,1,1.426-1.426,1.428,1.428,0,0,1-1.426,1.426m0-2.351a.925.925,0,1,0,.925.926.927.927,0,0,0-.925-.926" transform="translate(-31.394 -182.944)" fill="#25292b"/>
          <path id="Trazado_879166" data-name="Trazado 879166" d="M40.434,354.588a1.246,1.246,0,1,1,1.246-1.246,1.247,1.247,0,0,1-1.246,1.246m0-1.991a.745.745,0,1,0,.745.745.746.746,0,0,0-.745-.745" transform="translate(-19.566 -175.796)" fill="#25292b"/>
          <path id="Trazado_879167" data-name="Trazado 879167" d="M54.942,364.614a.922.922,0,1,1,.922-.922.923.923,0,0,1-.922.922m0-1.344a.422.422,0,1,0,.422.422.422.422,0,0,0-.422-.422" transform="translate(-26.971 -181.125)" fill="#25292b"/>
          <path id="Trazado_879168" data-name="Trazado 879168" d="M54.7,351.453h0a.251.251,0,0,1-.217-.125L53,348.76a.251.251,0,0,1,0-.25l1.484-2.568a.25.25,0,0,1,.433,0l1.487,2.568a.251.251,0,0,1,0,.251l-1.487,2.567a.25.25,0,0,1-.216.125m-1.194-2.818L54.7,350.7l1.2-2.067-1.2-2.067Z" transform="translate(-26.445 -172.661)" fill="#25292b"/>
          <path id="Trazado_879169" data-name="Trazado 879169" d="M29.866,374.432a.922.922,0,1,1,.922-.922.923.923,0,0,1-.922.922m0-1.344a.422.422,0,1,0,.422.422.422.422,0,0,0-.422-.422" transform="translate(-14.451 -186.027)" fill="#25292b"/>
          <path id="Trazado_879170" data-name="Trazado 879170" d="M375.585,143.193c-1.137,14.139-18.8,8.464-27.2,14.215-5.279,3.738-9.43,10.072-16.393,10.646-6.714.513-11.28-6.2-18-5.7-7.292.282-14.252,5.18-21.651,3.21-3.735-1.031-7.325-3.946-7.841-7.986-.5-3.931,2.353-6.835,4.031-10.059,4.755-11.765-16.573-9.824-1.056-29.127,2.786-3.6,2.106-8.019-1.143-11.031-4.2-5.33-4.323-13.878,3.761-15.191,6.1-1.727,11.01-5.849,16.453-8.9,12.162-7.925,30.226-1.629,33.884,12.664,1.738,5.675-.9,10.752,6.034,14.009,12.825,4.187,9.951,5.269,13.343,16.6,4.1,6.529,15.4,7.607,15.774,16.653" transform="translate(-140.662 -39.846)" fill="#25292b"/>
          <path id="Trazado_879171" data-name="Trazado 879171" d="M351.8,137.178c-1.212,4.637-4.131,7.526-8.442,6.92l3.9,16.063.446,1.828-7.336,7.531a11.529,11.529,0,0,1-18.707-3.155l.586-2.358.846-3.39-.706-.22a26.977,26.977,0,0,1-7.591-3.82,23.654,23.654,0,0,1-9.829-18.021l-.546-10.62a14.57,14.57,0,0,1,2.073-4.822,20.007,20.007,0,0,1,8.127-6.835,22.351,22.351,0,0,0,3.66,4.446c7.951,7.446,19.593,7.766,20.369,7.776l.045.005v.06a.022.022,0,0,0,.02-.015,8.929,8.929,0,0,1,5.278-2.844,8.15,8.15,0,0,1,3.16.18c4.6,1.212,5.959,6.309,4.652,11.291" transform="translate(-151.988 -58.056)" fill="#f2e9da"/>
          <path id="Trazado_879172" data-name="Trazado 879172" d="M312.31,159.592a2.352,2.352,0,1,1-2.879-1.973,2.474,2.474,0,0,1,2.879,1.973" transform="translate(-153.619 -78.668)" fill="#25292b"/>
          <path id="Trazado_879173" data-name="Trazado 879173" d="M339.941,152.98a2.352,2.352,0,1,1-2.879-1.973,2.474,2.474,0,0,1,2.879,1.973" transform="translate(-167.415 -75.367)" fill="#25292b"/>
          <path id="Trazado_879174" data-name="Trazado 879174" d="M308.327,150.039a5.547,5.547,0,0,0-4.859,2.153.718.718,0,0,0,1.092.933,4.822,4.822,0,0,1,.355-.427c.062-.066.127-.13.192-.192l.023-.02.107-.089a4.775,4.775,0,0,1,.451-.324c.078-.05.158-.1.239-.142l.039-.022.137-.066a4.926,4.926,0,0,1,.518-.2c.088-.029.177-.055.266-.079l.135-.034h0l.013,0a5.2,5.2,0,0,1,.55-.07c.093-.006.185-.01.277-.01.047,0,.093,0,.139,0h.024l.027,0a.738.738,0,0,0,.842-.569.726.726,0,0,0-.569-.842" transform="translate(-151.434 -74.905)" fill="#25292b"/>
          <path id="Trazado_879175" data-name="Trazado 879175" d="M333.057,145.423a.738.738,0,0,0,1.008.126l.023-.014.021-.011.123-.064q.125-.062.252-.117a5.187,5.187,0,0,1,.523-.186l.012,0h0l.135-.031c.091-.019.182-.036.273-.05a4.879,4.879,0,0,1,.553-.054l.152,0,.045,0c.092,0,.185.01.277.019a4.72,4.72,0,0,1,.549.085l.135.031.03.008c.087.026.173.054.258.084a4.681,4.681,0,0,1,.51.22.718.718,0,1,0,.551-1.327,5.548,5.548,0,0,0-5.307.281.726.726,0,0,0-.126,1.008" transform="translate(-166.218 -71.691)" fill="#25292b"/>
          <path id="Trazado_879176" data-name="Trazado 879176" d="M383.522,153.235a.25.25,0,0,1-.013-.5,4.046,4.046,0,0,0,2.737-6.815,2.833,2.833,0,0,0-1.9-.957,1.681,1.681,0,0,0-1.662.992.25.25,0,0,1-.483-.069,10.12,10.12,0,0,1,.153-3.339,4.657,4.657,0,0,1,1.871-2.819,2.493,2.493,0,0,1,1.984-.407,3.545,3.545,0,0,1,1.873,1.74.25.25,0,0,1-.423.269,3.107,3.107,0,0,0-1.581-1.526,2.009,2.009,0,0,0-1.58.343,4.162,4.162,0,0,0-1.659,2.521,8.419,8.419,0,0,0-.19,2.45,2.326,2.326,0,0,1,1.714-.656,3.294,3.294,0,0,1,2.243,1.114,4.548,4.548,0,0,1-3.077,7.658h-.013" transform="translate(-190.795 -69.528)" fill="#25292b"/>
          <path id="Trazado_879177" data-name="Trazado 879177" d="M336.125,200.12q-.149,0-.3-.008a10.764,10.764,0,0,1-4.7-1.7.251.251,0,0,1,.249-.435,10.072,10.072,0,0,0,4.48,1.631,7.7,7.7,0,0,0,4.46-1.4,22.472,22.472,0,0,0,3.613-3.233.251.251,0,0,1,.361.347,22.839,22.839,0,0,1-3.7,3.3,8.294,8.294,0,0,1-4.46,1.491" transform="translate(-165.26 -97.311)" fill="#25292b"/>
          <path id="Trazado_879178" data-name="Trazado 879178" d="M334.479,179.774a.25.25,0,0,1-.023-.5,3.749,3.749,0,0,0,3.4-3.9.25.25,0,0,1,.239-.261h.011a.25.25,0,0,1,.25.239,4.249,4.249,0,0,1-3.853,4.423h-.023" transform="translate(-166.875 -87.43)" fill="#25292b"/>
          <path id="Trazado_879179" data-name="Trazado 879179" d="M323.213,167.127a.249.249,0,0,1-.25-.249l-.066-10.926a.25.25,0,0,1,.249-.252h0a.25.25,0,0,1,.25.249l.063,10.542,4.524-2.027a.25.25,0,1,1,.2.457l-4.874,2.185a.25.25,0,0,1-.1.022" transform="translate(-161.217 -77.739)" fill="#25292b"/>
          <path id="Trazado_879180" data-name="Trazado 879180" d="M295.783,157.419c-4.958,0-8.992-5.033-8.992-11.219s4.034-11.219,8.992-11.219,8.991,5.033,8.991,11.219-4.034,11.219-8.991,11.219m0-21.437c-4.406,0-7.99,4.584-7.99,10.218s3.585,10.218,7.99,10.218,7.99-4.584,7.99-10.218-3.584-10.218-7.99-10.218" transform="translate(-143.19 -67.394)" fill="#ffbd29"/>
          <path id="Trazado_879181" data-name="Trazado 879181" d="M333.013,149.245c-4.958,0-8.992-5.033-8.992-11.219s4.034-11.219,8.992-11.219S342,131.84,342,138.026s-4.034,11.219-8.991,11.219m0-21.436c-4.406,0-7.99,4.583-7.99,10.217s3.585,10.218,7.99,10.218S341,143.66,341,138.026s-3.584-10.217-7.99-10.217" transform="translate(-161.778 -63.313)" fill="#ffbd29"/>
          <path id="Trazado_879182" data-name="Trazado 879182" d="M357.843,142.142a.5.5,0,0,1-.1-.991l7.227-1.45a.5.5,0,0,1,.2.982l-7.227,1.45a.476.476,0,0,1-.1.01" transform="translate(-178.415 -69.746)" fill="#ffbd29"/>
          <path id="Trazado_879183" data-name="Trazado 879183" d="M321.083,154.654a.5.5,0,0,1-.053-1l1.721-.184a.5.5,0,1,1,.107,1l-1.722.184a.485.485,0,0,1-.054,0" transform="translate(-160.062 -76.625)" fill="#ffbd29"/>
          <path id="Trazado_879184" data-name="Trazado 879184" d="M336.18,297.752H198.833V283.347l36.537-10.235,6.484-42.316a23.683,23.683,0,0,1,15.537-18.752l12.132-4.281-.586,2.358a11.529,11.529,0,0,0,18.707,3.155l7.336-7.531-.446-1.828L326.04,205.1a23.684,23.684,0,0,1,20.89,21.676l4.3,54.693a15.092,15.092,0,0,1-15.047,16.278" transform="translate(-99.274 -101.813)" fill="#ffbd29"/>
          <path id="Trazado_879185" data-name="Trazado 879185" d="M336.789,211.944l-2.06,87.631h21.249l6.853-92.007Z" transform="translate(-167.124 -103.636)" fill="#f2e9da"/>
          <path id="Trazado_879186" data-name="Trazado 879186" d="M347.482,224.758a.251.251,0,0,1-.157-.055,31.125,31.125,0,0,1-8.97-12.93.251.251,0,0,1,.477-.155,30.634,30.634,0,0,0,8.688,12.6c1.18-.542,9.868-4.848,16.9-17.023a.25.25,0,1,1,.433.25c-7.612,13.181-17.179,17.255-17.275,17.295a.255.255,0,0,1-.1.019" transform="translate(-168.929 -103.386)" fill="#25292b"/>
          <path id="Trazado_879187" data-name="Trazado 879187" d="M308.2,326.639a.25.25,0,0,1-.249-.226l-2.227-23.256c-.49-.776-5.381-8.641-6.123-13.968-.765-5.491,5.846-26.834,6.127-27.739a.251.251,0,0,1,.479.149c-.069.221-6.859,22.141-6.11,27.521s6.029,13.736,6.082,13.82a.256.256,0,0,1,.038.111l2.233,23.315a.251.251,0,0,1-.225.273H308.2" transform="translate(-149.557 -130.45)" fill="#25292b"/>
          <path id="Trazado_879188" data-name="Trazado 879188" d="M386.367,274.888a.25.25,0,0,1-.23-.349c.14-.327,13.97-32.819,14.039-46.116.068-13.26-7.244-23.6-7.318-23.705a.25.25,0,1,1,.407-.292c.075.1,7.481,10.573,7.412,24-.07,13.4-13.939,45.982-14.079,46.309a.25.25,0,0,1-.23.152" transform="translate(-192.782 -102.015)" fill="#25292b"/>
          <path id="Trazado_879189" data-name="Trazado 879189" d="M324.894,278.8a.25.25,0,0,1-.237-.17c-.073-.215-7.3-21.735-7.782-38.491-.484-16.814,7.043-25.856,7.118-25.945a.25.25,0,1,1,.382.324c-.075.088-7.477,9-7,25.606.48,16.68,7.683,38.131,7.756,38.345a.251.251,0,0,1-.157.317.263.263,0,0,1-.08.013" transform="translate(-158.199 -106.899)" fill="#25292b"/>
          <path id="Trazado_879190" data-name="Trazado 879190" d="M326.37,349.749l-25.4-1.6s-4.6-.707-6.194,2.088c0,0-5.672-1.566-8,1.044a5.587,5.587,0,0,0-6.751,2.436c-2.645,4.106-7.378,12.945-7.378,12.945h27.978s2.366,2.784,12.18,2.784,12.434-3.139,12.434-3.139Z" transform="translate(-136.125 -173.785)" fill="#f2e9da"/>
          <path id="Trazado_879191" data-name="Trazado 879191" d="M357.12,350H357.1l-22.64-1.427a.25.25,0,0,1-.234-.265.235.235,0,0,1,.265-.234l22.64,1.427a.25.25,0,0,1-.016.5" transform="translate(-166.875 -173.787)" fill="#25292b"/>
          <path id="Trazado_879192" data-name="Trazado 879192" d="M376.917,328.791H376.9a.251.251,0,0,1-.231-.268l1.611-21.628a.249.249,0,0,1,.23-.231l33.754-2.64-5.806-38.152a.25.25,0,0,1,.495-.076l5.846,38.419a.249.249,0,0,1-.228.287l-33.808,2.645-1.6,21.414a.25.25,0,0,1-.249.232" transform="translate(-188.063 -132.601)" fill="#25292b"/>
          <path id="Trazado_879193" data-name="Trazado 879193" d="M391.65,369.26a.291.291,0,0,1-.046,0,.251.251,0,0,1-.2-.292l3.8-20.682a.251.251,0,0,1,.493.091l-3.8,20.682a.251.251,0,0,1-.246.2" transform="translate(-195.419 -173.79)" fill="#25292b"/>
          <path id="Trazado_879194" data-name="Trazado 879194" d="M325.62,379.271c-8.4,0-11.75-2.348-12.293-2.777h-9.962c-.088.011-2.758.262-4.2-1.044a2.743,2.743,0,0,1-.891-2.13,3.416,3.416,0,0,1,2.493-3.481l18.567-2.578a.255.255,0,0,1,.282.213.251.251,0,0,1-.214.282l-18.548,2.575a2.881,2.881,0,0,0-2.08,2.989,2.263,2.263,0,0,0,.726,1.758c1.277,1.157,3.815.919,3.841.917h10.077a.251.251,0,0,1,.165.062c.036.031,3.755,3.143,14.254,2.663a.239.239,0,0,1,.261.238.25.25,0,0,1-.238.262q-1.175.054-2.24.053" transform="translate(-148.923 -183.366)" fill="#25292b"/>
          <path id="Trazado_879195" data-name="Trazado 879195" d="M291.921,368.825a.244.244,0,0,1-.059-.008.249.249,0,0,1-.184-.3l.65-2.672a13.751,13.751,0,0,1,4.145-6.965l7.633-6.915a.25.25,0,0,1,.336.371l-7.633,6.915a13.261,13.261,0,0,0-4,6.713l-.65,2.672a.249.249,0,0,1-.243.191" transform="translate(-145.626 -175.698)" fill="#25292b"/>
          <path id="Trazado_879196" data-name="Trazado 879196" d="M284.066,369.866a.251.251,0,0,1-.24-.321l1.583-5.367a13.74,13.74,0,0,1,2.439-4.691l4.3-5.408a.251.251,0,0,1,.393.312l-4.3,5.408a13.229,13.229,0,0,0-2.351,4.521l-1.584,5.368a.25.25,0,0,1-.24.179" transform="translate(-141.704 -176.738)" fill="#25292b"/>
          <rect id="Rectángulo_403263" data-name="Rectángulo 403263" width="112.308" height="3.898" transform="translate(51.955 192.876)" fill="#25292b"/>
          <path id="Trazado_879197" data-name="Trazado 879197" d="M78.8,323.576H155.83l-25.036-61.8H53.76Z" transform="translate(-26.842 -130.699)" fill="#25292b"/>
          <path id="Trazado_879198" data-name="Trazado 879198" d="M176.962,325.729H104.511a.25.25,0,0,1,0-.5h72.075l-24.7-59.3a.251.251,0,1,1,.463-.192l24.847,59.645a.251.251,0,0,1-.231.346" transform="translate(-52.056 -132.602)" fill="#f2e9da"/>
          <path id="Trazado_879199" data-name="Trazado 879199" d="M283.219,391.319H12.006a.25.25,0,0,1,0-.5H283.219a.25.25,0,1,1,0,.5" transform="translate(-5.87 -195.129)" fill="#25292b"/>
          <path id="Trazado_879200" data-name="Trazado 879200" d="M459.036,68.156a15.471,15.471,0,0,0-17.34-13.63,20.257,20.257,0,0,0-19.152-13.144,19.988,19.988,0,0,0-20.179,17.56,16.418,16.418,0,0,0-12.4,15.632,15.777,15.777,0,0,0,4.271,10.75.243.243,0,0,0,.185.08h73.02a.248.248,0,0,0,.215-.12,11.2,11.2,0,0,0,1.637-5.833,11.39,11.39,0,0,0-10.255-11.3M467.3,84.905H394.529a15.265,15.265,0,0,1-4.066-10.33,15.931,15.931,0,0,1,12.2-15.192.246.246,0,0,0,.185-.215,19.483,19.483,0,0,1,19.7-17.285,19.744,19.744,0,0,1,18.747,13,.254.254,0,0,0,.275.165,15.347,15.347,0,0,1,2.118-.145A14.745,14.745,0,0,1,458.55,68.4a.251.251,0,0,0,.225.23A10.9,10.9,0,0,1,468.79,79.453a10.691,10.691,0,0,1-1.492,5.453" transform="translate(-194.701 -20.662)" fill="#25292b"/>
          <path id="Trazado_879201" data-name="Trazado 879201" d="M228.968,47.952a.25.25,0,0,1-.25-.25V45.815a.25.25,0,1,1,.5,0V47.7a.25.25,0,0,1-.25.25m0-4.892a.25.25,0,0,1-.25-.25v-3a.25.25,0,1,1,.5,0v3a.25.25,0,0,1-.25.25m79.009-5.583a7.434,7.434,0,0,1-2.389-.387.25.25,0,1,1,.159-.474,6.912,6.912,0,0,0,2.209.36c.233,0,.443-.01.651-.029a.259.259,0,0,1,.272.227.25.25,0,0,1-.227.272q-.333.03-.675.031m-28.729-.018a7.42,7.42,0,0,1-2.121-.307.25.25,0,0,1,.143-.48,6.978,6.978,0,0,0,2.869.23.251.251,0,0,1,.064.5,7.6,7.6,0,0,1-.954.061m-28.729,0a7.505,7.505,0,0,1-1.832-.222.25.25,0,0,1,.121-.486,7.147,7.147,0,0,0,2.878.109.255.255,0,0,1,.289.206.251.251,0,0,1-.206.288,7.556,7.556,0,0,1-1.25.1m-21.552-.408a.25.25,0,0,1-.25-.25v-3a.25.25,0,1,1,.5,0v3a.25.25,0,0,1-.25.25m82.51-.485a.25.25,0,0,1-.123-.469,6.921,6.921,0,0,0,2.166-1.9.25.25,0,1,1,.4.3,7.425,7.425,0,0,1-2.322,2.033.251.251,0,0,1-.122.032m-28.494-.155a.25.25,0,0,1-.13-.464,7.008,7.008,0,0,0,2.092-1.976.25.25,0,0,1,.412.285,7.519,7.519,0,0,1-2.243,2.118.253.253,0,0,1-.131.037M254.5,36.257a.25.25,0,0,1-.139-.459,7.012,7.012,0,0,0,2.012-2.058.25.25,0,0,1,.423.268,7.511,7.511,0,0,1-2.157,2.207.249.249,0,0,1-.139.042m-8.428-.325a.249.249,0,0,1-.155-.054,7.393,7.393,0,0,1-1.981-2.365.25.25,0,0,1,.442-.235,7,7,0,0,0,1.848,2.206.25.25,0,0,1-.154.448m28.509-.2a.248.248,0,0,1-.163-.06,7.4,7.4,0,0,1-1.877-2.448.25.25,0,1,1,.452-.216,6.9,6.9,0,0,0,1.751,2.283.25.25,0,0,1-.163.441m28.52-.149a.251.251,0,0,1-.17-.066,7.407,7.407,0,0,1-1.79-2.512.25.25,0,1,1,.46-.2,6.88,6.88,0,0,0,1.67,2.342.25.25,0,0,1-.17.435M314.976,31.9a.261.261,0,0,1-.055-.006.25.25,0,0,1-.189-.3,7.016,7.016,0,0,0,.172-1.543V28.658a.25.25,0,0,1,.5,0v1.393a7.468,7.468,0,0,1-.185,1.653.25.25,0,0,1-.244.195M286.3,31.614a.251.251,0,0,1-.246-.3,7.034,7.034,0,0,0,.119-1.285V28.368a.25.25,0,1,1,.5,0v1.665a7.51,7.51,0,0,1-.128,1.377.25.25,0,0,1-.245.2m-28.681-.285-.036,0a.251.251,0,0,1-.212-.284,7.1,7.1,0,0,0,.073-1.009V28.078a.25.25,0,0,1,.5,0v1.955a7.59,7.59,0,0,1-.078,1.081.251.251,0,0,1-.247.215m-28.654-.285a.25.25,0,0,1-.25-.25v-3a.25.25,0,1,1,.5,0v3a.25.25,0,0,1-.25.25m14.371-.264a.251.251,0,0,1-.249-.233c-.012-.17-.018-.34-.018-.513V27.525a.25.25,0,1,1,.5,0v2.508c0,.161.006.32.017.479a.251.251,0,0,1-.232.267h-.018m28.735-.309a.251.251,0,0,1-.25-.245l0-.192V27.215a.25.25,0,1,1,.5,0l0,3a.251.251,0,0,1-.244.256Zm28.705-.233a.25.25,0,0,1-.25-.25v-3a.25.25,0,1,1,.5,0v3a.25.25,0,0,1-.25.25M315.154,25.9a.25.25,0,0,1-.25-.25v-3a.25.25,0,0,1,.5,0v3a.25.25,0,0,1-.25.25m-28.729-.29a.25.25,0,0,1-.25-.25v-3a.25.25,0,1,1,.5,0v3a.25.25,0,0,1-.25.25m-28.729-.29a.25.25,0,0,1-.25-.25v-3a.25.25,0,0,1,.5,0v3a.25.25,0,0,1-.25.25m-28.729-.289a.25.25,0,0,1-.25-.25v-3a.25.25,0,1,1,.5,0v3a.25.25,0,0,1-.25.25m14.354-.264a.25.25,0,0,1-.25-.25v-3a.25.25,0,1,1,.5,0v3a.25.25,0,0,1-.25.25m28.749-.31a.25.25,0,0,1-.25-.25v-3a.25.25,0,1,1,.5,0v3a.25.25,0,0,1-.25.25m28.708-.233a.25.25,0,0,1-.25-.25v-3a.25.25,0,1,1,.5,0v3a.25.25,0,0,1-.25.25m28.75-.31a.25.25,0,0,1-.25-.25v-3a.25.25,0,0,1,.5,0v3a.25.25,0,0,1-.25.25M315.154,19.9a.25.25,0,0,1-.25-.25v-3a.25.25,0,0,1,.5,0v3a.25.25,0,0,1-.25.25m-28.729-.29a.25.25,0,0,1-.25-.25v-3a.25.25,0,1,1,.5,0v3a.25.25,0,0,1-.25.25m-28.729-.29a.25.25,0,0,1-.25-.25v-3a.25.25,0,0,1,.5,0v3a.25.25,0,0,1-.25.25m-28.729-.289a.25.25,0,0,1-.25-.25v-3a.25.25,0,1,1,.5,0v3a.25.25,0,0,1-.25.25m14.354-.264a.25.25,0,0,1-.25-.25v-3a.25.25,0,1,1,.5,0v3a.25.25,0,0,1-.25.25m28.749-.31a.25.25,0,0,1-.25-.25v-3a.25.25,0,1,1,.5,0v3a.25.25,0,0,1-.25.25m28.708-.233a.25.25,0,0,1-.25-.25v-3a.25.25,0,1,1,.5,0v3a.25.25,0,0,1-.25.25m28.75-.31a.25.25,0,0,1-.25-.25v-3a.25.25,0,0,1,.5,0v3a.25.25,0,0,1-.25.25m-14.375-4.023a.25.25,0,0,1-.25-.25v-.22a7.388,7.388,0,0,1,.55-2.81.25.25,0,1,1,.464.19,6.892,6.892,0,0,0-.513,2.62v.22a.25.25,0,0,1-.25.25m-28.728-.29h0a.25.25,0,0,1-.248-.252,7.372,7.372,0,0,1,.668-3.012.251.251,0,1,1,.456.208,6.879,6.879,0,0,0-.623,2.809.25.25,0,0,1-.25.248m-28.721-.289h-.012a.249.249,0,0,1-.238-.261,7.35,7.35,0,0,1,.782-2.985.25.25,0,0,1,.447.226,6.859,6.859,0,0,0-.73,2.783.25.25,0,0,1-.25.238M229,13.018h-.022a.25.25,0,0,1-.228-.271,7.337,7.337,0,0,1,.9-2.951.25.25,0,1,1,.438.243,6.825,6.825,0,0,0-.842,2.75.25.25,0,0,1-.249.229m14.27-.262a.251.251,0,0,1-.248-.22,6.841,6.841,0,0,0-.943-2.718.25.25,0,0,1,.429-.259,7.34,7.34,0,0,1,1.011,2.916.25.25,0,0,1-.218.279l-.031,0m28.705-.306a.25.25,0,0,1-.246-.209,6.846,6.846,0,0,0-1.06-2.674.25.25,0,1,1,.417-.278,7.343,7.343,0,0,1,1.137,2.869.25.25,0,0,1-.205.289.3.3,0,0,1-.042,0m28.661-.229a.251.251,0,0,1-.245-.2,6.849,6.849,0,0,0-1.153-2.637.25.25,0,0,1,.407-.291,7.337,7.337,0,0,1,1.237,2.828.252.252,0,0,1-.2.3.294.294,0,0,1-.051,0m28.682-.3a.251.251,0,0,1-.243-.19,6.855,6.855,0,0,0-1.266-2.584.25.25,0,1,1,.394-.309,7.35,7.35,0,0,1,1.358,2.771.251.251,0,0,1-.243.311M317.363,8.487a.25.25,0,0,1-.173-.431,7.385,7.385,0,0,1,2.621-1.628.25.25,0,1,1,.17.471,6.885,6.885,0,0,0-2.445,1.519.251.251,0,0,1-.173.069m-28.515-.2a.25.25,0,0,1-.166-.438,7.358,7.358,0,0,1,2.685-1.522.25.25,0,1,1,.151.477,6.861,6.861,0,0,0-2.5,1.419.248.248,0,0,1-.166.063M260.326,8.1A.248.248,0,0,1,260.133,8a.251.251,0,0,1,.035-.353,7.364,7.364,0,0,1,2.741-1.418.25.25,0,0,1,.132.483,6.856,6.856,0,0,0-2.555,1.322.251.251,0,0,1-.159.057m-28.5-.178a.251.251,0,0,1-.151-.451,7.367,7.367,0,0,1,2.8-1.306.25.25,0,1,1,.112.488,6.854,6.854,0,0,0-2.606,1.219.254.254,0,0,1-.151.051m8.428-.155a.249.249,0,0,1-.143-.045,6.848,6.848,0,0,0-2.65-1.121.25.25,0,1,1,.1-.492,7.348,7.348,0,0,1,2.842,1.2.25.25,0,0,1-.144.456m28.492-.172a.249.249,0,0,1-.135-.039,6.844,6.844,0,0,0-2.7-1,.251.251,0,0,1-.211-.284.254.254,0,0,1,.284-.211,7.346,7.346,0,0,1,2.891,1.078.25.25,0,0,1-.134.462m28.493-.113a.25.25,0,0,1-.127-.035,6.856,6.856,0,0,0-2.729-.909.25.25,0,0,1-.221-.277.253.253,0,0,1,.276-.221,7.348,7.348,0,0,1,2.928.975.25.25,0,0,1-.127.466m28.479-.151a.245.245,0,0,1-.117-.03,6.865,6.865,0,0,0-2.767-.79.251.251,0,0,1-.233-.267.246.246,0,0,1,.267-.233,7.353,7.353,0,0,1,2.967.848.25.25,0,0,1-.117.471" transform="translate(-114.195 -2.999)" fill="#25292b"/>
          <path id="Trazado_879202" data-name="Trazado 879202" d="M458.738,158.387a.25.25,0,0,1-.25-.25v-3a.25.25,0,1,1,.5,0v3a.25.25,0,0,1-.25.25m0-6.009a.25.25,0,0,1-.25-.25v-3a.25.25,0,1,1,.5,0v3a.25.25,0,0,1-.25.25m0-6.009a.25.25,0,0,1-.25-.25v-3a.25.25,0,1,1,.5,0v3a.25.25,0,0,1-.25.25m0-6.009a.25.25,0,0,1-.25-.25v-3a.25.25,0,1,1,.5,0v3a.25.25,0,0,1-.25.25m0-6.009a.25.25,0,0,1-.25-.25v-3a.25.25,0,1,1,.5,0v3a.25.25,0,0,1-.25.25" transform="translate(-228.915 -65.331)" fill="#25292b"/>
          <rect id="Rectángulo_403264" data-name="Rectángulo 403264" width="62.638" height="38.741" transform="translate(6.589 86.955)" fill="#f2e9da"/>
          <rect id="Rectángulo_403265" data-name="Rectángulo 403265" width="58.462" height="8.143" transform="translate(8.678 88.353)" fill="#ffbd29"/>
          <path id="Trazado_879203" data-name="Trazado 879203" d="M109.411,184.594a.349.349,0,0,1-.218-.077l-3.043-2.431a.35.35,0,0,1,0-.547l3-2.4a.35.35,0,0,1,.437.548l-2.661,2.126,2.7,2.157a.35.35,0,0,1-.219.624" transform="translate(-52.933 -89.403)" fill="#f2e9da"/>
          <path id="Trazado_879204" data-name="Trazado 879204" d="M121.754,184.594a.35.35,0,0,1-.219-.624l2.7-2.157-2.661-2.126a.35.35,0,0,1,.437-.548l3,2.4a.35.35,0,0,1,0,.547l-3.043,2.431a.349.349,0,0,1-.218.077" transform="translate(-60.614 -89.403)" fill="#f2e9da"/>
          <path id="Trazado_879205" data-name="Trazado 879205" d="M115.687,184.592a.351.351,0,0,1-.382-.45l1.883-6.122a.35.35,0,0,1,.67.206l-1.883,6.122a.351.351,0,0,1-.288.244" transform="translate(-57.562 -88.759)" fill="#f2e9da"/>
          <rect id="Rectángulo_403266" data-name="Rectángulo 403266" width="31.428" height="2.575" transform="translate(8.678 102.133)" fill="#ffa727"/>
          <rect id="Rectángulo_403267" data-name="Rectángulo 403267" width="15.296" height="2.575" transform="translate(41.533 102.133)" fill="#ffbd29"/>
          <rect id="Rectángulo_403268" data-name="Rectángulo 403268" width="8.74" height="2.575" transform="translate(58.401 102.133)" fill="#25292b"/>
          <path id="Trazado_879206" data-name="Trazado 879206" d="M112.894,218.227H91.48v-2.575h21.414" transform="translate(-45.674 -107.672)" fill="#ffa727"/>
          <rect id="Rectángulo_403269" data-name="Rectángulo 403269" width="15.296" height="2.575" transform="translate(29.082 107.98)" fill="#ffbd29"/>
          <path id="Trazado_879207" data-name="Trazado 879207" d="M17.489,215.652H36.243v2.575H17.489" transform="translate(-8.732 -107.672)" fill="#25292b"/>
          <rect id="Rectángulo_403270" data-name="Rectángulo 403270" width="11.399" height="2.575" transform="translate(8.758 114.313)" fill="#ffbd29"/>
          <rect id="Rectángulo_403271" data-name="Rectángulo 403271" width="31.82" height="2.575" transform="translate(21.583 114.313)" fill="#ffa727"/>
          <rect id="Rectángulo_403272" data-name="Rectángulo 403272" width="12.245" height="2.575" transform="translate(54.975 114.313)" fill="#25292b"/>
          <path id="Trazado_879208" data-name="Trazado 879208" d="M125.035,242.551h-9.4v-2.575h9.4" transform="translate(-57.736 -119.816)" fill="#ffa727"/>
          <rect id="Rectángulo_403273" data-name="Rectángulo 403273" width="27.314" height="2.575" transform="translate(29.162 120.16)" fill="#ffbd29"/>
          <path id="Trazado_879209" data-name="Trazado 879209" d="M17.648,239.976H36.4v2.575H17.648" transform="translate(-8.811 -119.816)" fill="#25292b"/>
          <path id="Trazado_879210" data-name="Trazado 879210" d="M73.444,111.857v11.371a6.026,6.026,0,0,1-6.009,6.009H56.58l-8.927,8.4,1.285-8.4H18.265a6.026,6.026,0,0,1-6.009-6.009V111.857a6.026,6.026,0,0,1,6.009-6.009h49.17a6.026,6.026,0,0,1,6.009,6.009" transform="translate(-6.119 -52.849)" fill="#ffa727"/>
          <path id="Trazado_879211" data-name="Trazado 879211" d="M45.1,121.534a4.493,4.493,0,0,1-.719,2.515,4.709,4.709,0,0,1-2.073,1.708,7.678,7.678,0,0,1-3.177.609,12.867,12.867,0,0,1-2.552-.213,9.474,9.474,0,0,1-2.146-.745v-3.666a12.23,12.23,0,0,0,2.448.942,9.094,9.094,0,0,0,2.333.339,2.267,2.267,0,0,0,1.344-.318.977.977,0,0,0,.427-.818.9.9,0,0,0-.172-.547,2.015,2.015,0,0,0-.552-.474q-.381-.24-2.026-.979A9.706,9.706,0,0,1,36,118.575a4.024,4.024,0,0,1-1.1-1.459,4.833,4.833,0,0,1-.36-1.947,3.9,3.9,0,0,1,1.531-3.281,6.75,6.75,0,0,1,4.208-1.177A11.811,11.811,0,0,1,45.1,111.8l-1.26,3.177A9.138,9.138,0,0,0,40.153,114a1.923,1.923,0,0,0-1.167.281.851.851,0,0,0-.365.7,1.008,1.008,0,0,0,.463.8,17.7,17.7,0,0,0,2.516,1.291,6.964,6.964,0,0,1,2.734,1.9,4.13,4.13,0,0,1,.766,2.557" transform="translate(-17.192 -55.277)" fill="#f2e9da"/>
          <path id="Trazado_879212" data-name="Trazado 879212" d="M74.126,118.5q0,5.177-3.291,6.979l3.718,4.281H69.428l-2.687-3.385-.011-.011v-.011l-.01-.01a7.225,7.225,0,0,1-5.495-2.01,9.87,9.87,0,0,1-.01-11.661,7.255,7.255,0,0,1,5.525-2,7.214,7.214,0,0,1,5.51,1.989,8.22,8.22,0,0,1,1.875,5.843m-10.479,0q0,4.416,3.073,4.417a2.642,2.642,0,0,0,2.317-1.073,7.789,7.789,0,0,0-.011-6.713,2.611,2.611,0,0,0-2.286-1.089q-3.094,0-3.093,4.458" transform="translate(-29.614 -55.256)" fill="#f2e9da"/>
          <path id="Trazado_879213" data-name="Trazado 879213" d="M94.387,126.377V111.148H98.5v11.906h5.864v3.323Z" transform="translate(-47.126 -55.495)" fill="#f2e9da"/>
          <rect id="Rectángulo_403274" data-name="Rectángulo 403274" width="62.638" height="77.399" transform="translate(73.057 48.296)" fill="#f2e9da"/>
          <rect id="Rectángulo_403275" data-name="Rectángulo 403275" width="58.462" height="8.143" transform="translate(75.145 49.694)" fill="#ffbd29"/>
          <path id="Trazado_879214" data-name="Trazado 879214" d="M242.155,107.387a.349.349,0,0,1-.218-.077l-3.043-2.431a.35.35,0,0,1,0-.547l3-2.4a.35.35,0,0,1,.437.548l-2.661,2.126,2.7,2.157a.35.35,0,0,1-.219.624" transform="translate(-119.21 -50.855)" fill="#f2e9da"/>
          <path id="Trazado_879215" data-name="Trazado 879215" d="M254.5,107.387a.35.35,0,0,1-.219-.624l2.7-2.157-2.661-2.126a.35.35,0,0,1,.437-.548l3,2.4a.35.35,0,0,1,0,.547l-3.043,2.431a.349.349,0,0,1-.218.077" transform="translate(-126.891 -50.855)" fill="#f2e9da"/>
          <path id="Trazado_879216" data-name="Trazado 879216" d="M248.431,107.386a.351.351,0,0,1-.382-.45l1.883-6.122a.35.35,0,0,1,.67.206l-1.883,6.122a.351.351,0,0,1-.288.244" transform="translate(-123.839 -50.211)" fill="#f2e9da"/>
          <rect id="Rectángulo_403276" data-name="Rectángulo 403276" width="24.664" height="2.575" transform="translate(85.535 106.702)" fill="#ffbd29"/>
          <rect id="Rectángulo_403277" data-name="Rectángulo 403277" width="8.74" height="2.575" transform="translate(75.224 106.702)" fill="#25292b"/>
          <path id="Trazado_879217" data-name="Trazado 879217" d="M150.075,201.423h21.414V204H150.075" transform="translate(-74.93 -100.567)" fill="#25292b"/>
          <rect id="Rectángulo_403278" data-name="Rectángulo 403278" width="15.296" height="2.575" transform="translate(97.986 100.855)" fill="#ffbd29"/>
          <path id="Trazado_879218" data-name="Trazado 879218" d="M248.131,204H229.377v-2.575h18.754" transform="translate(-114.524 -100.567)" fill="#ffa727"/>
          <rect id="Rectángulo_403279" data-name="Rectángulo 403279" width="11.399" height="2.575" transform="translate(122.208 94.522)" fill="#ffbd29"/>
          <rect id="Rectángulo_403280" data-name="Rectángulo 403280" width="31.82" height="2.575" transform="translate(88.961 94.522)" fill="#ffa727"/>
          <rect id="Rectángulo_403281" data-name="Rectángulo 403281" width="12.245" height="2.575" transform="translate(75.145 94.522)" fill="#25292b"/>
          <rect id="Rectángulo_403282" data-name="Rectángulo 403282" width="7.569" height="2.575" transform="translate(105.634 88.676)" fill="#ffbd29"/>
          <path id="Trazado_879219" data-name="Trazado 879219" d="M247.973,179.674H229.219V177.1h18.754" transform="translate(-114.445 -88.423)" fill="#25292b"/>
          <rect id="Rectángulo_403283" data-name="Rectángulo 403283" width="28.132" height="2.575" transform="translate(105.634 81.501)" fill="#ffa727"/>
          <rect id="Rectángulo_403284" data-name="Rectángulo 403284" width="7.728" height="2.575" transform="translate(105.634 75.654)" fill="#25292b"/>
          <path id="Trazado_879220" data-name="Trazado 879220" d="M248.322,153.668H229.568l-.033-2.575H248.29" transform="translate(-114.603 -75.438)" fill="#ffbd29"/>
          <rect id="Rectángulo_403285" data-name="Rectángulo 403285" width="11.399" height="2.575" transform="translate(122.287 69.321)" fill="#ffbd29"/>
          <rect id="Rectángulo_403286" data-name="Rectángulo 403286" width="15.226" height="2.575" transform="translate(105.634 69.321)" fill="#ffa727"/>
          <rect id="Rectángulo_403287" data-name="Rectángulo 403287" width="7.648" height="2.575" transform="translate(105.634 63.475)" fill="#ffbd29"/>
          <path id="Trazado_879221" data-name="Trazado 879221" d="M248.131,129.344H229.377v-2.575h18.754" transform="translate(-114.524 -63.294)" fill="#25292b"/>
          <path id="Trazado_879222" data-name="Trazado 879222" d="M149.787,237.947H171.2v2.575H149.787" transform="translate(-74.786 -118.803)" fill="#ffa727"/>
          <rect id="Rectángulo_403288" data-name="Rectángulo 403288" width="12.358" height="2.575" transform="translate(97.841 119.144)" fill="#25292b"/>
          <rect id="Rectángulo_403289" data-name="Rectángulo 403289" width="12.245" height="2.575" transform="translate(75.001 112.811)" fill="#25292b"/>
          <path id="Trazado_879223" data-name="Trazado 879223" d="M250.647,218.135v21.2a1.227,1.227,0,0,1-1.222,1.222H227.379a1.228,1.228,0,0,1-1.227-1.222v-21.2a1.228,1.228,0,0,1,1.227-1.222h22.047a1.227,1.227,0,0,1,1.222,1.222" transform="translate(-112.914 -108.301)" fill="#ffa727"/>
          <path id="Trazado_879224" data-name="Trazado 879224" d="M198.727,227.874H177.31V225.3h21.417" transform="translate(-88.528 -112.488)" fill="#ffa727"/>
          <path id="Trazado_879225" data-name="Trazado 879225" d="M250.831,239.5H231.4a.975.975,0,0,1-.974-.974V221.269a.975.975,0,0,1,.974-.974h19.432a.975.975,0,0,1,.974.974V238.53a.975.975,0,0,1-.974.974M231.4,220.8a.474.474,0,0,0-.474.473V238.53a.474.474,0,0,0,.474.473h19.432a.474.474,0,0,0,.473-.473V221.269a.474.474,0,0,0-.473-.473Z" transform="translate(-115.047 -109.99)" fill="#f2e9da"/>
          <path id="Trazado_879226" data-name="Trazado 879226" d="M239.468,239.491a.477.477,0,0,1-.334-.145l-4.659-4.59a.763.763,0,0,1,0-1.034l4.6-4.531a.471.471,0,0,1,.754.1.77.77,0,0,1-.085.929l-4.074,4.015,4.134,4.074a.77.77,0,0,1,.085.929.5.5,0,0,1-.42.249" transform="translate(-116.968 -114.359)" fill="#f2e9da"/>
          <path id="Trazado_879227" data-name="Trazado 879227" d="M258.364,239.491a.5.5,0,0,1-.42-.249.77.77,0,0,1,.085-.929l4.134-4.074-4.075-4.015A.77.77,0,0,1,258,229.3a.471.471,0,0,1,.754-.1l4.6,4.531a.763.763,0,0,1,0,1.034l-4.659,4.59a.477.477,0,0,1-.335.145" transform="translate(-128.728 -114.359)" fill="#f2e9da"/>
          <path id="Trazado_879228" data-name="Trazado 879228" d="M249.078,239.488a.435.435,0,0,1-.23-.024.7.7,0,0,1-.355-.827l2.883-11.561a.527.527,0,0,1,.67-.438.7.7,0,0,1,.355.827l-2.883,11.561a.583.583,0,0,1-.441.461" transform="translate(-124.056 -113.143)" fill="#f2e9da"/>
          <rect id="Rectángulo_403290" data-name="Rectángulo 403290" width="28.025" height="8.166" transform="translate(75.304 61.949)" fill="#ffbd29"/>
          <rect id="Rectángulo_403291" data-name="Rectángulo 403291" width="28.025" height="8.166" transform="translate(75.304 72.656)" fill="#ffbd29"/>
          <rect id="Rectángulo_403292" data-name="Rectángulo 403292" width="28.025" height="8.166" transform="translate(75.304 83.235)" fill="#ffbd29"/>
          <path id="Trazado_879229" data-name="Trazado 879229" d="M178.408,142.559H156.4V140.91h22.007Zm-21.506-.5h21.005v-.647H156.9Z" transform="translate(-78.088 -70.354)" fill="#25292b"/>
          <path id="Trazado_879230" data-name="Trazado 879230" d="M178.408,164H156.4v-1.649h22.007Zm-21.506-.5h21.005v-.647H156.9Z" transform="translate(-78.088 -81.061)" fill="#25292b"/>
          <path id="Trazado_879231" data-name="Trazado 879231" d="M155.753,132.068a2.182,2.182,0,1,1,2.182-2.182,2.184,2.184,0,0,1-2.182,2.182m0-3.863a1.681,1.681,0,1,0,1.681,1.681,1.682,1.682,0,0,0-1.681-1.681" transform="translate(-76.676 -63.761)" fill="#25292b"/>
          <path id="Trazado_879232" data-name="Trazado 879232" d="M155.753,152.637a2.182,2.182,0,1,1,2.182-2.182,2.184,2.184,0,0,1-2.182,2.182m0-3.863a1.681,1.681,0,1,0,1.681,1.681,1.682,1.682,0,0,0-1.681-1.681" transform="translate(-76.676 -74.031)" fill="#25292b"/>
          <path id="Trazado_879233" data-name="Trazado 879233" d="M155.753,174.859a2.182,2.182,0,1,1,2.182-2.182,2.184,2.184,0,0,1-2.182,2.182m0-3.863a1.681,1.681,0,1,0,1.681,1.681A1.682,1.682,0,0,0,155.753,171" transform="translate(-76.676 -85.126)" fill="#25292b"/>
          <path id="Trazado_879234" data-name="Trazado 879234" d="M181.751,131.108a.957.957,0,1,1-.957-.957.957.957,0,0,1,.957.957" transform="translate(-89.79 -64.983)" fill="#f2e9da"/>
          <path id="Trazado_879235" data-name="Trazado 879235" d="M200.527,131.108a.957.957,0,1,1-.957-.957.957.957,0,0,1,.957.957" transform="translate(-99.164 -64.983)" fill="#f2e9da"/>
          <path id="Trazado_879236" data-name="Trazado 879236" d="M191.436,131.108a.957.957,0,1,1-.957-.957.957.957,0,0,1,.957.957" transform="translate(-94.625 -64.983)" fill="#f2e9da"/>
          <path id="Trazado_879237" data-name="Trazado 879237" d="M181.751,152.3a.957.957,0,1,1-.957-.957.957.957,0,0,1,.957.957" transform="translate(-89.79 -75.566)" fill="#f2e9da"/>
          <path id="Trazado_879238" data-name="Trazado 879238" d="M200.527,152.3a.957.957,0,1,1-.957-.957.957.957,0,0,1,.957.957" transform="translate(-99.164 -75.566)" fill="#f2e9da"/>
          <path id="Trazado_879239" data-name="Trazado 879239" d="M191.436,152.3a.957.957,0,1,1-.957-.957.957.957,0,0,1,.957.957" transform="translate(-94.625 -75.566)" fill="#f2e9da"/>
          <path id="Trazado_879240" data-name="Trazado 879240" d="M181.751,173.9a.957.957,0,1,1-.957-.957.957.957,0,0,1,.957.957" transform="translate(-89.79 -86.348)" fill="#f2e9da"/>
          <path id="Trazado_879241" data-name="Trazado 879241" d="M200.527,173.9a.957.957,0,1,1-.957-.957.957.957,0,0,1,.957.957" transform="translate(-99.164 -86.348)" fill="#f2e9da"/>
          <path id="Trazado_879242" data-name="Trazado 879242" d="M191.436,173.9a.957.957,0,1,1-.957-.957.957.957,0,0,1,.957.957" transform="translate(-94.625 -86.348)" fill="#f2e9da"/>
        </g>
      </g>
    </g>
  </g>
</svg>
