<svg xmlns="http://www.w3.org/2000/svg" xmlns:xlink="http://www.w3.org/1999/xlink" width="400" height="249" viewBox="0 0 400 249">
  <defs>
    <clipPath id="clip-path">
      <rect id="Rectángulo_402540" data-name="Rectángulo 402540" width="51" height="111" transform="translate(614 2605)" fill="#fff" stroke="#707070" stroke-width="1"/>
    </clipPath>
    <filter id="Trazado_877866" x="-68.697" y="121.855" width="128.488" height="128.488" filterUnits="userSpaceOnUse">
      <feOffset dy="1" input="SourceAlpha"/>
      <feGaussianBlur stdDeviation="5.5" result="blur"/>
      <feFlood flood-color="#fff" flood-opacity="0.902"/>
      <feComposite operator="in" in2="blur"/>
      <feComposite in="SourceGraphic"/>
    </filter>
    <filter id="Elipse_11611" x="315" y="14.919" width="76" height="76" filterUnits="userSpaceOnUse">
      <feOffset dy="1" input="SourceAlpha"/>
      <feGaussianBlur stdDeviation="5.5" result="blur-2"/>
      <feFlood flood-color="#fff" flood-opacity="0.902"/>
      <feComposite operator="in" in2="blur-2"/>
      <feComposite in="SourceGraphic"/>
    </filter>
    <linearGradient id="linear-gradient" x1="0.35" y1="0.433" x2="0.935" y2="0.848" gradientUnits="objectBoundingBox">
      <stop offset="0" stop-color="#f0c518"/>
      <stop offset="0.371" stop-color="#d1ae1f"/>
      <stop offset="1" stop-color="#78630c"/>
    </linearGradient>
    <clipPath id="clip-path-2">
      <rect id="Rectángulo_401970" data-name="Rectángulo 401970" width="314" height="200" transform="translate(1020.446 524.461)" fill="#3a1d71" stroke="#707070" stroke-width="1" opacity="0.44"/>
    </clipPath>
    <clipPath id="clip-path-3">
      <rect id="Rectángulo_401121" data-name="Rectángulo 401121" width="67" height="49" transform="translate(-0.081 0.373)" fill="#3a1d71" stroke="#707070" stroke-width="1"/>
    </clipPath>
    <clipPath id="clip-path-4">
      <rect id="Rectángulo_388582" data-name="Rectángulo 388582" width="25.168" height="24.097" transform="translate(0 0)" fill="none"/>
    </clipPath>
    <clipPath id="clip-path-5">
      <rect id="Rectángulo_388583" data-name="Rectángulo 388583" width="27.958" height="26.769" fill="none"/>
    </clipPath>
    <clipPath id="clip-path-6">
      <rect id="Rectángulo_388584" data-name="Rectángulo 388584" width="29.207" height="27.964" fill="none"/>
    </clipPath>
    <clipPath id="clip-path-7">
      <rect id="Rectángulo_388585" data-name="Rectángulo 388585" width="25.168" height="24.097" fill="none"/>
    </clipPath>
  </defs>
  <g id="_17" data-name="17" transform="translate(-600 -13114)">
    <g id="Grupo_1101635" data-name="Grupo 1101635" transform="translate(0 11473)">
      <rect id="Rectángulo_402539" data-name="Rectángulo 402539" width="400" height="249" rx="13" transform="translate(600 1641)" fill="#f2e5fd"/>
      <g id="Enmascarar_grupo_1098709" data-name="Enmascarar grupo 1098709" transform="translate(-14 -834)" clip-path="url(#clip-path)">
        <g transform="matrix(1, 0, 0, 1, 614, 2475)" filter="url(#Trazado_877866)">
          <g id="Trazado_877866-2" data-name="Trazado 877866" transform="translate(-52.2 137.36)" fill="none">
            <path d="M47.744,0A47.744,47.744,0,1,1,0,47.744,47.744,47.744,0,0,1,47.744,0Z" stroke="none"/>
            <path d="M 47.74413681030273 16 C 30.2403564453125 16 16 30.2403564453125 16 47.74413681030273 C 16 65.24791717529297 30.2403564453125 79.48827362060547 47.74413681030273 79.48827362060547 C 65.24791717529297 79.48827362060547 79.48827362060547 65.24791717529297 79.48827362060547 47.74413681030273 C 79.48827362060547 30.2403564453125 65.24791717529297 16 47.74413681030273 16 M 47.74413681030273 0 C 74.11249542236328 0 95.48827362060547 21.37577819824219 95.48827362060547 47.74413681030273 C 95.48827362060547 74.11249542236328 74.11249542236328 95.48827362060547 47.74413681030273 95.48827362060547 C 21.37577819824219 95.48827362060547 0 74.11249542236328 0 47.74413681030273 C 0 21.37577819824219 21.37577819824219 0 47.74413681030273 0 Z" stroke="none" fill="#f0c518"/>
          </g>
        </g>
      </g>
      <g transform="matrix(1, 0, 0, 1, 600, 1641)" filter="url(#Elipse_11611)">
        <g id="Elipse_11611-2" data-name="Elipse 11611" transform="translate(331.5 30.42)" fill="none" stroke="#a854f3" stroke-width="6">
          <circle cx="21.5" cy="21.5" r="21.5" stroke="none"/>
          <circle cx="21.5" cy="21.5" r="18.5" fill="none"/>
        </g>
      </g>
      <circle id="Elipse_11612" data-name="Elipse 11612" cx="16" cy="16" r="16" transform="translate(953 1660.919)" fill="url(#linear-gradient)"/>
    </g>
    <g id="Enmascarar_grupo_1098691" data-name="Enmascarar grupo 1098691" transform="translate(-367.446 12638.539)" clip-path="url(#clip-path-2)">
      <g id="Grupo_1098903" data-name="Grupo 1098903" transform="translate(1019.987 543.647)">
        <g id="Grupo_1098902" data-name="Grupo 1098902" transform="translate(0 0)">
          <g id="OBJECTS">
            <path id="Trazado_873223" data-name="Trazado 873223" d="M527.672,308.117s-33.065-48.537-13.593-74.708,48.694-31.037,80.95-57.208,81.5-49.716,116.193-46.674,23.128,38.954,27.389,46.862,24.4,17.46,42.656,35.109,23.734,59.645,4.866,96.468l-258.462.149Z" transform="translate(-504.662 -129.262)" fill="#bbadff"/>
            <g id="Grupo_1098880" data-name="Grupo 1098880" transform="translate(0 16.405)">
              <path id="Trazado_873224" data-name="Trazado 873224" d="M869.818,309.856H856.736a.2.2,0,0,1-.2-.2V305.3a.2.2,0,0,1,.2-.2h13.082a.2.2,0,0,1,.2.2v4.363A.2.2,0,0,1,869.818,309.856Zm-12.893-.393h12.688v-3.97H856.925Z" transform="translate(-579.21 -183.27)" fill="#fff"/>
              <path id="Trazado_873225" data-name="Trazado 873225" d="M860.068,300.116H846.987a.2.2,0,0,1-.2-.2v-4.363a.2.2,0,0,1,.2-.2h13.081a.2.2,0,0,1,.2.2v4.363A.2.2,0,0,1,860.068,300.116Zm-12.885-.393h12.688v-3.97H847.183Z" transform="translate(-577.125 -181.188)" fill="#fff"/>
              <path id="Trazado_873226" data-name="Trazado 873226" d="M730.848,304.266H717.766a.2.2,0,0,1-.2-.2v-4.363a.2.2,0,0,1,.2-.2h13.082a.2.2,0,0,1,.2.2v4.363A.2.2,0,0,1,730.848,304.266Zm-12.885-.393h12.689V299.9H717.963Z" transform="translate(-549.491 -182.075)" fill="#fff"/>
              <path id="Trazado_873227" data-name="Trazado 873227" d="M760.138,154.886H747.057a.2.2,0,0,1-.2-.2v-4.363a.2.2,0,0,1,.2-.2h13.082a.2.2,0,0,1,.2.2v4.363A.2.2,0,0,1,760.138,154.886Zm-12.893-.393h12.688v-3.97H747.245Z" transform="translate(-555.755 -150.13)" fill="#fff"/>
              <path id="Trazado_873228" data-name="Trazado 873228" d="M565.278,245.276H552.2a.2.2,0,0,1-.2-.2v-4.363a.2.2,0,0,1,.2-.2h13.082a.2.2,0,0,1,.2.2v4.363A.2.2,0,0,1,565.278,245.276Zm-12.885-.393h12.688v-3.97H552.393Z" transform="translate(-514.084 -169.46)" fill="#fff"/>
              <path id="Trazado_873229" data-name="Trazado 873229" d="M565.278,287.166H552.2a.2.2,0,0,1-.2-.2v-4.363a.2.2,0,0,1,.2-.2h13.082a.2.2,0,0,1,.2.2v4.363A.2.2,0,0,1,565.278,287.166Zm-12.885-.393h12.688V282.8H552.393Z" transform="translate(-514.084 -178.418)" fill="#fff"/>
              <path id="Trazado_873230" data-name="Trazado 873230" d="M517.048,322.246H503.966a.2.2,0,0,1-.2-.2v-4.363a.2.2,0,0,1,.2-.2h13.082a.2.2,0,0,1,.2.2v4.363A.2.2,0,0,1,517.048,322.246Zm-12.885-.393h12.688v-3.97H504.163Z" transform="translate(-503.77 -185.92)" fill="#fff"/>
            </g>
            <g id="Grupo_1098881" data-name="Grupo 1098881" transform="translate(20.646 99.918)">
              <path id="Trazado_873231" data-name="Trazado 873231" d="M548.925,335.537s-12.673-14.717-14.552-38.631,1.163-39.425,1.163-39.425,14.591,11.258,25.251,39.032c0,0,5.149,12.791,6.84,24.237,0,0,6.1-21.265,22.838-31.918,0,0,5.935,23.734-6.619,46.564l-34.921.149Z" transform="translate(-530.829 -256.599)" fill="#0eb259"/>
              <path id="Trazado_873232" data-name="Trazado 873232" d="M554.425,287.547a.38.38,0,0,0-.142-.307c-9.843-20.8-21.47-30.652-21.635-30.793-.008,0-.016,0-.031-.016a.361.361,0,0,0-.126-.055c-.016,0-.031-.016-.055-.016a.644.644,0,0,0-.173.016h0c-.008,0-.016.016-.024.016a.714.714,0,0,0-.126.086.135.135,0,0,0-.031.039.286.286,0,0,0-.055.134c0,.008-.008.016-.016.024a143.61,143.61,0,0,0-1.234,38.152c0,.016-.016.031-.024.055a.382.382,0,0,0,.063.307c3.1,27.319,14.324,40.188,14.481,40.361a.39.39,0,0,0,.291.134.362.362,0,0,0,.259-.1.4.4,0,0,0,.031-.558c-.157-.173-11.124-12.767-14.245-39.543l14.457,3.2,12.3,36.58a.394.394,0,0,0,.369.267.24.24,0,0,0,.126-.024.389.389,0,0,0,.244-.5l-6.6-19.607,5.134-18.16a141.617,141.617,0,0,1,6.525,23.325.392.392,0,1,0,.771-.149,137.514,137.514,0,0,0-10.55-32.877Zm-.818.094-4.748,16.8-15.605-46.383c3.121,2.964,12.327,12.594,20.353,29.583Zm-22.059,7.028a142.126,142.126,0,0,1,1-36.234L545.8,297.822Zm20.558,19.426-2.8-8.333,4.819-17.036c1.061,2.3,2.091,4.748,3.09,7.311l-5.1,18.058Z" transform="translate(-530.032 -256.36)" fill="#251c4a"/>
              <path id="Trazado_873233" data-name="Trazado 873233" d="M594.571,332.524a72.782,72.782,0,0,0,2-35.652c0-.008-.008-.016-.016-.031a.335.335,0,0,0-.047-.11.164.164,0,0,0-.031-.047.5.5,0,0,0-.1-.079c-.008,0-.016-.016-.031-.024h0a.412.412,0,0,0-.165-.031h-.031a.265.265,0,0,0-.134.039h-.016c-.134.079-7.681,4.568-14.622,14.835a.387.387,0,0,0-.212.322c-1.03,1.541-2.036,3.207-3,5a.4.4,0,0,0-.173.322,69.621,69.621,0,0,0-7.744,26.768.39.39,0,0,0,.354.424.385.385,0,0,0,.424-.354A69.134,69.134,0,0,1,578.368,318l4.678,10.236-6.289,15.487a.391.391,0,0,0,.22.511.319.319,0,0,0,.149.031.392.392,0,0,0,.362-.244l3.695-9.1,12.413-1.887a56.314,56.314,0,0,1-4.513,10.637.4.4,0,0,0,.134.542.381.381,0,0,0,.2.055.409.409,0,0,0,.338-.189,58.876,58.876,0,0,0,4.74-11.289.394.394,0,0,0,.086-.283Zm-15.754-15.377c.865-1.6,1.753-3.1,2.665-4.481l2.87,6.486a.393.393,0,0,0,.362.236.351.351,0,0,0,.157-.031.388.388,0,0,0,.2-.519l-3.074-6.942a53.618,53.618,0,0,1,13.341-13.915l-11.894,29.284-4.623-10.11Zm2.7,16.942,14.52-35.73a72.178,72.178,0,0,1-2.186,33.859L581.513,334.1Z" transform="translate(-538.63 -264.955)" fill="#251c4a"/>
              <path id="Trazado_873234" data-name="Trazado 873234" d="M552.437,345.3a1.847,1.847,0,1,1,1.847-1.847A1.85,1.85,0,0,1,552.437,345.3Zm0-3.294a1.454,1.454,0,1,0,1.454,1.454A1.456,1.456,0,0,0,552.437,342.011Z" transform="translate(-534.428 -274.591)" fill="#fff"/>
              <path id="Trazado_873235" data-name="Trazado 873235" d="M597.43,331.02a1.03,1.03,0,1,1,1.022-1.03A1.033,1.033,0,0,1,597.43,331.02Zm0-1.659a.637.637,0,0,0,0,1.274.637.637,0,0,0,0-1.274Z" transform="translate(-544.225 -271.886)" fill="#fff"/>
              <path id="Trazado_873236" data-name="Trazado 873236" d="M553.413,298.636a1.423,1.423,0,1,1,1.423-1.423A1.423,1.423,0,0,1,553.413,298.636Zm0-2.453a1.03,1.03,0,1,0,1.03,1.03A1.033,1.033,0,0,0,553.413,296.183Z" transform="translate(-534.728 -264.792)" fill="#fff"/>
            </g>
            <g id="Grupo_1098885" data-name="Grupo 1098885" transform="translate(93.214 29.904)">
              <rect id="Rectángulo_401108" data-name="Rectángulo 401108" width="106.916" height="64.189" transform="translate(2.932 2.358)" fill="#fff"/>
              <rect id="Rectángulo_401109" data-name="Rectángulo 401109" width="107.121" height="6.895" transform="translate(2.728 2.358)" fill="#7c60ff"/>
              <path id="Trazado_873318" data-name="Trazado 873318" d="M0,0H32.256V21H0Z" transform="translate(15.259 12.924)" fill="#f5c59d"/>
              <rect id="Rectángulo_401111" data-name="Rectángulo 401111" width="32.413" height="20.817" transform="translate(15.102 37.719)" fill="#f5c59d"/>
              <g id="Grupo_1098882" data-name="Grupo 1098882" transform="translate(90.69 2.158)">
                <path id="Trazado_873239" data-name="Trazado 873239" d="M747.522,173.108h-2.665a.2.2,0,0,1-.2-.2v-2.665a.2.2,0,0,1,.2-.2h2.665a.2.2,0,0,1,.2.2v2.665A.2.2,0,0,1,747.522,173.108Zm-2.469-.393h2.272v-2.272h-2.272Z" transform="translate(-739.188 -170.046)" fill="#fff"/>
                <path id="Trazado_873240" data-name="Trazado 873240" d="M753.249,171.574l1.195-1.195a.19.19,0,0,0,0-.275.2.2,0,0,0-.275,0l-1.195,1.195-1.195-1.195a.195.195,0,0,0-.275.275l1.195,1.195-1.195,1.195a.2.2,0,0,0,.283.275l1.195-1.195,1.195,1.195a.365.365,0,0,0,.141.055.193.193,0,0,0,.142-.33l-1.195-1.195Z" transform="translate(-740.639 -170.045)" fill="#fff"/>
                <path id="Trazado_873241" data-name="Trazado 873241" d="M740.632,173.833H737.9a.2.2,0,0,1,0-.393h2.736a.2.2,0,0,1,0,.393Z" transform="translate(-737.7 -170.771)" fill="#fff"/>
              </g>
              <g id="Grupo_1098884" data-name="Grupo 1098884">
                <path id="Trazado_873242" data-name="Trazado 873242" d="M729.649,167.3H622.733a.389.389,0,0,0-.393.393v64.181a.389.389,0,0,0,.393.393H729.649a.389.389,0,0,0,.393-.393V167.693A.389.389,0,0,0,729.649,167.3Zm-.393.786v6.108H623.126v-6.108Zm-106.13,63.4v-56.5h106.13v56.5H623.126Z" transform="translate(-622.34 -167.3)" fill="#251c4a"/>
                <path id="Trazado_873248" data-name="Trazado 873248" d="M673.856,204.9H641.443a.389.389,0,0,1-.393-.393V183.433a.389.389,0,0,1,.393-.393h32.413a.389.389,0,0,1,.393.393V204.51A.389.389,0,0,1,673.856,204.9Zm-32.02-.786h31.627V183.826H641.836Z" transform="translate(-626.341 -170.666)" fill="#251c4a"/>
                <path id="Trazado_873249" data-name="Trazado 873249" d="M673.856,236.663H641.443a.389.389,0,0,1-.393-.393V215.193a.389.389,0,0,1,.393-.393h32.413a.389.389,0,0,1,.393.393V236.27A.389.389,0,0,1,673.856,236.663Zm-32.02-.786h31.627v-20.29H641.836Z" transform="translate(-626.341 -177.458)" fill="#251c4a"/>
              </g>
              <g id="Grupo_1098899" data-name="Grupo 1098899" transform="translate(50.307 18.639)">
                <path id="Trazado_873124" data-name="Trazado 873124" d="M644.3,302.8l-3.668,3.885,3.668,2.6" transform="translate(-594.727 -300.695)" fill="none" stroke="#0464f4" stroke-linecap="round" stroke-linejoin="round" stroke-width="1"/>
                <path id="Trazado_873125" data-name="Trazado 873125" d="M640.118,302.8l-3.668,3.885,3.668,2.6" transform="translate(-593.571 -300.695)" fill="none" stroke="#0464f4" stroke-linecap="round" stroke-linejoin="round" stroke-width="1"/>
                <path id="Trazado_873126" data-name="Trazado 873126" d="M627.79,306.124c0,1.671.868,3.024,1.946,3.024s1.946-1.353,1.946-3.024-.868-3.024-1.946-3.024S627.79,304.453,627.79,306.124Z" transform="translate(-591.176 -300.778)" fill="none" stroke="#ff4440" stroke-linecap="round" stroke-linejoin="round" stroke-width="1"/>
                <line id="Línea_568" data-name="Línea 568" y2="6.048" transform="translate(32.078 2.322)" fill="none" stroke="#0464f4" stroke-linecap="round" stroke-linejoin="round" stroke-width="1"/>
                <rect id="Rectángulo_401077" data-name="Rectángulo 401077" width="3.458" height="5.614" transform="translate(25.82 2.539)" fill="#e3dfeb"/>
                <rect id="Rectángulo_401078" data-name="Rectángulo 401078" width="5.18" height="5.614" transform="translate(18.042 2.539)" fill="none" stroke="#ff4440" stroke-linecap="round" stroke-linejoin="round" stroke-width="1"/>
                <rect id="Rectángulo_401079" data-name="Rectángulo 401079" width="5.831" height="5.614" transform="translate(9.831 2.539)" fill="#e3dfeb"/>
                <path id="Trazado_873127" data-name="Trazado 873127" d="M584.5,299.926c-.738-.217-1.418.586-1.5,1.353a14.384,14.384,0,0,0,.268,2.279c.051.767-.282,1.678-1.035,1.838a.85.85,0,0,1,.991.622,3.125,3.125,0,0,1,0,1.3,3.594,3.594,0,0,0,.405,2.445,1.685,1.685,0,0,0,2.206.6" transform="translate(-578.58 -299.89)" fill="none" stroke="#000" stroke-linecap="round" stroke-linejoin="round" stroke-width="1"/>
                <path id="Trazado_873128" data-name="Trazado 873128" d="M578.179,300.41a13.083,13.083,0,0,0-.036,9.933" transform="translate(-577.181 -300.034)" fill="none" stroke="#000" stroke-linecap="round" stroke-linejoin="round" stroke-width="1"/>
                <path id="Trazado_873129" data-name="Trazado 873129" d="M650.4,299.926c.738-.217,1.418.586,1.5,1.353a14.4,14.4,0,0,1-.268,2.279c-.051.767.282,1.678,1.035,1.838a.85.85,0,0,0-.991.622,3.124,3.124,0,0,0,0,1.3,3.6,3.6,0,0,1-.405,2.445,1.685,1.685,0,0,1-2.207.6" transform="translate(-597.058 -299.89)" fill="none" stroke="#000" stroke-linecap="round" stroke-linejoin="round" stroke-width="1"/>
              </g>
              <g id="Grupo_1098900" data-name="Grupo 1098900" transform="translate(50.307 40.651)">
                <path id="Trazado_873124-2" data-name="Trazado 873124" d="M644.3,302.8l-3.668,3.885,3.668,2.6" transform="translate(-594.727 -300.695)" fill="none" stroke="#0464f4" stroke-linecap="round" stroke-linejoin="round" stroke-width="1"/>
                <path id="Trazado_873125-2" data-name="Trazado 873125" d="M640.118,302.8l-3.668,3.885,3.668,2.6" transform="translate(-593.571 -300.695)" fill="none" stroke="#0464f4" stroke-linecap="round" stroke-linejoin="round" stroke-width="1"/>
                <path id="Trazado_873126-2" data-name="Trazado 873126" d="M627.79,306.124c0,1.671.868,3.024,1.946,3.024s1.946-1.353,1.946-3.024-.868-3.024-1.946-3.024S627.79,304.453,627.79,306.124Z" transform="translate(-591.176 -300.778)" fill="none" stroke="#ff4440" stroke-linecap="round" stroke-linejoin="round" stroke-width="1"/>
                <line id="Línea_568-2" data-name="Línea 568" y2="6.048" transform="translate(32.078 2.322)" fill="none" stroke="#0464f4" stroke-linecap="round" stroke-linejoin="round" stroke-width="1"/>
                <rect id="Rectángulo_401077-2" data-name="Rectángulo 401077" width="3.458" height="5.614" transform="translate(25.82 2.539)" fill="#e3dfeb"/>
                <rect id="Rectángulo_401078-2" data-name="Rectángulo 401078" width="5.18" height="5.614" transform="translate(18.042 2.539)" fill="none" stroke="#ff4440" stroke-linecap="round" stroke-linejoin="round" stroke-width="1"/>
                <rect id="Rectángulo_401079-2" data-name="Rectángulo 401079" width="5.831" height="5.614" transform="translate(9.831 2.539)" fill="#e3dfeb"/>
                <path id="Trazado_873127-2" data-name="Trazado 873127" d="M584.5,299.926c-.738-.217-1.418.586-1.5,1.353a14.384,14.384,0,0,0,.268,2.279c.051.767-.282,1.678-1.035,1.838a.85.85,0,0,1,.991.622,3.125,3.125,0,0,1,0,1.3,3.594,3.594,0,0,0,.405,2.445,1.685,1.685,0,0,0,2.206.6" transform="translate(-578.58 -299.89)" fill="none" stroke="#000" stroke-linecap="round" stroke-linejoin="round" stroke-width="1"/>
                <path id="Trazado_873128-2" data-name="Trazado 873128" d="M578.179,300.41a13.083,13.083,0,0,0-.036,9.933" transform="translate(-577.181 -300.034)" fill="none" stroke="#000" stroke-linecap="round" stroke-linejoin="round" stroke-width="1"/>
                <path id="Trazado_873129-2" data-name="Trazado 873129" d="M650.4,299.926c.738-.217,1.418.586,1.5,1.353a14.4,14.4,0,0,1-.268,2.279c-.051.767.282,1.678,1.035,1.838a.85.85,0,0,0-.991.622,3.124,3.124,0,0,0,0,1.3,3.6,3.6,0,0,1-.405,2.445,1.685,1.685,0,0,1-2.207.6" transform="translate(-597.058 -299.89)" fill="none" stroke="#000" stroke-linecap="round" stroke-linejoin="round" stroke-width="1"/>
              </g>
              <text id="_" data-name="****" transform="translate(19.246 51.91)" fill="#12263f" font-size="11" font-family="Montserrat-Bold, Montserrat" font-weight="700" letter-spacing="-0.005em"><tspan x="0" y="0">****</tspan></text>
              <text id="_2" data-name="&lt;/&gt;" transform="matrix(-1, 0, 0, 1, 43.245, 28.91)" fill="#12263f" font-size="12" font-family="Montserrat-Black, Montserrat" font-weight="800"><tspan x="0" y="0">&lt;/&gt;</tspan></text>
            </g>
            <g id="Grupo_1098886" data-name="Grupo 1098886" transform="translate(41.171 12.711)">
              <rect id="Rectángulo_401112" data-name="Rectángulo 401112" width="70.58" height="57.617" transform="translate(1.533 1.659)" fill="#ffc7ec"/>
              <path id="Trazado_873252" data-name="Trazado 873252" d="M638,213.833h-70.47a.389.389,0,0,1-.393-.393V155.823a.389.389,0,0,1,.393-.393H638a.389.389,0,0,1,.393.393V213.44A.389.389,0,0,1,638,213.833Zm-70.077-.786H637.61V156.216H567.926Z" transform="translate(-567.14 -155.43)" fill="#251c4a"/>
              <g id="Enmascarar_grupo_1098648" data-name="Enmascarar grupo 1098648" transform="translate(3.369 5.73)" clip-path="url(#clip-path-3)">
                <g id="Grupo_1098773" data-name="Grupo 1098773" transform="translate(0.59 1.953)">
                  <rect id="Rectángulo_401002" data-name="Rectángulo 401002" width="18.364" height="2.693" fill="#3a1d71"/>
                  <rect id="Rectángulo_401003" data-name="Rectángulo 401003" width="30.833" height="2.693" transform="translate(21.759)" fill="#3a1d71"/>
                  <rect id="Rectángulo_401004" data-name="Rectángulo 401004" width="36.051" height="2.693" transform="translate(56.222)" fill="#3a1d71"/>
                  <rect id="Rectángulo_401005" data-name="Rectángulo 401005" width="13.832" height="2.693" transform="translate(96.128)" fill="#3a1d71"/>
                  <rect id="Rectángulo_401006" data-name="Rectángulo 401006" width="4.307" height="2.693" transform="translate(50.1 6.632)" fill="#3a1d71"/>
                  <rect id="Rectángulo_401007" data-name="Rectángulo 401007" width="2.04" height="2.693" transform="translate(62.569 6.632)" fill="#3a1d71"/>
                  <rect id="Rectángulo_401008" data-name="Rectángulo 401008" width="33.099" height="2.693" transform="translate(66.424 6.632)" fill="#3a1d71"/>
                  <rect id="Rectángulo_401009" data-name="Rectángulo 401009" width="9.717" height="2.693" transform="translate(103.604 6.632)" fill="#3a1d71"/>
                  <rect id="Rectángulo_401010" data-name="Rectángulo 401010" width="3.855" height="2.693" transform="translate(56.222 6.632)" fill="#3a1d71"/>
                  <rect id="Rectángulo_401011" data-name="Rectángulo 401011" width="17.687" height="2.693" transform="translate(31.059 6.632)" fill="#3a1d71"/>
                  <rect id="Rectángulo_401012" data-name="Rectángulo 401012" width="23.123" height="2.693" transform="translate(5.896 6.632)" fill="#3a1d71"/>
                  <rect id="Rectángulo_401013" data-name="Rectángulo 401013" width="3.855" height="2.693" transform="translate(0 6.632)" fill="#3a1d71"/>
                  <rect id="Rectángulo_401014" data-name="Rectángulo 401014" width="3.404" height="2.693" transform="translate(0 13.271)" fill="#3a1d71"/>
                  <rect id="Rectángulo_401015" data-name="Rectángulo 401015" width="33.325" height="2.693" transform="translate(6.347 13.271)" fill="#3a1d71"/>
                  <rect id="Rectángulo_401016" data-name="Rectángulo 401016" width="52.601" height="2.693" transform="translate(43.302 13.271)" fill="#3a1d71"/>
                  <rect id="Rectángulo_401017" data-name="Rectángulo 401017" width="15.613" height="2.693" transform="translate(97.717 13.271)" fill="#3a1d71"/>
                  <rect id="Rectángulo_401018" data-name="Rectángulo 401018" width="40.358" height="2.693" transform="translate(69.15 19.903)" fill="#3a1d71"/>
                  <rect id="Rectángulo_401019" data-name="Rectángulo 401019" width="6.347" height="2.693" transform="translate(0 19.903)" fill="#3a1d71"/>
                  <rect id="Rectángulo_401120" data-name="Rectángulo 401120" width="6.347" height="2.693" transform="translate(0 40.343)" fill="#3a1d71"/>
                  <rect id="Rectángulo_401020" data-name="Rectángulo 401020" width="31.744" height="2.693" transform="translate(9.065 19.903)" fill="#3a1d71"/>
                  <rect id="Rectángulo_401119" data-name="Rectángulo 401119" width="31.744" height="2.693" transform="translate(9.065 40.343)" fill="#3a1d71"/>
                  <rect id="Rectángulo_401021" data-name="Rectángulo 401021" width="20.631" height="2.693" transform="translate(42.85 19.903)" fill="#3a1d71"/>
                  <rect id="Rectángulo_401118" data-name="Rectángulo 401118" width="20.631" height="2.693" transform="translate(42.85 40.343)" fill="#3a1d71"/>
                  <rect id="Rectángulo_401022" data-name="Rectángulo 401022" width="6.121" height="2.693" transform="translate(21.759 26.543)" fill="#3a1d71"/>
                  <rect id="Rectángulo_401023" data-name="Rectángulo 401023" width="19.042" height="2.693" transform="translate(0 26.543)" fill="#3a1d71"/>
                  <rect id="Rectángulo_401024" data-name="Rectángulo 401024" width="5.67" height="2.693" transform="translate(30.147 26.543)" fill="#3a1d71"/>
                  <rect id="Rectángulo_401025" data-name="Rectángulo 401025" width="25.623" height="2.693" transform="translate(38.083 26.543)" fill="#3a1d71"/>
                  <rect id="Rectángulo_401026" data-name="Rectángulo 401026" width="11.565" height="2.693" transform="translate(67.336 26.543)" fill="#3a1d71"/>
                  <rect id="Rectángulo_401027" data-name="Rectángulo 401027" width="11.791" height="2.693" transform="translate(83.885 26.543)" fill="#3a1d71"/>
                  <rect id="Rectángulo_401028" data-name="Rectángulo 401028" width="7.936" height="2.693" transform="translate(101.564 26.543)" fill="#3a1d71"/>
                  <rect id="Rectángulo_401029" data-name="Rectángulo 401029" width="12.92" height="2.693" transform="translate(75.113 33.174)" fill="#3a1d71"/>
                  <rect id="Rectángulo_401030" data-name="Rectángulo 401030" width="6.799" height="2.693" transform="translate(0 33.174)" fill="#3a1d71"/>
                  <rect id="Rectángulo_401031" data-name="Rectángulo 401031" width="32.422" height="2.693" transform="translate(11.557 33.174)" fill="#3a1d71"/>
                  <rect id="Rectángulo_401032" data-name="Rectángulo 401032" width="6.573" height="2.693" transform="translate(48.971 33.174)" fill="#3a1d71"/>
                  <rect id="Rectángulo_401033" data-name="Rectángulo 401033" width="10.428" height="2.693" transform="translate(58.714 33.174)" fill="#3a1d71"/>
                  <rect id="Rectángulo_401034" data-name="Rectángulo 401034" width="15.872" height="2.693" transform="translate(94.313 33.174)" fill="#3a1d71"/>
                </g>
              </g>
            </g>
            <g id="Grupo_1098889" data-name="Grupo 1098889" transform="translate(85.854 66.761)">
              <path id="Trazado_873255" data-name="Trazado 873255" d="M794.015,330.186a26.777,26.777,0,0,1-3.577-7.987,44.077,44.077,0,0,1-1.274-10.644h5.92l-15.173-36.139c-1.808-2.138-7.154-5-10.6-6.706.071-.086.126-.142.126-.142a16.343,16.343,0,0,0-2.563-1.03l-.605-.283s-.511-.118-1.3-.291c-1.085-.3-1.895-.487-1.895-.487-1.226-1.234-3.758-9.009-4.049-9.929s1.619-7.075,1.619-7.075l1.981-5.4-.967-4.237-4.969-4.253s-6.085-2.358-10.244-2.665a28.676,28.676,0,0,0-8.318.409c-2.539.409-5.778,5.479-5.778,5.479s1.832,7.909,2.123,8.239-.055,3.428,0,4.662,1.242,3.734,3.357,7.7,6.824,5.621,6.824,5.621l-4.693,1.777v.047c-2.736,1.108-6.588,2.7-6.588,2.7s-5.275,17.956-5.865,21-6.313,22.971-6.313,22.971l-7.964,5.322,3.758,7.712.912-2.382,3.365-1.958c-2.366-.48-2.909-1.816-2.909-1.816,3.546-2.61,9.009-1.478,9.009-1.478l6.211-3.121,10.346,2.052c2.437,2.869,1.895,9.89,1.895,9.89h10.377V330.3l37.837-.1Zm-16.769-18.82,4.135,5.063-4.906.307.77-5.369Z" transform="translate(-634.417 -218.163)" fill="#fff"/>
              <path id="Trazado_873256" data-name="Trazado 873256" d="M690.33,347V310.85L708.207,347Z" transform="translate(-629.52 -234.856)" fill="#7c60ff"/>
              <path id="Trazado_873257" data-name="Trazado 873257" d="M631.194,346.9l-17.7-36.053H673.9V347Z" transform="translate(-613.088 -234.856)" fill="#251c4a"/>
              <path id="Trazado_873258" data-name="Trazado 873258" d="M662.775,331.6c1.164,2.052.77,4.473-.873,5.409s-3.931.031-5.094-2.013-.77-4.473.873-5.409S661.611,329.558,662.775,331.6Z" transform="translate(-622.208 -238.784)" fill="#fff"/>
              <path id="Trazado_873259" data-name="Trazado 873259" d="M793.27,338.9a26.775,26.775,0,0,1-3.577-7.987,44.077,44.077,0,0,1-1.274-10.644h3.2l-15.173-36.139c-2.736-3.247-13.64-8.16-13.64-8.16s-6.541-1.478-10.094-2.248-12.177.244-13.946.912-8.876,3.6-8.876,3.6-5.275,17.956-5.865,21-6.313,22.971-6.313,22.971l-7.964,5.322,3.758,7.712.912-2.382,3.365-1.957c-2.366-.48-2.909-1.816-2.909-1.816,3.545-2.61,9.009-1.478,9.009-1.478l6.211-3.121,10.346,2.052c2.437,2.869,1.895,9.89,1.895,9.89h10.377v2.563l40.557-.1Zm-19.489-18.813,4.135,5.063-4.906.307.77-5.369Z" transform="translate(-633.673 -226.856)" fill="#7c60ff"/>
              <path id="Trazado_873260" data-name="Trazado 873260" d="M741.68,266.81l4.693-1.777s-4.709-1.659-6.824-5.621-3.294-6.462-3.357-7.7.291-4.332,0-4.662-2.123-8.239-2.123-8.239,3.247-5.071,5.778-5.479a28.939,28.939,0,0,1,8.317-.409c4.159.307,10.244,2.665,10.244,2.665l4.968,4.253.967,4.237-1.981,5.4s-1.918,6.163-1.619,7.075,2.83,8.695,4.049,9.929a35.5,35.5,0,0,1,6.376,2.091,49.018,49.018,0,0,1-7.012,6.847c-3.137,2.225-9.5,6.478-15.99,6.077s-7.217-5.346-7.272-7.335a67.083,67.083,0,0,1,.778-7.374Z" transform="translate(-638.874 -218.166)" fill="#fff"/>
              <path id="Trazado_873261" data-name="Trazado 873261" d="M714.82,349.606l.684-2.854,3.365-1.958s-2.987-1.329-2.909-1.816,2.893-1.171,3.954-1.478,3.868-.684,5.055,0c0,0,5.448-3.042,6.211-3.121s10.346,2.052,10.346,2.052a15.975,15.975,0,0,1,1.895,9.89H715.174l-.354-.723Z" transform="translate(-634.757 -240.742)" fill="#fff"/>
              <path id="Trazado_873262" data-name="Trazado 873262" d="M726.14,336.185l3.781-21.045.9,19.662-3.443,1.73Z" transform="translate(-637.178 -235.773)" fill="#251c4a"/>
              <path id="Trazado_873263" data-name="Trazado 873263" d="M776.65,310.51s1.965,12.57,10.668,21.91l.77-4.41S778.474,315.282,776.65,310.51Z" transform="translate(-647.98 -234.783)" fill="#251c4a"/>
              <path id="Trazado_873264" data-name="Trazado 873264" d="M758.463,350.819h-.393c.181-6.816-2.807-10.173-2.83-10.212l.291-.267c.126.142,3.121,3.5,2.932,10.471Z" transform="translate(-643.401 -241.162)" fill="#fff"/>
              <path id="Trazado_873265" data-name="Trazado 873265" d="M763.061,350.78h-.393c.173-6.792-2.807-10.133-2.838-10.173l.291-.267c.126.141,3.113,3.483,2.94,10.432Z" transform="translate(-644.383 -241.162)" fill="#fff"/>
              <path id="Trazado_873266" data-name="Trazado 873266" d="M750.138,296.6c-3.931,0-6.832-.951-8.648-2.822a6.478,6.478,0,0,1-1.871-4.434.2.2,0,0,1,.2-.189h.008a.2.2,0,0,1,.189.2,6.147,6.147,0,0,0,1.769,4.151c1.769,1.824,4.67,2.736,8.585,2.7a25.3,25.3,0,0,0,10.251-2.272.2.2,0,0,1,.165.354,25.66,25.66,0,0,1-10.409,2.311h-.236Z" transform="translate(-640.061 -230.217)" fill="#fff"/>
              <path id="Trazado_873267" data-name="Trazado 873267" d="M771.176,292.234a.205.205,0,0,1-.165-.086.2.2,0,0,1,.055-.275,20.8,20.8,0,0,0,3.318-2.649.184.184,0,0,1,.275,0,.19.19,0,0,1,0,.275,20.477,20.477,0,0,1-3.388,2.7.181.181,0,0,1-.11.031Z" transform="translate(-646.767 -230.218)" fill="#fff"/>
              <path id="Trazado_873268" data-name="Trazado 873268" d="M757.918,246.295a2.036,2.036,0,0,0,0,2.028A23.2,23.2,0,0,1,759,250.658s2.775-2.838,2.877-4.568-.307-2.838.708-4.159,1.525-2.028.81-3.852-2.13-1.423-.81-3.656,1.619-1.423,1.014-3.349-1.525-2.437-1.423-4.261,0-2.736-1.014-4.057-1.824-2.736-4.057-3.656-1.722-1.423-3.247-2.437-1.321-3.042-4.568-2.335-2.634,2.634-4.968,2.94-3.247-.708-5.071-.2-1.525,1.219-3.75,1.926-4.057-.81-5.88.2-1.218,1.321-2.838,3.145-3.145,2.13-2.437,3.75,1.423,1.423,2.437,3.656.1,2.736,1.722,4.363c0,0,2.736,2.838,5.983-.409s3.451-3.145,5.88-2.634,2.94,1.014,5.173.511,1.824.2,3.75.912,2.94.1,2.838,1.525-.912,2.13.1,3.553.912,1.619.912,3.349-.708,2.539.708,2.838,1.824-1.423,2.233-3.451.912-3.247,2.233-4.057,3.247.81,3.247,1.926a4.93,4.93,0,0,1-.2,3.451,14.415,14.415,0,0,1-3.451,4.67Z" transform="translate(-636.755 -214.183)" fill="#251c4a"/>
              <g id="Grupo_1098887" data-name="Grupo 1098887" transform="translate(0 73.966)">
                <path id="Trazado_873269" data-name="Trazado 873269" d="M691.667,347.163H631.11a.393.393,0,0,1-.354-.22l-17.728-36.367a.363.363,0,0,1,.024-.377.386.386,0,0,1,.33-.189h60.557a.394.394,0,0,1,.354.22L692.021,346.6a.363.363,0,0,1-.024.377A.386.386,0,0,1,691.667,347.163Zm-60.313-.786h59.684L673.7,310.8H614.011Z" transform="translate(-612.98 -308.642)" fill="#251c4a"/>
                <path id="Trazado_873270" data-name="Trazado 873270" d="M732.01,346.791a.389.389,0,0,1-.393-.393v-1.989H693.45a.393.393,0,0,1-.354-.22l-17.122-35.133h-60.2l-2.193,1.313a.4.4,0,1,1-.409-.676l2.28-1.368a.381.381,0,0,1,.2-.055H676.21a.393.393,0,0,1,.354.22l17.122,35.133h38.309a.389.389,0,0,1,.393.393V346.4a.389.389,0,0,1-.393.393Z" transform="translate(-612.978 -308.27)" fill="#251c4a"/>
              </g>
              <path id="Trazado_873271" data-name="Trazado 873271" d="M744.061,255.99s-.149,1.116.2,1.321,1.824-.456,1.824-.456S744.164,257.161,744.061,255.99Z" transform="translate(-641.004 -223.124)" fill="#251c4a"/>
              <path id="Trazado_873272" data-name="Trazado 873272" d="M748.762,248.966c.181.692.086,1.313-.212,1.391s-.684-.417-.865-1.108-.086-1.313.212-1.392S748.581,248.274,748.762,248.966Z" transform="translate(-641.766 -221.383)" fill="#251c4a"/>
              <path id="Trazado_873273" data-name="Trazado 873273" d="M741.792,250.446c.181.692.086,1.313-.212,1.391s-.684-.417-.865-1.108-.086-1.313.212-1.392S741.611,249.754,741.792,250.446Z" transform="translate(-640.275 -221.699)" fill="#251c4a"/>
              <g id="Grupo_1098888" data-name="Grupo 1098888" transform="translate(33.495 20.67)">
                <path id="Trazado_873274" data-name="Trazado 873274" d="M804.324,317.53l-15.07-36.061s-.008-.016-.016-.016l-.047-.071a.342.342,0,0,0-.047-.055s-.008-.016-.016-.016c-.338-.259-8.42-6.344-13.089-7.972a33.208,33.208,0,0,0-4.009-1.038.425.425,0,0,0-.141,0,32.822,32.822,0,0,1-3.6-10.2.4.4,0,0,0-.448-.33.393.393,0,0,0-.33.448,32.089,32.089,0,0,0,4.426,11.674.381.381,0,0,0,.33.173.469.469,0,0,0,.22-.063.392.392,0,0,0,.11-.542c-.055-.086-.1-.173-.157-.252a31.6,31.6,0,0,1,3.357.888c4.316,1.5,11.934,7.146,12.791,7.791l15.031,35.958a.4.4,0,0,0,.362.244.341.341,0,0,0,.149-.031.4.4,0,0,0,.212-.511Z" transform="translate(-679.519 -245.029)" fill="#251c4a"/>
                <path id="Trazado_873275" data-name="Trazado 873275" d="M777.027,301.709a.558.558,0,0,0,.094.016.386.386,0,0,0,.377-.3,20.78,20.78,0,0,1,9.395-11.777.392.392,0,0,0-.385-.684,21.222,21.222,0,0,0-9.772,12.264.391.391,0,0,0,.283.48Z" transform="translate(-681.49 -250.835)" fill="#251c4a"/>
                <path id="Trazado_873276" data-name="Trazado 873276" d="M787.377,320.14c-2.712-1.431-8.27-2.178-9.269-2.3-1.069-1.242-11.242-13.207-15.511-22.468a.39.39,0,0,0-.708.33c2.7,5.841,7.712,12.743,11.352,17.4,0,.016-.016.031-.024.055-.181,1.219-.409,2.932-.653,4.835l-32.358,1.046c-4.662-.9-10.228-1.973-10.432-1.973-.024,0-.9.44-2.2,1.116-.645-10.817-.943-17.3-.857-18.758.189-3.223,3.1-25.511,3.42-27.955.684-.314,3.05-1.384,5.676-2.445-.48,1.926-1.6,7.563.763,11.266a7.122,7.122,0,0,0,5.322,3.176,14.876,14.876,0,0,0,2.044.134c9.481,0,18.4-8.6,20.943-11.847a.392.392,0,1,0-.621-.48c-2.649,3.388-12.405,12.759-22.256,11.415a6.362,6.362,0,0,1-4.764-2.822c-2.5-3.9-.723-10.471-.511-11.2,1.549-.613,3.121-1.195,4.457-1.6.024,0,.039-.024.063-.031.244.118.448.212.59.275v3.907a.393.393,0,1,0,.786,0v-3.931c1.36-.755,8.907-4.976,10.236-6.124,1.533-1.313,1.651-4.512,1.659-4.646a.4.4,0,0,0-.377-.409.417.417,0,0,0-.409.377c-.024.825-.33,3.168-1.384,4.072-1.266,1.085-8.891,5.354-10.141,6.045-.912-.409-5.079-2.358-6.541-4.167a31.7,31.7,0,0,1-4.285-8.349,18.792,18.792,0,0,1-.094-3.947v-.094a64.169,64.169,0,0,0-2.154-9.308.4.4,0,0,0-.511-.228.389.389,0,0,0-.228.5,65.178,65.178,0,0,1,2.1,9.111,18.6,18.6,0,0,0,.11,4.119,32.185,32.185,0,0,0,4.442,8.687,17.93,17.93,0,0,0,5.189,3.6c-4.347,1.415-10.566,4.285-10.629,4.316l-.016.008a.359.359,0,0,0-.134.11.06.06,0,0,1-.016.031.527.527,0,0,0-.047.094L717.166,314.92l-7.744,5.244a.386.386,0,0,0-.1.542.4.4,0,0,0,.322.173.385.385,0,0,0,.22-.071l7.862-5.322a.4.4,0,0,0,.157-.22l10.8-38.686c-.967,7.508-2.6,20.338-2.744,22.783-.086,1.517.2,7.979.88,19.2-.865.448-1.863.967-2.909,1.517-3.184-.849-8.152.723-9.221,1.651a.712.712,0,0,0-.307.637c.094.645,1.274,1.211,2.335,1.588a17.163,17.163,0,0,0-2.8,1.73,22.4,22.4,0,0,0-.668,2.909.392.392,0,0,0,.314.456h.071a.388.388,0,0,0,.385-.322,26.109,26.109,0,0,1,.574-2.641c.3-.228,1.6-.967,3.318-1.918h0c1.808-1,4.08-2.217,6.163-3.333a.234.234,0,0,0,.063-.031c2.759-1.47,5.181-2.728,5.692-2.964.778.126,6.3,1.187,10.094,1.926a16.166,16.166,0,0,1,1.91,9.685.4.4,0,0,0,.33.448h.063a.389.389,0,0,0,.385-.33,16.632,16.632,0,0,0-1.785-9.788l31.949-1.03a.237.237,0,0,0,.071.024h.047a.358.358,0,0,0,.157-.039l4.827-.157c.354.039,6.384.8,9.112,2.233a.365.365,0,0,0,.181.047.392.392,0,0,0,.346-.212.383.383,0,0,0-.165-.527Zm-72.184,2.178a14.01,14.01,0,0,1,7.586-1.651c-1.769.936-3.6,1.918-5.141,2.767a7.618,7.618,0,0,1-2.445-1.116Zm58.167-4.355c.2-1.517.377-2.909.535-4.017,1.407,1.777,2.555,3.152,3.184,3.9Z" transform="translate(-667.061 -240.476)" fill="#251c4a"/>
                <path id="Trazado_873277" data-name="Trazado 873277" d="M801.124,335.355a.446.446,0,0,0,.141-.024l4.017-1.517a.391.391,0,0,0-.275-.731l-4.017,1.517a.389.389,0,0,0-.228.5.4.4,0,0,0,.37.252Z" transform="translate(-686.625 -260.275)" fill="#251c4a"/>
                <path id="Trazado_873278" data-name="Trazado 873278" d="M764.787,245.274a.39.39,0,0,0,.5-.228c.275-.723,1.219-2.657,2.343-2.862a1.67,1.67,0,0,1,1.509.755,3.335,3.335,0,0,1,.739,2.807,10.191,10.191,0,0,1-4.151,6.038.4.4,0,0,0,.2.731.331.331,0,0,0,.2-.063,10.835,10.835,0,0,0,4.512-6.588,4.1,4.1,0,0,0-.928-3.435,2.4,2.4,0,0,0-2.241-1.006c-1.792.33-2.893,3.239-2.94,3.365a.39.39,0,0,0,.228.5Z" transform="translate(-678.88 -240.672)" fill="#251c4a"/>
                <path id="Trazado_873279" data-name="Trazado 873279" d="M747.047,262.62a.383.383,0,0,0-.377.4.393.393,0,0,0,.393.385h.008a7.074,7.074,0,0,0,5.652-3.4.4.4,0,0,0-.142-.535.388.388,0,0,0-.535.141,6.408,6.408,0,0,1-4.992,3Z" transform="translate(-675.063 -244.528)" fill="#251c4a"/>
                <path id="Trazado_873280" data-name="Trazado 873280" d="M745.443,243.549a.387.387,0,0,0,.3-.142,4.353,4.353,0,0,1,4.646-1.1.39.39,0,1,0,.252-.739,5.172,5.172,0,0,0-5.5,1.336.393.393,0,0,0,.3.645Z" transform="translate(-674.717 -240.645)" fill="#251c4a"/>
                <path id="Trazado_873281" data-name="Trazado 873281" d="M737.514,245.748a.362.362,0,0,0,.259-.1,3.915,3.915,0,0,1,2.406-.66.4.4,0,0,0,.417-.369.39.39,0,0,0-.37-.417,4.641,4.641,0,0,0-2.972.857.4.4,0,0,0-.031.558.4.4,0,0,0,.291.134Z" transform="translate(-673.022 -241.272)" fill="#251c4a"/>
                <path id="Trazado_873282" data-name="Trazado 873282" d="M660.282,328.975a3.376,3.376,0,0,0-4.662,2.869,5.435,5.435,0,0,0,3.435,5.566,4.017,4.017,0,0,0,1.329.236,3.312,3.312,0,0,0,1.729-.48,3.48,3.48,0,0,0,1.6-2.626,5.435,5.435,0,0,0-3.435-5.566Zm2.649,5.464a2.709,2.709,0,0,1-1.226,2.052,2.737,2.737,0,0,1-2.39.173,4.4,4.4,0,0,1-2.241-1.887,4.446,4.446,0,0,1-.676-2.846,2.709,2.709,0,0,1,1.226-2.052,2.472,2.472,0,0,1,1.321-.362,3.262,3.262,0,0,1,1.069.189,4.388,4.388,0,0,1,2.241,1.879h0a4.446,4.446,0,0,1,.676,2.846Z" transform="translate(-655.585 -259.35)" fill="#251c4a"/>
              </g>
            </g>
            <g id="Grupo_1098891" data-name="Grupo 1098891" transform="translate(240.152 111.721)">
              <path id="Trazado_873283" data-name="Trazado 873283" d="M833.891,351.687s4.8-5.424,4.945-18.687H811.8c.149,13.262,4.945,18.687,4.945,18.687h17.146Z" transform="translate(-809.794 -284.552)" fill="#fff"/>
              <path id="Trazado_873284" data-name="Trazado 873284" d="M841.19,349.8c9.041.212,13.278-4.772,12.06-10.173s-8.616-4.182-8.616-4.182v3.042c2.241-.456,6.077.393,5.165,4.017s-7.248,4.127-7.248,4.127l-1.36,3.176Z" transform="translate(-816.08 -285.051)" fill="#fff"/>
              <path id="Trazado_873285" data-name="Trazado 873285" d="M833.644,335.611h-.016a.391.391,0,0,0-.393.377,35.847,35.847,0,0,1-.936,6.289.391.391,0,0,0,.291.472c.031,0,.063.008.094.008a.4.4,0,0,0,.385-.3,37.025,37.025,0,0,0,.959-6.446.4.4,0,0,0-.377-.409Zm-1.895,10.039a.394.394,0,0,0-.5.236c-.22.621-.464,1.234-.715,1.824a.392.392,0,0,0,.2.519.353.353,0,0,0,.157.031.393.393,0,0,0,.362-.236c.259-.605.511-1.234.731-1.879a.394.394,0,0,0-.236-.5Zm13.931-6.714c-1.108-4.929-7.02-4.693-8.648-4.536.016-.5.031-.991.039-1.509a.426.426,0,0,0-.11-.283.4.4,0,0,0-.283-.118H809.643a.4.4,0,0,0-.283.118.367.367,0,0,0-.11.283c.149,13.262,4.843,18.718,5.039,18.946a.394.394,0,0,0,.3.134h17.146a.377.377,0,0,0,.291-.134,12.326,12.326,0,0,0,1.454-2.241h.291c4.63,0,8.3-1.384,10.385-3.923a7.734,7.734,0,0,0,1.517-6.737Zm-8.946-.668h.024a4.9,4.9,0,0,1,4.214.967,2.58,2.58,0,0,1,.5,2.563c-.676,2.673-4.725,3.522-6.281,3.75a38.384,38.384,0,0,0,1.557-7.288Zm-5.189,12.916H814.776c-.692-.9-4.513-6.352-4.733-17.9h26.242c-.22,11.556-4.041,17-4.733,17.9Zm12-6.006c-1.91,2.327-5.338,3.6-9.662,3.616a26.037,26.037,0,0,0,1.006-2.406c1.242-.142,6.462-.928,7.335-4.395a3.325,3.325,0,0,0-.692-3.3,5.569,5.569,0,0,0-4.717-1.234c.071-.723.134-1.486.173-2.272,1.258-.157,6.895-.6,7.917,3.915a6.97,6.97,0,0,1-1.36,6.069Z" transform="translate(-809.249 -284.443)" fill="#251c4a"/>
              <g id="Grupo_1098890" data-name="Grupo 1098890" transform="translate(4.85)">
                <path id="Trazado_873286" data-name="Trazado 873286" d="M816.338,320.127a.394.394,0,0,0-.778-.118,4.886,4.886,0,0,0,1.3,4.41.391.391,0,0,0,.259.094.406.406,0,0,0,.3-.134.4.4,0,0,0-.039-.558A4.15,4.15,0,0,1,816.338,320.127Z" transform="translate(-815.433 -281.703)" fill="#251c4a"/>
                <path id="Trazado_873287" data-name="Trazado 873287" d="M817.841,289.074c-.1-.362-.228-.77-.354-1.242a.391.391,0,0,0-.755.2c.134.48.252.9.362,1.258.621,2.13.739,2.516-.354,5.645-1.329,3.813-1.879,5.393-.59,8.074a8.113,8.113,0,0,1,.259,7.563.391.391,0,0,0,.22.511.46.46,0,0,0,.149.031.384.384,0,0,0,.362-.244,8.91,8.91,0,0,0-.283-8.2c-1.148-2.39-.7-3.671.621-7.476C818.651,291.833,818.494,291.306,817.841,289.074Z" transform="translate(-815.419 -274.832)" fill="#251c4a"/>
                <path id="Trazado_873288" data-name="Trazado 873288" d="M834.9,313.308c1.722-3.844,1.329-6.077,0-8.852-1.148-2.39-.7-3.671.629-7.476.071-.2.142-.4.2-.59a.387.387,0,0,0-.251-.5.394.394,0,0,0-.5.252c-.063.181-.126.377-.2.582-1.329,3.813-1.879,5.393-.59,8.074,1.258,2.618,1.6,4.6,0,8.192-1.824,4.072.605,6.25.708,6.344a.391.391,0,0,0,.259.094.406.406,0,0,0,.3-.134.4.4,0,0,0-.039-.558c-.024-.016-2.1-1.879-.511-5.424Z" transform="translate(-819.279 -276.614)" fill="#251c4a"/>
                <path id="Trazado_873289" data-name="Trazado 873289" d="M827.006,289.316c.684-3.121.079-4.253-.763-5.818-.094-.181-.2-.369-.3-.566a.39.39,0,0,0-.692.362c.1.2.2.393.307.574.786,1.47,1.3,2.437.684,5.275a28.456,28.456,0,0,1-1.022,3.412c-.77,2.217-1.384,3.97-.259,5.99,1.541,2.767,2,4.662.5,7.964a6.557,6.557,0,0,0,.873,6.808.379.379,0,0,0,.3.134.385.385,0,0,0,.252-.094.4.4,0,0,0,.047-.55,5.787,5.787,0,0,1-.755-5.975c1.635-3.585,1.108-5.731-.519-8.671-.951-1.714-.424-3.239.315-5.354a29.049,29.049,0,0,0,1.046-3.5Z" transform="translate(-817.328 -273.8)" fill="#251c4a"/>
                <path id="Trazado_873290" data-name="Trazado 873290" d="M824.483,278.706a.382.382,0,0,0,.11-.016.4.4,0,0,0,.267-.487,6.159,6.159,0,0,1,1.109-6.163.395.395,0,0,0-.574-.542,6.923,6.923,0,0,0-1.289,6.934.387.387,0,0,0,.377.283Z" transform="translate(-817.195 -271.374)" fill="#251c4a"/>
              </g>
            </g>
            <g id="Grupo_1098892" data-name="Grupo 1098892" transform="translate(225.389 82.45)">
              <path id="Trazado_873292" data-name="Trazado 873292" d="M831.2,234.14H793.469v23.522l-.079,5.605L799,257.662H831.2Z" transform="translate(-791.094 -234.14)" fill="#ffc7ec"/>
              <path id="Trazado_873293" data-name="Trazado 873293" d="M790.863,262.3a.239.239,0,0,1-.126-.024.4.4,0,0,1-.267-.369V236.243a.389.389,0,0,1,.393-.393h37.279a.389.389,0,0,1,.393.393v20.794a.389.389,0,0,1-.393.393H794.857l-3.687,4.717a.4.4,0,0,1-.307.149Zm.393-25.668v24.127l3.105-3.97a.387.387,0,0,1,.307-.149h33.081V236.636Z" transform="translate(-790.47 -234.506)" fill="#251c4a"/>
              <path id="Trazado_873294" data-name="Trazado 873294" d="M799.955,243.268a1.038,1.038,0,1,1-1.038-1.038A1.037,1.037,0,0,1,799.955,243.268Z" transform="translate(-792.055 -235.87)" fill="#7c60ff"/>
              <path id="Trazado_873295" data-name="Trazado 873295" d="M824.818,243.836H803.773a.393.393,0,0,1,0-.786h21.045a.393.393,0,0,1,0,.786Z" transform="translate(-793.231 -236.045)" fill="#fff"/>
              <circle id="Elipse_11457" data-name="Elipse 11457" cx="1.038" cy="1.038" r="1.038" transform="translate(5.825 10.92)" fill="#7c60ff"/>
              <path id="Trazado_873296" data-name="Trazado 873296" d="M822.334,249.636H803.773a.393.393,0,0,1,0-.786h18.561a.393.393,0,0,1,0,.786Z" transform="translate(-793.231 -237.286)" fill="#fff"/>
              <path id="Trazado_873297" data-name="Trazado 873297" d="M799.955,254.878a1.038,1.038,0,1,1-1.038-1.038A1.037,1.037,0,0,1,799.955,254.878Z" transform="translate(-792.055 -238.353)" fill="#7c60ff"/>
              <path id="Trazado_873298" data-name="Trazado 873298" d="M818.881,255.446H803.763a.393.393,0,0,1,0-.786h15.118a.393.393,0,0,1,0,.786Z" transform="translate(-793.229 -238.528)" fill="#fff"/>
              <path id="Trazado_873299" data-name="Trazado 873299" d="M830.386,255.446h-4.363a.393.393,0,0,1,0-.786h4.363a.393.393,0,0,1,0,.786Z" transform="translate(-797.989 -238.528)" fill="#fff"/>
            </g>
            <g id="Grupo_1098893" data-name="Grupo 1098893" transform="translate(61.571 98.668)">
              <path id="Trazado_873300" data-name="Trazado 873300" d="M582.483,277.8a.369.369,0,0,1-.275-.118.4.4,0,0,1-.118-.275V255.7a.378.378,0,0,1,.385-.393h0a.389.389,0,0,1,.393.393v21.313l29.032-.008h0a.393.393,0,0,1,0,.786H582.483Z" transform="translate(-582.09 -254.885)" fill="#251c4a"/>
              <rect id="Rectángulo_401114" data-name="Rectángulo 401114" width="4.568" height="12.704" transform="translate(5.283 6.549)" fill="#7c60ff"/>
              <rect id="Rectángulo_401115" data-name="Rectángulo 401115" width="4.568" height="19.245" transform="translate(12.893)" fill="#f5c59d"/>
              <rect id="Rectángulo_401116" data-name="Rectángulo 401116" width="4.568" height="15.519" transform="translate(20.503 3.726)" fill="#fff"/>
            </g>
            <g id="Grupo_1098895" data-name="Grupo 1098895" transform="translate(11.977 53.582)">
              <path id="Trazado_873301" data-name="Trazado 873301" d="M540.964,213.034a8.2,8.2,0,0,0,.11-1.25,8.084,8.084,0,0,0-.079-1.077l.118.212,4.245-3.443-1.226-2.123-1.226-2.115s-3.325,1.274-5.039,1.934l.189.33a8.177,8.177,0,0,0-1.973-1.171h.228c-.283-1.792-.857-5.4-.857-5.4h-4.89s-.558,3.514-.849,5.33h.385a8.393,8.393,0,0,0-2.02,1.148l.126-.212-5.1-1.958-1.226,2.123-1.226,2.115s2.767,2.241,4.19,3.4l.2-.338a8.2,8.2,0,0,0-.11,1.25,8.083,8.083,0,0,0,.078,1.077l-.118-.212-4.245,3.443,1.226,2.123,1.226,2.115s3.325-1.274,5.039-1.934l-.189-.33a8.178,8.178,0,0,0,1.973,1.171H529.7c.283,1.792.857,5.4.857,5.4h4.89s.558-3.514.849-5.33h-.385a8.392,8.392,0,0,0,2.02-1.148l-.126.212c1.7.653,5.1,1.958,5.1,1.958l1.226-2.115,1.226-2.123s-2.767-2.241-4.19-3.4Zm-7.956,1.84a3.09,3.09,0,1,1,3.089-3.09A3.09,3.09,0,0,1,533.008,214.873Z" transform="translate(-519.357 -197.743)" fill="#f5c59d"/>
              <g id="Grupo_1098894" data-name="Grupo 1098894">
                <path id="Trazado_873302" data-name="Trazado 873302" d="M534.233,209.85a3.483,3.483,0,1,0,3.483,3.483A3.489,3.489,0,0,0,534.233,209.85Zm0,6.171a2.7,2.7,0,1,1,2.7-2.7A2.7,2.7,0,0,1,534.233,216.021Z" transform="translate(-521.517 -200.078)" fill="#251c4a"/>
                <path id="Trazado_873303" data-name="Trazado 873303" d="M540.148,211.288c.016-.2.031-.409.031-.621s-.016-.417-.031-.621l4.174-3.38a.4.4,0,0,0,.094-.5l-2.445-4.237a.4.4,0,0,0-.479-.173l-5.008,1.918a7.617,7.617,0,0,0-1.077-.613l-.841-5.307a.4.4,0,0,0-.385-.33h-4.89a.383.383,0,0,0-.385.33l-.841,5.307a8.489,8.489,0,0,0-1.077.613l-5.008-1.918a.384.384,0,0,0-.48.173l-2.445,4.237a.4.4,0,0,0,.094.5l4.174,3.38c-.016.2-.031.409-.031.621s.016.417.031.621l-4.174,3.38a.4.4,0,0,0-.094.5l2.445,4.237a.389.389,0,0,0,.338.2.444.444,0,0,0,.141-.024l5.008-1.918a7.628,7.628,0,0,0,1.077.613l.841,5.307a.4.4,0,0,0,.385.33h4.89a.383.383,0,0,0,.385-.33l.841-5.307a8.474,8.474,0,0,0,1.077-.613l5.008,1.918a.444.444,0,0,0,.141.024.389.389,0,0,0,.338-.2l2.445-4.237a.4.4,0,0,0-.094-.5Zm1.3-8.671,2.107,3.656-3.53,2.862a8.469,8.469,0,0,0-2.83-4.89Zm-9.733,15.723a7.673,7.673,0,1,1,7.673-7.673A7.683,7.683,0,0,1,531.721,218.339Zm-2.107-20.125h4.222l.715,4.5a8.289,8.289,0,0,0-5.645,0l.715-4.5Zm-9.732,8.058,2.107-3.656,4.253,1.627a8.468,8.468,0,0,0-2.83,4.89l-3.53-2.862Zm2.107,12.453-2.107-3.656,3.53-2.862a8.469,8.469,0,0,0,2.83,4.89Zm11.847,4.4h-4.222l-.715-4.5a8.289,8.289,0,0,0,5.645,0l-.715,4.5Zm7.618-4.4L537.2,217.1a8.469,8.469,0,0,0,2.83-4.89l3.53,2.862-2.115,3.656Z" transform="translate(-519.005 -197.42)" fill="#251c4a"/>
              </g>
            </g>
            <g id="Grupo_1098896" data-name="Grupo 1098896" transform="translate(221.159 24.621)">
              <path id="Trazado_873304" data-name="Trazado 873304" d="M795.769,193.111l-1.989-8.152a12.477,12.477,0,0,1-5.77-10.684c0-7.468,5.6-13.7,14.009-13.019s12.083,7.806,11.784,11.926-.369,6.729-2.791,9.088-3.931,3.663-3.931,3.663l-1.981,7.178h-9.332Z" transform="translate(-785.714 -160.714)" fill="#f5c59d"/>
              <path id="Trazado_873305" data-name="Trazado 873305" d="M799.569,166.659a1.509,1.509,0,1,1-1.509-1.509A1.51,1.51,0,0,1,799.569,166.659Z" transform="translate(-787.541 -161.557)" fill="#fff"/>
              <path id="Trazado_873306" data-name="Trazado 873306" d="M793.946,170.968a.668.668,0,1,1-.668-.668A.668.668,0,0,1,793.946,170.968Z" transform="translate(-786.698 -162.659)" fill="#fff"/>
              <path id="Trazado_873307" data-name="Trazado 873307" d="M796.56,201.79h12.649l-1.053,8.726-10.888-.079Z" transform="translate(-787.543 -169.393)" fill="#7c60ff"/>
              <path id="Trazado_873308" data-name="Trazado 873308" d="M793.346,206.191a.2.2,0,0,1-.016-.393l16.737-1.219a.186.186,0,0,1,.212.181.2.2,0,0,1-.181.212l-16.737,1.219Z" transform="translate(-786.813 -169.989)" fill="#fff"/>
              <path id="Trazado_873309" data-name="Trazado 873309" d="M793.346,209.821a.2.2,0,0,1-.016-.393l16.737-1.219a.191.191,0,0,1,.212.181.2.2,0,0,1-.181.212l-16.737,1.219Z" transform="translate(-786.813 -170.766)" fill="#fff"/>
              <path id="Trazado_873310" data-name="Trazado 873310" d="M799.359,160.58c-7.869,0-14.269,6.14-14.269,13.687a13.538,13.538,0,0,0,6.163,11.077,2.6,2.6,0,0,1,1.077,1.557l1.391,5.692h-.566a.411.411,0,0,0-.291.126.378.378,0,0,0-.1.3l.81,8.726a.387.387,0,0,0,.393.354h1.447c.26,1.5,1.918,2.665,3.947,2.665s3.695-1.163,3.946-2.665h1.447a.4.4,0,0,0,.393-.354l.81-8.726a.379.379,0,0,0-.1-.3.4.4,0,0,0-.291-.126H805l1.391-5.692a2.67,2.67,0,0,1,1.077-1.557,13.538,13.538,0,0,0,6.163-11.077c0-7.547-6.4-13.687-14.269-13.687Zm0,43.388a3.1,3.1,0,0,1-3.153-1.879h6.313A3.11,3.11,0,0,1,799.359,203.968Zm5.031-2.657h-8.428a.355.355,0,0,0-.2-.071.406.406,0,0,0-.244.071h-1.2l-.739-7.94h11.549l-.739,7.94Zm-4.764-8.726v-6.2a.393.393,0,0,0-.786,0v6.2h-2.4l-3-17.508,1.7-1.486,1.816,1.91a.4.4,0,0,0,.283.118.406.406,0,0,0,.259-.094l1.84-1.6,1.84,1.6a.392.392,0,0,0,.542-.024l1.816-1.91,1.494,1.3-3.027,17.688h-2.4Zm7.4-7.893a3.413,3.413,0,0,0-1.4,2.02l-1.431,5.88h-1.368l2.987-17.468a.591.591,0,0,0,.047-.039.38.38,0,0,0,.039-.456l.2-1.156a.395.395,0,0,0-.778-.134l-.11.653-1.415-1.234a.4.4,0,0,0-.542.024l-1.824,1.91-1.816-1.58a.4.4,0,0,0-.519,0l-1.816,1.58-1.824-1.91a.392.392,0,0,0-.542-.024l-1.619,1.415-.141-.833a.4.4,0,0,0-.456-.322.393.393,0,0,0-.322.456l3.27,19.119h-1.124l-1.431-5.873a3.412,3.412,0,0,0-1.4-2.02,12.765,12.765,0,0,1-5.818-10.424c0-7.115,6.053-12.9,13.482-12.9s13.482,5.786,13.482,12.9a12.754,12.754,0,0,1-5.818,10.424Z" transform="translate(-785.09 -160.58)" fill="#251c4a"/>
            </g>
            <g id="Grupo_1098897" data-name="Grupo 1098897" transform="translate(109.149 103.739)">
              <path id="Trazado_873311" data-name="Trazado 873311" d="M645.55,264.06v19.929H673.8l3.2,4.245V264.06Z" transform="translate(-643.239 -261.827)" fill="#f5c59d"/>
              <path id="Trazado_873312" data-name="Trazado 873312" d="M674.19,287.475a.387.387,0,0,1-.307-.149l-3.687-4.717H643a.389.389,0,0,1-.393-.393V263.953a.389.389,0,0,1,.393-.393H674.2a.389.389,0,0,1,.393.393v23.129a.4.4,0,0,1-.267.369.356.356,0,0,1-.126.024Zm-30.8-5.66h27a.387.387,0,0,1,.307.149l3.105,3.97v-21.6H643.388Z" transform="translate(-642.61 -261.72)" fill="#251c4a"/>
              <path id="Trazado_873313" data-name="Trazado 873313" d="M658.47,281.116h-3.577a.393.393,0,0,1,0-.786h3.577a.393.393,0,0,1,0,.786Z" transform="translate(-645.153 -265.307)" fill="#fff"/>
              <path id="Trazado_873314" data-name="Trazado 873314" d="M674.5,281.116H663.7a.393.393,0,0,1,0-.786h10.8a.393.393,0,0,1,0,.786Z" transform="translate(-647.037 -265.307)" fill="#fff"/>
              <path id="Trazado_873315" data-name="Trazado 873315" d="M672.249,275.9h-19.1a.393.393,0,0,1,0-.786h19.1a.393.393,0,0,1,0,.786Z" transform="translate(-644.781 -264.19)" fill="#fff"/>
              <path id="Trazado_873316" data-name="Trazado 873316" d="M653.537,270.666h-3.954a.393.393,0,0,1,0-.786h3.954a.393.393,0,0,1,0,.786Z" transform="translate(-644.017 -263.072)" fill="#fff"/>
              <path id="Trazado_873317" data-name="Trazado 873317" d="M673.656,270.666H659.733a.393.393,0,0,1,0-.786h13.923a.393.393,0,1,1,0,.786Z" transform="translate(-646.188 -263.072)" fill="#fff"/>
              <circle id="Elipse_11458" data-name="Elipse 11458" cx="2.233" cy="2.233" r="2.233" transform="translate(24.528)" fill="#7c60ff"/>
            </g>
          </g>
          <g id="Grupo_1098186" data-name="Grupo 1098186" transform="translate(144.349 18.402)">
            <g id="Grupo_1098185" data-name="Grupo 1098185" transform="translate(0 0)" clip-path="url(#clip-path-4)">
              <path id="Trazado_849140" data-name="Trazado 849140" d="M20.983.5H4.4A3.9,3.9,0,0,0,.5,4.4v8.069a3.9,3.9,0,0,0,3.9,3.9H8.733l3.285,7.445,4.63-7.445h4.335a3.9,3.9,0,0,0,3.9-3.9V4.4a3.9,3.9,0,0,0-3.9-3.9" transform="translate(-0.107 -0.107)" fill="#fff"/>
              <path id="Trazado_849141" data-name="Trazado 849141" d="M20.983.5H4.4A3.9,3.9,0,0,0,.5,4.4v8.069a3.9,3.9,0,0,0,3.9,3.9H8.733l3.285,7.445,4.63-7.445h4.335a3.9,3.9,0,0,0,3.9-3.9V4.4A3.9,3.9,0,0,0,20.983.5Z" transform="translate(-0.107 -0.107)" fill="none" stroke="#263238" stroke-linecap="round" stroke-linejoin="round" stroke-width="1"/>
              <path id="Trazado_879259" data-name="Trazado 879259" d="M3.434-3.422l-.914.984V0H.762V-8.531H2.52v3.867l.773-1.061L5.467-8.531H7.629L4.6-4.74,7.717,0H5.625Zm7.6,3.539A3.112,3.112,0,0,1,8.763-.738a3.041,3.041,0,0,1-.876-2.279v-.164A3.83,3.83,0,0,1,8.256-4.89,2.709,2.709,0,0,1,9.3-6.05a2.936,2.936,0,0,1,1.544-.407,2.631,2.631,0,0,1,2.048.82,3.333,3.333,0,0,1,.747,2.326v.691H9.6a1.573,1.573,0,0,0,.5,1,1.5,1.5,0,0,0,1.046.375,1.828,1.828,0,0,0,1.529-.709l.832.932a2.542,2.542,0,0,1-1.031.841A3.383,3.383,0,0,1,11.033.117Zm-.193-5.2a1.06,1.06,0,0,0-.817.34,1.756,1.756,0,0,0-.4.973h2.355v-.135a1.252,1.252,0,0,0-.3-.87A1.094,1.094,0,0,0,10.84-5.086ZM16.893-2.4,18.064-6.34h1.816L17.332.984l-.141.334a1.933,1.933,0,0,1-1.875,1.242,2.664,2.664,0,0,1-.75-.111V1.166l.258.006a1.393,1.393,0,0,0,.718-.146.962.962,0,0,0,.372-.486l.2-.521L13.893-6.34h1.822Z" transform="translate(3.11 12.412)" fill="#12263f"/>
            </g>
          </g>
          <g id="Grupo_1098188" data-name="Grupo 1098188" transform="translate(247.865 47.718)">
            <g id="Grupo_1098187" data-name="Grupo 1098187" transform="translate(0 0)" clip-path="url(#clip-path-5)">
              <path id="Trazado_849145" data-name="Trazado 849145" d="M23.254.5H4.831A4.33,4.33,0,0,0,.5,4.831v8.964a4.331,4.331,0,0,0,4.331,4.331H9.646l3.649,8.27,5.144-8.27h4.815a4.331,4.331,0,0,0,4.331-4.331V4.831A4.33,4.33,0,0,0,23.254.5" transform="translate(-0.063 -0.063)" fill="#fff"/>
              <path id="Trazado_849146" data-name="Trazado 849146" d="M23.254.5H4.831A4.33,4.33,0,0,0,.5,4.831v8.964a4.331,4.331,0,0,0,4.331,4.331H9.646l3.649,8.27,5.144-8.27h4.815a4.331,4.331,0,0,0,4.331-4.331V4.831A4.33,4.33,0,0,0,23.254.5Z" transform="translate(-0.063 -0.063)" fill="none" stroke="#263238" stroke-linecap="round" stroke-linejoin="round" stroke-width="1"/>
              <path id="Trazado_849147" data-name="Trazado 849147" d="M11.479,9.974c.449.146.662.449.662,1.145v2.132a.753.753,0,0,0,.831.852h.236v1.122h-.562A1.666,1.666,0,0,1,10.738,13.4V11.085c0-.37-.19-.539-.5-.539h-.37V9.4h.37c.314,0,.5-.169.5-.539V6.552a1.666,1.666,0,0,1,1.907-1.829h.562V5.845h-.236a.753.753,0,0,0-.831.853V8.829c0,.7-.213,1-.662,1.145" transform="translate(-1.25 -0.598)" fill="#263238"/>
              <path id="Trazado_849148" data-name="Trazado 849148" d="M21.024,9.4v1.145h-.382c-.3,0-.493.168-.493.538V13.4a1.675,1.675,0,0,1-1.919,1.83H17.67V14.1h.236a.756.756,0,0,0,.841-.852V11.118c0-.7.2-1,.651-1.145-.45-.146-.651-.448-.651-1.144V6.7a.756.756,0,0,0-.841-.853H17.67V4.723h.561a1.674,1.674,0,0,1,1.919,1.829V8.862c0,.371.191.539.493.539Z" transform="translate(-2.239 -0.598)" fill="#263238"/>
            </g>
          </g>
          <g id="Grupo_1098190" data-name="Grupo 1098190" transform="translate(151.961 129.499) rotate(-90)">
            <g id="Grupo_1098189" data-name="Grupo 1098189" transform="translate(0 0)" clip-path="url(#clip-path-6)">
              <path id="Trazado_849149" data-name="Trazado 849149" d="M23.77,0H4.524A4.524,4.524,0,0,0,0,4.524v9.364a4.524,4.524,0,0,0,4.524,4.524h5.03l3.812,8.64,5.373-8.64h5.03a4.524,4.524,0,0,0,4.524-4.524V4.524A4.524,4.524,0,0,0,23.77,0" transform="translate(0.456 0.456)" fill="#fff"/>
              <path id="Trazado_849150" data-name="Trazado 849150" d="M23.77,0H4.524A4.524,4.524,0,0,0,0,4.524v9.364a4.524,4.524,0,0,0,4.524,4.524h5.03l3.812,8.64,5.373-8.64h5.03a4.524,4.524,0,0,0,4.524-4.524V4.524A4.524,4.524,0,0,0,23.77,0Z" transform="translate(0.456 0.456)" fill="none" stroke="#263238" stroke-linecap="round" stroke-linejoin="round" stroke-width="1"/>
              <path id="Trazado_849151" data-name="Trazado 849151" d="M0,.879A.893.893,0,0,1,.938,0a.872.872,0,0,1,.938.844.9.9,0,0,1-.938.915A.893.893,0,0,1,0,.879M.2,2.79H1.665V9.049H.2Z" transform="translate(20.174 5.832) rotate(90)" fill="#263238"/>
              <path id="Trazado_849152" data-name="Trazado 849152" d="M2.45,2.191v.375H4.173V3.739H2.5v5.04H1.031V3.739H0V2.566H1.031v-.4A2.023,2.023,0,0,1,3.27,0,2.344,2.344,0,0,1,4.594.339l-.411,1.1a1.442,1.442,0,0,0-.808-.258c-.609,0-.926.34-.926,1.008" transform="translate(19.904 8.586) rotate(90)" fill="#263238"/>
            </g>
          </g>
          <g id="Grupo_1098901" data-name="Grupo 1098901" transform="translate(271.1 103.047)">
            <g id="Grupo_1098191" data-name="Grupo 1098191" transform="translate(0 0)" clip-path="url(#clip-path-7)">
              <path id="Trazado_849153" data-name="Trazado 849153" d="M20.983,23.81H4.4a3.9,3.9,0,0,1-3.9-3.9V11.843a3.9,3.9,0,0,1,3.9-3.9H8.733L7.788.5l8.86,7.445h4.335a3.9,3.9,0,0,1,3.9,3.9v8.069a3.9,3.9,0,0,1-3.9,3.9" transform="translate(-0.107 -0.107)" fill="#fff"/>
              <path id="Trazado_849154" data-name="Trazado 849154" d="M20.983,23.81H4.4a3.9,3.9,0,0,1-3.9-3.9V11.843a3.9,3.9,0,0,1,3.9-3.9H8.733L7.788.5l8.86,7.445h4.335a3.9,3.9,0,0,1,3.9,3.9v8.069A3.9,3.9,0,0,1,20.983,23.81Z" transform="translate(-0.107 -0.107)" fill="none" stroke="#263238" stroke-linecap="round" stroke-linejoin="round" stroke-width="1"/>
              <path id="Trazado_849155" data-name="Trazado 849155" d="M13.329,21.914a.781.781,0,0,0-.818-.777.77.77,0,0,0-.8.777.778.778,0,0,0,.8.788.79.79,0,0,0,.818-.788m-.071-6.353H11.763l.252,4.727h1Z" transform="translate(2.631 -3.328)" fill="#263238"/>
              <path id="Trazado_849156" data-name="Trazado 849156" d="M20.016,17.862H15.36v1.009h4.656Zm0,2.443H15.36v1.01h4.656Z" transform="translate(-6.924 -3.82)" fill="#263238"/>
            </g>
          </g>
        </g>
        <rect id="Rectángulo_401103" data-name="Rectángulo 401103" width="314" height="3" rx="1.5" transform="translate(0.459 177.814)" fill="#2e1460"/>
      </g>
    </g>
  </g>
</svg>
