<svg xmlns="http://www.w3.org/2000/svg" xmlns:xlink="http://www.w3.org/1999/xlink" width="155" height="66" viewBox="0 0 155 66">
  <defs>
    <clipPath id="clip-path">
      <rect id="Rect치ngulo_404217" data-name="Rect치ngulo 404217" width="30.482" height="34.728" fill="#fff"/>
    </clipPath>
  </defs>
  <g id="_9" data-name="9" transform="translate(-856 -2352)">
    <rect id="Rect치ngulo_403191" data-name="Rect치ngulo 403191" width="155" height="66" rx="5" transform="translate(856 2352)" fill="#8722e2"/>
    <path id="Trazado_886784" data-name="Trazado 886784" d="M1.289,0V-17.062h5.5a8.085,8.085,0,0,1,4.066,1.025,7.208,7.208,0,0,1,2.818,2.895A8.739,8.739,0,0,1,14.7-8.953v.785a8.79,8.79,0,0,1-.99,4.2,7.239,7.239,0,0,1-2.789,2.906A7.907,7.907,0,0,1,6.9,0ZM5.4-13.887V-3.164h1.43a3.2,3.2,0,0,0,2.719-1.26A6.173,6.173,0,0,0,10.5-8.168v-.738a6.123,6.123,0,0,0-.949-3.727,3.256,3.256,0,0,0-2.766-1.254Zm16.8-3.176L26.016-5.191l3.8-11.871h5.414V0H31.1V-3.984l.4-8.156L27.375,0H24.656L20.52-12.152l.4,8.168V0H16.8V-17.062Zm19.746,13.9h7.16V0H37.84V-17.062h4.113Z" transform="translate(915 2393)" fill="#fff"/>
    <g id="Grupo_1103695" data-name="Grupo 1103695" transform="translate(873.518 2366)">
      <g id="Grupo_1103693" data-name="Grupo 1103693" clip-path="url(#clip-path)">
        <path id="Trazado_886768" data-name="Trazado 886768" d="M15.241,34.728a42.43,42.43,0,0,1-10.507-1.17C1.637,32.728,0,31.567,0,30.2V4.526C0,3.161,1.637,2,4.734,1.17A42.43,42.43,0,0,1,15.241,0,42.43,42.43,0,0,1,25.748,1.17c3.1.83,4.734,1.991,4.734,3.357V30.2c0,1.366-1.637,2.527-4.734,3.357a42.43,42.43,0,0,1-10.507,1.17m0-33.522A41.211,41.211,0,0,0,5.046,2.335c-2.835.76-3.84,1.655-3.84,2.192V30.2c0,.536,1.006,1.432,3.84,2.192a41.211,41.211,0,0,0,10.195,1.129,41.211,41.211,0,0,0,10.195-1.129c2.835-.76,3.84-1.655,3.84-2.192V4.526c0-.536-1.006-1.432-3.84-2.192A41.211,41.211,0,0,0,15.241,1.206" transform="translate(0 0)" fill="#fff"/>
        <path id="Trazado_886769" data-name="Trazado 886769" d="M25.118,32.449c-4.871,0-9.453-.647-12.257-1.732a.6.6,0,1,1,.435-1.125c2.673,1.034,7.092,1.651,11.822,1.651a36.419,36.419,0,0,0,11.741-1.62.6.6,0,1,1,.427,1.128,37.623,37.623,0,0,1-12.168,1.7" transform="translate(-9.877 -23.396)" fill="#fff"/>
        <path id="Trazado_886770" data-name="Trazado 886770" d="M25.118,73.485c-4.871,0-9.453-.647-12.257-1.732a.6.6,0,0,1,.435-1.125c2.673,1.034,7.092,1.65,11.822,1.65a36.417,36.417,0,0,0,11.741-1.62.6.6,0,1,1,.427,1.128,37.622,37.622,0,0,1-12.168,1.7" transform="translate(-9.877 -55.885)" fill="#fff"/>
        <path id="Trazado_886771" data-name="Trazado 886771" d="M105.881,54.473a.6.6,0,0,1-.091-1.2,28.4,28.4,0,0,0,3.028-.624.6.6,0,1,1,.314,1.164,29.479,29.479,0,0,1-3.158.651.587.587,0,0,1-.093.007" transform="translate(-83.35 -41.667)" fill="#fff"/>
        <path id="Trazado_886772" data-name="Trazado 886772" d="M105.88,95.463a.6.6,0,0,1-.091-1.2,28.344,28.344,0,0,0,3.028-.623.6.6,0,1,1,.314,1.164,29.466,29.466,0,0,1-3.157.651.611.611,0,0,1-.093.007" transform="translate(-83.349 -74.119)" fill="#fff"/>
        <path id="Trazado_886773" data-name="Trazado 886773" d="M105.88,136.452a.6.6,0,0,1-.091-1.2,28.329,28.329,0,0,0,3.028-.623.6.6,0,1,1,.314,1.164,29.488,29.488,0,0,1-3.158.651.612.612,0,0,1-.093.007" transform="translate(-83.349 -106.571)" fill="#fff"/>
        <path id="Trazado_886774" data-name="Trazado 886774" d="M25.118,114.518c-4.871,0-9.453-.647-12.257-1.732a.6.6,0,1,1,.435-1.125c2.673,1.034,7.092,1.651,11.822,1.651a36.417,36.417,0,0,0,11.741-1.62.6.6,0,1,1,.427,1.128,37.622,37.622,0,0,1-12.168,1.7" transform="translate(-9.877 -88.371)" fill="#fff"/>
      </g>
    </g>
  </g>
</svg>
