<svg xmlns="http://www.w3.org/2000/svg" width="62" height="62" viewBox="0 0 62 62">
  <g id="n3" transform="translate(-1050 -4215)">
    <g id="Grupo_1100879" data-name="Grupo 1100879" transform="translate(0 800)">
      <rect id="Rectángulo_402877" data-name="Rectángulo 402877" width="62" height="62" rx="31" transform="translate(1050 3415)" fill="#fff"/>
    </g>
    <path id="Trazado_886787" data-name="Trazado 886787" d="M3.877-8.486H5.43a1.614,1.614,0,0,0,1.846-1.807,1.562,1.562,0,0,0-.439-1.147,1.666,1.666,0,0,0-1.24-.444,1.784,1.784,0,0,0-1.138.381,1.162,1.162,0,0,0-.483.947H.684a3.369,3.369,0,0,1,.625-2,4.127,4.127,0,0,1,1.733-1.372,5.926,5.926,0,0,1,2.437-.493,5.823,5.823,0,0,1,3.73,1.084,3.6,3.6,0,0,1,1.357,2.979A3,3,0,0,1,10-8.628,4,4,0,0,1,8.369-7.3,3.823,3.823,0,0,1,10.146-6.06a3.279,3.279,0,0,1,.645,2.065A3.669,3.669,0,0,1,9.326-.947,6.08,6.08,0,0,1,5.479.2,6.306,6.306,0,0,1,2.886-.337,4.062,4.062,0,0,1,1.074-1.812,3.834,3.834,0,0,1,.459-3.955H3.77A1.482,1.482,0,0,0,4.3-2.822a1.862,1.862,0,0,0,1.3.479,1.95,1.95,0,0,0,1.387-.483A1.616,1.616,0,0,0,7.5-4.062a1.889,1.889,0,0,0-.537-1.523,2.245,2.245,0,0,0-1.484-.449h-1.6Z" transform="translate(1075 4252)" fill="#12263f"/>
  </g>
</svg>
