<svg xmlns="http://www.w3.org/2000/svg" xmlns:xlink="http://www.w3.org/1999/xlink" width="295" height="170" viewBox="0 0 295 170">
  <defs>
    <clipPath id="clip-path">
      <rect id="Rectángulo_403232" data-name="Rectángulo 403232" width="191.613" height="136.071" fill="none"/>
    </clipPath>
  </defs>
  <g id="_10" data-name="10" transform="translate(-1125 -379)">
    <g id="Grupo_1100874" data-name="Grupo 1100874">
      <rect id="Rectángulo_402862" data-name="Rectángulo 402862" width="295" height="170" rx="8" transform="translate(1125 379)" fill="#f2e5fd"/>
    </g>
    <g id="Grupo_1101559" data-name="Grupo 1101559" transform="translate(1177 393)">
      <g id="Grupo_1101558" data-name="Grupo 1101558" clip-path="url(#clip-path)">
        <path id="Trazado_879016" data-name="Trazado 879016" d="M2.9,87.083c6.825,20.49,27.55,35.6,49.672,33.393,29.806-1.418,58.485-28.841,88.411-15.376,22.062,11.929,46.327,6.756,49.813-20.664,4.926-22.423-13.152-54.011-32.15-65.893C136.767,5.436,110.374.341,85.013.072,39.01-1.944-12.911,38.262,2.9,87.083" transform="translate(0 0)" fill="#fff"/>
        <path id="Trazado_879017" data-name="Trazado 879017" d="M125.979,333.522v14.306c0,2.047-12.291,3.705-27.453,3.705s-27.453-1.658-27.453-3.705V333.522c0,2.047,12.291,3.705,27.453,3.705s27.453-1.658,27.453-3.705" transform="translate(-48.863 -229.294)" fill="#beb4d0"/>
        <path id="Trazado_879018" data-name="Trazado 879018" d="M125.979,325.371c0,2.047-12.291,3.705-27.453,3.705s-27.453-1.658-27.453-3.705,12.291-3.705,27.453-3.705,27.453,1.658,27.453,3.705" transform="translate(-48.863 -221.143)" fill="#f2e9da"/>
        <path id="Trazado_879019" data-name="Trazado 879019" d="M132.378,306.72v6.888c0,.986-9.9,1.784-22.12,1.784s-22.12-.8-22.12-1.784V306.72c0-.986,9.9-1.784,22.12-1.784s22.12.8,22.12,1.784" transform="translate(-60.594 -209.642)" fill="#366985"/>
        <path id="Trazado_879020" data-name="Trazado 879020" d="M125.979,270.183v14.306c0,2.047-12.291,3.705-27.453,3.705s-27.453-1.658-27.453-3.705V270.183c0,2.047,12.291,3.705,27.453,3.705s27.453-1.658,27.453-3.705" transform="translate(-48.863 -185.749)" fill="#beb4d0"/>
        <path id="Trazado_879021" data-name="Trazado 879021" d="M125.979,262.032c0,2.047-12.291,3.705-27.453,3.705s-27.453-1.658-27.453-3.705,12.291-3.705,27.453-3.705,27.453,1.658,27.453,3.705" transform="translate(-48.863 -177.598)" fill="#f2e9da"/>
        <path id="Trazado_879022" data-name="Trazado 879022" d="M132.378,243.381v6.888c0,.986-9.9,1.784-22.12,1.784s-22.12-.8-22.12-1.784v-6.888c0-.986,9.9-1.784,22.12-1.784s22.12.8,22.12,1.784" transform="translate(-60.594 -166.097)" fill="#366985"/>
        <path id="Trazado_879023" data-name="Trazado 879023" d="M125.979,198.995V213.3c0,2.047-12.291,3.705-27.453,3.705s-27.453-1.658-27.453-3.705V198.995c0,2.047,12.291,3.705,27.453,3.705s27.453-1.658,27.453-3.705" transform="translate(-48.863 -136.808)" fill="#beb4d0"/>
        <path id="Trazado_879024" data-name="Trazado 879024" d="M125.979,190.844c0,2.047-12.291,3.705-27.453,3.705s-27.453-1.658-27.453-3.705,12.291-3.705,27.453-3.705,27.453,1.658,27.453,3.705" transform="translate(-48.863 -128.657)" fill="#f2e9da"/>
        <path id="Trazado_879025" data-name="Trazado 879025" d="M80.711,222.75a3.516,3.516,0,1,1,3.516-3.516,3.52,3.52,0,0,1-3.516,3.516m0-6.72a3.2,3.2,0,1,0,3.2,3.2,3.207,3.207,0,0,0-3.2-3.2" transform="translate(-53.071 -148.304)" fill="#25292b"/>
        <path id="Trazado_879026" data-name="Trazado 879026" d="M84.106,291.608a3.36,3.36,0,1,1-3.36-3.36,3.36,3.36,0,0,1,3.36,3.36" transform="translate(-53.202 -198.169)" fill="#4888a3"/>
        <path id="Trazado_879027" data-name="Trazado 879027" d="M80.4,358.119a3.516,3.516,0,1,1,3.516-3.516,3.52,3.52,0,0,1-3.516,3.516m0-6.72a3.2,3.2,0,1,0,3.2,3.2,3.208,3.208,0,0,0-3.2-3.2" transform="translate(-52.859 -241.37)" fill="#25292b"/>
        <path id="Trazado_879028" data-name="Trazado 879028" d="M148.26,225.375H118.672a.554.554,0,1,1,0-1.108H148.26a.554.554,0,0,1,0,1.108" transform="translate(-81.205 -154.182)" fill="#f2e9da"/>
        <path id="Trazado_879029" data-name="Trazado 879029" d="M148.26,235.285H118.672a.554.554,0,1,1,0-1.108H148.26a.554.554,0,0,1,0,1.108" transform="translate(-81.205 -160.995)" fill="#f2e9da"/>
        <path id="Trazado_879030" data-name="Trazado 879030" d="M147.009,297.406H117.421a.554.554,0,0,1,0-1.108h29.588a.554.554,0,0,1,0,1.108" transform="translate(-80.345 -203.703)" fill="#f2e9da"/>
        <path id="Trazado_879031" data-name="Trazado 879031" d="M147.009,307.316H117.421a.554.554,0,1,1,0-1.108h29.588a.554.554,0,1,1,0,1.108" transform="translate(-80.345 -210.516)" fill="#f2e9da"/>
        <path id="Trazado_879032" data-name="Trazado 879032" d="M147.009,360.083H117.421a.554.554,0,1,1,0-1.107h29.588a.554.554,0,1,1,0,1.107" transform="translate(-80.345 -246.794)" fill="#f2e9da"/>
        <path id="Trazado_879033" data-name="Trazado 879033" d="M147.009,369.993H117.421a.554.554,0,1,1,0-1.108h29.588a.554.554,0,1,1,0,1.108" transform="translate(-80.345 -253.606)" fill="#f2e9da"/>
        <path id="Trazado_879034" data-name="Trazado 879034" d="M482.658,352.246V362.1c0,1.411-8.47,2.553-18.919,2.553s-18.919-1.143-18.919-2.553v-9.859c0,1.411,8.47,2.553,18.919,2.553s18.919-1.143,18.919-2.553" transform="translate(-305.811 -242.167)" fill="#debefb"/>
        <path id="Trazado_879035" data-name="Trazado 879035" d="M482.658,346.628c0,1.411-8.47,2.554-18.919,2.554s-18.919-1.143-18.919-2.554,8.47-2.553,18.919-2.553,18.919,1.143,18.919,2.553" transform="translate(-305.811 -236.55)" fill="#f2e9da"/>
        <path id="Trazado_879036" data-name="Trazado 879036" d="M487.068,333.776v4.747c0,.679-6.825,1.229-15.244,1.229s-15.244-.55-15.244-1.229v-4.747c0-.679,6.825-1.229,15.244-1.229s15.244.55,15.244,1.229" transform="translate(-313.896 -228.624)" fill="#366985"/>
        <path id="Trazado_879037" data-name="Trazado 879037" d="M482.658,308.6v9.859c0,1.411-8.47,2.553-18.919,2.553s-18.919-1.143-18.919-2.553V308.6c0,1.411,8.47,2.553,18.919,2.553s18.919-1.143,18.919-2.553" transform="translate(-305.811 -212.159)" fill="#debefb"/>
        <path id="Trazado_879038" data-name="Trazado 879038" d="M482.658,302.979c0,1.411-8.47,2.553-18.919,2.553s-18.919-1.143-18.919-2.553,8.47-2.553,18.919-2.553,18.919,1.143,18.919,2.553" transform="translate(-305.811 -206.541)" fill="#f2e9da"/>
        <path id="Trazado_879039" data-name="Trazado 879039" d="M487.068,290.126v4.747c0,.679-6.825,1.229-15.244,1.229s-15.244-.55-15.244-1.229v-4.747c0-.679,6.825-1.229,15.244-1.229s15.244.55,15.244,1.229" transform="translate(-313.896 -198.615)" fill="#366985"/>
        <path id="Trazado_879040" data-name="Trazado 879040" d="M482.658,259.538V269.4c0,1.411-8.47,2.553-18.919,2.553s-18.919-1.143-18.919-2.553v-9.859c0,1.411,8.47,2.553,18.919,2.553s18.919-1.143,18.919-2.553" transform="translate(-305.811 -178.431)" fill="#debefb"/>
        <path id="Trazado_879041" data-name="Trazado 879041" d="M482.658,253.921c0,1.411-8.47,2.553-18.919,2.553s-18.919-1.143-18.919-2.553,8.47-2.553,18.919-2.553,18.919,1.143,18.919,2.553" transform="translate(-305.811 -172.813)" fill="#f2e9da"/>
        <path id="Trazado_879042" data-name="Trazado 879042" d="M451.355,275.85a2.472,2.472,0,1,1,2.472-2.472,2.474,2.474,0,0,1-2.472,2.472m0-4.631a2.159,2.159,0,1,0,2.159,2.159,2.162,2.162,0,0,0-2.159-2.159" transform="translate(-308.604 -186.246)" fill="#25292b"/>
        <path id="Trazado_879043" data-name="Trazado 879043" d="M453.8,323.362a2.316,2.316,0,1,1-2.316-2.316,2.316,2.316,0,0,1,2.316,2.316" transform="translate(-308.801 -220.717)" fill="#4888a3"/>
        <path id="Trazado_879044" data-name="Trazado 879044" d="M451.142,369.139a2.472,2.472,0,1,1,2.472-2.472,2.474,2.474,0,0,1-2.472,2.472m0-4.631a2.159,2.159,0,1,0,2.16,2.159,2.162,2.162,0,0,0-2.16-2.159" transform="translate(-308.459 -250.382)" fill="#25292b"/>
        <path id="Trazado_879045" data-name="Trazado 879045" d="M260.811,42.268h0a.146.146,0,0,1-.126-.073l-2.231-3.862a.146.146,0,0,1,0-.146l2.231-3.862a.146.146,0,0,1,.253,0l2.236,3.862a.146.146,0,0,1,0,.146L260.937,42.2a.146.146,0,0,1-.126.073m-2.063-4.008,2.063,3.571,2.067-3.571-2.067-3.571Z" transform="translate(-177.672 -23.549)" fill="#f2e9da"/>
        <path id="Trazado_879046" data-name="Trazado 879046" d="M247.095,38.169a1.257,1.257,0,1,1,1.257-1.257,1.258,1.258,0,0,1-1.257,1.257m0-2.222a.965.965,0,1,0,.965.965.966.966,0,0,0-.965-.965" transform="translate(-169.012 -24.513)" fill="#f2e9da"/>
        <path id="Trazado_879047" data-name="Trazado 879047" d="M260.183,23.062a1.086,1.086,0,1,1,1.086-1.086,1.087,1.087,0,0,1-1.086,1.086m0-1.881a.795.795,0,1,0,.795.795.8.8,0,0,0-.795-.795" transform="translate(-178.128 -14.362)" fill="#f2e9da"/>
        <path id="Trazado_879048" data-name="Trazado 879048" d="M244.588,26.141a.78.78,0,1,1,.78-.78.781.781,0,0,1-.78.78m0-1.269a.489.489,0,1,0,.489.489.49.49,0,0,0-.489-.489" transform="translate(-167.617 -16.899)" fill="#f2e9da"/>
        <path id="Trazado_879049" data-name="Trazado 879049" d="M384.444,68.493h0a.146.146,0,0,1-.126-.073l-1.707-2.955a.146.146,0,0,1,0-.146l1.707-2.955a.146.146,0,0,1,.252,0l1.711,2.955a.146.146,0,0,1,0,.146l-1.711,2.955a.146.146,0,0,1-.126.073m-1.538-3.1,1.539,2.664,1.542-2.664-1.542-2.664Z" transform="translate(-263.03 -42.825)" fill="#f2e9da"/>
        <path id="Trazado_879050" data-name="Trazado 879050" d="M372.833,62.413a1.257,1.257,0,1,1,1.257-1.257,1.258,1.258,0,0,1-1.257,1.257m0-2.222a.965.965,0,1,0,.965.965.966.966,0,0,0-.965-.965" transform="translate(-255.456 -41.181)" fill="#f2e9da"/>
        <path id="Trazado_879051" data-name="Trazado 879051" d="M385.92,52.5a1.086,1.086,0,1,1,1.086-1.086A1.087,1.087,0,0,1,385.92,52.5m0-1.881a.795.795,0,1,0,.795.795.8.8,0,0,0-.795-.795" transform="translate(-264.571 -34.6)" fill="#f2e9da"/>
        <path id="Trazado_879052" data-name="Trazado 879052" d="M373.88,49.857a.78.78,0,1,1,.78-.78.781.781,0,0,1-.78.78m0-1.269a.489.489,0,1,0,.489.489.49.49,0,0,0-.489-.489" transform="translate(-256.504 -33.203)" fill="#f2e9da"/>
        <path id="Trazado_879053" data-name="Trazado 879053" d="M382.867,157.74h0a.145.145,0,0,1-.126-.073l-2.231-3.862a.146.146,0,0,1,0-.146l2.231-3.862a.145.145,0,0,1,.252,0l2.236,3.862a.146.146,0,0,1,0,.146l-2.236,3.862a.145.145,0,0,1-.126.073m-2.063-4.008,2.063,3.571,2.068-3.571-2.068-3.571Z" transform="translate(-261.585 -102.935)" fill="#f2e9da"/>
        <path id="Trazado_879054" data-name="Trazado 879054" d="M383.172,139.933a1.086,1.086,0,1,1,1.086-1.086,1.087,1.087,0,0,1-1.086,1.086m0-1.881a.795.795,0,1,0,.795.795.8.8,0,0,0-.795-.795" transform="translate(-262.682 -94.71)" fill="#f2e9da"/>
        <path id="Trazado_879055" data-name="Trazado 879055" d="M400.321,155.474a.78.78,0,1,1,.78-.78.781.781,0,0,1-.78.78m0-1.269a.489.489,0,1,0,.489.489.49.49,0,0,0-.489-.489" transform="translate(-274.682 -105.814)" fill="#f2e9da"/>
        <path id="Trazado_879056" data-name="Trazado 879056" d="M399.532,134.675h0a.145.145,0,0,1-.126-.073l-1.4-2.425a.146.146,0,0,1,0-.146l1.4-2.425a.146.146,0,0,1,.252,0l1.4,2.425a.147.147,0,0,1,0,.146l-1.4,2.425a.145.145,0,0,1-.126.072M398.3,132.1l1.233,2.134,1.236-2.134-1.236-2.134Z" transform="translate(-273.612 -89.053)" fill="#f2e9da"/>
        <path id="Trazado_879057" data-name="Trazado 879057" d="M372.564,151.286a.78.78,0,1,1,.78-.78.781.781,0,0,1-.78.78m0-1.269a.489.489,0,1,0,.489.489.49.49,0,0,0-.489-.489" transform="translate(-255.599 -102.935)" fill="#f2e9da"/>
        <path id="Trazado_879058" data-name="Trazado 879058" d="M69.785,122.161h0a.146.146,0,0,1-.126-.073l-1.707-2.955a.146.146,0,0,1,0-.146l1.707-2.955a.146.146,0,0,1,.252,0l1.711,2.955a.146.146,0,0,1,0,.146l-1.711,2.955a.146.146,0,0,1-.126.073m-1.539-3.1,1.539,2.664,1.542-2.664L69.785,116.4Z" transform="translate(-46.703 -79.722)" fill="#f2e9da"/>
        <path id="Trazado_879059" data-name="Trazado 879059" d="M58.173,116.081a1.257,1.257,0,1,1,1.257-1.257,1.258,1.258,0,0,1-1.257,1.257m0-2.222a.965.965,0,1,0,.965.965.966.966,0,0,0-.965-.965" transform="translate(-39.129 -78.077)" fill="#f2e9da"/>
        <path id="Trazado_879060" data-name="Trazado 879060" d="M71.261,106.168a1.086,1.086,0,1,1,1.086-1.086,1.088,1.088,0,0,1-1.086,1.086m0-1.881a.795.795,0,1,0,.795.795.8.8,0,0,0-.795-.795" transform="translate(-48.245 -71.497)" fill="#f2e9da"/>
        <path id="Trazado_879061" data-name="Trazado 879061" d="M59.22,103.525a.78.78,0,1,1,.78-.78.781.781,0,0,1-.78.78m0-1.269a.489.489,0,1,0,.489.489.49.49,0,0,0-.489-.489" transform="translate(-40.177 -70.1)" fill="#f2e9da"/>
        <path id="Trazado_879062" data-name="Trazado 879062" d="M521.449,186.9h-1.875a.156.156,0,0,1,0-.312h1.875a.156.156,0,0,1,0,.313m-3.75,0h-1.875a.156.156,0,0,1,0-.312H517.7a.156.156,0,0,1,0,.313m-3.749-.031h-.019a4.173,4.173,0,0,1-1.808-.675.156.156,0,0,1,.174-.259,3.865,3.865,0,0,0,1.672.624.156.156,0,0,1-.019.311m9.371-.017a.156.156,0,0,1-.025-.31,3.309,3.309,0,0,0,1.6-.748.156.156,0,1,1,.2.238,3.62,3.62,0,0,1-1.753.819l-.026,0m-20.038-.389a.156.156,0,0,1-.156-.156v-1.875a.156.156,0,0,1,.313,0V186.3a.156.156,0,0,1-.156.156m7.665-1.606a.156.156,0,0,1-.136-.079,4.18,4.18,0,0,1-.533-1.855.156.156,0,0,1,.149-.163.148.148,0,0,1,.163.149,3.811,3.811,0,0,0,.493,1.716.157.157,0,0,1-.136.233m15.09-.321a.156.156,0,0,1-.148-.206,3.3,3.3,0,0,0,.173-1.06v-.745a.156.156,0,0,1,.313,0v.745a3.631,3.631,0,0,1-.189,1.16.156.156,0,0,1-.148.106m-22.751-1.823h-.007a.156.156,0,0,1-.149-.163,3.723,3.723,0,0,1,.589-1.842.156.156,0,0,1,.263.169,3.42,3.42,0,0,0-.54,1.688.156.156,0,0,1-.156.149m6.754-1.454a.157.157,0,0,1-.139-.085,3.434,3.434,0,0,0-1.188-1.315.156.156,0,1,1,.17-.263,3.747,3.747,0,0,1,1.3,1.436.156.156,0,0,1-.068.21.151.151,0,0,1-.071.017m16.178-.453a.156.156,0,0,1-.156-.156v-1.875a.156.156,0,1,1,.313,0v1.875a.156.156,0,0,1-.156.156m-20.994-1.1a.156.156,0,0,1-.072-.3,3.7,3.7,0,0,1,1.891-.406.156.156,0,0,1,.148.164.145.145,0,0,1-.164.148,3.4,3.4,0,0,0-1.733.372.154.154,0,0,1-.071.018m20.994-2.648a.156.156,0,0,1-.156-.156v-1.875a.156.156,0,1,1,.313,0v1.875a.156.156,0,0,1-.156.156m0-3.75a.156.156,0,0,1-.156-.156v-1.875a.156.156,0,1,1,.313,0v1.875a.156.156,0,0,1-.156.156m0-3.75a.156.156,0,0,1-.156-.156v-1.875a.156.156,0,1,1,.313,0v1.875a.156.156,0,0,1-.156.156m0-3.75a.156.156,0,0,1-.156-.156v-1.875a.156.156,0,0,1,.313,0v1.875a.156.156,0,0,1-.156.156m-.054-3.747a.156.156,0,0,1-.154-.131,3.835,3.835,0,0,0-.7-1.643.156.156,0,1,1,.251-.185,4.141,4.141,0,0,1,.753,1.778.156.156,0,0,1-.129.18l-.026,0m-2.143-2.908a.158.158,0,0,1-.07-.017,3.79,3.79,0,0,0-1.721-.407.164.164,0,0,1-.165-.156.149.149,0,0,1,.148-.156,4.124,4.124,0,0,1,1.878.44.156.156,0,0,1-.07.3" transform="translate(-345.896 -108.905)" fill="#25292b"/>
        <path id="Trazado_879063" data-name="Trazado 879063" d="M16.144,193.544h0c-.132,0-.262-.007-.39-.019a.157.157,0,0,1-.141-.171.16.16,0,0,1,.171-.141q.178.017.361.017h0a3.664,3.664,0,0,0,1.4-.275.156.156,0,1,1,.119.289,3.974,3.974,0,0,1-1.518.3m-2.127-.64a.157.157,0,0,1-.086-.026,4.034,4.034,0,0,1-1.3-1.424.156.156,0,1,1,.274-.149,3.721,3.721,0,0,0,1.2,1.313.156.156,0,0,1-.087.286m5.081-.747a.156.156,0,0,1-.12-.256,3.687,3.687,0,0,0,.774-1.6.156.156,0,1,1,.306.063,4,4,0,0,1-.84,1.739.156.156,0,0,1-.12.056m-6.8-2.418a.156.156,0,0,1-.156-.154v-1.877a.156.156,0,1,1,.313,0v1.873a.156.156,0,0,1-.154.158Zm7.688-1.122a.156.156,0,0,1-.156-.156v-1.875a.156.156,0,1,1,.313,0v1.875a.156.156,0,0,1-.156.156M12.3,185.989a.156.156,0,0,1-.156-.156v-1.875a.156.156,0,1,1,.313,0v1.875a.156.156,0,0,1-.156.156m7.689-1.123a.156.156,0,0,1-.156-.156v-1.875a.156.156,0,1,1,.313,0v1.875a.156.156,0,0,1-.156.156M12.3,182.239a.156.156,0,0,1-.156-.156v-1.875a.156.156,0,1,1,.313,0v1.875a.156.156,0,0,1-.156.156m7.689-1.123a.156.156,0,0,1-.156-.156v-1.875a.156.156,0,1,1,.313,0v1.875a.156.156,0,0,1-.156.156M12.3,178.489a.156.156,0,0,1-.156-.156v-1.875a.156.156,0,0,1,.313,0v1.875a.156.156,0,0,1-.156.156m7.689-1.123a.156.156,0,0,1-.156-.156v-1.875a.156.156,0,1,1,.313,0v1.875a.156.156,0,0,1-.156.156M12.3,174.739a.156.156,0,0,1-.156-.156v-1.875a.156.156,0,0,1,.313,0v1.875a.156.156,0,0,1-.156.156m7.689-1.123a.156.156,0,0,1-.156-.156v-1.875a.156.156,0,0,1,.313,0v1.875a.156.156,0,0,1-.156.156M12.3,170.989a.156.156,0,0,1-.156-.156v-1.875a.156.156,0,1,1,.313,0v1.875a.156.156,0,0,1-.156.156m7.689-1.123a.156.156,0,0,1-.156-.156v-1.875a.156.156,0,0,1,.313,0v1.875a.156.156,0,0,1-.156.156M12.3,167.239a.156.156,0,0,1-.156-.156v-1.875a.156.156,0,1,1,.313,0v1.875a.156.156,0,0,1-.156.156m7.689-1.123a.156.156,0,0,1-.156-.156v-1.875a.156.156,0,0,1,.313,0v1.875a.156.156,0,0,1-.156.156M12.3,163.488a.156.156,0,0,1-.156-.156v-1.875a.156.156,0,0,1,.313,0v1.875a.156.156,0,0,1-.156.156m7.689-1.123a.156.156,0,0,1-.156-.156v-1.875a.156.156,0,1,1,.313,0v1.875a.156.156,0,0,1-.156.156M12.3,159.738a.156.156,0,0,1-.156-.156v-.268a3.657,3.657,0,0,0-.317-1.5.156.156,0,1,1,.286-.127,3.968,3.968,0,0,1,.343,1.624v.268a.156.156,0,0,1-.156.156m7.76-1.118-.03,0a.156.156,0,0,1-.123-.183,4,4,0,0,1,.818-1.75.156.156,0,1,1,.243.2,3.687,3.687,0,0,0-.754,1.612.156.156,0,0,1-.153.127m-9.231-2.175a.155.155,0,0,1-.1-.033,3.69,3.69,0,0,0-1.624-.729.156.156,0,0,1,.055-.308,4,4,0,0,1,1.762.791.156.156,0,0,1-.1.279m11.5-.624a.156.156,0,0,1-.061-.3,3.97,3.97,0,0,1,1.567-.318q.159,0,.315-.013a.156.156,0,1,1,.025.312q-.168.014-.34.014a3.658,3.658,0,0,0-1.444.293.157.157,0,0,1-.061.013m-15.063-.2H5.386a.156.156,0,0,1,0-.313H7.261a.156.156,0,0,1,0,.313m18.664-.7a.156.156,0,0,1-.081-.29,3.922,3.922,0,0,0,1.275-1.251.156.156,0,0,1,.264.167,4.248,4.248,0,0,1-1.377,1.352.158.158,0,0,1-.081.022m1.931-3.058H27.84a.157.157,0,0,1-.14-.171q.019-.192.019-.388v-1.47a.156.156,0,1,1,.313,0v1.47q0,.212-.02.419a.157.157,0,0,1-.156.141m.02-3.749a.156.156,0,0,1-.156-.156v-1.662q0-.112.006-.222a.156.156,0,0,1,.312.016q-.005.1-.006.206v1.661a.156.156,0,0,1-.156.156m.526-3.658a.156.156,0,0,1-.136-.233,4.243,4.243,0,0,1,1.312-1.415.156.156,0,1,1,.174.259,3.931,3.931,0,0,0-1.215,1.31.156.156,0,0,1-.136.079m3-2.017a.156.156,0,0,1-.02-.311,4.282,4.282,0,0,1,.538-.034h1.356a.156.156,0,0,1,0,.313H31.921a3.941,3.941,0,0,0-.5.032H31.4" transform="translate(-3.596 -97.696)" fill="#25292b"/>
        <rect id="Rectángulo_403192" data-name="Rectángulo 403192" width="27.756" height="12.119" transform="translate(90.803 105.109)" fill="#25292b"/>
        <path id="Trazado_879064" data-name="Trazado 879064" d="M233.5,172.653l-12.489,1.59a11.339,11.339,0,0,0-9.589,8.584l-1.842,15.164h12.944l-1.9,20.039,11.742,6.6h27.858l-3.185-22.24,1.8-7.066H269.2l-2.638-11.995a11.338,11.338,0,0,0-8.853-8.684l-9.989-2Z" transform="translate(-144.083 -118.698)" fill="#3a1d71"/>
        <path id="Trazado_879065" data-name="Trazado 879065" d="M236.763,264.158v8.8H212.59a4.373,4.373,0,0,1-4.363-4.663l.966-14.566h13.088l-.925,7.413Z" transform="translate(-143.149 -174.439)" fill="#f2e9da"/>
        <path id="Trazado_879066" data-name="Trazado 879066" d="M243.872,236.947h-7.515v-.312h7.254l1.367-7.545.308.056Z" transform="translate(-162.494 -157.498)" fill="#25292b"/>
        <rect id="Rectángulo_403193" data-name="Rectángulo 403193" width="12.959" height="0.313" transform="translate(112.81 83.66) rotate(-76.478)" fill="#25292b"/>
        <path id="Trazado_879067" data-name="Trazado 879067" d="M454.455,170.968h0a1.793,1.793,0,0,1-1.21-2.22l3.052-10.365a1.788,1.788,0,0,1,3.43,1.01l-3.052,10.365a1.793,1.793,0,0,1-2.22,1.21" transform="translate(-311.554 -108.006)" fill="#f2e9da"/>
        <path id="Trazado_879068" data-name="Trazado 879068" d="M461.121,188.3h0a1.793,1.793,0,0,1-1.037-2.306l1.857-4.893a1.788,1.788,0,1,1,3.343,1.269l-1.857,4.893a1.793,1.793,0,0,1-2.306,1.037" transform="translate(-316.225 -123.71)" fill="#f2e9da"/>
        <path id="Trazado_879069" data-name="Trazado 879069" d="M468.493,194.3h0a1.793,1.793,0,0,1-1.037-2.306l1.908-5.027a1.788,1.788,0,1,1,3.343,1.269l-1.908,5.027a1.793,1.793,0,0,1-2.306,1.037" transform="translate(-321.293 -127.745)" fill="#f2e9da"/>
        <path id="Trazado_879070" data-name="Trazado 879070" d="M476.86,199.221h0a1.793,1.793,0,0,1-.317-2.508l1.967-2.536a1.788,1.788,0,1,1,2.825,2.192l-1.967,2.536a1.793,1.793,0,0,1-2.509.317" transform="translate(-327.364 -133.021)" fill="#f2e9da"/>
        <path id="Trazado_879071" data-name="Trazado 879071" d="M456.48,189.919h0a1.793,1.793,0,0,1-2.122,1.375l-5.259-1.123a1.788,1.788,0,1,1,.747-3.5L455.1,187.8a1.793,1.793,0,0,1,1.375,2.122" transform="translate(-307.781 -128.311)" fill="#f2e9da"/>
        <path id="Trazado_879072" data-name="Trazado 879072" d="M398.493,196.988c-.819,4.056-5.541,6.472-5.541,6.472l-13.941,15.722a10.582,10.582,0,0,1-8.413,4.156l-9.144-.144-1.3-8.947L362.165,208h8.925l.35,1.153,14.1-10.519,2.006-7.475Z" transform="translate(-247.602 -131.421)" fill="#f2e9da"/>
        <path id="Trazado_879073" data-name="Trazado 879073" d="M468.314,203.8h-.006a.157.157,0,0,1-.15-.162,1.93,1.93,0,0,1,.124-.612l.413-1.258a.156.156,0,0,1,.3.1l-.415,1.264a1.632,1.632,0,0,0-.107.52.157.157,0,0,1-.156.15" transform="translate(-321.856 -138.643)" fill="#25292b"/>
        <path id="Trazado_879074" data-name="Trazado 879074" d="M469.309,211.191a1.922,1.922,0,0,1-.681-.124,1.944,1.944,0,0,1-.989-.842.156.156,0,0,1,.271-.157,1.628,1.628,0,0,0,.83.707,1.646,1.646,0,0,0,1.873-.532.156.156,0,0,1,.248.19,1.963,1.963,0,0,1-1.551.758" transform="translate(-321.485 -144.367)" fill="#25292b"/>
        <path id="Trazado_879075" data-name="Trazado 879075" d="M478.587,211.325a1.925,1.925,0,0,1-1.186-.406,1.952,1.952,0,0,1-.266-.25.156.156,0,1,1,.234-.207,1.652,1.652,0,0,0,.223.21,1.637,1.637,0,0,0,2.289-.289.156.156,0,0,1,.247.192,1.931,1.931,0,0,1-1.293.735,1.97,1.97,0,0,1-.249.016" transform="translate(-328.001 -144.595)" fill="#25292b"/>
        <path id="Trazado_879076" data-name="Trazado 879076" d="M467.815,211.035h0a.156.156,0,0,1-.152-.16,4.534,4.534,0,0,0-.037-.71.156.156,0,1,1,.309-.042,4.823,4.823,0,0,1,.041.76.156.156,0,0,1-.156.152" transform="translate(-321.486 -144.364)" fill="#25292b"/>
        <path id="Trazado_879077" data-name="Trazado 879077" d="M458.481,193.989a.156.156,0,0,1-.154-.136,4.857,4.857,0,0,0-2.35-3.382.157.157,0,0,1-.073-.195.155.155,0,0,1,.185-.1l2.719.7a1.632,1.632,0,0,0,.675-3.193l-5.259-1.123a.156.156,0,1,1,.066-.306l5.259,1.123a1.944,1.944,0,0,1-.812,3.8l-1.88-.487a4.9,4.9,0,0,1,1.78,3.109.156.156,0,0,1-.134.175l-.021,0" transform="translate(-312.192 -128.053)" fill="#25292b"/>
        <path id="Trazado_879078" data-name="Trazado 879078" d="M466.461,183a.147.147,0,0,1-.044-.007.156.156,0,0,1-.105-.194l.827-2.808a.156.156,0,0,1,.3.088l-.827,2.808a.156.156,0,0,1-.15.112" transform="translate(-320.582 -123.669)" fill="#25292b"/>
        <path id="Trazado_879079" data-name="Trazado 879079" d="M474.657,187.871a.154.154,0,0,1-.055-.01.156.156,0,0,1-.091-.2l.727-1.937a.156.156,0,0,1,.293.11l-.727,1.937a.156.156,0,0,1-.146.1" transform="translate(-326.217 -127.614)" fill="#25292b"/>
        <path id="Trazado_879080" data-name="Trazado 879080" d="M477.253,200.323a.152.152,0,0,1-.057-.011.156.156,0,0,1-.088-.2L479,195.3a.156.156,0,1,1,.29.114l-1.894,4.814a.156.156,0,0,1-.145.1" transform="translate(-328.002 -134.196)" fill="#25292b"/>
        <path id="Trazado_879081" data-name="Trazado 879081" d="M299.88,78.84a7.549,7.549,0,0,1-7.042,3.9,8.117,8.117,0,0,1-.682,1.9,8.253,8.253,0,0,1-4.5,3.972,5.461,5.461,0,0,1-5.381-.584,8.64,8.64,0,0,1-4.294-.35,8.24,8.24,0,0,1-5.45-7.684,7.187,7.187,0,0,1,1.6-4.776,4.56,4.56,0,0,1,3.828-1.594,4.364,4.364,0,0,1-.041-1.01,4.265,4.265,0,0,1,3.527-3.7,4.857,4.857,0,0,1,4.34,1.467,5.7,5.7,0,0,1,.5-.9,5.17,5.17,0,0,1,9.319,2.265,4.31,4.31,0,0,1,2,.208c2.766.952,3.492,4.5,2.274,6.891" transform="translate(-187.364 -46.287)" fill="#25292b"/>
        <path id="Trazado_879082" data-name="Trazado 879082" d="M274.954,115.318c.849,2.146,2.412,3.353,4.434,2.813l-1.27,7.911,9.76,9.759,4.535-8.4-.182-3.573,1.523-1.4a11.4,11.4,0,0,0,3.643-9.173l-.525-7.525a.323.323,0,0,1-.054.018,11.111,11.111,0,0,1-4.076.236,13.8,13.8,0,0,1-4.579-1.128,1.909,1.909,0,0,1-.512,1.192,3.256,3.256,0,0,1-2.131.862,6.184,6.184,0,0,1-3.2-.622q-.737,2.087-1.613,4.125l0,.034-.011-.01a4.293,4.293,0,0,0-2.683-1.049,3.845,3.845,0,0,0-1.5.271c-2.126.844-2.477,3.358-1.565,5.659" transform="translate(-188.705 -72.087)" fill="#f2e9da"/>
        <path id="Trazado_879083" data-name="Trazado 879083" d="M336.93,124.742a1.131,1.131,0,1,0,1.036-1.32,1.19,1.19,0,0,0-1.036,1.32" transform="translate(-231.635 -84.85)" fill="#25292b"/>
        <path id="Trazado_879084" data-name="Trazado 879084" d="M315.089,126.266a1.131,1.131,0,1,0,1.036-1.32,1.19,1.19,0,0,0-1.036,1.32" transform="translate(-216.619 -85.898)" fill="#25292b"/>
        <path id="Trazado_879085" data-name="Trazado 879085" d="M336.517,117.891a2.668,2.668,0,0,1,2.54.287.345.345,0,0,1-.366.586,2.232,2.232,0,0,0-.224-.145c-.038-.021-.077-.041-.116-.06l-.013-.006-.062-.026a2.252,2.252,0,0,0-.254-.083c-.043-.012-.087-.021-.13-.031l-.021,0-.072-.01a2.386,2.386,0,0,0-.267-.018c-.044,0-.089,0-.134,0l-.067,0h-.008a2.5,2.5,0,0,0-.263.047c-.043.011-.086.022-.129.035l-.063.021-.011,0-.012.005a.355.355,0,0,1-.468-.14.349.349,0,0,1,.14-.468" transform="translate(-231.232 -80.915)" fill="#25292b"/>
        <path id="Trazado_879086" data-name="Trazado 879086" d="M315.492,119.7a.355.355,0,0,1-.444.2l-.013,0-.011,0-.066-.012c-.044-.007-.088-.013-.132-.017a2.54,2.54,0,0,0-.267-.01h-.008l-.067.005c-.044,0-.089.01-.133.016a2.343,2.343,0,0,0-.262.055l-.07.02-.02.007c-.042.016-.083.031-.125.048a2.307,2.307,0,0,0-.24.118l-.057.034-.013.007c-.036.025-.072.05-.106.076a2.234,2.234,0,0,0-.2.175.345.345,0,0,1-.444-.529,2.668,2.668,0,0,1,2.476-.637.35.35,0,0,1,.2.444" transform="translate(-214.973 -81.935)" fill="#25292b"/>
        <path id="Trazado_879087" data-name="Trazado 879087" d="M331.1,131.087l-3.715-.22.018-.312,3.264.193-1.637-5.248.3-.093Z" transform="translate(-225.078 -86.217)" fill="#25292b"/>
        <path id="Trazado_879088" data-name="Trazado 879088" d="M281.093,129.566a2.223,2.223,0,0,1-1.8-3.539,1.618,1.618,0,0,1,1.029-.676,1.161,1.161,0,0,1,.82.174,3.9,3.9,0,0,0-.225-1.072,1.963,1.963,0,0,0-.921-1.087.928.928,0,0,0-.745-.071,1.471,1.471,0,0,0-.647.8l-.282-.135a1.734,1.734,0,0,1,.812-.957,1.237,1.237,0,0,1,1,.08,2.274,2.274,0,0,1,1.075,1.256,4.9,4.9,0,0,1,.269,1.6l.023.672-.317-.593a.789.789,0,0,0-.814-.358,1.328,1.328,0,0,0-.826.553,1.91,1.91,0,0,0,1.673,3.038l.022.312c-.049,0-.1.005-.147.005" transform="translate(-191.346 -84.516)" fill="#25292b"/>
        <path id="Trazado_879089" data-name="Trazado 879089" d="M315.016,164.731a4.24,4.24,0,0,1-1.858-.479,10.99,10.99,0,0,1-1.964-1.366l.2-.242a10.77,10.77,0,0,0,1.907,1.329,3.639,3.639,0,0,0,2.189.406,4.817,4.817,0,0,0,2.029-1.033l.188.25a5.217,5.217,0,0,1-2.163,1.09,3.059,3.059,0,0,1-.523.044" transform="translate(-213.944 -111.817)" fill="#25292b"/>
        <path id="Trazado_879090" data-name="Trazado 879090" d="M320.039,145.825a4.042,4.042,0,0,1-3.162-2.61l.3-.1a3.722,3.722,0,0,0,2.912,2.4Z" transform="translate(-217.851 -98.389)" fill="#25292b"/>
        <rect id="Rectángulo_403194" data-name="Rectángulo 403194" width="29.595" height="2.838" transform="translate(81.276 100.838)" fill="#95bfce"/>
        <path id="Trazado_879091" data-name="Trazado 879091" d="M322.731,275.951h-42.3l6.25-25.367h42.3Z" transform="translate(-192.792 -172.275)" fill="#95bfce"/>
        <rect id="Rectángulo_403195" data-name="Rectángulo 403195" width="49.275" height="0.313" transform="translate(81.276 100.682)" fill="#25292b"/>
        <path id="Trazado_879092" data-name="Trazado 879092" d="M384.382,371.546a7.952,7.952,0,0,1-5.894,3.427,8.037,8.037,0,0,1-1.009.018l-22.379-.978-2.72-2.322,1.533-8.125,3.1-.257,19.016-4.151a7.947,7.947,0,0,1,7.733,2.6l.1.119a7.951,7.951,0,0,1,.52,9.674" transform="translate(-242.259 -246.793)" fill="#366985"/>
        <path id="Trazado_879093" data-name="Trazado 879093" d="M433.588,375.73l-.212-.229a10.548,10.548,0,0,0,3.089-5.083,8.637,8.637,0,0,0-.568-5.86,7.3,7.3,0,0,0-4.436-3.766l.085-.3a7.618,7.618,0,0,1,4.632,3.928,8.956,8.956,0,0,1,.592,6.075,10.863,10.863,0,0,1-3.179,5.236" transform="translate(-296.626 -247.835)" fill="#f2e9da"/>
        <path id="Trazado_879094" data-name="Trazado 879094" d="M364.487,384.586l-.312-.009a66.577,66.577,0,0,1,.668-7.605l.309.045a66.175,66.175,0,0,0-.664,7.57" transform="translate(-250.368 -259.165)" fill="#25292b"/>
        <path id="Trazado_879095" data-name="Trazado 879095" d="M383.518,384.026a14.39,14.39,0,0,1,.072-7.249l.3.082a14.074,14.074,0,0,0-.07,7.092Z" transform="translate(-263.372 -259.032)" fill="#f2e9da"/>
        <path id="Trazado_879096" data-name="Trazado 879096" d="M390.343,384.241a12.182,12.182,0,0,1,.248-6.905l.3.1a11.868,11.868,0,0,0-.241,6.726Z" transform="translate(-268.095 -259.416)" fill="#f2e9da"/>
        <path id="Trazado_879097" data-name="Trazado 879097" d="M396.579,384.156a11.351,11.351,0,0,1,.691-6.754l.287.124a11.035,11.035,0,0,0-.672,6.566Z" transform="translate(-272.487 -259.462)" fill="#f2e9da"/>
        <path id="Trazado_879098" data-name="Trazado 879098" d="M418.965,379.341a9.366,9.366,0,0,1,.135-11.589l.243.2a9.054,9.054,0,0,0-.131,11.2Z" transform="translate(-286.702 -252.827)" fill="#25292b"/>
        <path id="Trazado_879099" data-name="Trazado 879099" d="M226.584,322.744l-4.7,15.183L180.3,327.041A11.053,11.053,0,1,1,187.4,306.17Z" transform="translate(-118.277 -209.886)" fill="#00ffdf"/>
        <path id="Trazado_879100" data-name="Trazado 879100" d="M290.566,322.245l4.5,12.7,49.038-19.669a11.053,11.053,0,1,0-10.447-19.415Z" transform="translate(-199.762 -202.214)" fill="#00ffdf"/>
        <rect id="Rectángulo_403196" data-name="Rectángulo 403196" width="33.467" height="0.313" transform="translate(91.702 119.828) rotate(-31.799)" fill="#f2e9da"/>
        <rect id="Rectángulo_403197" data-name="Rectángulo 403197" width="0.312" height="17.369" transform="translate(89.377 105.02) rotate(-66.725)" fill="#f2e9da"/>
        <path id="Trazado_879101" data-name="Trazado 879101" d="M201.451,397.694a7.919,7.919,0,0,0,7.376,2.261L230.74,395.3l2.3-2.738-2.85-7.761-3.1.257-19.439-.962a7.947,7.947,0,0,0-7.2,3.834l-.082.134a7.951,7.951,0,0,0,1.081,9.627" transform="translate(-136.966 -264.059)" fill="#366985"/>
        <path id="Trazado_879102" data-name="Trazado 879102" d="M213.809,401.011a10.861,10.861,0,0,1-4-4.641,8.958,8.958,0,0,1-.417-6.089,7.617,7.617,0,0,1,3.921-4.637l.133.283a7.3,7.3,0,0,0-3.756,4.445,8.637,8.637,0,0,0,.4,5.874,10.543,10.543,0,0,0,3.884,4.5Z" transform="translate(-143.716 -265.128)" fill="#f2e9da"/>
        <path id="Trazado_879103" data-name="Trazado 879103" d="M290.9,398.573a66.134,66.134,0,0,0-1.9-7.356l.3-.1a66.5,66.5,0,0,1,1.911,7.392Z" transform="translate(-198.685 -268.893)" fill="#25292b"/>
        <path id="Trazado_879104" data-name="Trazado 879104" d="M282.242,390.653a1.957,1.957,0,0,1-1.175-.45,4.561,4.561,0,0,1-1.449-3.076c-.046-.328-.08-.659-.113-.99a9.947,9.947,0,0,0-.413-2.3l.079-.028c0-.01,0-.021-.005-.032l-.115-.093.084-.1a23.078,23.078,0,0,1-.389-6.8,2.179,2.179,0,0,1,.875-1.692,1.516,1.516,0,0,1,1.671.232,2.6,2.6,0,0,1,.807,1.471,6.006,6.006,0,0,1-.594,3.866,16.33,16.33,0,0,1-2.041,3.009l.015.1a6.944,6.944,0,0,1,3.923,4.739c.091.422.225,1.457-.482,1.944a1.177,1.177,0,0,1-.678.2m-2.737-6.53a12.22,12.22,0,0,1,.31,1.982c.033.327.066.654.112.978a4.274,4.274,0,0,0,1.336,2.876,1.312,1.312,0,0,0,1.48.233c.552-.38.431-1.26.354-1.62a6.618,6.618,0,0,0-3.591-4.448m.746-8.875a.979.979,0,0,0-.479.119,1.913,1.913,0,0,0-.718,1.461,21.984,21.984,0,0,0,.343,6.426,15.053,15.053,0,0,0,1.827-2.729,5.7,5.7,0,0,0,.57-3.661,2.3,2.3,0,0,0-.7-1.3,1.324,1.324,0,0,0-.839-.317" transform="translate(-191.551 -257.767)" fill="#f2e9da"/>
        <path id="Trazado_879105" data-name="Trazado 879105" d="M272.43,401.1l-.312-.025a14.072,14.072,0,0,0-1.238-6.983l.284-.131a14.392,14.392,0,0,1,1.265,7.138" transform="translate(-186.229 -270.843)" fill="#f2e9da"/>
        <path id="Trazado_879106" data-name="Trazado 879106" d="M265.469,402.48l-.311-.028a11.864,11.864,0,0,0-1.346-6.594l.275-.148a12.18,12.18,0,0,1,1.382,6.77" transform="translate(-181.369 -272.048)" fill="#f2e9da"/>
        <path id="Trazado_879107" data-name="Trazado 879107" d="M258.7,403.529l-.312-.012a11.035,11.035,0,0,0-1.744-6.366l.263-.17a11.348,11.348,0,0,1,1.794,6.548" transform="translate(-176.443 -272.922)" fill="#f2e9da"/>
        <path id="Trazado_879108" data-name="Trazado 879108" d="M233.446,402.885l-.276-.147A9.054,9.054,0,0,0,231.2,391.71l.208-.234a9.367,9.367,0,0,1,2.043,11.409" transform="translate(-158.946 -269.137)" fill="#25292b"/>
        <path id="Trazado_879109" data-name="Trazado 879109" d="M471.878,118.11H432.944V70.986h38.934Zm-38.622-.313h38.309V71.3H433.257Z" transform="translate(-297.646 -48.802)" fill="#25292b"/>
        <rect id="Rectángulo_403198" data-name="Rectángulo 403198" width="36.487" height="5.082" transform="translate(136.521 23.295)" fill="#3a1d71"/>
        <path id="Trazado_879110" data-name="Trazado 879110" d="M527.665,80.6a.218.218,0,0,1-.136-.048l-1.9-1.517a.219.219,0,0,1,0-.342l1.875-1.5a.219.219,0,0,1,.273.342l-1.661,1.327,1.685,1.346a.219.219,0,0,1-.137.389" transform="translate(-361.31 -53.042)" fill="#f2e9da"/>
        <path id="Trazado_879111" data-name="Trazado 879111" d="M541.15,80.6a.219.219,0,0,1-.137-.389l1.685-1.346-1.661-1.327a.219.219,0,0,1,.273-.342l1.875,1.5a.218.218,0,0,1,0,.342l-1.9,1.517a.218.218,0,0,1-.136.048" transform="translate(-371.887 -53.042)" fill="#f2e9da"/>
        <path id="Trazado_879112" data-name="Trazado 879112" d="M535.066,80.118a.219.219,0,0,1-.238-.281L536,76.016a.219.219,0,0,1,.418.128l-1.175,3.821a.219.219,0,0,1-.18.153" transform="translate(-367.684 -52.154)" fill="#f2e9da"/>
        <rect id="Rectángulo_403199" data-name="Rectángulo 403199" width="19.615" height="1.607" transform="translate(136.521 31.896)" fill="#95bfce"/>
        <rect id="Rectángulo_403200" data-name="Rectángulo 403200" width="9.547" height="1.607" transform="translate(157.026 31.896)" fill="#366985"/>
        <rect id="Rectángulo_403201" data-name="Rectángulo 403201" width="5.454" height="1.607" transform="translate(167.554 31.896)" fill="#25292b"/>
        <path id="Trazado_879113" data-name="Trazado 879113" d="M524.373,115.349H511.008v-1.607h13.365" transform="translate(-351.315 -78.197)" fill="#95bfce"/>
        <rect id="Rectángulo_403202" data-name="Rectángulo 403202" width="9.547" height="1.607" transform="translate(149.256 35.545)" fill="#366985"/>
        <path id="Trazado_879114" data-name="Trazado 879114" d="M437.017,113.742h11.7v1.607h-11.7" transform="translate(-300.447 -78.197)" fill="#25292b"/>
        <rect id="Rectángulo_403203" data-name="Rectángulo 403203" width="7.115" height="1.607" transform="translate(136.571 39.497)" fill="#366985"/>
        <rect id="Rectángulo_403204" data-name="Rectángulo 403204" width="19.859" height="1.607" transform="translate(144.576 39.497)" fill="#95bfce"/>
        <rect id="Rectángulo_403205" data-name="Rectángulo 403205" width="7.642" height="1.607" transform="translate(165.416 39.497)" fill="#25292b"/>
        <path id="Trazado_879115" data-name="Trazado 879115" d="M541.031,139.673h-5.865v-1.607h5.865" transform="translate(-367.924 -94.919)" fill="#95bfce"/>
        <rect id="Rectángulo_403206" data-name="Rectángulo 403206" width="17.047" height="1.607" transform="translate(149.305 43.146)" fill="#366985"/>
        <path id="Trazado_879116" data-name="Trazado 879116" d="M437.176,138.066h11.7v1.607h-11.7" transform="translate(-300.556 -94.919)" fill="#25292b"/>
        <rect id="Rectángulo_403207" data-name="Rectángulo 403207" width="19.615" height="1.607" transform="translate(136.62 49.258)" fill="#95bfce"/>
        <rect id="Rectángulo_403208" data-name="Rectángulo 403208" width="9.547" height="1.607" transform="translate(157.125 49.258)" fill="#366985"/>
        <rect id="Rectángulo_403209" data-name="Rectángulo 403209" width="5.454" height="1.607" transform="translate(167.653 49.258)" fill="#25292b"/>
        <path id="Trazado_879117" data-name="Trazado 879117" d="M524.69,170.908H511.325V169.3H524.69" transform="translate(-351.533 -116.393)" fill="#95bfce"/>
        <rect id="Rectángulo_403210" data-name="Rectángulo 403210" width="9.547" height="1.607" transform="translate(149.355 52.908)" fill="#366985"/>
        <path id="Trazado_879118" data-name="Trazado 879118" d="M437.334,169.3h11.7v1.607h-11.7" transform="translate(-300.665 -116.393)" fill="#25292b"/>
        <rect id="Rectángulo_403211" data-name="Rectángulo 403211" width="7.115" height="1.607" transform="translate(136.67 56.86)" fill="#366985"/>
        <rect id="Rectángulo_403212" data-name="Rectángulo 403212" width="19.859" height="1.607" transform="translate(144.675 56.86)" fill="#95bfce"/>
        <rect id="Rectángulo_403213" data-name="Rectángulo 403213" width="7.642" height="1.607" transform="translate(165.515 56.86)" fill="#25292b"/>
        <path id="Trazado_879119" data-name="Trazado 879119" d="M541.348,195.232h-5.865v-1.607h5.865" transform="translate(-368.142 -133.116)" fill="#95bfce"/>
        <rect id="Rectángulo_403214" data-name="Rectángulo 403214" width="17.047" height="1.607" transform="translate(149.404 60.509)" fill="#366985"/>
        <path id="Trazado_879120" data-name="Trazado 879120" d="M437.493,193.625h11.7v1.607h-11.7" transform="translate(-300.774 -133.116)" fill="#25292b"/>
        <path id="Trazado_879121" data-name="Trazado 879121" d="M137.915,73.623H98.981V26.5h38.934ZM99.294,73.31H137.6v-46.5H99.294Z" transform="translate(-68.049 -18.218)" fill="#25292b"/>
        <rect id="Rectángulo_403215" data-name="Rectángulo 403215" width="36.487" height="5.082" transform="translate(32.156 9.393)" fill="#00ffdf"/>
        <path id="Trazado_879122" data-name="Trazado 879122" d="M193.7,36.117a.218.218,0,0,1-.136-.048l-1.9-1.517a.219.219,0,0,1,0-.342l1.875-1.5a.219.219,0,0,1,.273.342l-1.661,1.327,1.685,1.346a.219.219,0,0,1-.137.389" transform="translate(-131.713 -22.457)" fill="#f2e9da"/>
        <path id="Trazado_879123" data-name="Trazado 879123" d="M207.188,36.117a.219.219,0,0,1-.137-.389l1.685-1.346-1.661-1.327a.219.219,0,0,1,.273-.342l1.875,1.5a.219.219,0,0,1,0,.342l-1.9,1.517a.218.218,0,0,1-.136.048" transform="translate(-142.29 -22.457)" fill="#f2e9da"/>
        <path id="Trazado_879124" data-name="Trazado 879124" d="M201.1,35.631a.219.219,0,0,1-.238-.281l1.175-3.821a.219.219,0,0,1,.418.128l-1.175,3.821a.219.219,0,0,1-.18.153" transform="translate(-138.087 -21.57)" fill="#f2e9da"/>
        <rect id="Rectángulo_403216" data-name="Rectángulo 403216" width="19.615" height="1.607" transform="translate(32.156 17.993)" fill="#95bfce"/>
        <rect id="Rectángulo_403217" data-name="Rectángulo 403217" width="9.547" height="1.607" transform="translate(52.661 17.993)" fill="#366985"/>
        <rect id="Rectángulo_403218" data-name="Rectángulo 403218" width="5.454" height="1.607" transform="translate(63.188 17.993)" fill="#f2e9da"/>
        <path id="Trazado_879125" data-name="Trazado 879125" d="M190.41,70.862H177.046V69.254H190.41" transform="translate(-121.718 -47.612)" fill="#95bfce"/>
        <rect id="Rectángulo_403219" data-name="Rectángulo 403219" width="9.547" height="1.607" transform="translate(44.891 21.642)" fill="#366985"/>
        <path id="Trazado_879126" data-name="Trazado 879126" d="M103.055,69.255h11.7v1.607h-11.7" transform="translate(-70.85 -47.612)" fill="#f2e9da"/>
        <rect id="Rectángulo_403220" data-name="Rectángulo 403220" width="7.115" height="1.607" transform="translate(32.205 25.595)" fill="#366985"/>
        <rect id="Rectángulo_403221" data-name="Rectángulo 403221" width="19.859" height="1.607" transform="translate(40.21 25.595)" fill="#95bfce"/>
        <rect id="Rectángulo_403222" data-name="Rectángulo 403222" width="7.642" height="1.607" transform="translate(61.05 25.595)" fill="#f2e9da"/>
        <path id="Trazado_879127" data-name="Trazado 879127" d="M207.068,95.186H201.2V93.578h5.864" transform="translate(-138.327 -64.335)" fill="#95bfce"/>
        <rect id="Rectángulo_403223" data-name="Rectángulo 403223" width="17.047" height="1.607" transform="translate(44.94 29.244)" fill="#366985"/>
        <path id="Trazado_879128" data-name="Trazado 879128" d="M103.213,93.579h11.7v1.607h-11.7" transform="translate(-70.958 -64.335)" fill="#f2e9da"/>
        <rect id="Rectángulo_403224" data-name="Rectángulo 403224" width="19.615" height="1.607" transform="translate(32.255 35.356)" fill="#95bfce"/>
        <rect id="Rectángulo_403225" data-name="Rectángulo 403225" width="9.547" height="1.607" transform="translate(52.76 35.356)" fill="#366985"/>
        <rect id="Rectángulo_403226" data-name="Rectángulo 403226" width="5.454" height="1.607" transform="translate(63.287 35.356)" fill="#f2e9da"/>
        <path id="Trazado_879129" data-name="Trazado 879129" d="M190.727,126.421H177.362v-1.607h13.365" transform="translate(-121.936 -85.809)" fill="#95bfce"/>
        <rect id="Rectángulo_403227" data-name="Rectángulo 403227" width="9.547" height="1.607" transform="translate(44.989 39.005)" fill="#366985"/>
        <path id="Trazado_879130" data-name="Trazado 879130" d="M103.372,124.814h11.7v1.607h-11.7" transform="translate(-71.067 -85.809)" fill="#f2e9da"/>
        <rect id="Rectángulo_403228" data-name="Rectángulo 403228" width="7.115" height="1.607" transform="translate(32.304 42.957)" fill="#366985"/>
        <rect id="Rectángulo_403229" data-name="Rectángulo 403229" width="19.859" height="1.607" transform="translate(40.309 42.957)" fill="#95bfce"/>
        <rect id="Rectángulo_403230" data-name="Rectángulo 403230" width="7.642" height="1.607" transform="translate(61.149 42.957)" fill="#f2e9da"/>
        <path id="Trazado_879131" data-name="Trazado 879131" d="M207.385,150.745h-5.864v-1.607h5.864" transform="translate(-138.544 -102.531)" fill="#95bfce"/>
        <rect id="Rectángulo_403231" data-name="Rectángulo 403231" width="17.047" height="1.607" transform="translate(45.039 46.606)" fill="#366985"/>
        <path id="Trazado_879132" data-name="Trazado 879132" d="M103.53,149.138h11.7v1.607h-11.7" transform="translate(-71.176 -102.531)" fill="#f2e9da"/>
        <path id="Trazado_879133" data-name="Trazado 879133" d="M471.5,8.8v7.1a3.761,3.761,0,0,1-3.75,3.75h-6.775l-5.572,5.24.8-5.24H437.058a3.761,3.761,0,0,1-3.75-3.75V8.8a3.761,3.761,0,0,1,3.75-3.75h30.688A3.761,3.761,0,0,1,471.5,8.8" transform="translate(-297.897 -3.468)" fill="#f0c518"/>
        <path id="Trazado_879134" data-name="Trazado 879134" d="M462.143,16.663a2.8,2.8,0,0,1-.448,1.57A2.939,2.939,0,0,1,460.4,19.3a4.792,4.792,0,0,1-1.983.38,8.032,8.032,0,0,1-1.593-.133,5.929,5.929,0,0,1-1.339-.465V16.793a7.633,7.633,0,0,0,1.528.588,5.676,5.676,0,0,0,1.456.212,1.415,1.415,0,0,0,.839-.2.61.61,0,0,0,.267-.51.563.563,0,0,0-.107-.341,1.257,1.257,0,0,0-.345-.3q-.238-.15-1.264-.611a6.058,6.058,0,0,1-1.394-.819,2.512,2.512,0,0,1-.689-.91,3.017,3.017,0,0,1-.224-1.215,2.436,2.436,0,0,1,.956-2.048,4.213,4.213,0,0,1,2.626-.735,7.371,7.371,0,0,1,3.01.683l-.787,1.983a5.7,5.7,0,0,0-2.3-.611,1.2,1.2,0,0,0-.728.175.531.531,0,0,0-.228.436.629.629,0,0,0,.289.5,11.052,11.052,0,0,0,1.57.806,4.346,4.346,0,0,1,1.707,1.187,2.577,2.577,0,0,1,.478,1.6" transform="translate(-313.144 -6.812)" fill="#f2e9da"/>
        <path id="Trazado_879135" data-name="Trazado 879135" d="M489.61,14.756q0,3.231-2.054,4.356l2.321,2.672h-3.2L485,19.67l-.007-.007v-.007l-.006-.006a4.509,4.509,0,0,1-3.429-1.255,5.106,5.106,0,0,1-1.193-3.654,5.071,5.071,0,0,1,1.187-3.624,5.381,5.381,0,0,1,6.888-.01,5.13,5.13,0,0,1,1.17,3.647m-6.54,0q0,2.756,1.918,2.757a1.649,1.649,0,0,0,1.446-.67,3.666,3.666,0,0,0,.471-2.087,3.69,3.69,0,0,0-.478-2.1A1.629,1.629,0,0,0,485,11.973q-1.931,0-1.931,2.782" transform="translate(-330.249 -6.784)" fill="#f2e9da"/>
        <path id="Trazado_879136" data-name="Trazado 879136" d="M515.439,19.849v-9.5h2.568v7.43h3.66v2.074Z" transform="translate(-354.361 -7.112)" fill="#f2e9da"/>
      </g>
    </g>
  </g>
</svg>
