<svg xmlns="http://www.w3.org/2000/svg" width="68" height="68" viewBox="0 0 68 68">
  <g id="_19" data-name="19" transform="translate(-326 -18790)">
    <circle id="Elipse_11734" data-name="Elipse 11734" cx="34" cy="34" r="34" transform="translate(326 18790)" fill="#fff"/>
    <g id="_53-Programmer" data-name="53-Programmer" transform="translate(335 18800.014)">
      <path id="Trazado_879276" data-name="Trazado 879276" d="M20.455,0A20.455,20.455,0,1,1,0,20.455,20.455,20.455,0,0,1,20.455,0Z" transform="translate(4.758 0.754)" fill="#f0c518"/>
      <path id="Trazado_879262" data-name="Trazado 879262" d="M43.486,17.606l.758,1.515-.758,1.515-3.273.439a8.182,8.182,0,0,1-.985,2.386l2,2.621L40.69,27.69l-1.606.538-2.621-2a8.182,8.182,0,0,1-2.386.985l-.439,3.273-1.515.758-1.515-.758-.439-3.273a8.182,8.182,0,0,1-2.386-.985l-2.621,2-1.606-.538-.538-1.606,2-2.621a8.182,8.182,0,0,1-.985-2.386l-3.273-.439L20,19.122l.758-1.515,3.273-.439a8.182,8.182,0,0,1,.985-2.386l-2-2.621.538-1.606,1.606-.538,2.621,2a8.182,8.182,0,0,1,2.386-.985l.439-3.273L32.122,7l1.515.758.439,3.273a8.182,8.182,0,0,1,2.386.985l2.621-2,1.606.538.538,1.606-2,2.621a8.182,8.182,0,0,1,.985,2.386Zm-6.818,1.515a4.546,4.546,0,1,0-4.546,4.546A4.546,4.546,0,0,0,36.667,19.122Z" transform="translate(-3.878 -1.7)" fill="#d6e1fd"/>
      <path id="Trazado_879263" data-name="Trazado 879263" d="M29.758,28a1.515,1.515,0,0,1,0,3.03H29V28Z" transform="translate(-6.06 -6.791)" fill="#ffcdbe"/>
      <path id="Trazado_879264" data-name="Trazado 879264" d="M15,26.091V21.546C15,17,18.788,17,18.788,17h3.788c5.3,0,5.3,6.061,5.3,6.061H19.546C19.546,25.334,15,26.091,15,26.091Z" transform="translate(-2.666 -4.124)" fill="#3a1d71"/>
      <path id="Trazado_879265" data-name="Trazado 879265" d="M14.273,28.758V31.03h-.758a1.515,1.515,0,1,1,0-3.03h.758Z" transform="translate(-1.939 -6.791)" fill="#ffcdbe"/>
      <path id="Trazado_879266" data-name="Trazado 879266" d="M18.03,35.1a4.994,4.994,0,0,1-1.515-1.008C15,32.576,15,31.818,15,31.818V28.03s4.546-.758,4.546-3.03h6.061v6.818s0,.758-1.515,2.273A4.994,4.994,0,0,1,22.576,35.1a6.409,6.409,0,0,1-2.273.508A6.409,6.409,0,0,1,18.03,35.1Z" transform="translate(-2.666 -6.063)" fill="#ffcdbe"/>
      <path id="Trazado_879267" data-name="Trazado 879267" d="M23.546,40.353v.758a2.273,2.273,0,0,1-4.546,0V38.33a6.409,6.409,0,0,0,2.273.508,6.409,6.409,0,0,0,2.273-.508Z" transform="translate(-3.636 -9.295)" fill="#ffbeaa"/>
      <path id="Trazado_879268" data-name="Trazado 879268" d="M22,44.273A2.226,2.226,0,0,0,24.273,42l2.273,2.273S25.03,47.3,22,47.3Z" transform="translate(-4.363 -10.184)" fill="#f2f6fc"/>
      <path id="Trazado_879269" data-name="Trazado 879269" d="M20.546,44.273V47.3c-3.03,0-4.546-3.03-4.546-3.03L18.273,42a2.226,2.226,0,0,0,2.273,2.273Z" transform="translate(-2.909 -10.184)" fill="#f2f6fc"/>
      <path id="Trazado_879270" data-name="Trazado 879270" d="M14.3,44.03s1.515,3.03,4.546,3.03,4.546-3.03,4.546-3.03l-2.273-2.273V41H24.91S28.7,41,28.7,44.788V57.667H9V44.788C9,41,12.788,41,12.788,41h3.788v.758Z" transform="translate(-1.212 -9.942)" fill="#bec3d2"/>
      <path id="Trazado_879271" data-name="Trazado 879271" d="M25.606,25H19.546c0,2.273-4.546,3.03-4.546,3.03v.127a23.707,23.707,0,0,1,2.571-.127c4.284,0,5.383.838,8.035,1.267Z" transform="translate(-2.666 -6.063)" fill="#ffbeaa"/>
      <path id="Trazado_879272" data-name="Trazado 879272" d="M15,27.273v.758s4.546-.758,4.546-3.03H15Z" transform="translate(-2.666 -6.063)" fill="#beb4d0"/>
      <path id="Trazado_879273" data-name="Trazado 879273" d="M12.788,41S9,41,9,44.788V57.667h4.546V41Z" transform="translate(-1.212 -9.942)" fill="#00ffdf"/>
      <path id="Trazado_879274" data-name="Trazado 879274" d="M29.758,41H29V57.667h4.546V44.788C33.546,41,29.758,41,29.758,41Z" transform="translate(-6.06 -9.942)" fill="#00ffdf"/>
      <path id="Trazado_879275" data-name="Trazado 879275" d="M46.425,21.209a21.213,21.213,0,1,0-38.98,11.58,4.908,4.908,0,0,0-.415,2.057V47.725a.758.758,0,0,0,.758.758h19.7a.758.758,0,0,0,.758-.758V42.2A21.171,21.171,0,0,0,46.425,21.209Zm-19.7,25.758H23.7V37.877H22.182v9.091H13.091V37.877H11.576v9.091H8.546V34.846a2.917,2.917,0,0,1,3.03-3.03h2.717l-1.737,1.737a.758.758,0,0,0-.142.874,6.555,6.555,0,0,0,4.47,3.389v6.879H18.4V37.816a6.579,6.579,0,0,0,4.47-3.389.758.758,0,0,0-.142-.874l-1.745-1.737H23.7a2.939,2.939,0,0,1,3.03,3.03ZM24.4,18.179H16.879a.758.758,0,0,0-.758.758c0,.985-1.7,1.721-3.03,2.085v-3.6c0-3.643,2.727-3.788,3.03-3.788H19.91C23.386,13.633,24.2,16.709,24.4,18.179Zm-.7,3.788a.758.758,0,1,1,0,1.515Zm-6.18-2.273h4.665v6c0,.006-.109.612-1.3,1.8a5.152,5.152,0,0,1-3.249,1.293,5.152,5.152,0,0,1-3.252-1.293,4.9,4.9,0,0,1-1.293-1.741V22.585C14.343,22.294,16.932,21.482,17.518,19.694Zm-2.55,13.589a2.752,2.752,0,0,0,1.911,1.487v1.515a4.9,4.9,0,0,1-2.83-2.079Zm3.427,1.487a2.752,2.752,0,0,0,1.911-1.484l.919.919a4.9,4.9,0,0,1-2.83,2.076Zm-.758-4.47a6.451,6.451,0,0,0,1.515-.22v1.736a1.426,1.426,0,0,1-1.515,1.515,1.426,1.426,0,0,1-1.515-1.515V30.08a6.451,6.451,0,0,0,1.515.22ZM28.243,40.674V34.846A4.383,4.383,0,0,0,23.7,30.3h-3.03v-.8a5.329,5.329,0,0,0,1.293-.933c1.611-1.612,1.737-2.557,1.737-2.808V25a2.273,2.273,0,0,0,0-4.546v-.758h1.515a.758.758,0,0,0,.758-.758,8.459,8.459,0,0,0-.863-3.636,3.788,3.788,0,1,1,3.136,5.909v1.515a5.3,5.3,0,1,0-4.024-8.757A5.2,5.2,0,0,0,21.5,12.307l-1.519-1.991.289-.866.867-.289,2.3,1.76a.758.758,0,0,0,.857.045,7.5,7.5,0,0,1,2.173-.9.758.758,0,0,0,.574-.637l.383-2.871.814-.408.817.408.383,2.871a.758.758,0,0,0,.574.637,7.509,7.509,0,0,1,2.174.9.758.758,0,0,0,.856-.045l2.3-1.757.866.289.289.866-1.76,2.3a.758.758,0,0,0-.045.856,7.509,7.509,0,0,1,.9,2.174.758.758,0,0,0,.637.573l2.871.379.408.821-.408.817-2.871.379a.758.758,0,0,0-.637.574,7.509,7.509,0,0,1-.9,2.174.758.758,0,0,0,.045.856L36.5,24.527l-.289.866-.866.289-2.3-1.76a.758.758,0,0,0-.856-.045,7.509,7.509,0,0,1-2.174.9.758.758,0,0,0-.574.637l-.436,3.269,1.5.2.37-2.771a8.99,8.99,0,0,0,1.647-.682l2.221,1.7a.752.752,0,0,0,.7.117l1.607-.536a.753.753,0,0,0,.479-.479l.536-1.607a.758.758,0,0,0-.117-.7l-1.7-2.221a8.99,8.99,0,0,0,.682-1.647l2.771-.37a.758.758,0,0,0,.578-.412l.758-1.515a.758.758,0,0,0,0-.677l-.758-1.515a.758.758,0,0,0-.578-.412l-2.771-.37a8.99,8.99,0,0,0-.682-1.647l1.7-2.221a.758.758,0,0,0,.117-.7l-.536-1.607a.753.753,0,0,0-.479-.479L35.447,7.6a.75.75,0,0,0-.7.117l-2.221,1.7a8.99,8.99,0,0,0-1.647-.682l-.37-2.771a.758.758,0,0,0-.412-.578l-1.515-.758a.758.758,0,0,0-.677,0l-1.515.758a.758.758,0,0,0-.412.578l-.37,2.771a9.015,9.015,0,0,0-1.647.682l-2.221-1.7a.749.749,0,0,0-.7-.117l-1.607.536a.758.758,0,0,0-.479.479l-.536,1.607a.758.758,0,0,0,.117.7l.92,1.2H16.122c-1.572,0-4.546,1.108-4.546,5.3v3.03a2.273,2.273,0,1,0,0,4.546v.758c0,.252.126,1.2,1.737,2.808a5.329,5.329,0,0,0,1.293.933v.8h-3.03a4.965,4.965,0,0,0-3.164,1.17,19.69,19.69,0,1,1,19.832,9.2ZM11.576,23.482a.758.758,0,1,1,0-1.515Z" transform="translate(0 0)"/>
    </g>
  </g>
</svg>
