<svg xmlns="http://www.w3.org/2000/svg" xmlns:xlink="http://www.w3.org/1999/xlink" width="505" height="411" viewBox="0 0 505 411">
  <defs>
    <clipPath id="clip-path">
      <rect id="Rectángulo_403437" data-name="Rectángulo 403437" width="376.819" height="376.819" fill="none"/>
    </clipPath>
    <clipPath id="clip-path-2">
      <rect id="Rectángulo_403424" data-name="Rectángulo 403424" width="84.714" height="64.496" fill="none"/>
    </clipPath>
    <clipPath id="clip-path-3">
      <rect id="Rectángulo_403425" data-name="Rectángulo 403425" width="20.917" height="24.673" fill="none"/>
    </clipPath>
    <clipPath id="clip-path-4">
      <rect id="Rectángulo_403426" data-name="Rectángulo 403426" width="8.36" height="8.802" fill="none"/>
    </clipPath>
    <clipPath id="clip-path-5">
      <rect id="Rectángulo_403427" data-name="Rectángulo 403427" width="4.885" height="3.382" fill="none"/>
    </clipPath>
    <clipPath id="clip-path-6">
      <rect id="Rectángulo_403428" data-name="Rectángulo 403428" width="6.849" height="5.348" fill="none"/>
    </clipPath>
    <clipPath id="clip-path-7">
      <rect id="Rectángulo_403429" data-name="Rectángulo 403429" width="6.848" height="5.348" fill="none"/>
    </clipPath>
  </defs>
  <g id="_20" data-name="20" transform="translate(-915 -379)">
    <g id="Grupo_1101560" data-name="Grupo 1101560" transform="translate(-210)">
      <g id="Grupo_1100874" data-name="Grupo 1100874" transform="translate(1125 379)">
        <rect id="Rectángulo_402862" data-name="Rectángulo 402862" width="505" height="411" rx="8" fill="#f2e5fd"/>
      </g>
    </g>
    <g id="Grupo_1101681" data-name="Grupo 1101681" transform="translate(964.559 411.181)">
      <g id="Grupo_1101680" data-name="Grupo 1101680" clip-path="url(#clip-path)">
        <rect id="Rectángulo_403369" data-name="Rectángulo 403369" width="71.365" height="16.587" transform="translate(53.054 118.374)" fill="#bcccdd"/>
        <rect id="Rectángulo_403370" data-name="Rectángulo 403370" width="20.873" height="7.893" transform="translate(59.078 122.166)" fill="#fff"/>
        <path id="Trazado_879286" data-name="Trazado 879286" d="M130.23,167.26a2.489,2.489,0,1,1-2.488-2.489,2.488,2.488,0,0,1,2.488,2.489" transform="translate(-36.416 -40.592)" fill="#fff"/>
        <path id="Trazado_879287" data-name="Trazado 879287" d="M140.7,167.26a2.489,2.489,0,1,1-2.489-2.489,2.488,2.488,0,0,1,2.489,2.489" transform="translate(-38.996 -40.592)" fill="#5f7b93"/>
        <path id="Trazado_879288" data-name="Trazado 879288" d="M151.17,167.26a2.489,2.489,0,1,1-2.489-2.489,2.488,2.488,0,0,1,2.489,2.489" transform="translate(-41.575 -40.592)" fill="#fff"/>
        <path id="Trazado_879289" data-name="Trazado 879289" d="M161.641,167.26a2.489,2.489,0,1,1-2.489-2.489,2.488,2.488,0,0,1,2.489,2.489" transform="translate(-44.155 -40.592)" fill="#fff"/>
        <line id="Línea_590" data-name="Línea 590" y2="25.198" transform="translate(88.837 134.961)" fill="none" stroke="#708699" stroke-linecap="round" stroke-miterlimit="10" stroke-width="1"/>
        <path id="Trazado_879290" data-name="Trazado 879290" d="M148.127,208.247V195.2h-65.1v13.049" transform="translate(-26.013 -48.089)" fill="none" stroke="#708699" stroke-linecap="round" stroke-miterlimit="10" stroke-width="1"/>
        <rect id="Rectángulo_403371" data-name="Rectángulo 403371" width="10.156" height="10.156" transform="translate(51.933 160.159)" fill="#a6bacc"/>
        <rect id="Rectángulo_403372" data-name="Rectángulo 403372" width="10.156" height="10.156" transform="translate(83.759 160.159)" fill="#a6bacc"/>
        <rect id="Rectángulo_403373" data-name="Rectángulo 403373" width="10.156" height="10.156" transform="translate(115.584 160.159)" fill="#a6bacc"/>
        <rect id="Rectángulo_403374" data-name="Rectángulo 403374" width="101.461" height="4.454" transform="translate(35.946 270.35)" fill="#9bb0c4"/>
        <path id="Trazado_879291" data-name="Trazado 879291" d="M156.8,351.235H51.982a2.641,2.641,0,0,1-2.641-2.641V330.962a2.64,2.64,0,0,1,2.641-2.641H156.8a2.64,2.64,0,0,1,2.641,2.641v17.633a2.641,2.641,0,0,1-2.641,2.641" transform="translate(-17.715 -80.885)" fill="#00ffdf"/>
        <rect id="Rectángulo_403375" data-name="Rectángulo 403375" width="32.64" height="10.214" transform="translate(38.772 254.336)" fill="#5f7b93"/>
        <rect id="Rectángulo_403376" data-name="Rectángulo 403376" width="13.457" height="2.483" transform="translate(42.203 256.959)" fill="#9bb0c4"/>
        <rect id="Rectángulo_403377" data-name="Rectángulo 403377" width="5.429" height="2.483" transform="translate(59.452 256.959)" fill="#9bb0c4"/>
        <rect id="Rectángulo_403378" data-name="Rectángulo 403378" width="5.658" height="10.214" transform="translate(75.808 254.336)" fill="#9bb0c4"/>
        <path id="Trazado_879292" data-name="Trazado 879292" d="M135.661,342.593a2.844,2.844,0,1,1-2.844-2.844,2.845,2.845,0,0,1,2.844,2.844" transform="translate(-37.579 -83.7)" fill="#9bb0c4"/>
        <path id="Trazado_879293" data-name="Trazado 879293" d="M151.373,342.593a2.844,2.844,0,1,1-2.844-2.844,2.845,2.845,0,0,1,2.844,2.844" transform="translate(-41.45 -83.7)" fill="#9bb0c4"/>
        <path id="Trazado_879294" data-name="Trazado 879294" d="M167.086,342.593a2.844,2.844,0,1,1-2.844-2.844,2.845,2.845,0,0,1,2.844,2.844" transform="translate(-45.321 -83.7)" fill="#9bb0c4"/>
        <path id="Trazado_879295" data-name="Trazado 879295" d="M182.8,342.593a2.844,2.844,0,1,1-2.844-2.844,2.845,2.845,0,0,1,2.844,2.844" transform="translate(-49.192 -83.7)" fill="#9bb0c4"/>
        <rect id="Rectángulo_403379" data-name="Rectángulo 403379" width="3.941" height="10.551" transform="translate(27.686 253.617)" fill="#5f7b93"/>
        <rect id="Rectángulo_403380" data-name="Rectángulo 403380" width="3.94" height="10.551" transform="translate(141.728 253.617)" fill="#5f7b93"/>
        <path id="Trazado_879296" data-name="Trazado 879296" d="M55.073,354.348H157.112a3.743,3.743,0,0,0,3.743-3.743v-9.649" transform="translate(-19.127 -83.998)" fill="none" stroke="#536c7f" stroke-linecap="round" stroke-miterlimit="10" stroke-width="1"/>
        <rect id="Rectángulo_403381" data-name="Rectángulo 403381" width="101.461" height="4.454" transform="translate(35.946 297.719)" fill="#9bb0c4"/>
        <path id="Trazado_879297" data-name="Trazado 879297" d="M156.8,387.55H51.982a2.641,2.641,0,0,1-2.641-2.641V367.277a2.64,2.64,0,0,1,2.641-2.641H156.8a2.64,2.64,0,0,1,2.641,2.641V384.91a2.641,2.641,0,0,1-2.641,2.641" transform="translate(-17.715 -89.832)" fill="#00ffdf"/>
        <rect id="Rectángulo_403382" data-name="Rectángulo 403382" width="32.64" height="10.214" transform="translate(38.772 281.704)" fill="#5f7b93"/>
        <rect id="Rectángulo_403383" data-name="Rectángulo 403383" width="13.457" height="2.483" transform="translate(42.203 284.328)" fill="#9bb0c4"/>
        <rect id="Rectángulo_403384" data-name="Rectángulo 403384" width="5.429" height="2.483" transform="translate(59.452 284.328)" fill="#9bb0c4"/>
        <rect id="Rectángulo_403385" data-name="Rectángulo 403385" width="5.658" height="10.214" transform="translate(75.808 281.704)" fill="#9bb0c4"/>
        <path id="Trazado_879298" data-name="Trazado 879298" d="M135.661,378.909a2.844,2.844,0,1,1-2.844-2.844,2.844,2.844,0,0,1,2.844,2.844" transform="translate(-37.579 -92.647)" fill="#9bb0c4"/>
        <path id="Trazado_879299" data-name="Trazado 879299" d="M151.373,378.909a2.844,2.844,0,1,1-2.844-2.844,2.844,2.844,0,0,1,2.844,2.844" transform="translate(-41.45 -92.647)" fill="#9bb0c4"/>
        <path id="Trazado_879300" data-name="Trazado 879300" d="M167.086,378.909a2.844,2.844,0,1,1-2.844-2.844,2.844,2.844,0,0,1,2.844,2.844" transform="translate(-45.321 -92.647)" fill="#9bb0c4"/>
        <path id="Trazado_879301" data-name="Trazado 879301" d="M182.8,378.909a2.844,2.844,0,1,1-2.844-2.844,2.844,2.844,0,0,1,2.844,2.844" transform="translate(-49.192 -92.647)" fill="#9bb0c4"/>
        <rect id="Rectángulo_403386" data-name="Rectángulo 403386" width="3.941" height="10.551" transform="translate(27.686 280.987)" fill="#5f7b93"/>
        <rect id="Rectángulo_403387" data-name="Rectángulo 403387" width="3.94" height="10.551" transform="translate(141.728 280.987)" fill="#5f7b93"/>
        <path id="Trazado_879302" data-name="Trazado 879302" d="M55.073,390.663H157.112a3.743,3.743,0,0,0,3.743-3.743v-9.649" transform="translate(-19.127 -92.945)" fill="none" stroke="#536c7f" stroke-linecap="round" stroke-miterlimit="10" stroke-width="1"/>
        <rect id="Rectángulo_403388" data-name="Rectángulo 403388" width="101.461" height="4.454" transform="translate(35.946 325.088)" fill="#9bb0c4"/>
        <path id="Trazado_879303" data-name="Trazado 879303" d="M156.8,423.866H51.982a2.641,2.641,0,0,1-2.641-2.641V403.593a2.64,2.64,0,0,1,2.641-2.641H156.8a2.64,2.64,0,0,1,2.641,2.641v17.633a2.641,2.641,0,0,1-2.641,2.641" transform="translate(-17.715 -98.778)" fill="#00ffdf"/>
        <rect id="Rectángulo_403389" data-name="Rectángulo 403389" width="32.64" height="10.214" transform="translate(38.772 309.073)" fill="#5f7b93"/>
        <rect id="Rectángulo_403390" data-name="Rectángulo 403390" width="13.457" height="2.483" transform="translate(42.203 311.697)" fill="#9bb0c4"/>
        <rect id="Rectángulo_403391" data-name="Rectángulo 403391" width="5.429" height="2.483" transform="translate(59.452 311.697)" fill="#9bb0c4"/>
        <rect id="Rectángulo_403392" data-name="Rectángulo 403392" width="5.658" height="10.214" transform="translate(75.808 309.073)" fill="#9bb0c4"/>
        <path id="Trazado_879304" data-name="Trazado 879304" d="M135.661,415.224a2.844,2.844,0,1,1-2.844-2.844,2.844,2.844,0,0,1,2.844,2.844" transform="translate(-37.579 -101.594)" fill="#9bb0c4"/>
        <path id="Trazado_879305" data-name="Trazado 879305" d="M151.373,415.224a2.844,2.844,0,1,1-2.844-2.844,2.844,2.844,0,0,1,2.844,2.844" transform="translate(-41.45 -101.594)" fill="#9bb0c4"/>
        <path id="Trazado_879306" data-name="Trazado 879306" d="M167.086,415.224a2.844,2.844,0,1,1-2.844-2.844,2.844,2.844,0,0,1,2.844,2.844" transform="translate(-45.321 -101.594)" fill="#9bb0c4"/>
        <path id="Trazado_879307" data-name="Trazado 879307" d="M182.8,415.224a2.844,2.844,0,1,1-2.844-2.844,2.844,2.844,0,0,1,2.844,2.844" transform="translate(-49.192 -101.594)" fill="#9bb0c4"/>
        <rect id="Rectángulo_403393" data-name="Rectángulo 403393" width="3.941" height="10.551" transform="translate(27.686 308.355)" fill="#5f7b93"/>
        <rect id="Rectángulo_403394" data-name="Rectángulo 403394" width="3.94" height="10.551" transform="translate(141.728 308.355)" fill="#5f7b93"/>
        <path id="Trazado_879308" data-name="Trazado 879308" d="M55.073,426.979H157.112a3.743,3.743,0,0,0,3.743-3.743v-9.649" transform="translate(-19.127 -101.891)" fill="none" stroke="#536c7f" stroke-linecap="round" stroke-miterlimit="10" stroke-width="1"/>
        <rect id="Rectángulo_403395" data-name="Rectángulo 403395" width="101.461" height="4.454" transform="translate(35.946 352.456)" fill="#9bb0c4"/>
        <path id="Trazado_879309" data-name="Trazado 879309" d="M156.8,460.181H51.982a2.641,2.641,0,0,1-2.641-2.641V439.908a2.64,2.64,0,0,1,2.641-2.641H156.8a2.64,2.64,0,0,1,2.641,2.641v17.633a2.641,2.641,0,0,1-2.641,2.641" transform="translate(-17.715 -107.725)" fill="#00ffdf"/>
        <rect id="Rectángulo_403396" data-name="Rectángulo 403396" width="32.64" height="10.214" transform="translate(38.772 336.442)" fill="#5f7b93"/>
        <rect id="Rectángulo_403397" data-name="Rectángulo 403397" width="13.457" height="2.483" transform="translate(42.203 339.066)" fill="#9bb0c4"/>
        <rect id="Rectángulo_403398" data-name="Rectángulo 403398" width="5.429" height="2.483" transform="translate(59.452 339.066)" fill="#9bb0c4"/>
        <rect id="Rectángulo_403399" data-name="Rectángulo 403399" width="5.658" height="10.214" transform="translate(75.808 336.442)" fill="#9bb0c4"/>
        <path id="Trazado_879310" data-name="Trazado 879310" d="M135.661,451.54a2.844,2.844,0,1,1-2.844-2.844,2.845,2.845,0,0,1,2.844,2.844" transform="translate(-37.579 -110.541)" fill="#9bb0c4"/>
        <path id="Trazado_879311" data-name="Trazado 879311" d="M151.373,451.54a2.844,2.844,0,1,1-2.844-2.844,2.845,2.845,0,0,1,2.844,2.844" transform="translate(-41.45 -110.541)" fill="#9bb0c4"/>
        <path id="Trazado_879312" data-name="Trazado 879312" d="M167.086,451.54a2.844,2.844,0,1,1-2.844-2.844,2.845,2.845,0,0,1,2.844,2.844" transform="translate(-45.321 -110.541)" fill="#9bb0c4"/>
        <path id="Trazado_879313" data-name="Trazado 879313" d="M182.8,451.54a2.844,2.844,0,1,1-2.844-2.844,2.845,2.845,0,0,1,2.844,2.844" transform="translate(-49.192 -110.541)" fill="#9bb0c4"/>
        <rect id="Rectángulo_403400" data-name="Rectángulo 403400" width="3.941" height="10.551" transform="translate(27.686 335.724)" fill="#5f7b93"/>
        <rect id="Rectángulo_403401" data-name="Rectángulo 403401" width="3.94" height="10.551" transform="translate(141.728 335.724)" fill="#5f7b93"/>
        <path id="Trazado_879314" data-name="Trazado 879314" d="M55.073,463.294H157.112a3.743,3.743,0,0,0,3.743-3.743V449.9" transform="translate(-19.127 -110.838)" fill="none" stroke="#536c7f" stroke-linecap="round" stroke-miterlimit="10" stroke-width="1"/>
        <path id="Trazado_879315" data-name="Trazado 879315" d="M156.8,496.5H51.982a2.641,2.641,0,0,1-2.641-2.641V476.224a2.64,2.64,0,0,1,2.641-2.641H156.8a2.64,2.64,0,0,1,2.641,2.641v17.633A2.641,2.641,0,0,1,156.8,496.5" transform="translate(-17.715 -116.672)" fill="#00ffdf"/>
        <rect id="Rectángulo_403402" data-name="Rectángulo 403402" width="32.64" height="10.214" transform="translate(38.772 363.811)" fill="#5f7b93"/>
        <rect id="Rectángulo_403403" data-name="Rectángulo 403403" width="13.457" height="2.483" transform="translate(42.203 366.434)" fill="#9bb0c4"/>
        <rect id="Rectángulo_403404" data-name="Rectángulo 403404" width="5.429" height="2.483" transform="translate(59.452 366.434)" fill="#9bb0c4"/>
        <rect id="Rectángulo_403405" data-name="Rectángulo 403405" width="5.658" height="10.214" transform="translate(75.808 363.811)" fill="#9bb0c4"/>
        <path id="Trazado_879316" data-name="Trazado 879316" d="M135.661,487.855a2.844,2.844,0,1,1-2.844-2.844,2.845,2.845,0,0,1,2.844,2.844" transform="translate(-37.579 -119.487)" fill="#9bb0c4"/>
        <path id="Trazado_879317" data-name="Trazado 879317" d="M151.373,487.855a2.844,2.844,0,1,1-2.844-2.844,2.845,2.845,0,0,1,2.844,2.844" transform="translate(-41.45 -119.487)" fill="#9bb0c4"/>
        <path id="Trazado_879318" data-name="Trazado 879318" d="M167.086,487.855a2.844,2.844,0,1,1-2.844-2.844,2.845,2.845,0,0,1,2.844,2.844" transform="translate(-45.321 -119.487)" fill="#9bb0c4"/>
        <path id="Trazado_879319" data-name="Trazado 879319" d="M182.8,487.855a2.844,2.844,0,1,1-2.844-2.844,2.845,2.845,0,0,1,2.844,2.844" transform="translate(-49.192 -119.487)" fill="#9bb0c4"/>
        <rect id="Rectángulo_403406" data-name="Rectángulo 403406" width="3.941" height="10.551" transform="translate(27.686 363.092)" fill="#5f7b93"/>
        <rect id="Rectángulo_403407" data-name="Rectángulo 403407" width="3.94" height="10.551" transform="translate(141.728 363.092)" fill="#5f7b93"/>
        <path id="Trazado_879320" data-name="Trazado 879320" d="M55.073,499.61H157.112a3.743,3.743,0,0,0,3.743-3.743v-9.649" transform="translate(-19.127 -119.785)" fill="none" stroke="#536c7f" stroke-linecap="round" stroke-miterlimit="10" stroke-width="1"/>
        <path id="Trazado_879321" data-name="Trazado 879321" d="M145.093,162.306l9.155-7.586,14.177,2.08-8.243,5.506" transform="translate(-41.304 -38.116)" fill="none" stroke="#b5574b" stroke-linecap="round" stroke-miterlimit="10" stroke-width="1"/>
        <path id="Trazado_879322" data-name="Trazado 879322" d="M260.8,132.42a11.356,11.356,0,1,0,11.354,11.354A11.355,11.355,0,0,0,260.8,132.42m0,17.077a5.721,5.721,0,1,1,5.723-5.723A5.72,5.72,0,0,1,260.8,149.5" transform="translate(-67.014 -32.622)" fill="#bcccdd"/>
        <rect id="Rectángulo_403408" data-name="Rectángulo 403408" width="6.129" height="7.921" transform="translate(190.917 94.87)" fill="#bcccdd"/>
        <rect id="Rectángulo_403409" data-name="Rectángulo 403409" width="6.129" height="7.921" transform="translate(180.245 101.671) rotate(-45)" fill="#bcccdd"/>
        <rect id="Rectángulo_403410" data-name="Rectángulo 403410" width="7.921" height="6.129" transform="translate(177.507 107.897)" fill="#bcccdd"/>
        <rect id="Rectángulo_403411" data-name="Rectángulo 403411" width="7.921" height="6.129" transform="translate(179.974 120.366) rotate(-45.005)" fill="#bcccdd"/>
        <rect id="Rectángulo_403412" data-name="Rectángulo 403412" width="6.129" height="7.921" transform="translate(190.534 119.517)" fill="#bcccdd"/>
        <rect id="Rectángulo_403413" data-name="Rectángulo 403413" width="6.129" height="7.921" transform="translate(197.402 119.37) rotate(-45)" fill="#bcccdd"/>
        <rect id="Rectángulo_403414" data-name="Rectángulo 403414" width="7.921" height="6.129" transform="translate(202.154 108.281)" fill="#bcccdd"/>
        <rect id="Rectángulo_403415" data-name="Rectángulo 403415" width="7.921" height="6.129" transform="translate(197.672 103.209) rotate(-45)" fill="#bcccdd"/>
        <path id="Trazado_879323" data-name="Trazado 879323" d="M294.559,118.279a5.73,5.73,0,1,0,5.729,5.728,5.729,5.729,0,0,0-5.729-5.728m0,8.616a2.887,2.887,0,1,1,2.888-2.888,2.887,2.887,0,0,1-2.888,2.888" transform="translate(-76.715 -29.139)" fill="#bcccdd"/>
        <rect id="Rectángulo_403416" data-name="Rectángulo 403416" width="3.092" height="3.997" transform="translate(216.394 86.654)" fill="#bcccdd"/>
        <rect id="Rectángulo_403417" data-name="Rectángulo 403417" width="3.092" height="3.997" transform="translate(211.009 90.085) rotate(-45)" fill="#bcccdd"/>
        <rect id="Rectángulo_403418" data-name="Rectángulo 403418" width="3.997" height="3.092" transform="translate(209.628 93.227)" fill="#bcccdd"/>
        <rect id="Rectángulo_403419" data-name="Rectángulo 403419" width="3.997" height="3.092" transform="translate(210.872 99.518) rotate(-45)" fill="#bcccdd"/>
        <rect id="Rectángulo_403420" data-name="Rectángulo 403420" width="3.092" height="3.997" transform="translate(216.201 99.09)" fill="#bcccdd"/>
        <rect id="Rectángulo_403421" data-name="Rectángulo 403421" width="3.092" height="3.997" transform="translate(219.665 99.016) rotate(-45.01)" fill="#bcccdd"/>
        <rect id="Rectángulo_403422" data-name="Rectángulo 403422" width="3.997" height="3.092" transform="translate(222.063 93.42)" fill="#bcccdd"/>
        <rect id="Rectángulo_403423" data-name="Rectángulo 403423" width="3.997" height="3.092" transform="translate(219.802 90.862) rotate(-45)" fill="#bcccdd"/>
        <path id="Trazado_879324" data-name="Trazado 879324" d="M154.337,151.854s-.479,7.8.4,9.533,8.974,2.441,8.974,2.441l15.514-8.547-11.868-8.27-10.012,1.153Z" transform="translate(-43.55 -36.217)" fill="#cc8e75"/>
        <path id="Trazado_879325" data-name="Trazado 879325" d="M159.731,157.332a5.28,5.28,0,0,0,.671,2.243,5.9,5.9,0,0,0,4.666,2.892l3.568.314" transform="translate(-44.91 -38.76)" fill="none" stroke="#b5574b" stroke-linecap="round" stroke-miterlimit="10" stroke-width="1"/>
        <path id="Trazado_879326" data-name="Trazado 879326" d="M166.693,155.652a3.513,3.513,0,0,0,3.334,3.533l5.255.462" transform="translate(-46.626 -38.346)" fill="none" stroke="#b5574b" stroke-linecap="round" stroke-miterlimit="10" stroke-width="1"/>
        <path id="Trazado_879327" data-name="Trazado 879327" d="M211.15,175.482,192.5,155.291l-13.941,9.971,16.171,28.753Z" transform="translate(-49.548 -38.257)" fill="#dfab94"/>
        <path id="Trazado_879328" data-name="Trazado 879328" d="M182.555,152.082s-8.17-8.529-10.462-9.442-16.808-.041-19.068,1.377-15.164,14.009-14.817,15.463,4.265,2.746,10.86-2.129,7.579-5.263,7.579-5.263l13.55,3.221s-13.816,6.555-13.366,9.524,11.476.72,11.476.72l10.984,9.538Z" transform="translate(-39.606 -35.048)" fill="#dfab94"/>
        <path id="Trazado_879329" data-name="Trazado 879329" d="M347.389,155.6s-32.917-.967-42.254,1.75-61.9,40.741-67,41.455l-24.786-26.463-18.27,17.971S226.1,244.65,236.7,248.786s66.748-43.281,66.748-43.281l36.022-7.383,12.868-28.007Z" transform="translate(-53.62 -38.291)" fill="#f0c518"/>
        <path id="Trazado_879330" data-name="Trazado 879330" d="M396.5,318.581s26.325,83.743,28.011,141.3H368.267L358.1,369.156,341.594,464.3H296.912s3.217-94.944,24.572-146.339,75.015.625,75.015.625" transform="translate(-78.707 -72.744)" fill="#00ffdf"/>
        <path id="Trazado_879331" data-name="Trazado 879331" d="M426.344,348.936c13.484,39.812,22.507,126.323,22.507,126.323" transform="translate(-110.594 -85.964)" fill="none" stroke="#af7e62" stroke-linecap="round" stroke-miterlimit="10" stroke-width="1"/>
        <path id="Trazado_879332" data-name="Trazado 879332" d="M323.221,185.04s50.234-13.272,88.681-1.368L403.87,301.4l-80.649-.049V185.04Z" transform="translate(-85.188 -44.028)" fill="#f0c518"/>
        <g id="Grupo_1101664" data-name="Grupo 1101664" transform="translate(238.033 196.027)" opacity="0.57" style="mix-blend-mode: multiply;isolation: isolate">
          <g id="Grupo_1101663" data-name="Grupo 1101663">
            <g id="Grupo_1101662" data-name="Grupo 1101662" clip-path="url(#clip-path-2)">
              <path id="Trazado_879333" data-name="Trazado 879333" d="M406.415,260.108c-14.612,35.855-83.193,45.767-83.193,45.767V321.4l84.714,3.2Z" transform="translate(-323.221 -260.107)" fill="#fca695"/>
            </g>
          </g>
        </g>
        <path id="Trazado_879334" data-name="Trazado 879334" d="M399.723,150.4c14.658,6.146,37.974,12.553,43.355,21.008s31.357,97.337,20.346,106.608-66.7,29.08-66.7,29.08l-7.408-21.739,38.518-34L407.6,188.192l-24.3-1.159V156.71Z" transform="translate(-99.989 -37.051)" fill="#f0c518"/>
        <path id="Trazado_879335" data-name="Trazado 879335" d="M358.629,149.9c-2.557,16.67.334,27.679,15.369,29.764,14.148,1.962,27.719-13.657,29.612-25.815,0,0-13.616-8.834-44.981-3.949" transform="translate(-93.707 -36.566)" fill="#fff"/>
        <path id="Trazado_879336" data-name="Trazado 879336" d="M369.422,146.051v8.64c0,7.778,8.05,13.108,19.027,7.532,9.331-4.74,10.415-10.531,10.415-15.294V122.488l-29.4,19.436Z" transform="translate(-96.57 -30.176)" fill="#dfab94"/>
        <g id="Grupo_1101667" data-name="Grupo 1101667" transform="translate(272.852 94.986)" opacity="0.39" style="mix-blend-mode: multiply;isolation: isolate">
          <g id="Grupo_1101666" data-name="Grupo 1101666">
            <g id="Grupo_1101665" data-name="Grupo 1101665" clip-path="url(#clip-path-3)">
              <path id="Trazado_879337" data-name="Trazado 879337" d="M390.339,129c-1.625,13.34-10.459,21.711-20.907,21.711-.011-.115-.011-.24-.011-.356V126.036Z" transform="translate(-369.422 -126.036)" fill="#fca695"/>
            </g>
          </g>
        </g>
        <path id="Trazado_879338" data-name="Trazado 879338" d="M350.951,69.4c-16.484,10.924-15.985,25.872-13.535,38.182,2.647,13.3,11.941,22.662,23.807,22.662,16.053,0,29.174-9.952,30.51-25.4S389.408,71.227,377.5,69.4s-26.548,0-26.548,0" transform="translate(-88.372 -16.896)" fill="#dfab94"/>
        <path id="Trazado_879339" data-name="Trazado 879339" d="M352.9,102.045c0,1.451-.737,2.626-1.647,2.626s-1.647-1.176-1.647-2.626.737-2.626,1.647-2.626,1.647,1.176,1.647,2.626" transform="translate(-91.689 -24.492)" fill="#5a2402"/>
        <path id="Trazado_879340" data-name="Trazado 879340" d="M377.989,102.045c0,1.451-.737,2.626-1.647,2.626s-1.647-1.176-1.647-2.626.738-2.626,1.647-2.626,1.647,1.176,1.647,2.626" transform="translate(-97.87 -24.492)" fill="#5a2402"/>
        <path id="Trazado_879341" data-name="Trazado 879341" d="M372.5,86.786c3.917-1.669,9.992.276,10.559,2.816s-.425,3.809-1.559,3.809-3.895-3.235-9.213-1.9c-1.882.47-3.263-3.239.213-4.72" transform="translate(-96.801 -21.227)" fill="#5a2402"/>
        <path id="Trazado_879342" data-name="Trazado 879342" d="M353.618,86.786c-3.262-1.669-8.32.276-8.792,2.816s.354,3.809,1.3,3.809,3.243-3.235,7.671-1.9c1.567.47,2.716-3.239-.178-4.72" transform="translate(-90.477 -21.227)" fill="#5a2402"/>
        <path id="Trazado_879343" data-name="Trazado 879343" d="M362.071,100.3c-.49,2.677-1.984,8.76-2.687,11.586a1.353,1.353,0,0,0,1.18,1.675c1.727.168,4.42.324,5.535-.18" transform="translate(-94.087 -24.71)" fill="none" stroke="#b5574b" stroke-linecap="round" stroke-miterlimit="10" stroke-width="1"/>
        <path id="Trazado_879344" data-name="Trazado 879344" d="M368.429,121.753a30.763,30.763,0,0,0,6.837-2,.657.657,0,0,1,.922.67,4.425,4.425,0,0,1-3.173,3.748,4.3,4.3,0,0,1-4.98-1.327.66.66,0,0,1,.394-1.088" transform="translate(-96.188 -29.487)" fill="#fff"/>
        <path id="Trazado_879345" data-name="Trazado 879345" d="M403.123,106.242c3.744-7.389,9.985-7.617,11.857-2.95s-2.028,14.206-9.049,14.9" transform="translate(-104.873 -24.676)" fill="#dfab94"/>
        <g id="Grupo_1101670" data-name="Grupo 1101670" transform="translate(299.733 80.221)" opacity="0.39" style="mix-blend-mode: multiply;isolation: isolate">
          <g id="Grupo_1101669" data-name="Grupo 1101669">
            <g id="Grupo_1101668" data-name="Grupo 1101668" clip-path="url(#clip-path-4)">
              <path id="Trazado_879346" data-name="Trazado 879346" d="M412.016,106.6c1.381.813,2.6,3.64-.546,6.274a9.449,9.449,0,0,1-6.315,2.369s-.535-3.676,1.467-5.795,4.462-3.469,5.393-2.849" transform="translate(-405.091 -106.444)" fill="#fca695"/>
            </g>
          </g>
        </g>
        <path id="Trazado_879347" data-name="Trazado 879347" d="M406.021,110.71c3.276-5.587,6.553-4.651,7.177-3.247" transform="translate(-105.587 -26.21)" fill="none" stroke="#b5574b" stroke-linecap="round" stroke-miterlimit="10" stroke-width="1"/>
        <path id="Trazado_879348" data-name="Trazado 879348" d="M408.488,109.219c2.509-.775,2.665,2.56,1.729,3.389" transform="translate(-106.195 -26.878)" fill="none" stroke="#b5574b" stroke-linecap="round" stroke-miterlimit="10" stroke-width="1"/>
        <path id="Trazado_879349" data-name="Trazado 879349" d="M369.422,145.364c14.721,0,24.975-9.031,27.582-15.4" transform="translate(-96.57 -32.018)" fill="none" stroke="#b5574b" stroke-linecap="round" stroke-miterlimit="10" stroke-width="1"/>
        <g id="Grupo_1101673" data-name="Grupo 1101673" transform="translate(275.406 96.258)" opacity="0.39" style="mix-blend-mode: multiply;isolation: isolate">
          <g id="Grupo_1101672" data-name="Grupo 1101672">
            <g id="Grupo_1101671" data-name="Grupo 1101671" clip-path="url(#clip-path-5)">
              <path id="Trazado_879350" data-name="Trazado 879350" d="M373.08,129.4c1.13,0,4.177-2.269,4.545-1.52s-.75,2.347-1.849,3.084-3.825-1.56-2.7-1.564" transform="translate(-372.811 -127.723)" fill="#fca695"/>
            </g>
          </g>
        </g>
        <g id="Grupo_1101676" data-name="Grupo 1101676" transform="translate(282.711 80.382)" opacity="0.39" style="mix-blend-mode: multiply;isolation: isolate">
          <g id="Grupo_1101675" data-name="Grupo 1101675">
            <g id="Grupo_1101674" data-name="Grupo 1101674" clip-path="url(#clip-path-6)">
              <path id="Trazado_879351" data-name="Trazado 879351" d="M389.353,109.331c0,1.477-1.533,2.674-3.425,2.674s-3.424-1.2-3.424-2.674,1.534-2.674,3.424-2.674,3.425,1.2,3.425,2.674" transform="translate(-382.504 -106.657)" fill="#fca695"/>
            </g>
          </g>
        </g>
        <g id="Grupo_1101679" data-name="Grupo 1101679" transform="translate(252.718 80.382)" opacity="0.39" style="mix-blend-mode: multiply;isolation: isolate">
          <g id="Grupo_1101678" data-name="Grupo 1101678">
            <g id="Grupo_1101677" data-name="Grupo 1101677" clip-path="url(#clip-path-7)">
              <path id="Trazado_879352" data-name="Trazado 879352" d="M349.555,109.331c0,1.477-1.533,2.674-3.425,2.674s-3.425-1.2-3.425-2.674,1.534-2.674,3.425-2.674,3.425,1.2,3.425,2.674" transform="translate(-342.707 -106.657)" fill="#fca695"/>
            </g>
          </g>
        </g>
        <path id="Trazado_879353" data-name="Trazado 879353" d="M393.4,87.86C387.679,89.82,385.416,98,385.416,98a61.4,61.4,0,0,1,.382-15.487c-3.681-2.019-3.428-9.9-3.4-10.933,0,0-15.959,5.157-25.9,3.71s-12.122-4.032-12.122-4.032-4.27,3.754-7.162,12.11c0,0-.812-16.132,7.558-19.409,0,0-5.109-6.555,6.377-11.154,14.034-5.618,45.091-4.358,46.912,12.4,4.615,3.755,5.974,17.789-1.338,23.2a3.2,3.2,0,0,0-3.321-.54" transform="translate(-88.63 -12.267)" fill="#3a1d71"/>
        <path id="Trazado_879354" data-name="Trazado 879354" d="M383.093,329.472l-14.721,7.553L365.16,358.81l26.007-4.107Z" transform="translate(-95.52 -81.168)" fill="#dfab94"/>
        <line id="Línea_591" data-name="Línea 591" x1="7.787" y2="3.987" transform="translate(275.523 250.49)" fill="none" stroke="#b5574b" stroke-linecap="round" stroke-miterlimit="10" stroke-width="1"/>
        <rect id="Rectángulo_403430" data-name="Rectángulo 403430" width="17.123" height="30.314" transform="translate(282.357 244.613) rotate(-20.306)" fill="#f7cf9c"/>
        <rect id="Rectángulo_403431" data-name="Rectángulo 403431" width="32.359" height="17.124" transform="matrix(0.836, -0.549, 0.549, 0.836, 135.329, 147.717)" fill="#f7cf9c"/>
        <path id="Trazado_879355" data-name="Trazado 879355" d="M435.391,185.293c-8.732,2.832-16.221,12.366-16.811,18.652s17.94,56.009,17.94,56.009,13.532,7.926,13.322,14.428" transform="translate(-108.678 -45.648)" fill="none" stroke="#bf7d2e" stroke-linecap="round" stroke-miterlimit="10" stroke-width="1"/>
        <line id="Línea_592" data-name="Línea 592" x1="29.427" y2="24.364" transform="translate(298.416 214.306)" fill="none" stroke="#bf7d2e" stroke-linecap="round" stroke-miterlimit="10" stroke-width="1"/>
        <path id="Trazado_879356" data-name="Trazado 879356" d="M418.683,334.322s45.475-15.879,50.5-22.1,8.559-8.178,3.845-31.513" transform="translate(-108.706 -69.154)" fill="none" stroke="#bf7d2e" stroke-linecap="round" stroke-miterlimit="10" stroke-width="1"/>
        <path id="Trazado_879357" data-name="Trazado 879357" d="M329.221,174.447c-6.827,5.852-6.01,78.673-6.01,78.673" transform="translate(-85.178 -42.976)" fill="none" stroke="#bf7d2e" stroke-linecap="round" stroke-miterlimit="10" stroke-width="1"/>
        <path id="Trazado_879358" data-name="Trazado 879358" d="M254.567,232a60.1,60.1,0,0,0-2.354-19.023" transform="translate(-67.694 -52.469)" fill="none" stroke="#bf7d2e" stroke-linecap="round" stroke-miterlimit="10" stroke-width="1"/>
        <path id="Trazado_879359" data-name="Trazado 879359" d="M250.87,215.67c-.554,4.8-3.387,10.4-3.387,10.4" transform="translate(-66.529 -53.132)" fill="none" stroke="#bf7d2e" stroke-linecap="round" stroke-miterlimit="10" stroke-width="1"/>
        <line id="Línea_593" data-name="Línea 593" y1="17.692" x2="19.309" transform="translate(218.694 174.002)" fill="none" stroke="#bf7d2e" stroke-linecap="round" stroke-miterlimit="10" stroke-width="1"/>
        <path id="Trazado_879360" data-name="Trazado 879360" d="M369.422,358.317v24.462h9.153v-18.8" transform="translate(-96.57 -88.275)" fill="none" stroke="#af7e62" stroke-linecap="round" stroke-miterlimit="10" stroke-width="1"/>
        <line id="Línea_594" data-name="Línea 594" x1="19.931" y2="108.613" transform="translate(252.92 294.504)" fill="none" stroke="#af7e62" stroke-linecap="round" stroke-miterlimit="10" stroke-width="1"/>
        <rect id="Rectángulo_403432" data-name="Rectángulo 403432" width="207.303" height="11.39" transform="translate(159.236 280.317)" fill="#fca695"/>
        <rect id="Rectángulo_403433" data-name="Rectángulo 403433" width="10.196" height="94.885" transform="translate(169.949 291.707)" fill="#fca695"/>
        <rect id="Rectángulo_403434" data-name="Rectángulo 403434" width="10.196" height="15.335" transform="translate(169.949 291.707)" fill="#ea7a68"/>
        <rect id="Rectángulo_403435" data-name="Rectángulo 403435" width="10.196" height="94.885" transform="translate(343.808 291.707)" fill="#fca695"/>
        <rect id="Rectángulo_403436" data-name="Rectángulo 403436" width="10.196" height="15.335" transform="translate(343.808 291.707)" fill="#ea7a68"/>
        <path id="Trazado_879361" data-name="Trazado 879361" d="M371.012,369.8h-101.3a2.212,2.212,0,0,1-2.212-2.212v-4.18a2.212,2.212,0,0,1,2.212-2.212h101.3a2.212,2.212,0,0,1,2.212,2.212v4.18a2.212,2.212,0,0,1-2.212,2.212" transform="translate(-71.462 -88.984)" fill="#3a1d71"/>
        <path id="Trazado_879362" data-name="Trazado 879362" d="M342.373,347.049H244.952l-11.7-52.7a7.6,7.6,0,0,1,7.418-9.246h80.214a9.641,9.641,0,0,1,9.411,7.551Z" transform="translate(-62.977 -70.237)" fill="#7392bf"/>
        <path id="Trazado_879363" data-name="Trazado 879363" d="M337.235,347.049H239.814l-11.7-52.7a7.6,7.6,0,0,1,7.418-9.246h80.214a9.641,9.641,0,0,1,9.411,7.551Z" transform="translate(-61.711 -70.237)" fill="#3a1d71"/>
        <path id="Trazado_879364" data-name="Trazado 879364" d="M341.333,369.8h-101.3a2.212,2.212,0,0,1-2.212-2.212v-4.18a2.212,2.212,0,0,1,2.212-2.212h101.3a2.212,2.212,0,0,1,2.212,2.212v4.18a2.212,2.212,0,0,1-2.212,2.212" transform="translate(-64.15 -88.984)" fill="#3a1d71"/>
        <line id="Línea_595" data-name="Línea 595" x2="76.505" transform="translate(176.415 272.211)" fill="none" stroke="#b1c6e5" stroke-linecap="round" stroke-miterlimit="10" stroke-width="1"/>
        <path id="Trazado_879365" data-name="Trazado 879365" d="M296.535,321.4c.916,5.057-.883,9.616-4.018,10.185s-6.419-3.071-7.335-8.128.882-9.616,4.018-10.185,6.419,3.071,7.335,8.128" transform="translate(-75.758 -77.162)" fill="#fff"/>
        <line id="Línea_596" data-name="Línea 596" x2="207.303" transform="translate(159.236 291.707)" fill="none" stroke="#84261f" stroke-linecap="round" stroke-miterlimit="10" stroke-width="1"/>
      </g>
    </g>
  </g>
</svg>
