<svg xmlns="http://www.w3.org/2000/svg" xmlns:xlink="http://www.w3.org/1999/xlink" width="613" height="408.979" viewBox="0 0 613 408.979">
  <defs>
    <clipPath id="clip-path">
      <rect id="Rectángulo_403082" data-name="Rectángulo 403082" width="411.999" height="370.355" fill="none"/>
    </clipPath>
    <filter id="Trazado_884511" x="468.5" y="26.372" width="91.072" height="91.072" filterUnits="userSpaceOnUse">
      <feOffset dy="1" input="SourceAlpha"/>
      <feGaussianBlur stdDeviation="5.5" result="blur"/>
      <feFlood flood-color="#fff" flood-opacity="0.902"/>
      <feComposite operator="in" in2="blur"/>
      <feComposite in="SourceGraphic"/>
    </filter>
    <linearGradient id="linear-gradient" x1="0.35" y1="0.433" x2="0.935" y2="0.848" gradientUnits="objectBoundingBox">
      <stop offset="0" stop-color="#f0c518"/>
      <stop offset="0.371" stop-color="#d1ae1f"/>
      <stop offset="1" stop-color="#78630c"/>
    </linearGradient>
    <filter id="Trazado_884145" x="106.79" y="319.872" width="83.538" height="83.539" filterUnits="userSpaceOnUse">
      <feOffset dy="1" input="SourceAlpha"/>
      <feGaussianBlur stdDeviation="5.5" result="blur-2"/>
      <feFlood flood-color="#fff" flood-opacity="0.902"/>
      <feComposite operator="in" in2="blur-2"/>
      <feComposite in="SourceGraphic"/>
    </filter>
    <clipPath id="clip-path-2">
      <rect id="Rectángulo_404146" data-name="Rectángulo 404146" width="70.519" height="153.966" transform="translate(0 0)" fill="#3a1d71" stroke="#707070" stroke-width="1"/>
    </clipPath>
    <filter id="Trazado_886555" x="-88.961" y="25.554" width="165.558" height="165.558" filterUnits="userSpaceOnUse">
      <feOffset dy="1" input="SourceAlpha"/>
      <feGaussianBlur stdDeviation="5.5" result="blur-3"/>
      <feFlood flood-color="#fff" flood-opacity="0.902"/>
      <feComposite operator="in" in2="blur-3"/>
      <feComposite in="SourceGraphic"/>
    </filter>
  </defs>
  <g id="_23" data-name="23" transform="translate(-95 -404)">
    <path id="Trazado_877328" data-name="Trazado 877328" d="M90.758,39.343,86.15,21.794a8.865,8.865,0,1,0,2.6,6.272,8.847,8.847,0,0,0-2.6-6.272m-1.916-8.786a15.5,15.5,0,0,1,3.474,1.479,15.676,15.676,0,0,1,3.051,2.3.539.539,0,0,0,.646.08l4.122-2.378.021-.015a1.026,1.026,0,0,1,1.369.387l.02.028,2.9,5.02a1.026,1.026,0,0,1-.377,1.4l-.026.018-4.085,2.358a.545.545,0,0,0-.257.6,15.324,15.324,0,0,1,.344,1.875,15.946,15.946,0,0,1,0,3.82,15.274,15.274,0,0,1-.346,1.873.55.55,0,0,0,.29.618l4.084,2.357,0,0a1.022,1.022,0,0,1,.377,1.394l-2.914,5.05h0a1,1,0,0,1-.617.474,1.027,1.027,0,0,1-.774-.1l-.031-.018L91.4,39.265a.543.543,0,0,0-.645.079,15.686,15.686,0,0,1-6.549,3.785.546.546,0,0,0-.4.522V48.4a1.019,1.019,0,0,1-1.017,1.02H76.964a1.028,1.028,0,0,1-1.02-1.02V43.65a.547.547,0,0,0-.418-.53,15.59,15.59,0,0,1-3.475-1.479A15.819,15.819,0,0,1,69,39.343a.544.544,0,0,0-.676-.062l-4.092,2.363a1.029,1.029,0,0,1-1.4-.376l-.018-.028-2.9-5.022v0a1.017,1.017,0,0,1-.1-.772,1,1,0,0,1,.472-.62l4.115-2.378c.213-.12.256-.6.256-.6s-.262-1.235-.343-1.873a16.178,16.178,0,0,1,0-3.82,16.685,16.685,0,0,1,.343-1.875.54.54,0,0,0-.285-.617L60.3,21.306a1,1,0,0,1-.472-.622,1.027,1.027,0,0,1,.1-.776l.016-.028,2.9-5.02h0a1.033,1.033,0,0,1,1.4-.376v0l4.118,2.378a.539.539,0,0,0,.659-.092,15.816,15.816,0,0,1,3.037-2.286A15.553,15.553,0,0,1,75.548,13a.546.546,0,0,0,.4-.525V7.726a1.028,1.028,0,0,1,1.02-1.018H82.8a1.019,1.019,0,0,1,1.017,1.018v4.753a.546.546,0,0,0,.421.53" transform="translate(531.57 412.177)" fill="#fff" fill-rule="evenodd" opacity="0.84"/>
    <path id="Trazado_884510" data-name="Trazado 884510" d="M80.952,29.009,77.8,17.017A6.058,6.058,0,1,0,79.577,21.3,6.046,6.046,0,0,0,77.8,17.017m-1.309-6a10.592,10.592,0,0,1,2.374,1.011,10.712,10.712,0,0,1,2.085,1.57.368.368,0,0,0,.442.055l2.816-1.625.015-.01a.7.7,0,0,1,.936.264l.013.019,1.98,3.431a.7.7,0,0,1-.258.955l-.018.012-2.792,1.612a.372.372,0,0,0-.176.409A10.473,10.473,0,0,1,84.146,20a10.9,10.9,0,0,1,0,2.61,10.441,10.441,0,0,1-.236,1.28.376.376,0,0,0,.2.423L86.9,25.92h0a.7.7,0,0,1,.258.953l-1.992,3.451h0a.686.686,0,0,1-.421.324.7.7,0,0,1-.529-.067l-.021-.012-2.8-1.614a.371.371,0,0,0-.44.054A10.719,10.719,0,0,1,76.477,31.6a.373.373,0,0,0-.271.356V35.2a.7.7,0,0,1-.695.7H71.525a.7.7,0,0,1-.7-.7V31.952a.374.374,0,0,0-.286-.362,10.654,10.654,0,0,1-2.375-1.011,10.81,10.81,0,0,1-2.082-1.57.371.371,0,0,0-.462-.043l-2.8,1.615a.7.7,0,0,1-.954-.257l-.012-.019-1.98-3.432h0a.7.7,0,0,1-.067-.528.681.681,0,0,1,.323-.424L62.948,24.3c.146-.082.175-.409.175-.409s-.179-.844-.234-1.28a11.055,11.055,0,0,1,0-2.61,11.4,11.4,0,0,1,.234-1.281.369.369,0,0,0-.195-.421l-2.792-1.612a.683.683,0,0,1-.323-.425.7.7,0,0,1,.067-.53l.011-.019,1.98-3.431h0a.706.706,0,0,1,.954-.257v0l2.814,1.625a.369.369,0,0,0,.451-.063,10.808,10.808,0,0,1,2.076-1.562,10.628,10.628,0,0,1,2.391-1.014.373.373,0,0,0,.27-.359V7.4a.7.7,0,0,1,.7-.7h3.985a.7.7,0,0,1,.695.7v3.248a.373.373,0,0,0,.288.362" transform="translate(429.494 399.644)" fill="none" stroke="#fff" stroke-width="1" fill-rule="evenodd" opacity="0.84"/>
    <path id="Trazado_884510-2" data-name="Trazado 884510" d="M66.084,29.009m3.149-11.992A6.058,6.058,0,1,1,67.459,21.3a6.046,6.046,0,0,1,1.774-4.286m1.309-6a10.593,10.593,0,0,0-2.374,1.011,10.712,10.712,0,0,0-2.085,1.57.368.368,0,0,1-.442.055l-2.816-1.625-.015-.01a.7.7,0,0,0-.936.264l-.013.019-1.98,3.431a.7.7,0,0,0,.258.955l.018.012,2.792,1.612a.372.372,0,0,1,.176.409A10.474,10.474,0,0,0,62.89,20a10.9,10.9,0,0,0,0,2.61,10.441,10.441,0,0,0,.236,1.28.376.376,0,0,1-.2.423L60.137,25.92h0a.7.7,0,0,0-.258.953l1.992,3.451h0a.686.686,0,0,0,.421.324.7.7,0,0,0,.529-.067l.021-.012,2.8-1.614a.371.371,0,0,1,.44.054A10.719,10.719,0,0,0,70.559,31.6a.373.373,0,0,1,.271.356V35.2a.7.7,0,0,0,.695.7h3.985a.7.7,0,0,0,.7-.7V31.952a.374.374,0,0,1,.286-.362,10.653,10.653,0,0,0,2.375-1.011,10.81,10.81,0,0,0,2.082-1.57.371.371,0,0,1,.462-.043l2.8,1.615a.7.7,0,0,0,.954-.257l.012-.019,1.98-3.432h0a.7.7,0,0,0,.067-.528.681.681,0,0,0-.323-.424L84.088,24.3c-.146-.082-.175-.409-.175-.409s.179-.844.234-1.28a11.056,11.056,0,0,0,0-2.61,11.4,11.4,0,0,0-.234-1.281.369.369,0,0,1,.195-.421L86.9,16.683a.683.683,0,0,0,.323-.425.7.7,0,0,0-.067-.53l-.011-.019-1.98-3.431h0a.706.706,0,0,0-.954-.257v0l-2.814,1.625a.369.369,0,0,1-.451-.063,10.808,10.808,0,0,0-2.076-1.562,10.628,10.628,0,0,0-2.391-1.014.373.373,0,0,1-.27-.359V7.4a.7.7,0,0,0-.7-.7H71.525a.7.7,0,0,0-.695.7v3.248a.373.373,0,0,1-.288.362" transform="translate(476.905 582.227)" fill="none" stroke="#fff" stroke-width="1" fill-rule="evenodd" opacity="0.84"/>
    <g id="Grupo_1102288" data-name="Grupo 1102288" transform="translate(188.815 404)">
      <g id="Grupo_1102287" data-name="Grupo 1102287" transform="translate(0)">
        <g id="Grupo_1102286" data-name="Grupo 1102286">
          <rect id="Rectángulo_403424" data-name="Rectángulo 403424" width="428.283" height="386.648" rx="15" transform="translate(22.331 22.331)" fill="#00ffdf"/>
          <rect id="person-front-computer-working-html_1_" data-name="person-front-computer-working-html (1)" width="428.283" height="386.648" rx="15" fill="#f0c518"/>
        </g>
      </g>
    </g>
    <g id="Grupo_1103553" data-name="Grupo 1103553" transform="translate(211.513 431.691)">
      <g id="Grupo_1102108" data-name="Grupo 1102108" transform="translate(0 10.932)" clip-path="url(#clip-path)">
        <path id="Trazado_879714" data-name="Trazado 879714" d="M97.63,222.11a1.645,1.645,0,0,0,.8-.209,1.663,1.663,0,0,0,.649-2.262c-.175-.317-4.4-7.784-11.947-8.083-3.277-.144-5.75,2.017-7.94,3.911-1.971,1.7-3.834,3.316-6.031,3.316-2.177,0-3.939-1.425-5.977-3.076-2.272-1.839-4.844-3.921-8.369-3.921-3.558.026-5.973,2.056-8.1,3.847-2.01,1.69-3.746,3.149-6.2,3.149-2.3,0-3.573-1.309-5.178-2.965-1.744-1.8-3.911-4.032-7.725-4.032-6.995.024-12.517,7.356-12.749,7.668a1.663,1.663,0,1,0,2.67,1.982c.046-.06,4.769-6.305,10.058-6.323,2.443-.02,3.716,1.329,5.357,3.022,1.808,1.863,3.855,3.975,7.567,3.975,3.667,0,6.152-2.089,8.342-3.929,1.946-1.638,3.628-3.051,5.923-3.068,2.388,0,4.3,1.544,6.317,3.18,2.21,1.788,4.715,3.816,8.07,3.816,3.435,0,5.97-2.192,8.208-4.127,1.974-1.706,3.672-3.184,5.63-3.1,5.7.227,9.136,6.31,9.17,6.372a1.665,1.665,0,0,0,1.456.858" transform="translate(282.416 134.189)" fill="#c9b3ff"/>
        <path id="Trazado_879715" data-name="Trazado 879715" d="M20.213,227.969a1.664,1.664,0,0,0,1.34-.675c.046-.062,4.771-6.341,10.061-6.359,2.425,0,3.72,1.34,5.357,3.038,1.809,1.873,3.857,4,7.573,4,3.672,0,6.158-2.1,8.35-3.952,1.948-1.644,3.63-3.066,5.923-3.082,2.388,0,4.3,1.553,6.317,3.2,2.213,1.8,4.718,3.837,8.078,3.837,3.44,0,5.977-2.2,8.214-4.148,1.974-1.716,3.689-3.22,5.632-3.12,5.663.226,9.141,6.349,9.175,6.411a1.664,1.664,0,0,0,2.912-1.611c-.177-.319-4.4-7.823-11.955-8.126-3.242-.15-5.754,2.028-7.946,3.934-1.974,1.713-3.836,3.332-6.032,3.332-2.177,0-3.939-1.433-5.978-3.092-2.273-1.848-4.847-3.942-8.376-3.942-3.561.026-5.978,2.067-8.111,3.868-2.012,1.7-3.747,3.166-6.2,3.166-2.3,0-3.573-1.316-5.179-2.979-1.744-1.808-3.913-4.055-7.73-4.055-7,.024-12.527,7.4-12.759,7.709a1.664,1.664,0,0,0,1.337,2.652" transform="translate(282.33 137.88)" fill="#c9b3ff"/>
        <path id="Trazado_879716" data-name="Trazado 879716" d="M216.6,211.55a2.75,2.75,0,1,0,2.752,2.751,2.749,2.749,0,0,0-2.752-2.751" transform="translate(-156.853 134.189)" fill="#c9b3ff" fill-rule="evenodd"/>
        <path id="Trazado_879717" data-name="Trazado 879717" d="M222.586,211.55a2.75,2.75,0,1,0,2.751,2.751,2.751,2.751,0,0,0-2.751-2.751" transform="translate(-172.616 134.189)" fill="#c9b3ff" fill-rule="evenodd"/>
        <path id="Trazado_879718" data-name="Trazado 879718" d="M228.569,211.55a2.75,2.75,0,1,0,2.751,2.751,2.749,2.749,0,0,0-2.751-2.751" transform="translate(-188.377 134.189)" fill="#c9b3ff" fill-rule="evenodd"/>
        <path id="Trazado_879719" data-name="Trazado 879719" d="M234.554,211.55A2.75,2.75,0,1,0,237.3,214.3a2.751,2.751,0,0,0-2.749-2.751" transform="translate(-204.141 134.189)" fill="#c9b3ff" fill-rule="evenodd"/>
        <path id="Trazado_879720" data-name="Trazado 879720" d="M240.536,211.55a2.75,2.75,0,1,0,2.752,2.751,2.749,2.749,0,0,0-2.752-2.751" transform="translate(-219.904 134.189)" fill="#c9b3ff" fill-rule="evenodd"/>
        <path id="Trazado_879721" data-name="Trazado 879721" d="M246.52,211.55a2.75,2.75,0,1,0,2.751,2.751,2.749,2.749,0,0,0-2.751-2.751" transform="translate(-235.666 134.189)" fill="#c9b3ff" fill-rule="evenodd"/>
        <path id="Trazado_879722" data-name="Trazado 879722" d="M216.6,216.86a2.751,2.751,0,1,0,2.752,2.751,2.75,2.75,0,0,0-2.752-2.751" transform="translate(-156.853 137.558)" fill="#c9b3ff" fill-rule="evenodd"/>
        <path id="Trazado_879723" data-name="Trazado 879723" d="M222.586,216.86a2.751,2.751,0,1,0,2.751,2.751,2.752,2.752,0,0,0-2.751-2.751" transform="translate(-172.616 137.558)" fill="#c9b3ff" fill-rule="evenodd"/>
        <path id="Trazado_879724" data-name="Trazado 879724" d="M228.569,216.86a2.751,2.751,0,1,0,2.751,2.751,2.751,2.751,0,0,0-2.751-2.751" transform="translate(-188.377 137.558)" fill="#c9b3ff" fill-rule="evenodd"/>
        <path id="Trazado_879725" data-name="Trazado 879725" d="M234.554,216.86a2.751,2.751,0,1,0,2.749,2.751,2.752,2.752,0,0,0-2.749-2.751" transform="translate(-204.141 137.558)" fill="#c9b3ff" fill-rule="evenodd"/>
        <path id="Trazado_879726" data-name="Trazado 879726" d="M240.536,216.86a2.751,2.751,0,1,0,2.752,2.751,2.75,2.75,0,0,0-2.752-2.751" transform="translate(-219.904 137.558)" fill="#c9b3ff" fill-rule="evenodd"/>
        <path id="Trazado_879727" data-name="Trazado 879727" d="M246.52,216.86a2.751,2.751,0,1,0,2.751,2.751,2.751,2.751,0,0,0-2.751-2.751" transform="translate(-235.666 137.558)" fill="#c9b3ff" fill-rule="evenodd"/>
        <path id="Trazado_879728" data-name="Trazado 879728" d="M382.8,4.943H36.024A17.361,17.361,0,0,0,18.663,22.3V313.959a17.362,17.362,0,0,0,17.361,17.361H382.8a17.361,17.361,0,0,0,17.36-17.361V22.3A17.36,17.36,0,0,0,382.8,4.943" transform="translate(-18.663 3.135)" fill="#efeafa" fill-rule="evenodd"/>
        <path id="Trazado_879729" data-name="Trazado 879729" d="M392.468,33.159H19.508s-1.8-15.351-.289-19.676,3.326-8.536,3.326-8.536H367.3c8.66,0,16.4-.641,21.766,7.031,4.311,6.16,3.408,9.5,3.408,21.181" transform="translate(-10.971 3.13)" fill="#ba9eff" fill-rule="evenodd"/>
        <path id="Trazado_879730" data-name="Trazado 879730" d="M31.735,339.785h346.77a19.046,19.046,0,0,0,19.023-19.023V19.025A19.046,19.046,0,0,0,378.505,0H31.735A19.046,19.046,0,0,0,12.71,19.025V320.762a19.046,19.046,0,0,0,19.025,19.023M378.505,3.327a15.714,15.714,0,0,1,15.7,15.7V320.762a15.713,15.713,0,0,1-15.7,15.7H31.735a15.714,15.714,0,0,1-15.7-15.7V19.025a15.716,15.716,0,0,1,15.7-15.7Z" transform="translate(-6.302)"/>
        <path id="Trazado_879731" data-name="Trazado 879731" d="M1.664,24.734h110.48a1.664,1.664,0,0,0,0-3.327H1.664a1.664,1.664,0,1,0,0,3.327" transform="translate(298.192 13.579)"/>
        <path id="Trazado_879732" data-name="Trazado 879732" d="M80.623,24.734H352.558a1.664,1.664,0,1,0,0-3.327H80.623a1.664,1.664,0,0,0,0,3.327" transform="translate(-71.266 13.579)"/>
        <path id="Trazado_879733" data-name="Trazado 879733" d="M46.365,59.922H181.686a1.664,1.664,0,0,0,0-3.327H46.365a1.664,1.664,0,0,0,0,3.327" transform="translate(155.596 35.899)" fill="#666"/>
        <path id="Trazado_879734" data-name="Trazado 879734" d="M80.931,68.371h92.754a1.664,1.664,0,0,0,0-3.327H80.931a1.664,1.664,0,1,0,0,3.327" transform="translate(107.104 41.258)" fill="#666"/>
        <path id="Trazado_879735" data-name="Trazado 879735" d="M46.365,77.159H121.12a1.664,1.664,0,0,0,0-3.327H46.365a1.664,1.664,0,0,0,0,3.327" transform="translate(216.162 46.833)" fill="#666"/>
        <path id="Trazado_879736" data-name="Trazado 879736" d="M70.16,85.878h80.4a1.664,1.664,0,1,0,0-3.327H70.16a1.664,1.664,0,0,0,0,3.327" transform="translate(147.828 52.363)" fill="#666"/>
        <path id="Trazado_879737" data-name="Trazado 879737" d="M46.364,94.664h68.318a1.664,1.664,0,1,0,0-3.327H46.364a1.664,1.664,0,1,0,0,3.327" transform="translate(222.6 57.936)" fill="#666"/>
        <path id="Trazado_879738" data-name="Trazado 879738" d="M46.284,51.2H181.736a1.663,1.663,0,1,0,0-3.326H46.284a1.663,1.663,0,1,0,0,3.326" transform="translate(155.677 30.368)" fill="#666"/>
        <path id="Trazado_879739" data-name="Trazado 879739" d="M46.284,68.371H85.96a1.664,1.664,0,0,0,0-3.327H46.284a1.664,1.664,0,0,0,0,3.327" transform="translate(251.452 41.258)" fill="#666"/>
        <path id="Trazado_879740" data-name="Trazado 879740" d="M98.134,77.159h64.639a1.664,1.664,0,1,0,0-3.327H98.134a1.664,1.664,0,1,0,0,3.327" transform="translate(89.901 46.833)" fill="#666"/>
        <path id="Trazado_879741" data-name="Trazado 879741" d="M46.282,85.878H66.776a1.664,1.664,0,1,0,0-3.327H46.282a1.664,1.664,0,0,0,0,3.327" transform="translate(270.634 52.363)" fill="#666"/>
        <path id="Trazado_879742" data-name="Trazado 879742" d="M64.394,35.305A4.919,4.919,0,1,0,69.3,40.224a4.913,4.913,0,0,0-4.906-4.919" transform="translate(245.48 22.394)" fill="#9166fc" fill-rule="evenodd"/>
        <path id="Trazado_879743" data-name="Trazado 879743" d="M57.234,35.707l-5.287,9.18H62.523Z" transform="translate(264.578 22.65)" fill="#9166fc"/>
        <path id="Trazado_879744" data-name="Trazado 879744" d="M43.02,66.55a1.664,1.664,0,0,0,1.108-2.906L34.315,54.9l9.8-8.641a1.664,1.664,0,1,0-2.2-2.5L30.708,53.642a1.663,1.663,0,0,0-.008,2.489l11.213,10a1.657,1.657,0,0,0,1.106.422" transform="translate(318.049 27.494)" fill="#9166fc"/>
        <path id="Trazado_879745" data-name="Trazado 879745" d="M101.443,185.348H57.319a2.9,2.9,0,0,0-2.894,2.894V201.7a17.359,17.359,0,0,0,17.361,17.358H86.976A17.359,17.359,0,0,0,104.337,201.7V188.242a2.9,2.9,0,0,0-2.894-2.894" transform="translate(218.715 117.569)" fill="#c9b3ff" fill-rule="evenodd"/>
        <path id="Trazado_879746" data-name="Trazado 879746" d="M39.194,188.125s1.2-18.422,11.139-23.58,30.526-3.329,30.526-3.329S70.547,183.5,59.881,186.387a61.712,61.712,0,0,1-20.687,1.737" transform="translate(267.085 102.061)" fill="#c9b3ff" fill-rule="evenodd"/>
        <path id="Trazado_879747" data-name="Trazado 879747" d="M51.768,171.494s20.368-1.667,24.016-13.888-1.157-15.189-1.157-15.189-17.265,2.427-20.545,10.85-2.314,18.227-2.314,18.227" transform="translate(250.46 90.337)" fill="#c9b3ff" fill-rule="evenodd"/>
        <path id="Trazado_879748" data-name="Trazado 879748" d="M55.683,150.114s13.874-5.643,16.059-11.571.869-9.406.869-9.406-10.868-.124-13.745,5.933-3.184,15.044-3.184,15.044" transform="translate(247.99 81.913)" fill="#c9b3ff" fill-rule="evenodd"/>
        <path id="Trazado_879749" data-name="Trazado 879749" d="M72.242,130.921s8.48-8.459,5.787-17.507S70.506,101.7,70.506,101.7,61.534,111.969,64,119.49a23.717,23.717,0,0,0,8.247,11.43" transform="translate(229.552 64.507)" fill="#c9b3ff" fill-rule="evenodd"/>
        <path id="Trazado_879750" data-name="Trazado 879750" d="M93.194,150.3s6.746-16.6-.579-23.727-21.267-8.68-21.267-8.68-3.2,21.607,6.366,26.618,15.48,5.789,15.48,5.789" transform="translate(200.208 74.783)" fill="#c9b3ff" fill-rule="evenodd"/>
        <path id="Trazado_879751" data-name="Trazado 879751" d="M70.885,104.524c2.819,3.883,6.364,8.19,6.8,14.609a12.175,12.175,0,0,1-2.749,8.1c-.793,1.092-2.875,2.133-2.6,3.9A1.5,1.5,0,0,0,73.2,132.3c1.979.646,4.574-3.35,5.207-4.339,3.88-6.075,2.195-13.313-1.012-19.385-1.566-2.965-3.7-7.034-5.785-8.243-1.816-1.056-3.081,2.063-3.906,3.471-2.293,3.9-5.079,9.535-5.063,15.477.013,4.746,2.208,7.969,4.774,10.7.749.8,3.519,3.514,4.2,1.012.405-1.5-2.082-3.331-2.894-4.339a10.979,10.979,0,0,1-2.893-7.232c-.124-6.6,2.942-10.277,5.063-14.9" transform="translate(228.976 63.505)" fill="#c9b3ff" fill-rule="evenodd"/>
        <path id="Trazado_879752" data-name="Trazado 879752" d="M71.488,116.946c-1.441,2.223-1.185,5.3-1.157,7.956.165,15.83,6.031,23.619,19.528,26.329,1.778.356,4.269.871,4.339-1.013.06-1.608-1.9-1.654-3.761-2.027-4.65-.93-9.118-2.795-11.718-5.495-4.767-4.96-5.318-13.052-5.061-22.423,10.87,2.133,21.19,5.875,21.264,19.239a38.587,38.587,0,0,1-.579,5.642c-.2,1.3-1.054,4.215,1.012,4.341,2.448.145,2.749-7.126,2.749-9.839,0-15.175-11.662-20.342-24.592-22.71a3.5,3.5,0,0,0-2.025,0" transform="translate(199.009 74.08)" fill="#c9b3ff" fill-rule="evenodd"/>
        <path id="Trazado_879753" data-name="Trazado 879753" d="M73.07,127.829c-2.546-.7-6,1.309-8.389,2.458a18.549,18.549,0,0,0-5.787,3.906c-2.568,2.973-4.148,9.152-3.9,13.741.119,2.27,1,3.272,3.615,3.184,2.677-.091,7.046-2.713,8.824-4.2a21.192,21.192,0,0,0,5.5-7.665c1.136-2.635,3.587-10.489.144-11.427m-14.9,20.105c-.559-10.684,5.331-14.918,13.452-16.923-.8,9.325-5.535,14.714-13.452,16.923" transform="translate(247.333 80.993)" fill="#c9b3ff" fill-rule="evenodd"/>
        <path id="Trazado_879754" data-name="Trazado 879754" d="M74.382,143.5c15.18.409,26.652,5,26.76,21.12.015,2.063-1.572,7.969.724,8.245,2.533.306,2.451-5.887,2.458-8.1.056-17.167-11.694-23.4-28.207-24.446-1.3-.083-3.89-.531-4.628.579-.932,1.4.038,5.972.289,7.377,2.455,13.72,9.35,21.284,22.421,24.448,1,.24,5.124,1.618,5.352-.58.191-1.855-2.527-2.03-4.341-2.458C82.2,166.61,75.431,158.045,74.382,143.5" transform="translate(191.486 88.902)" fill="#c9b3ff" fill-rule="evenodd"/>
        <path id="Trazado_879755" data-name="Trazado 879755" d="M53.146,169.853c-1.824,3.895,4.107,2.391,6.22,2.025,10.345-1.793,19.148-5.591,19.961-17.647a38.631,38.631,0,0,0-.289-6.944c-.227-1.726-.655-6.163-2.6-5.785-12.324,2.394-24.026,7.814-24.881,21.553-.142,2.286-.613,6.375,1.592,6.8m22.276-24.448a32.311,32.311,0,0,1,.724,9.4c-.814,10.564-11.157,13.223-21.553,14.609.425-2.246.025-4.3.145-6.219.711-11.445,10.383-16.263,20.54-18.228.168.025.157.229.144.433" transform="translate(248.596 89.742)" fill="#c9b3ff" fill-rule="evenodd"/>
        <path id="Trazado_879756" data-name="Trazado 879756" d="M72.5,157.711v1.013A69.4,69.4,0,0,0,77.42,175.5c2.362,5.346,4.98,9.662,8.534,13.163,5.4,5.325,12.713,9.428,24.013,7.958,2.107-.275,8.015-.878,7.376-3.473-.53-2.159-5.844.065-7.376.291-10.161,1.491-16.882-2.126-21.7-6.944-6.9-6.9-9.806-15.271-12.3-26.616,12.64,3.159,27.638,3.7,35.442,11.573,3.157,3.182,5.274,8.554,6.366,14.032.343,1.736-.136,4.927,2.169,4.772,1.293-.087,1.525-1,1.157-3.471a36.937,36.937,0,0,0-3.762-12.3c-6.065-11.571-21.473-14.1-36.31-16.923-2.185-.417-7.686-2.228-8.533.144" transform="translate(172.248 99.279)" fill="#c9b3ff" fill-rule="evenodd"/>
        <path id="Trazado_879757" data-name="Trazado 879757" d="M78.7,163.419a51.831,51.831,0,0,1-9.835,14.322c-4.682,4.682-9.981,9.589-19.239,8.967-1.772-.118-6.449-1.987-6.8.289-.415,2.692,6.312,3.035,8.678,3.038,8.261.016,15.1-5.243,19.674-10.27a68.727,68.727,0,0,0,9.546-13.019c.745-1.319,2.409-3.669,2.025-5.063-.531-1.933-5.076-1.667-6.509-1.736-12.377-.585-24.451.788-30.665,7.523-3.381,3.663-5.192,7.77-6.657,13.887-.477,2-1.111,4.767.58,5.063,2.314.4,2.079-2.559,2.458-4.2,1.187-5.114,3.43-10.182,6.509-13.164,6.186-5.99,18.875-6.374,30.233-5.642" transform="translate(266.435 101.38)" fill="#c9b3ff" fill-rule="evenodd"/>
        <path id="Trazado_879758" data-name="Trazado 879758" d="M102.85,171.819s4.6-19.019-6.943-25.173S71.748,141,71.748,141s.417,18.9,11.138,24.593a53.742,53.742,0,0,0,19.965,6.222" transform="translate(190.986 89.434)" fill="#c9b3ff" fill-rule="evenodd"/>
        <path id="Trazado_879759" data-name="Trazado 879759" d="M122.768,192.208s-.922-21.277-13.745-26.329S72.567,157.2,72.567,157.2s6.341,30.218,23,36.024c16.972,5.913,26.19.317,27.2-1.013" transform="translate(170.634 99.713)" fill="#c9b3ff" fill-rule="evenodd"/>
        <path id="Trazado_879760" data-name="Trazado 879760" d="M78.876,142.492c1.816-10.733,7.8-16.088,23.147-21.411s33.732-12.007,33.708-36.169-2.056-52.8,17.505-52.079c10.751.4,12.731,7.667,12.731,7.667s27.455-9.969,40.941-2.027,19.9,18.375,21.7,29.8,6.609,33.195-1.3,38.338-14.179-.144-14.179-.144-1.855,5.014-4.63,4.485a19.9,19.9,0,0,1-4.628-1.448s-3.674,8.023,1.59,8.971,41.248-1.293,48.9,11.429,15.48,40.073,15.48,40.073l7.667,39.786-25.894,8.969-13.166-31.539-3.473,5.354s2.8.569,1.448,2.893a41.2,41.2,0,0,1-3.906,5.207s4.236,1.343,2.893,5.065-3.633,2.754-6.655,1.736-5.063,1.736-5.063,1.736,8.69,5.132,6.366,7.523-6.7-1.347-8.68-.145a24.657,24.657,0,0,0-3.617,2.751L226,240.867s86.812,8.01,96.062,13.888c4.605,2.927,12.066,9.4,14.756,27.922,3.935,27.085,7.668,63.366,7.668,63.366l-125.141.868,8.825-30.67s-45.934-.732-62.063-.579-35.487,3.344-43.981-4.919-17.27-26.2-9.548-43.4,21.846-43.257,21.846-43.257l-6.078-42.533s-14.044,4.759-23.7-4.754c-9.392-9.253-8.052-22.97-12.177-25.049-4.083-2.054-15.417,1.474-13.6-9.258m97.363-24.882c6.993-3.953,4.63-19.821,4.63-19.821s-6.289.438-8.971.435a21.345,21.345,0,0,1-5.931-1.159l-7.088,25.9s10.366-1.4,17.36-5.352" transform="translate(-61.08 20.817)" fill="#fff" fill-rule="evenodd"/>
        <path id="Trazado_879761" data-name="Trazado 879761" d="M230.446,151.8l3.038-4.918,5.931,14.9,29.225,1.881-1.015-11.429L252,102.9s3.795-7.095-29.512-4.63-58.44-.438-75.084,4.339-25.173,9.549-25.173,9.549,4.731,85.927,19.676,92.154,33.129-8.1,33.129-8.1-5-4.594-5.785-8.824c-.374-2.02,0-5.475.5-8.534.08-.49-25.9,3.064-25.821,2.6.229-1.262,6.161-3.272,12.414-5.058.4-.111-1.958-55.447-1.564-55.559,2.37-.662,7.485,53.942,9.556,53.416.386-.1.762-.193,1.124-.284,3.241-.814,5.524-1.34,5.524-1.34a50.494,50.494,0,0,0,20.109-8.534c10.252-7.207,30.454-23.644,33.129-21.413s-2.893,8.247-2.893,8.247Z" transform="translate(-56.407 62.004)" fill="#bafff6" fill-rule="evenodd"/>
        <path id="Trazado_879762" data-name="Trazado 879762" d="M274.119,98.071s-1.687,7.369-1.3,9.691,1.592,2.751,1.592,2.751,2.621,3.048,5.207.144a20.638,20.638,0,0,0,3.038-3.906s10.185,8.1,16.2-3.617-1.4-45.566-7.954-53.673c-19.765-24.444-54.687-7.379-54.687-7.379s-6.771-10.559-14.9-9.115-12.382,2.242-14.758,14.178.884,52.627-10.415,60.617-46.174,19.782-47.742,27.054-1.647,11.906,2.894,14.756,9.268.717,11.573,3.617,4.409,25.721,17.361,28.645,17.216,0,17.216,0-2.718-30.011-1.159-35.876,3.362-14.9,12.3-17.217,19.241-4.63,19.241-4.63l6.8-27.486a40.762,40.762,0,0,0,7.524,1.446c5.38.682,7.523.868,7.523.868l-.724-6.076s-5.383,3.823-9.4-.144-4.877-10.692-1.445-11,5.64-.724,5.64-.724,8.116-11.118,13.455-18.517a103.009,103.009,0,0,0,8.969-15.336s13.9,3.645,18.808,15.626,5.836,24.221.868,28.934a29.279,29.279,0,0,1-11.718,6.366" transform="translate(-130.025 20.826)" fill="#3a1d71" fill-rule="evenodd"/>
        <path id="Trazado_879763" data-name="Trazado 879763" d="M199.213,167.875l-7.09-21.122s-7.4,8-13.021,9.4-5.977-.968-11.862,2.605S133.354,176.187,125,175.254c-12.895-1.441-18.084-21.7-18.084-21.7s-19.537,30.71-22.568,45.715c-4.068,20.128,3.993,38.616,16.781,42.679s98.956,2.6,98.956,2.6l-7.812,30.96H309.742s-7.287-74.064-12.3-82.319c-7.086-11.674-18.084-12.874-18.084-12.874Z" transform="translate(-33.854 93.088)" fill="#353535" fill-rule="evenodd"/>
        <path id="Trazado_879764" data-name="Trazado 879764" d="M24.717,24.7a1.657,1.657,0,0,0,1.177-.487L40.763,9.342a1.664,1.664,0,1,0-2.352-2.353L23.54,21.859a1.664,1.664,0,0,0,1.177,2.84" transform="translate(333.072 4.123)" fill="#9166fc"/>
        <path id="Trazado_879765" data-name="Trazado 879765" d="M39.587,24.7a1.664,1.664,0,0,0,1.177-2.84L25.893,6.988a1.664,1.664,0,0,0-2.352,2.353L38.41,24.212a1.663,1.663,0,0,0,1.177.487" transform="translate(333.071 4.124)" fill="#9166fc"/>
        <path id="Trazado_879766" data-name="Trazado 879766" d="M128.607,184.676c1.481,10.912,2.852,22.782,4.485,33.994.222,1.53.856,3.561.722,4.628-.154,1.222-2,3.515-2.749,4.772-6.5,10.929-12.983,22.026-17.646,34.718-2.747,7.472-5.021,15.827-3.908,25.459a38.017,38.017,0,0,0,9.115,20.686c4.8,5.529,10.564,9.489,19.816,10.125,4.5.311,9.36-.091,14.465-.144,24.567-.257,49.461-.031,73.484.866-2.223,8.046-4.774,16.152-7.377,24.591-.621,2.017-1.505,5.078,1.592,4.628,1.486-.214,1.911-3.414,2.46-5.207,3.535-11.574,6.933-22.7,10.558-34.572.356-1.164,1.868-4.862-.722-5.062-2.432-.188-2.657,3.792-3.182,5.5-.771,2.505-1.461,4.4-2.169,6.509-26.2-.624-55.526-2.105-82.742-.868-10.17.461-15.848-1.59-21.264-6.51-4.934-4.48-8.317-10.832-9.837-18.226-1.625-7.907.046-16.969,2.46-24.157,4.689-13.967,12.131-25.587,18.659-37.465,1.723,4.941,3.311,9.365,6.222,13.163,2.667,3.484,6.712,6.813,12.15,7.232,5.03.389,10.053-.969,14.321-2.6,10.061-3.849,18.728-8.74,28.929-13.017,2.033-.853,4.145-2.079,5.933-2.46.8-.173,1.8.031,2.6-.144a22.2,22.2,0,0,0,7.956-3.906c2.265-1.646,3.893-3.97,5.929-5.787,1.695,6.263,3.336,12.576,5.065,18.806-2.481.325-6.8-1.088-6.511,2.025.208,2.226,3.262,1.641,5.643,1.736,16.175.647,33.209,1.363,48.6,2.6,17.812,1.435,37.3,2.259,49.036,9.4,12.439,7.569,15.037,23.787,16.925,41.515,1.593,14.961,3.288,30.5,5.063,46.145.3,2.638-.1,5.007,2.17,5.063,2.316.057,1.842-2.8,1.592-5.063-1.628-14.653-3.383-30.2-4.919-45.132-1.765-17.17-4.594-33.755-14.611-42.528-10.373-9.085-27.071-10.816-44.841-12.295-17.5-1.458-35.19-2.688-53.957-3.184-2.424-6.737-3.875-14.447-6.075-21.408,2.917.3,6.153,1.884,8.824.579,5.274-2.576.168-9.263-4.05-10.27,2.6-.667,4.555,1.433,7.088,1.445,5.4.028,6.336-7.48,2.17-9.69,1.319-1.064,2.652-1.7,2.891-3.617.234-1.876-1.675-4.056.145-5.207.881,2.018,1.719,4.117,2.605,6.509.685,1.852,1.376,5.517,3.47,5.64a2.543,2.543,0,0,0,1.881-1.736c.2-1.239-.8-2.388-1.3-3.617-1.347-3.288-2.824-7.65-4.2-10.558a28.853,28.853,0,0,0,3.471-4.628c4.784-8.835,2.8-24.82-2.894-31.825a23.875,23.875,0,0,0-4.194-3.906c-.435-.327-4.411-3.386-5.063-.579-.443,1.907,1.932,2.917,3.184,3.906,4.146,3.278,6.251,7.273,7.376,13.6,1.585,8.909.126,17.466-5.642,21.266-.7,2.046-1.907,3.589-2.749,5.5a12.058,12.058,0,0,0-3.759-.579c-.2-.663.739-.883,1.157-1.446,1.812-2.447.806-6.908-2.605-7.377-2.883-.4-6.42,1.866-8.243,3.038-6.738,4.326-13.079,9.585-19.53,13.887-9.66,6.442-18.607,11.847-30.232,14.32-2.667-15.585-5.117-31.828-7.667-48.024-.3-1.9-.279-5.413-2.893-4.919-2.013.381-1.031,4.125-.724,6.076,2.476,15.722,4.981,32.044,7.521,47.591-2.069,1.18-6.84-.069-6.653,3.037.157,2.6,3.68,1.417,5.785,1.013a59.679,59.679,0,0,0,6.657-1.446c-3.535,7.621-.618,16.8,4.483,20.686a139.172,139.172,0,0,1-12.874,5.642c-4.38,1.571-10.463,3.308-15.333,1.3-8.069-3.324-11.211-13.457-12.875-23.866A584.872,584.872,0,0,1,130.2,154.3a84.333,84.333,0,0,1,28.35-9.4c10.684-1.629,22.779-1.67,35.586-2.027,11.767-.327,24.456-1.286,36.019-1.736,8.793-.342,18.9-.827,25.314,2.316,2.035,1,4.823,2.331,5.64,3.761a26.172,26.172,0,0,1,1.3,4.194c2.208,6.944,3.955,13.48,6.509,20.4.631,1.7,2.092,6.851,4.05,6.652.518-.051,1.473-1.155,1.592-1.589.428-1.566-1.311-3.963-2.025-5.787-.923-2.362-1.459-4.246-2.027-5.933-1.507-4.493-2.777-9.124-3.761-12.293-2.505-8.083-4.72-16.879-9.4-22.567-7.5-9.116-20.5-11.613-36.017-12.151-6.205-.214-16.459,2.059-15.335-5.063,3.573,1.9,8.688-.268,9.26-4.05,3.334,1.816,9.007,3.9,13.161,1.592,8.57-4.766,6.5-24.152,4.485-35.007-1.969-10.63-3.728-20.444-9.548-27.193-5.9-6.843-13.986-11.123-23.722-13.019a45.348,45.348,0,0,0-30.522,4.772c-3.581-3.375-6.964-7.686-13.307-8.243a17.68,17.68,0,0,0-16.925,8.243c-10.08,15.284.533,50.505-10.7,64.662-7.153,9.008-21.316,12.145-32.547,17.791-7.533,3.787-18.056,8.579-17.647,20.107.216,6.132,3.308,11.21,10.414,11.282,2,.023,4.287-.34,5.352.289,1.138.673,1.589,4.194,1.881,5.931,2.63,15.671,10.422,25.548,29.651,24.737,1.066-.046,1.857-.245,3.329-.289M99.82,162.688c-1.079-4.529-.95-9.891-4.194-11.716-2.563-1.441-7,.16-10.126-1.157-3.826-1.613-4.463-7.819-3.182-11.571,1.657-4.864,7.76-8.585,12.006-10.85,4.065-2.17,9.154-4.293,13.452-6.076,8.954-3.712,18.533-7.271,24.013-14.9,5.521-7.685,5.929-19.685,5.929-32.98,0-13.006-.446-26.793,5.787-33.271a15.136,15.136,0,0,1,12.006-4.483c4.772.492,7.577,3.6,10.126,6.653-7.7,4.978-13.506,13.279-14.611,25.025-1.316,14.009,4.488,26.317,14.611,30.812-2.5,8.015-4.671,16.351-7.088,24.446-13.284,2.29-24.489,6.277-29.655,16.49-2.782,5.5-2.525,12.731-2.169,20.252.358,7.57.7,14.815,1.592,21.553-17.732,2.113-25.4-5.22-28.5-18.228m61.767-71.746c-7.059-7.057-9.115-22.155-4.341-33.271,5.091-11.849,19.278-20.337,36.453-19.238,15.676,1,28.542,9.218,32.258,23.287a150,150,0,0,1,4.483,23,53.814,53.814,0,0,1,.145,13.019c-.4,3.3-1.206,8.247-4.2,9.693-2.669,1.291-5.8-.111-7.667-1.013-1.343-.647-2.849-1.624-4.483-1.3-2.535.5-1.951,4.385-4.341,4.918a3.114,3.114,0,0,1-3.473-1.734c-.247-1.02.348-2.837.58-4.2.263-1.541.626-2.978.722-4.2,8.812-1.575,14.281-7.691,14.9-16.923a34.482,34.482,0,0,0-2.46-14.465c-.471-1.227-1.695-2.906-1.736-3.906-.029-.731,1.108-1.407,1.013-2.46-.072-.793-1.355-2.273-2.17-3.327C212.269,52.36,206.7,47.46,198.04,45.086c-1.24-.34-3.4-1.142-4.486-.724-2.608,1-.356,4.571,2.316,3.906a232.864,232.864,0,0,1-20.542,31.823c-5.792-1.128-8.984,2.349-8.389,7.667s5.184,8.263,11.138,8.245c.487,0,1.414-.407,1.879.289-8.145.626-14.459-1.441-18.37-5.351m43.4-38.768a11.715,11.715,0,0,0-5.5,9.981c.042,6.594,6.168,10.911,9.982,13.887-2.147,1.562-2,4.467.288,4.485,1.056.008,2.219-1.66,2.605-2.17.735-.976,1.744-2.09,1.59-3.327-.2-1.649-2.136-1.981-3.617-3.037-2.88-2.056-6.389-5.008-6.943-8.536-.449-2.863,1.026-7.41,3.182-7.521,1.6-.083,1.911,1.742,3.617,1.881,4.027,6.843,9.474,14.1,8.678,25.025-.611,8.412-6.1,13.419-14.9,13.6-2.228.046-8.292-1.768-8.245,1.3.052,3.26,6.3,1.75,8.245,2.605-1.008,6.176-4.1,16.791,1.446,20.107a13.276,13.276,0,0,0,5.931,1.445c5.674.314,11.162-.132,16.346.291,15.273,1.242,27.661,6.07,31.1,18.8-7.846-5.076-20.347-4.074-31.822-3.473-11.344.6-23.33,1.592-34.718,1.592-11.97,0-23.709.379-34.283,2.025a97.759,97.759,0,0,0-27.628,8.68c.415-13.486,9.59-18.961,21.408-21.986,12.331-3.159,26.138-2.568,30.377-13.164,1.319-3.295,1.891-7.369,1.879-12.584,0-3.393.082-9.8-2.313-10.272-.992-.193-2.092.356-3.184.435-5.772.413-9.644-3.548-6.8-8.391,2.711-1.088,7.166,2.309,8.1-.433.4-1.172-.4-1.585-.433-2.46,2.545-3.414,6.4-8.634,8.967-12.584.92-1.417,1.793-3.54,3.327-3.906,1.7-.407,5.011,1.383,4.772-1.736-.113-1.49-1.876-1.943-3.182-2.025,2.1-3.788,4.181-7.587,6.511-11.138a23.571,23.571,0,0,1,5.207,2.6M180.1,100.344c.132,6.377-.216,13.15-3.761,16.634-3.244,3.189-8.158,3.689-13.6,4.774,2.246-7.493,4.051-15.428,6.655-22.565a35.934,35.934,0,0,0,10.7,1.157M229.718,186.7c-.4,1.566-1.974,2.218-3.184,3.182-1.123.9-2.066,2.241-3.326,3.04-1.842,1.165-3.836,1.729-5.931,3.035-1.234.77-4.686,2.456-4.628,4.341a1.85,1.85,0,0,0,1.736,1.734c1.041.051,2.313-1.237,3.471-2.023,3.151-2.136,7.549-4.61,11.862-4.919,2.587-.185,4.831-.02,5.5,1.881-1.484,1.824-4.226,1.317-6.511,1.157a17.5,17.5,0,0,0-9.837,2.605c-1.4.781-5.467,3.048-5.351,5.063a1.636,1.636,0,0,0,1.446,1.59c1.855.252,4.117-2.391,5.5-3.182,2.36-1.355,5.848-2.916,9.258-2.172,2.224.487,5,1.61,5.207,4.485-2.249,1.09-3.922-.784-6.075-1.012a9.056,9.056,0,0,0-2.025,0c-2.553.342-3.584,2.388-5.352,3.038-.711.261-1.891.15-2.749.433-1.958.647-6.184,3.139-6.075,5.354a1.783,1.783,0,0,0,1.736,1.734c1.525.038,2.734-2.1,4.2-2.893a7.778,7.778,0,0,1,4.339-.866c2.878.276,5.7,1.924,6.364,4.05-3.086.427-4.909-1.4-7.954-1.013-3.942.5-6.037,4.478-8.68,7.086a21.487,21.487,0,0,1-8.68,5.065c-2.708-.18-4.6.943-6.944,1.881-5.253,2.1-10.309,4.471-15.044,6.652-2.4-2.407-5.643-5.316-5.929-9.981-.239-3.877,1.2-7.18,2.458-10.27,15.045-4.824,26.41-13.418,38.045-21.986,3.666-2.7,8.451-6.6,12.728-7.523.335-.044.162.418.435.435" transform="translate(-62.095 20.197)" fill-rule="evenodd"/>
        <path id="Trazado_879767" data-name="Trazado 879767" d="M162.6,50.406a1.715,1.715,0,0,0-2.17,1.3c-.319,1.793,2.21,6.173,3.615,6.22,3.96.134.219-7.194-1.445-7.521" transform="translate(-15.953 31.945)" fill-rule="evenodd"/>
        <path id="Trazado_879768" data-name="Trazado 879768" d="M171.616,54.231c-1.24-.335-2.589.2-2.316,2.17.167,1.2,2.775,4.715,3.908,4.772,4.337.227.039-6.5-1.592-6.943" transform="translate(-39.722 34.341)" fill-rule="evenodd"/>
        <path id="Trazado_879769" data-name="Trazado 879769" d="M165.125,63.86a1.834,1.834,0,0,0-2.314,1.446c-.19,2.185,4.069,4.4,6.076,4.628,2.721.309,6.585-.713,6.653-2.747a1.9,1.9,0,0,0-1.157-1.881c-1.736-.5-2.976,1.124-5.063.866-1.68-.2-2.67-1.992-4.2-2.313" transform="translate(-29.616 40.478)" fill-rule="evenodd"/>
        <path id="Trazado_879770" data-name="Trazado 879770" d="M118.308,165.226c-2.886-.137-9.58-1.289-9.548,1.734.02,1.9,2.115,1.883,4.485,1.883,14.7,0,29.352.65,42.816,1.736,24.013,1.933,44.895,5.267,51.063,25.169,2.018,6.509,2.453,14.1,2.314,23.145-.173,11.409-.994,24.8-1.734,36.453-.091,1.435-.158,3.746-.289,6.075-.131,2.285-.361,4.3,1.59,4.339,2.6.052,2.21-6.343,2.46-10.126.791-12.006,1.34-24.124,1.736-35.584.289-8.376-.1-16.745-1.736-23.145-5.083-19.927-22.4-26.845-45.565-29.218a456.867,456.867,0,0,0-47.3-2.46c-.095,0-.193,0-.288,0" transform="translate(20.963 104.596)" fill-rule="evenodd"/>
        <path id="Trazado_879771" data-name="Trazado 879771" d="M210.83,159.144H94.008a1.961,1.961,0,0,0-1.659,2.161l.763,5.781c.678,2.932,2.232,5.4,4.478,5.4H207.182c2.246,0,4.012-2.458,4.73-5.506l.579-5.673a1.961,1.961,0,0,0-1.66-2.161" transform="translate(48.581 100.947)" fill="#f5f5f5" fill-rule="evenodd"/>
        <path id="Trazado_879772" data-name="Trazado 879772" d="M98.236,174.793H207.83c2.886,0,5.379-2.664,6.348-6.789l.036-.212.587-5.841a3.563,3.563,0,0,0-3.324-3.824H94.654a3.561,3.561,0,0,0-3.323,3.824l.015.217.791,5.939c.971,4.187,3.251,6.686,6.1,6.686m112.678-7.449c-.587,2.394-1.875,4.122-3.084,4.122H98.236c-1.128,0-2.265-1.618-2.84-4.033l-.734-5.568a.871.871,0,0,1,.124-.41H211.343a.882.882,0,0,1,.126.431Z" transform="translate(47.935 100.302)"/>
        <path id="Trazado_879773" data-name="Trazado 879773" d="M186.075,118.021l-81.26.028c-2.654,0-5.635,2.412-6.661,5.383L77.885,182.176c-1.025,2.971,2.479,8.508,5.133,8.507l81.269-.028c2.653,0,5.635-2.412,6.66-5.385l20.272-58.763c1.026-2.973-2.492-8.485-5.145-8.485" transform="translate(93.607 74.862)" fill="#f5f5f5" fill-rule="evenodd"/>
        <path id="Trazado_879774" data-name="Trazado 879774" d="M83.658,192.992l81.271-.028c3.359,0,6.974-2.86,8.232-6.506l20.272-58.763c.845-2.448-.374-5.45-1.8-7.446-1.471-2.062-3.265-3.246-4.921-3.246l-81.261.028c-3.359,0-6.975,2.86-8.232,6.5L76.954,182.278c-.85,2.463.441,5.57,1.8,7.484,1.464,2.053,3.251,3.231,4.9,3.231M186.716,120.33c.371,0,1.3.574,2.211,1.85,1.111,1.557,1.695,3.461,1.361,4.429l-20.272,58.763c-.783,2.272-3.162,4.264-5.089,4.264l-81.269.028c-.34,0-1.236-.5-2.19-1.835-1.118-1.569-1.706-3.488-1.37-4.465l20.269-58.744c.783-2.27,3.162-4.261,5.089-4.262Z" transform="translate(92.966 74.217)"/>
        <path id="Trazado_879775" data-name="Trazado 879775" d="M115.458,140.247c4.436.069,6.493,3.862,4.6,8.471s-7.034,8.288-11.47,8.217-6.493-3.86-4.6-8.469,7.034-8.288,11.47-8.219" transform="translate(122.444 88.96)" fill="#d6d6d6" fill-rule="evenodd"/>
        <path id="Trazado_879776" data-name="Trazado 879776" d="M69.957,152.98c-1.358-1.232-.719-6.916-3.617-6.509-2.821.4.319,7.144.868,8.824.819,2.5,2.149,5.111,2.46,7.233.57,3.9-.157,8.628-.289,12.874-.2,6.277-.144,11.164-.289,16.925a36.329,36.329,0,0,1-1.446-4.628c-.242-.82-.551-3.911-2.46-3.618-1.878.291-.711,3.439-.433,4.485.981,3.716,1.77,6.431,2.747,9.839a42.176,42.176,0,0,1,1.446,4.772c.539,3.327.154,7.273,0,10.561-.163,3.537-.178,7.031-.144,10.268a28.2,28.2,0,0,1-2.6-4.772c-.631-1.337-1.311-4.485-3.184-4.2-2.29.353-.322,3.842.291,5.207,1.6,3.561,3.607,7.814,5.64,10.415-.051,5.8.145,11.6.145,17.793,0,2.012.069,4.3,1.446,4.485,2.056.27,1.736-3.051,1.736-4.919,0-5.119-.145-8.078-.145-13.163,0-2.172-.392-4.874,0-6.509.3-1.237,1.924-2.767,2.894-4.05,2.138-2.832,3.78-5.068,5.785-7.812.889-1.216,2.4-2.675,1.446-4.774-1.827-1.695-2.765.8-3.761,2.169-2.04,2.806-4.677,6.318-6.509,8.536.116-3.612-.159-6.964,0-10.27.16-3.349-.271-6.678.144-9.981.364-2.9,1.974-6.333,2.894-9.258.977-3.108,2.34-6.248,2.169-9.548-3.455-2.664-3.7,4.313-4.772,6.509-.108-7.484.127-15.879.433-23.433a58.056,58.056,0,0,0,3.182-5.931c.95-1.888,2.569-4.053,1.881-6.509-3.166-1.94-3.357,3.269-4.918,4.772,0-13.937,1.412-27.991,1.157-41.224-3.077-2.687-2.921,4.9-3.038,7.376-.433,9.1-.758,20.213-1.157,28.063" transform="translate(228.225 74.198)" fill="#c9b3ff" fill-rule="evenodd"/>
      </g>
      <g transform="matrix(1, 0, 0, 1, -116.51, -27.69)" filter="url(#Trazado_884511)">
        <g id="Trazado_884511-2" data-name="Trazado 884511" transform="translate(485 41.87)" fill="none">
          <path d="M29.036,0A29.036,29.036,0,1,1,0,29.036,29.036,29.036,0,0,1,29.036,0Z" stroke="none"/>
          <path d="M 29.03609848022461 5.999996185302734 C 16.33395004272461 5.999996185302734 5.999992370605469 16.33393096923828 5.999992370605469 29.03606414794922 C 5.999992370605469 41.73819732666016 16.33395004272461 52.0721321105957 29.03609848022461 52.0721321105957 C 41.73824310302734 52.0721321105957 52.07219314575195 41.73819732666016 52.07219314575195 29.03606414794922 C 52.07219314575195 16.33393096923828 41.73824310302734 5.999996185302734 29.03609848022461 5.999996185302734 M 29.03609848022461 -3.814697265625e-06 C 45.07229614257812 -3.814697265625e-06 58.07219314575195 12.9998893737793 58.07219314575195 29.03606414794922 C 58.07219314575195 45.07223510742188 45.07229614257812 58.0721321105957 29.03609848022461 58.0721321105957 C 12.99991226196289 58.0721321105957 -7.62939453125e-06 45.07223510742188 -7.62939453125e-06 29.03606414794922 C -7.62939453125e-06 12.9998893737793 12.99991226196289 -3.814697265625e-06 29.03609848022461 -3.814697265625e-06 Z" stroke="none" fill="#fff"/>
        </g>
      </g>
      <line id="Línea_731" data-name="Línea 731" x1="60.773" y2="41.866" transform="translate(351.226 30.627)" fill="none" stroke="#00ffdf" stroke-linecap="round" stroke-linejoin="round" stroke-width="3"/>
      <ellipse id="Elipse_11700" data-name="Elipse 11700" cx="21.608" cy="21.608" rx="21.608" ry="21.608" transform="translate(450.27 0)" fill="url(#linear-gradient)"/>
    </g>
    <g id="Grupo_1103552" data-name="Grupo 1103552" transform="translate(214.084 735.651)">
      <g transform="matrix(1, 0, 0, 1, -119.08, -331.65)" filter="url(#Trazado_884145)">
        <g id="Trazado_884145-2" data-name="Trazado 884145" transform="translate(123.29 335.37)" fill="none">
          <path d="M25.269,0A25.269,25.269,0,1,1,0,25.269,25.269,25.269,0,0,1,25.269,0Z" stroke="none"/>
          <path d="M 25.26922416687012 4.999992370605469 C 19.8551139831543 4.999992370605469 14.76506805419922 7.108360290527344 10.93671417236328 10.93670654296875 C 7.108367919921875 14.76504898071289 5.000003814697266 19.85509300231934 5.000003814697266 25.26919364929199 C 5.000003814697266 30.68329429626465 7.108367919921875 35.7733268737793 10.93671417236328 39.60166931152344 C 14.76506805419922 43.43001556396484 19.8551139831543 45.53838348388672 25.26922416687012 45.53838348388672 C 30.68333435058594 45.53838348388672 35.77338027954102 43.43001556396484 39.60173416137695 39.60166931152344 C 43.43008041381836 35.7733268737793 45.53844451904297 30.68329429626465 45.53844451904297 25.26919364929199 C 45.53844451904297 19.85509300231934 43.43008041381836 14.76504898071289 39.60173416137695 10.93670654296875 C 35.77338027954102 7.108360290527344 30.68333435058594 4.999992370605469 25.26922416687012 4.999992370605469 M 25.26922416687012 -7.62939453125e-06 C 39.22503662109375 -7.62939453125e-06 50.53844451904297 11.31340408325195 50.53844451904297 25.26919364929199 C 50.53844451904297 39.22498321533203 39.22503662109375 50.53838348388672 25.26922416687012 50.53838348388672 C 11.31341171264648 50.53838348388672 3.814697265625e-06 39.22498321533203 3.814697265625e-06 25.26919364929199 C 3.814697265625e-06 11.31340408325195 11.31341171264648 -7.62939453125e-06 25.26922416687012 -7.62939453125e-06 Z" stroke="none" fill="#fff"/>
        </g>
      </g>
      <g id="Grupo_1102805" data-name="Grupo 1102805" transform="translate(0)">
        <path id="Trazado_884490" data-name="Trazado 884490" d="M348.612,335.241a17.421,17.421,0,1,1-17.421-17.421A17.422,17.422,0,0,1,348.612,335.241Z" transform="translate(-287.325 -317.82)" fill="none" stroke="#a653f1" stroke-miterlimit="10" stroke-width="2.5"/>
        <line id="Línea_672" data-name="Línea 672" x1="52.889" y2="36.435" transform="translate(0 12.34)" fill="none" stroke="#00ffdf" stroke-linecap="round" stroke-linejoin="round" stroke-width="3"/>
      </g>
    </g>
    <g id="Grupo_1103581" data-name="Grupo 1103581" transform="translate(180 422.41)">
      <g id="Enmascarar_grupo_1098755" data-name="Enmascarar grupo 1098755" transform="translate(-85 12.148)" clip-path="url(#clip-path-2)">
        <g transform="matrix(1, 0, 0, 1, 0, -30.56)" filter="url(#Trazado_886555)">
          <g id="Trazado_886555-2" data-name="Trazado 886555" transform="translate(-72.46 41.05)" fill="none">
            <path d="M66.279,0A66.279,66.279,0,1,1,0,66.279,66.279,66.279,0,0,1,66.279,0Z" stroke="none"/>
            <path d="M 66.27886962890625 22.99999237060547 C 42.41482543945312 22.99999237060547 22.99999237060547 42.41478729248047 22.99999237060547 66.27878570556641 C 22.99999237060547 90.14278411865234 42.41482543945312 109.5575790405273 66.27886962890625 109.5575790405273 C 90.14291381835938 109.5575790405273 109.557746887207 90.14278411865234 109.557746887207 66.27878570556641 C 109.557746887207 42.41478729248047 90.14291381835938 22.99999237060547 66.27886962890625 22.99999237060547 M 66.27886962890625 0 C 102.883659362793 0 132.5577392578125 29.67403411865234 132.5577392578125 66.27878570556641 C 132.5577392578125 102.8835372924805 102.883659362793 132.5575714111328 66.27886962890625 132.5575714111328 C 29.67403411865234 132.5575714111328 0 102.8835372924805 0 66.27878570556641 C 0 29.67403411865234 29.67403411865234 0 66.27886962890625 0 Z" stroke="none" fill="#a854f3"/>
          </g>
        </g>
      </g>
      <path id="Trazado_886556" data-name="Trazado 886556" d="M70.67,45.255m5.443-20.728a10.471,10.471,0,1,1-3.067,7.408,10.45,10.45,0,0,1,3.067-7.408M78.376,14.15a18.309,18.309,0,0,0-4.1,1.747,18.516,18.516,0,0,0-3.6,2.714.637.637,0,0,1-.763.095L65.038,15.9l-.025-.017a1.212,1.212,0,0,0-1.618.457l-.023.033L59.949,22.3a1.212,1.212,0,0,0,.446,1.65l.031.021,4.826,2.786a.643.643,0,0,1,.3.707,18.1,18.1,0,0,0-.407,2.214,18.834,18.834,0,0,0,0,4.512,18.043,18.043,0,0,0,.409,2.212.65.65,0,0,1-.343.73l-4.824,2.784,0,0a1.207,1.207,0,0,0-.446,1.647l3.442,5.965h0a1.185,1.185,0,0,0,.728.56,1.212,1.212,0,0,0,.914-.116l.037-.021,4.833-2.79a.642.642,0,0,1,.761.093A18.528,18.528,0,0,0,78.4,49.726a.645.645,0,0,1,.469.616v5.614a1.2,1.2,0,0,0,1.2,1.2h6.889a1.214,1.214,0,0,0,1.2-1.2V50.342a.646.646,0,0,1,.494-.626,18.414,18.414,0,0,0,4.1-1.747,18.685,18.685,0,0,0,3.6-2.714.642.642,0,0,1,.8-.074L102,47.973a1.215,1.215,0,0,0,1.649-.444l.021-.033,3.423-5.932v0a1.2,1.2,0,0,0,.116-.912,1.178,1.178,0,0,0-.558-.732l-4.86-2.809c-.252-.141-.3-.707-.3-.707s.31-1.459.4-2.212a19.11,19.11,0,0,0,0-4.512,19.71,19.71,0,0,0-.4-2.214.638.638,0,0,1,.337-.728l4.825-2.786a1.181,1.181,0,0,0,.558-.734,1.213,1.213,0,0,0-.116-.916l-.019-.033-3.423-5.93h0A1.22,1.22,0,0,0,102,15.893v0l-4.864,2.809a.637.637,0,0,1-.779-.108,18.681,18.681,0,0,0-3.588-2.7,18.37,18.37,0,0,0-4.132-1.753.645.645,0,0,1-.467-.62V7.91a1.214,1.214,0,0,0-1.2-1.2H80.075a1.2,1.2,0,0,0-1.2,1.2v5.614a.645.645,0,0,1-.5.626" transform="translate(-107.249 134.18)" fill="#3a1d71" fill-rule="evenodd" opacity="0.84"/>
    </g>
  </g>
</svg>
