<svg xmlns="http://www.w3.org/2000/svg" xmlns:xlink="http://www.w3.org/1999/xlink" width="85" height="79" viewBox="0 0 85 79">
  <defs>
    <clipPath id="clip-path">
      <rect id="Rect치ngulo_404168" data-name="Rect치ngulo 404168" width="59.481" height="58.7" transform="translate(0 0)" fill="none"/>
    </clipPath>
  </defs>
  <g id="_26" data-name="26" transform="translate(-180 -760)">
    <g id="Grupo_1103705" data-name="Grupo 1103705">
      <rect id="Rect치ngulo_404167" data-name="Rect치ngulo 404167" width="85" height="79" rx="4" transform="translate(180 760)" fill="#debefb"/>
      <g id="Grupo_1103604" data-name="Grupo 1103604" transform="translate(193.5 770.15)">
        <g id="Grupo_1103603" data-name="Grupo 1103603" clip-path="url(#clip-path)">
          <path id="Trazado_886653" data-name="Trazado 886653" d="M53.108,2.4a3.8,3.8,0,1,1-3.844,3.8,3.822,3.822,0,0,1,3.844-3.8" fill="#fed943"/>
          <path id="Trazado_886654" data-name="Trazado 886654" d="M4.451,3.1A3.1,3.1,0,1,1,1.314,6.2,3.119,3.119,0,0,1,4.451,3.1" fill="#fed943"/>
          <path id="Trazado_886655" data-name="Trazado 886655" d="M29.74,48.7A3.1,3.1,0,1,1,26.6,51.8a3.119,3.119,0,0,1,3.136-3.1" fill="#006c87"/>
          <path id="Trazado_886656" data-name="Trazado 886656" d="M58.874,39.3V55.6a2.489,2.489,0,0,1-2.528,2.5H46.128A2.489,2.489,0,0,1,43.6,55.6V39.3a2.489,2.489,0,0,1,2.528-2.5H56.346a2.489,2.489,0,0,1,2.528,2.5" fill="#00ffdf"/>
          <path id="Trazado_886657" data-name="Trazado 886657" d="M15.882,51.8v3.8a2.49,2.49,0,0,1-2.529,2.5H3.136A2.49,2.49,0,0,1,.607,55.6V39.3a2.49,2.49,0,0,1,2.529-2.5H13.353a2.49,2.49,0,0,1,2.529,2.5Z" fill="#a854f3"/>
          <path id="Trazado_886658" data-name="Trazado 886658" d="M47.342,15.9a8.3,8.3,0,1,1,0,16.6H11.532a8.3,8.3,0,0,1-.4-16.6,11.378,11.378,0,0,1-.808-4.1A11.246,11.246,0,0,1,21.648.6,11.443,11.443,0,0,1,32.472,8.4,8.429,8.429,0,0,1,46.23,14.8a5.584,5.584,0,0,1-.1,1.3,4.439,4.439,0,0,1,1.214-.2" fill="#9bd8f9"/>
          <path id="Trazado_886659" data-name="Trazado 886659" d="M55.94,14.4a.9.9,0,1,1-.91.9.906.906,0,0,1,.91-.9"/>
          <path id="Trazado_886660" data-name="Trazado 886660" d="M45.825,1.9a.9.9,0,1,1-.911.9.9.9,0,0,1,.911-.9"/>
          <path id="Trazado_886661" data-name="Trazado 886661" d="M38.946,36.2a.9.9,0,1,1-.911.9.9.9,0,0,1,.911-.9"/>
          <path id="Trazado_886662" data-name="Trazado 886662" d="M35.709,45.6a.9.9,0,1,1-.91.9.9.9,0,0,1,.91-.9"/>
          <path id="Trazado_886663" data-name="Trazado 886663" d="M22.457,41.9a.9.9,0,1,1-.91.9.9.9,0,0,1,.91-.9"/>
          <path id="Trazado_886664" data-name="Trazado 886664" d="M2.832,14.4a.9.9,0,1,1-.91.9.906.906,0,0,1,.91-.9"/>
          <path id="Trazado_886665" data-name="Trazado 886665" d="M47.341,33.1H11.532a8.891,8.891,0,0,1-1.316-17.7,11.213,11.213,0,0,1-.606-3.6A11.989,11.989,0,0,1,32.673,7.4a9.078,9.078,0,0,1,5.059-1.5,8.972,8.972,0,0,1,9,8.9v.6h.606a8.851,8.851,0,1,1,0,17.7M21.647,1.2A10.733,10.733,0,0,0,10.924,11.8a12.691,12.691,0,0,0,.708,3.9.467.467,0,0,1-.1.6.558.558,0,0,1-.506.3,7.6,7.6,0,0,0,.3,15.2H47.139a7.6,7.6,0,1,0,0-15.2,4.941,4.941,0,0,0-1.214.1c-.2,0-.4,0-.505-.2v-.6a4.814,4.814,0,0,0,.1-1.2,7.642,7.642,0,0,0-7.688-7.6,8.029,8.029,0,0,0-4.956,1.7.678.678,0,0,1-.608.1c-.2-.1-.4-.2-.4-.4A10.779,10.779,0,0,0,21.647,1.2"/>
          <path id="Trazado_886666" data-name="Trazado 886666" d="M13.656,12.5a.648.648,0,0,1-.606-.6,8.863,8.863,0,0,1,8.9-8.8.648.648,0,0,1,.607.6.649.649,0,0,1-.607.6,7.6,7.6,0,0,0-7.587,7.5.847.847,0,0,1-.708.7"/>
          <path id="Trazado_886667" data-name="Trazado 886667" d="M13.353,58.7H3.136A3.135,3.135,0,0,1,0,55.6V39.3a3.133,3.133,0,0,1,3.136-3.1H13.353a3.134,3.134,0,0,1,3.137,3.1V55.6a3.135,3.135,0,0,1-3.137,3.1M3.136,37.4a1.8,1.8,0,0,0-1.821,1.8V55.5a1.8,1.8,0,0,0,1.821,1.8H13.353a1.8,1.8,0,0,0,1.821-1.8V39.3a1.8,1.8,0,0,0-1.821-1.8H3.136Z"/>
          <path id="Trazado_886668" data-name="Trazado 886668" d="M8.9,41.8H3.843a.6.6,0,1,1,0-1.2H8.9a.6.6,0,1,1,0,1.2"/>
          <path id="Trazado_886669" data-name="Trazado 886669" d="M12.038,44.9H3.844a.6.6,0,1,1,0-1.2h8.194a.648.648,0,0,1,.606.6.579.579,0,0,1-.606.6"/>
          <path id="Trazado_886670" data-name="Trazado 886670" d="M12.038,48.1H3.844a.6.6,0,1,1,0-1.2h8.194a.6.6,0,1,1,0,1.2"/>
          <path id="Trazado_886671" data-name="Trazado 886671" d="M12.038,51.2H3.844a.6.6,0,1,1,0-1.2h8.194a.6.6,0,1,1,0,1.2"/>
          <path id="Trazado_886672" data-name="Trazado 886672" d="M12.038,54.3H3.844a.6.6,0,1,1,0-1.2h8.194a.6.6,0,1,1,0,1.2"/>
          <path id="Trazado_886673" data-name="Trazado 886673" d="M56.346,58.7H46.128a3.135,3.135,0,0,1-3.136-3.1V39.3a3.133,3.133,0,0,1,3.136-3.1H56.346a3.133,3.133,0,0,1,3.136,3.1V55.6a3.135,3.135,0,0,1-3.136,3.1M46.128,37.4a1.8,1.8,0,0,0-1.82,1.8V55.5a1.8,1.8,0,0,0,1.82,1.8H56.346a1.8,1.8,0,0,0,1.82-1.8V39.3a1.8,1.8,0,0,0-1.82-1.8H46.128Z"/>
          <path id="Trazado_886674" data-name="Trazado 886674" d="M51.9,41.8H46.837a.6.6,0,1,1,0-1.2H51.9a.6.6,0,1,1,0,1.2"/>
          <path id="Trazado_886675" data-name="Trazado 886675" d="M55.03,44.9H46.837a.6.6,0,1,1,0-1.2H55.03a.649.649,0,0,1,.607.6.579.579,0,0,1-.607.6"/>
          <path id="Trazado_886676" data-name="Trazado 886676" d="M55.03,48.1H46.837a.6.6,0,1,1,0-1.2H55.03a.6.6,0,1,1,0,1.2"/>
          <path id="Trazado_886677" data-name="Trazado 886677" d="M55.03,51.2H46.837a.6.6,0,1,1,0-1.2H55.03a.6.6,0,1,1,0,1.2"/>
          <path id="Trazado_886678" data-name="Trazado 886678" d="M55.03,54.3H46.837a.6.6,0,1,1,0-1.2H55.03a.6.6,0,1,1,0,1.2"/>
          <path id="Trazado_886679" data-name="Trazado 886679" d="M29.74,55.6a3.8,3.8,0,1,1,3.845-3.8,3.821,3.821,0,0,1-3.845,3.8m0-6.3a2.5,2.5,0,1,0,2.529,2.5,2.489,2.489,0,0,0-2.529-2.5"/>
          <path id="Trazado_886680" data-name="Trazado 886680" d="M43.7,52.4H32.877a.6.6,0,1,1,0-1.2H43.6a.649.649,0,0,1,.607.6.468.468,0,0,1-.506.6"/>
          <path id="Trazado_886681" data-name="Trazado 886681" d="M26.6,52.4H15.882a.6.6,0,1,1,0-1.2H26.6a.649.649,0,0,1,.608.6.579.579,0,0,1-.608.6"/>
          <path id="Trazado_886682" data-name="Trazado 886682" d="M29.74,49.3a.648.648,0,0,1-.606-.6V32.4a.607.607,0,0,1,1.213,0V48.7a.649.649,0,0,1-.607.6"/>
          <path id="Trazado_886683" data-name="Trazado 886683" d="M53.108,10.6a4.465,4.465,0,0,1-4.451-4.4,4.451,4.451,0,0,1,8.9,0,4.465,4.465,0,0,1-4.451,4.4m0-7.5a3.134,3.134,0,0,0-3.136,3.1,3.136,3.136,0,0,0,6.272,0,3.07,3.07,0,0,0-3.136-3.1"/>
          <path id="Trazado_886684" data-name="Trazado 886684" d="M4.451,9.9a3.8,3.8,0,1,1,0-7.6,3.8,3.8,0,1,1,0,7.6m0-6.2a2.5,2.5,0,1,0,0,5,2.5,2.5,0,1,0,0-5"/>
          <path id="Trazado_886685" data-name="Trazado 886685" d="M37.327,27.4H15.174a.6.6,0,1,1,0-1.2H37.327a.649.649,0,0,1,.607.6.579.579,0,0,1-.607.6"/>
          <path id="Trazado_886686" data-name="Trazado 886686" d="M42.386,24.3H29.134a.6.6,0,1,1,0-1.2H42.386a.6.6,0,1,1,0,1.2"/>
        </g>
      </g>
    </g>
  </g>
</svg>
