<svg id="_27" data-name="27" xmlns="http://www.w3.org/2000/svg" xmlns:xlink="http://www.w3.org/1999/xlink" width="158.163" height="179.795" viewBox="0 0 158.163 179.795">
  <defs>
    <clipPath id="clip-path">
      <rect id="Rectángulo_404171" data-name="Rectángulo 404171" width="158.163" height="179.795" fill="none"/>
    </clipPath>
  </defs>
  <g id="Grupo_1103606" data-name="Grupo 1103606" clip-path="url(#clip-path)">
    <path id="Trazado_886700" data-name="Trazado 886700" d="M6.069,23.348a.376.376,0,0,1-.375-.375V13.607a.375.375,0,0,1,.749,0v9.367a.376.376,0,0,1-.375.375" transform="translate(4.973 11.557)" fill="#364f66"/>
    <path id="Trazado_886701" data-name="Trazado 886701" d="M4.277,28.945a.377.377,0,0,1-.375-.375V8.608a.375.375,0,1,1,.749,0V28.571a.375.375,0,0,1-.375.375" transform="translate(3.408 7.189)" fill="#364f66"/>
    <path id="Trazado_886702" data-name="Trazado 886702" d="M2.391,28.015a.376.376,0,0,1-.375-.375V11.482a.375.375,0,1,1,.749,0V27.64a.376.376,0,0,1-.375.375" transform="translate(1.761 9.701)" fill="#364f66"/>
    <path id="Trazado_886703" data-name="Trazado 886703" d="M.375,25.3A.376.376,0,0,1,0,24.927v-8.82a.375.375,0,0,1,.749,0v8.82a.376.376,0,0,1-.375.375" transform="translate(0 13.741)" fill="#364f66"/>
    <path id="Trazado_886704" data-name="Trazado 886704" d="M28.333,12.067c-.051,0-.1,0-.15,0-2.522-.137-4.266-3.7-4.339-3.857a2.626,2.626,0,0,0-2.016-1.145h-.067c-1.754.06-3.293,2.3-3.308,2.321a.377.377,0,0,1-.521.1.369.369,0,0,1-.1-.519c.071-.1,1.77-2.578,3.9-2.649.032,0,.066,0,.1,0a3.353,3.353,0,0,1,2.643,1.5c.06.1,1.669,3.391,3.749,3.5,1.008.032,2.091-.733,3.091-2.34a.369.369,0,0,1,.515-.122.377.377,0,0,1,.122.517c-1.113,1.791-2.332,2.7-3.619,2.7" transform="translate(15.518 5.513)" fill="#364f66"/>
    <path id="Trazado_886705" data-name="Trazado 886705" d="M62.575,91.8a.376.376,0,0,1-.375-.35c-.007-.127-.185-3.123,1.452-4.491a3.338,3.338,0,0,1,3.086-.5c.107.047,3.4,1.647,5.105.461.864-.6,1.2-1.864,1-3.745a.375.375,0,1,1,.746-.081c.23,2.177-.212,3.672-1.317,4.44-2.072,1.444-5.641-.3-5.794-.377a2.6,2.6,0,0,0-2.344.38c-1.351,1.124-1.188,3.837-1.186,3.865a.373.373,0,0,1-.348.4l-.024,0" transform="translate(54.319 72.285)" fill="#364f66"/>
    <path id="Trazado_886706" data-name="Trazado 886706" d="M84.2,30.519a3.243,3.243,0,1,1,3.243-3.245A3.246,3.246,0,0,1,84.2,30.519m0-5.736A2.493,2.493,0,1,0,86.7,27.274,2.5,2.5,0,0,0,84.2,24.782" transform="translate(70.714 20.991)" fill="#364f66"/>
    <path id="Trazado_886707" data-name="Trazado 886707" d="M79.913,74.536a.376.376,0,0,1-.375-.375V68.517c-1.251.015-5.154.062-5.927-.007a.374.374,0,1,1,.066-.746c.871.077,6.179,0,6.231,0h.006a.371.371,0,0,1,.375.375v6.025a.376.376,0,0,1-.375.375" transform="translate(63.993 59.183)" fill="#364f66"/>
    <path id="Trazado_886708" data-name="Trazado 886708" d="M84.672,12.928a.376.376,0,0,1-.375-.375V6.908c-1.253.015-5.152.064-5.929-.009a.372.372,0,0,1-.339-.407.356.356,0,0,1,.408-.337c.864.079,6.175,0,6.229,0h.006a.371.371,0,0,1,.375.375v6.025a.376.376,0,0,1-.375.375" transform="translate(68.15 5.374)" fill="#364f66"/>
    <path id="Trazado_886709" data-name="Trazado 886709" d="M4.267,98.772a.377.377,0,0,1-.375-.373L3.851,84.57a.362.362,0,0,1-.017-.112L3.8,67.655c-.019-7.233,5.084-16.068,11.373-19.7L87.329,6.3a.373.373,0,0,1,.373.646L15.543,48.608c-6.083,3.509-11.016,12.052-11,19.045l.039,16.694a.348.348,0,0,1,.019.109L4.642,98.4a.376.376,0,0,1-.373.377Z" transform="translate(3.315 5.457)" fill="#364f66"/>
    <path id="Trazado_886710" data-name="Trazado 886710" d="M20.187,179.336a.4.4,0,0,1-.122-.021l-9.822-3.383a9.047,9.047,0,0,1-6.22-8.369v-.109l-.167-57.512a.376.376,0,0,1,.373-.377h0a.377.377,0,0,1,.377.373l.165,57.622a8.287,8.287,0,0,0,5.716,7.659l8.191,2.825c-.972-1.459-1.2-3.709-1.2-6.656L28.654,75l-6.8-.425a.373.373,0,0,1-.35-.4c.365-5.924,2.336-9.09,7.529-12.1l82.8-44.8a.372.372,0,0,1,.455.081c1.24,1.381,2.259,1.911,3.041,1.577,2.3-.972,2.821-9.049,2.465-14.594l-4.942-2.876c-2.01-1.16-4.715-.882-7.606.787l-13.5,7.8a.374.374,0,0,1-.373-.648l13.5-7.8C108-.219,110.97-.493,113.224.811l5.116,2.977a.377.377,0,0,1,.184.3c.011.139.914,13.916-2.906,15.532-1.058.453-2.295-.075-3.689-1.549L29.4,62.725c-4.815,2.791-6.712,5.733-7.123,11.121l6.819.427a.37.37,0,0,1,.347.416L18.219,171.434c0,3.563.369,6.177,2.154,7.2a.375.375,0,0,1-.187.7" transform="translate(3.368 0)" fill="#364f66"/>
    <path id="Trazado_886711" data-name="Trazado 886711" d="M15.958,144.259l-5.113-2.975c-2.018-1.175-3.263-3.661-3.271-7.2L7.292,39.732l24.946,1.546L21.024,138.021c.007,3.543-7.078,5.064-5.066,6.238" transform="translate(6.369 34.702)" fill="#1c323d"/>
    <path id="Trazado_886712" data-name="Trazado 886712" d="M12.429,81.873,7.315,78.9l112.2-64.777,5.114,2.971Z" transform="translate(6.389 12.337)" fill="#fbd46c"/>
    <path id="Trazado_886713" data-name="Trazado 886713" d="M10.045,80.488l112.2-64.777.236,77.548c.021,7.123-4.987,15.8-11.186,19.375l-89.755,51.82c-6.2,3.576-11.235.7-11.255-6.418Z" transform="translate(8.773 13.722)" fill="#3a1d71"/>
    <path id="Trazado_886714" data-name="Trazado 886714" d="M122.472,93.256c.019,7.125-4.989,15.8-11.188,19.38L21.53,164.455c-6.194,3.576-11.233.706-11.254-6.418l-.225-72.406a56.991,56.991,0,0,1,16.709-4.367c8.5-1.029,17.091-.837,25.619-1.536,5.633-.463,12.439-2.362,13.661-7.876.56-2.535-.3-5.165-.073-7.745.416-4.7,4.446-8.43,8.872-10.079s9.255-1.669,13.968-1.939a7.406,7.406,0,0,0,3.571-.845c1.933-1.227,2.342-3.878,2.132-6.162-.358-3.891-1.926-7.7-3.278-11.477l31-17.895Z" transform="translate(8.78 13.723)" fill="#3a1d71"/>
    <path id="Trazado_886715" data-name="Trazado 886715" d="M74.156,77.738a.375.375,0,0,1-.375-.373l-.169-48.417a.377.377,0,0,1,.373-.377h0a.374.374,0,0,1,.375.373l.169,48.417a.377.377,0,0,1-.373.377Z" transform="translate(64.295 24.955)" fill="#364f66"/>
    <path id="Trazado_886716" data-name="Trazado 886716" d="M74,32.614a.375.375,0,0,1-.375-.373l-.051-13.867A.377.377,0,0,1,73.951,18h0a.375.375,0,0,1,.375.373l.049,13.867a.377.377,0,0,1-.373.377Z" transform="translate(64.262 15.72)" fill="#364f66"/>
    <path id="Trazado_886717" data-name="Trazado 886717" d="M121.327,4.64c.392,5.721.034,20.366-6.141,13.485L32.4,62.924c-6.194,3.576-7.441,7.394-7.421,14.511L12.45,93.412,7.337,90.445,7.292,73.636c-.026-7.117,4.987-15.791,11.181-19.365L108.226,2.45c3.121-1.8,5.944-1.965,7.988-.785Z" transform="translate(6.369 0.796)" fill="#d89a1e"/>
    <path id="Trazado_886718" data-name="Trazado 886718" d="M110.957,4.038c6.2-3.58,11.24-.706,11.259,6.413l.049,16.8L10.068,92.029l-.049-16.8C10,68.109,15.008,59.435,21.2,55.859Z" transform="translate(8.751 2.182)" fill="#fbd46c"/>
    <path id="Trazado_886719" data-name="Trazado 886719" d="M122.261,27.252,10.066,92.027l-.045-16.8c-.013-4.584,2.057-9.815,5.2-13.912,5.291-1.7,10.963-2.3,16.471-3.331,7.164-1.332,14.643-3.713,19.247-9.373,1.866-2.289,3.153-5.008,4.98-7.329a19.787,19.787,0,0,1,11.675-7.1c5.568-1.07,12.138.039,16.214-3.906,2.381-2.308,3.3-5.937,6.008-7.868,3.912-2.791,9.974-.931,13.616-4.063,3.132-2.692,2.671-7.243,2.816-11.591l4.71-2.716c6.2-3.582,11.24-.714,11.259,6.411Z" transform="translate(8.752 2.181)" fill="#f9c539"/>
    <path id="Trazado_886720" data-name="Trazado 886720" d="M17.433,37.507c2.053-1.186,3.736-.26,3.743,2.1a8.226,8.226,0,0,1-3.719,6.441c-2.038,1.176-3.707.21-3.713-2.151a8.124,8.124,0,0,1,3.689-6.39" transform="translate(12.004 32.309)" fill="#d89a1e"/>
    <path id="Trazado_886721" data-name="Trazado 886721" d="M18.269,37.643c2.053-1.186,3.736-.26,3.743,2.1a8.226,8.226,0,0,1-3.719,6.441c-2.038,1.176-3.707.21-3.713-2.151a8.124,8.124,0,0,1,3.689-6.39" transform="translate(12.734 32.428)" fill="#fff"/>
    <path id="Trazado_886722" data-name="Trazado 886722" d="M23.8,33.821c2.053-1.186,3.736-.26,3.743,2.1a8.226,8.226,0,0,1-3.719,6.441c-2.038,1.177-3.707.21-3.713-2.151a8.124,8.124,0,0,1,3.689-6.39" transform="translate(17.569 29.09)" fill="#d89a1e"/>
    <path id="Trazado_886723" data-name="Trazado 886723" d="M24.64,33.957c2.053-1.186,3.736-.26,3.743,2.1A8.226,8.226,0,0,1,24.664,42.5c-2.038,1.176-3.707.21-3.713-2.151a8.124,8.124,0,0,1,3.689-6.39" transform="translate(18.299 29.208)" fill="#fff"/>
    <path id="Trazado_886724" data-name="Trazado 886724" d="M30.174,30.135c2.053-1.186,3.736-.26,3.743,2.1A8.226,8.226,0,0,1,30.2,38.676c-2.038,1.177-3.707.21-3.713-2.151a8.124,8.124,0,0,1,3.689-6.39" transform="translate(23.132 25.87)" fill="#d89a1e"/>
    <path id="Trazado_886725" data-name="Trazado 886725" d="M31.011,30.271c2.053-1.186,3.736-.26,3.743,2.1a8.226,8.226,0,0,1-3.719,6.441c-2.038,1.176-3.707.21-3.713-2.151a8.124,8.124,0,0,1,3.689-6.39" transform="translate(23.863 25.989)" fill="#fff"/>
    <path id="Trazado_886726" data-name="Trazado 886726" d="M92.63,43.371c-7.5-4.358-10.133,37.916-21.6,44.533C48.233,101.07,49.17,86.59,49.247,112.79c.039,13.015-22.5,26.889-15.092,31.2L29.482,141.2c-7.407-4.309-12-13.464-12.042-26.479-.077-26.19,18.352-58.1,41.15-71.261,11.477-6.628,21.865-7.243,29.377-2.878Z" transform="translate(15.232 33.014)" fill="#eaad24"/>
    <path id="Trazado_886727" data-name="Trazado 886727" d="M32.074,75.446C48.223,47.662,74.363,32.721,90.457,42.075s16.05,39.463-.1,67.248S48.07,152.048,31.975,142.694s-16.05-39.463.1-67.248" transform="translate(17.41 34.313)" fill="#fbd46c"/>
    <path id="Trazado_886728" data-name="Trazado 886728" d="M102.5,64.742c.082,26.2-18.344,58.11-41.148,71.27s-41.342,2.593-41.416-23.6C19.9,98.737,24.905,83.49,32.948,70.183c7.932.551,15.791,1.075,22.269-3.078,4.586-2.941,8.014-8.033,13.346-9.144,5.054-1.057,11.709,1.295,14.549-3a21.577,21.577,0,0,0,1.527-3.842C86.2,47.254,90.19,44.809,94.27,44c.689-.139,1.435-.257,2.207-.358,3.8,4.981,5.991,12.121,6.019,21.1" transform="translate(17.41 38.118)" fill="#f9c539"/>
    <path id="Trazado_886729" data-name="Trazado 886729" d="M55.3,50.083c17.19-9.925,31.224-1.928,31.28,17.826S72.69,111.8,55.5,121.73s-31.219,1.928-31.273-17.824S38.107,60.006,55.3,50.083" transform="translate(21.158 40.019)" fill="#d89a1e"/>
    <path id="Trazado_886730" data-name="Trazado 886730" d="M56.4,50.495c17.19-9.925,31.224-1.928,31.28,17.826s-13.886,43.9-31.078,53.821-31.219,1.928-31.273-17.824S39.211,60.418,56.4,50.495" transform="translate(22.123 40.379)" fill="#fff"/>
    <path id="Trazado_886731" data-name="Trazado 886731" d="M87.677,67.926c.058,19.75-13.884,43.894-31.074,53.818s-31.22,1.93-31.273-17.82a57.507,57.507,0,0,1,4.657-21.642,41.959,41.959,0,0,0,4.5.152c5.909-.148,12.336-2.454,14.985-7.733,1.428-2.849,1.664-6.36,3.85-8.68,4.509-4.781,13.61-1.109,18.427-5.577,3.559-3.3,2.748-9.071,4.024-13.758,7.22,2.409,11.874,9.879,11.9,21.241" transform="translate(22.123 40.775)" fill="#dbe7fe"/>
    <path id="Trazado_886732" data-name="Trazado 886732" d="M35.759,67.3a13.311,13.311,0,0,1,4.562-1.763c.429-.073.641.152.643.678a1.98,1.98,0,0,1-.247.912,1.737,1.737,0,0,1-.665.727.941.941,0,0,1-.365.1,11.5,11.5,0,0,0-3.692,1.422,10.063,10.063,0,0,0-2.941,2.492,4.622,4.622,0,0,0-1.13,2.866c0,.629.182,1.04.545,1.227a2.091,2.091,0,0,0,1.353.142,18.952,18.952,0,0,0,2.211-.577,18.606,18.606,0,0,1,2.928-.688,2.517,2.517,0,0,1,1.909.453,2.878,2.878,0,0,1,.8,2.385,7.305,7.305,0,0,1-.727,3.072,11.334,11.334,0,0,1-2.055,3.02A13.188,13.188,0,0,1,35.812,86.2a13.117,13.117,0,0,1-5.459,1.885.525.525,0,0,1-.461-.169.783.783,0,0,1-.184-.54,1.945,1.945,0,0,1,.26-.929,1.832,1.832,0,0,1,.676-.718,1.075,1.075,0,0,1,.437-.15A10.473,10.473,0,0,0,35.6,84.06q4.013-2.318,4-5.345a1,1,0,0,0-.519-1.021,2.22,2.22,0,0,0-1.27-.1q-.759.138-2.156.521a22.079,22.079,0,0,1-3.011.669,2.807,2.807,0,0,1-1.973-.4,2.56,2.56,0,0,1-.834-2.265A7.92,7.92,0,0,1,30.517,73a11.351,11.351,0,0,1,2.021-3.119,12.919,12.919,0,0,1,3.22-2.582" transform="translate(25.947 57.228)" fill="#8fb0d8"/>
    <path id="Trazado_886733" data-name="Trazado 886733" d="M52.314,62.59a8.25,8.25,0,0,1,1.055,4.288,16.524,16.524,0,0,1-1.276,6.13,17.3,17.3,0,0,1-3.441,5.352l2.025,1.388a.635.635,0,0,1,.274.605,1.724,1.724,0,0,1-.27.948,1.982,1.982,0,0,1-.712.753.6.6,0,0,1-.733,0l-2.508-1.98a13.162,13.162,0,0,1-1.377.9A7.349,7.349,0,0,1,41.134,82.2a3.544,3.544,0,0,1-2.806-1.731,8.259,8.259,0,0,1-1.045-4.3A16.632,16.632,0,0,1,38.3,70.672a17.209,17.209,0,0,1,2.788-4.959A14.859,14.859,0,0,1,45.3,62.069a7.239,7.239,0,0,1,4.21-1.218,3.578,3.578,0,0,1,2.806,1.739m-1.731,9.588a12.314,12.314,0,0,0,.7-4.1,6.462,6.462,0,0,0-.723-3.275,2.681,2.681,0,0,0-2.068-1.392,5.286,5.286,0,0,0-3.19.892A10.959,10.959,0,0,0,42.112,67.1a13.194,13.194,0,0,0-2.046,3.767,12.407,12.407,0,0,0-.7,4.1,6.532,6.532,0,0,0,.721,3.278,2.708,2.708,0,0,0,2.059,1.4,5.273,5.273,0,0,0,3.2-.9,11.007,11.007,0,0,0,3.185-2.788,12.984,12.984,0,0,0,2.053-3.773" transform="translate(32.563 53.131)" fill="#8fb0d8"/>
    <path id="Trazado_886734" data-name="Trazado 886734" d="M48.746,57.761a.728.728,0,0,1,.744-.079.713.713,0,0,1,.313.682l.043,14.9,7.5-4.328a.732.732,0,0,1,.746-.073.719.719,0,0,1,.311.676,1.986,1.986,0,0,1-.307,1.023,2.091,2.091,0,0,1-.742.772l-8.138,4.7a.98.98,0,0,1-1.021.1.963.963,0,0,1-.429-.925l-.043-15.639a2.105,2.105,0,0,1,.294-1.032,2.016,2.016,0,0,1,.734-.776" transform="translate(41.677 50.319)" fill="#8fb0d8"/>
    <path id="Trazado_886735" data-name="Trazado 886735" d="M36.165,67.336a13.325,13.325,0,0,1,4.562-1.763c.429-.073.643.152.644.678a2,2,0,0,1-.247.912,1.729,1.729,0,0,1-.667.727.942.942,0,0,1-.365.1A11.5,11.5,0,0,0,36.4,69.416a10.072,10.072,0,0,0-2.943,2.492,4.619,4.619,0,0,0-1.128,2.866A1.256,1.256,0,0,0,32.874,76a2.1,2.1,0,0,0,1.354.142,19.045,19.045,0,0,0,2.211-.577,18.513,18.513,0,0,1,2.928-.688,2.513,2.513,0,0,1,1.907.453,2.878,2.878,0,0,1,.8,2.385,7.305,7.305,0,0,1-.727,3.072,11.379,11.379,0,0,1-2.055,3.02,13.228,13.228,0,0,1-3.071,2.434,13.124,13.124,0,0,1-5.461,1.885.521.521,0,0,1-.459-.169.784.784,0,0,1-.185-.54,1.948,1.948,0,0,1,.262-.929,1.815,1.815,0,0,1,.674-.718,1.082,1.082,0,0,1,.438-.15A10.466,10.466,0,0,0,36,84.1q4.016-2.318,4-5.345a1,1,0,0,0-.519-1.021,2.227,2.227,0,0,0-1.272-.1q-.759.138-2.156.521a22,22,0,0,1-3.009.669,2.812,2.812,0,0,1-1.975-.4,2.57,2.57,0,0,1-.834-2.265,7.957,7.957,0,0,1,.682-3.121,11.308,11.308,0,0,1,2.021-3.119,12.909,12.909,0,0,1,3.219-2.582" transform="translate(26.302 57.261)" fill="#324566"/>
    <path id="Trazado_886736" data-name="Trazado 886736" d="M52.721,62.628a8.25,8.25,0,0,1,1.055,4.288,16.524,16.524,0,0,1-1.276,6.13A17.3,17.3,0,0,1,49.059,78.4l2.025,1.388a.635.635,0,0,1,.274.605,1.727,1.727,0,0,1-.272.948,1.964,1.964,0,0,1-.71.753.6.6,0,0,1-.734,0l-2.507-1.98a13.166,13.166,0,0,1-1.377.9,7.349,7.349,0,0,1-4.217,1.223A3.544,3.544,0,0,1,38.734,80.5a8.259,8.259,0,0,1-1.045-4.3,16.537,16.537,0,0,1,1.017-5.493,17.165,17.165,0,0,1,2.788-4.959,14.858,14.858,0,0,1,4.211-3.644,7.239,7.239,0,0,1,4.21-1.218,3.578,3.578,0,0,1,2.806,1.739M50.99,72.216a12.314,12.314,0,0,0,.7-4.1,6.462,6.462,0,0,0-.723-3.275A2.681,2.681,0,0,0,48.9,63.45a5.286,5.286,0,0,0-3.19.892,10.959,10.959,0,0,0-3.192,2.793A13.2,13.2,0,0,0,40.473,70.9a12.407,12.407,0,0,0-.7,4.1,6.532,6.532,0,0,0,.721,3.278,2.708,2.708,0,0,0,2.059,1.4,5.273,5.273,0,0,0,3.2-.9,11.007,11.007,0,0,0,3.185-2.788,12.984,12.984,0,0,0,2.053-3.773" transform="translate(32.918 53.164)" fill="#324566"/>
    <path id="Trazado_886737" data-name="Trazado 886737" d="M49.152,57.8a.728.728,0,0,1,.744-.079.713.713,0,0,1,.313.682l.043,14.9,7.5-4.328a.732.732,0,0,1,.746-.073.719.719,0,0,1,.311.676A1.986,1.986,0,0,1,58.5,70.6a2.091,2.091,0,0,1-.742.772l-8.138,4.7a.98.98,0,0,1-1.021.1.963.963,0,0,1-.429-.925l-.043-15.639a2.105,2.105,0,0,1,.294-1.032,2.016,2.016,0,0,1,.734-.776" transform="translate(42.031 50.352)" fill="#324566"/>
  </g>
</svg>
