<svg xmlns="http://www.w3.org/2000/svg" xmlns:xlink="http://www.w3.org/1999/xlink" width="400" height="276.383" viewBox="0 0 400 276.383">
  <defs>
    <clipPath id="clip-path">
      <rect id="Rectángulo_402745" data-name="Rectángulo 402745" width="331.223" height="262.391" fill="none"/>
    </clipPath>
    <clipPath id="clip-path-2">
      <rect id="Rectángulo_402709" data-name="Rectángulo 402709" width="60.583" height="60.582" fill="none"/>
    </clipPath>
    <clipPath id="clip-path-3">
      <rect id="Rectángulo_402710" data-name="Rectángulo 402710" width="54.736" height="54.736" fill="#00ffdf"/>
    </clipPath>
    <clipPath id="clip-path-4">
      <rect id="Rectángulo_402728" data-name="Rectángulo 402728" width="61.308" height="7.445" fill="none"/>
    </clipPath>
    <clipPath id="clip-path-7">
      <rect id="Rectángulo_402732" data-name="Rectángulo 402732" width="23.347" height="2.027" fill="#3a1d71"/>
    </clipPath>
  </defs>
  <g id="_34" data-name="34" transform="translate(-1125 -379)">
    <rect id="Rectángulo_402862" data-name="Rectángulo 402862" width="400" height="224" rx="8" transform="translate(1125 379)" fill="#f2e5fd"/>
    <g id="Grupo_1100848" data-name="Grupo 1100848" transform="translate(1159.389 392.991)">
      <g id="Grupo_1100847" data-name="Grupo 1100847" clip-path="url(#clip-path)">
        <g id="Grupo_1100827" data-name="Grupo 1100827" transform="translate(18.867 42.596)">
          <g id="Grupo_1100849" data-name="Grupo 1100849">
            <path id="Trazado_878086" data-name="Trazado 878086" d="M352.063,98.99v-4a3.81,3.81,0,0,0-3.81-3.811h-4.236a3.013,3.013,0,0,1-2.927-2.308A32.879,32.879,0,0,0,337.506,80a3.014,3.014,0,0,1,.465-3.658l2.758-2.758a3.81,3.81,0,0,0,0-5.388l-2.829-2.83a3.812,3.812,0,0,0-5.389,0l-2.65,2.65a3.012,3.012,0,0,1-3.7.437,32.86,32.86,0,0,0-9.13-3.831,3.009,3.009,0,0,1-2.276-2.92V58.246a3.81,3.81,0,0,0-3.811-3.81h-4a3.81,3.81,0,0,0-3.81,3.81V61.7a3.022,3.022,0,0,1-2.3,2.926,32.88,32.88,0,0,0-9.228,3.9,3.026,3.026,0,0,1-3.736-.42l-2.334-2.334a3.81,3.81,0,0,0-5.389,0L277.317,68.6a3.81,3.81,0,0,0,0,5.389l4.2,4.2A32.9,32.9,0,0,0,276.66,89.4a3.012,3.012,0,0,1-2.937,2.353H270.2a3.81,3.81,0,0,0-3.81,3.811v4a3.81,3.81,0,0,0,3.81,3.81h3.953a3.008,3.008,0,0,1,2.9,2.2,32.9,32.9,0,0,0,3.91,8.8,3.016,3.016,0,0,1-.407,3.753l-2.833,2.833a3.81,3.81,0,0,0,0,5.389l2.829,2.829a3.81,3.81,0,0,0,5.389,0l3.15-3.15a3.014,3.014,0,0,1,3.617-.489,32.878,32.878,0,0,0,8.655,3.38,3.016,3.016,0,0,1,2.337,2.934V136.3a3.811,3.811,0,0,0,3.81,3.811h4a3.811,3.811,0,0,0,3.811-3.811v-4.733a3.015,3.015,0,0,1,2.236-2.91,32.861,32.861,0,0,0,8.4-3.578,3.019,3.019,0,0,1,3.7.442l3.256,3.255a3.809,3.809,0,0,0,5.388,0l2.83-2.829a3.812,3.812,0,0,0,0-5.389l-3.286-3.285a3.018,3.018,0,0,1-.451-3.682,32.915,32.915,0,0,0,3.562-8.532,3.015,3.015,0,0,1,2.916-2.262h4.379a3.81,3.81,0,0,0,3.81-3.81M311.03,117.1a20.5,20.5,0,1,1,18.3-18.3,20.5,20.5,0,0,1-18.3,18.3" transform="translate(-76.805 -54.436)" fill="#fff"/>
            <g id="Grupo_1100819" data-name="Grupo 1100819" transform="translate(0 68.748)" opacity="0.51">
              <g id="Grupo_1100818" data-name="Grupo 1100818">
                <g id="Grupo_1100817" data-name="Grupo 1100817" clip-path="url(#clip-path-2)">
                  <path id="Trazado_878087" data-name="Trazado 878087" d="M84.694,173.8v-2.83A2.7,2.7,0,0,0,82,168.273H79a2.131,2.131,0,0,1-2.07-1.632,23.219,23.219,0,0,0-2.534-6.271,2.132,2.132,0,0,1,.329-2.587l1.951-1.95a2.7,2.7,0,0,0,0-3.811l-2-2a2.7,2.7,0,0,0-3.81,0l-1.874,1.874a2.129,2.129,0,0,1-2.619.308,23.278,23.278,0,0,0-6.456-2.709,2.127,2.127,0,0,1-1.61-2.064v-2.444a2.694,2.694,0,0,0-2.695-2.694H52.787a2.694,2.694,0,0,0-2.695,2.694v2.443a2.136,2.136,0,0,1-1.623,2.068,23.226,23.226,0,0,0-6.525,2.757,2.141,2.141,0,0,1-2.642-.3l-1.65-1.65a2.694,2.694,0,0,0-3.811,0l-2,2a2.694,2.694,0,0,0,0,3.811l2.968,2.967a23.259,23.259,0,0,0-3.432,7.928,2.13,2.13,0,0,1-2.078,1.664H26.805a2.694,2.694,0,0,0-2.694,2.694v2.83a2.7,2.7,0,0,0,2.694,2.694h2.8a2.126,2.126,0,0,1,2.05,1.558,23.278,23.278,0,0,0,2.765,6.226,2.133,2.133,0,0,1-.288,2.653l-2,2a2.694,2.694,0,0,0,0,3.811l2,2a2.694,2.694,0,0,0,3.811,0l2.228-2.228a2.131,2.131,0,0,1,2.558-.345,23.264,23.264,0,0,0,6.12,2.39,2.133,2.133,0,0,1,1.653,2.075v3.143a2.7,2.7,0,0,0,2.694,2.694h2.83a2.694,2.694,0,0,0,2.694-2.694v-3.348a2.131,2.131,0,0,1,1.582-2.057,23.259,23.259,0,0,0,5.942-2.53,2.135,2.135,0,0,1,2.614.312l2.3,2.3a2.693,2.693,0,0,0,3.81,0l2-2a2.694,2.694,0,0,0,0-3.811l-2.323-2.322a2.135,2.135,0,0,1-.319-2.6,23.265,23.265,0,0,0,2.52-6.033,2.13,2.13,0,0,1,2.062-1.6H82a2.7,2.7,0,0,0,2.695-2.694M55.68,186.6a14.494,14.494,0,1,1,12.94-12.94A14.5,14.5,0,0,1,55.68,186.6" transform="translate(-24.111 -142.292)" fill="#debefb"/>
                </g>
              </g>
            </g>
            <g id="Grupo_1100822" data-name="Grupo 1100822" transform="translate(257.62 5.066)" opacity="0.73">
              <g id="Grupo_1100821" data-name="Grupo 1100821" transform="translate(0 0)">
                <g id="Grupo_1100820" data-name="Grupo 1100820" clip-path="url(#clip-path-3)">
                  <path id="Trazado_878088" data-name="Trazado 878088" d="M407.493,173.531l.526-2.524a2.454,2.454,0,0,0-1.9-2.9l-2.671-.558a1.94,1.94,0,0,1-1.542-1.84,21.211,21.211,0,0,0-1.092-6.064,1.94,1.94,0,0,1,.774-2.246l2.1-1.377a2.454,2.454,0,0,0,.71-3.4l-1.412-2.157a2.454,2.454,0,0,0-3.4-.709l-2.02,1.322a1.94,1.94,0,0,1-2.394-.212,21.184,21.184,0,0,0-5.253-3.618,1.939,1.939,0,0,1-1.052-2.141l.455-2.179a2.455,2.455,0,0,0-1.9-2.9L384.9,139.5a2.455,2.455,0,0,0-2.9,1.9l-.455,2.179a1.946,1.946,0,0,1-1.833,1.543,21.179,21.179,0,0,0-6.333,1.243,1.949,1.949,0,0,1-2.3-.757l-1.164-1.779a2.455,2.455,0,0,0-3.4-.709l-2.157,1.412a2.455,2.455,0,0,0-.709,3.4l2.094,3.2a21.209,21.209,0,0,0-4.536,6.431,1.94,1.94,0,0,1-2.162,1.1l-2.224-.464a2.455,2.455,0,0,0-2.9,1.9l-.527,2.523a2.456,2.456,0,0,0,1.9,2.9l2.492.52a1.938,1.938,0,0,1,1.539,1.771,21.212,21.212,0,0,0,1.307,6.067,1.942,1.942,0,0,1-.75,2.313l-2.159,1.414a2.455,2.455,0,0,0-.71,3.4l1.412,2.156a2.455,2.455,0,0,0,3.4.71l2.4-1.572a1.942,1.942,0,0,1,2.346.167,21.164,21.164,0,0,0,5.013,3.271,1.944,1.944,0,0,1,1.088,2.158l-.585,2.8a2.455,2.455,0,0,0,1.9,2.9l2.523.527a2.455,2.455,0,0,0,2.9-1.9l.623-2.985a1.942,1.942,0,0,1,1.794-1.54,21.2,21.2,0,0,0,5.771-1.15,1.944,1.944,0,0,1,2.273.765L391.5,189.8a2.455,2.455,0,0,0,3.4.709l2.157-1.412a2.455,2.455,0,0,0,.709-3.4l-1.639-2.5a1.943,1.943,0,0,1,.2-2.381,21.2,21.2,0,0,0,3.37-4.911,1.941,1.941,0,0,1,2.136-1.043l2.761.577a2.455,2.455,0,0,0,2.9-1.9m-28.259,6.019a13.205,13.205,0,1,1,13.949-9.132,13.209,13.209,0,0,1-13.949,9.132" transform="translate(-353.336 -139.444)" fill="#00ffdf"/>
                </g>
              </g>
            </g>
            <path id="Trazado_878091" data-name="Trazado 878091" d="M268.9,233.181H74.07V110.926a2.537,2.537,0,0,1,2.536-2.537H266.365a2.537,2.537,0,0,1,2.537,2.537Z" transform="translate(-34.977 -66.17)" fill="#8722e2"/>
            <path id="Trazado_878092" data-name="Trazado 878092" d="M259.859,225.652H88.122a2.536,2.536,0,0,1-2.536-2.537V120.756a2.536,2.536,0,0,1,2.536-2.536H259.859a2.537,2.537,0,0,1,2.537,2.536V223.115a2.537,2.537,0,0,1-2.537,2.537" transform="translate(-37.482 -68.309)" fill="#dae8f5"/>
            <path id="Trazado_878093" data-name="Trazado 878093" d="M124.869,225.652H88.056a2.47,2.47,0,0,1-2.47-2.47V120.69a2.47,2.47,0,0,1,2.47-2.47H255.928" transform="translate(-37.482 -68.309)" fill="#eef7ff"/>
            <path id="Trazado_878094" data-name="Trazado 878094" d="M199.462,112.835a1.247,1.247,0,1,1-1.247-1.247,1.248,1.248,0,0,1,1.247,1.247" transform="translate(-61.707 -66.866)" fill="#9ea8ff"/>
            <rect id="Rectángulo_402711" data-name="Rectángulo 402711" width="64.447" height="3.277" transform="translate(64.647 63.844)" fill="#073799"/>
            <rect id="Rectángulo_402712" data-name="Rectángulo 402712" width="64.447" height="3.277" transform="translate(64.647 81.313)" fill="#073799"/>
            <rect id="Rectángulo_402713" data-name="Rectángulo 402713" width="37.584" height="3.277" transform="translate(64.647 69.667)" fill="#073799"/>
            <rect id="Rectángulo_402714" data-name="Rectángulo 402714" width="72.152" height="3.277" transform="translate(64.647 75.491)" fill="#073799"/>
            <rect id="Rectángulo_402715" data-name="Rectángulo 402715" width="11.658" height="3.277" transform="translate(137.992 75.491)" fill="#073799"/>
            <rect id="Rectángulo_402716" data-name="Rectángulo 402716" width="6.313" height="3.277" transform="translate(151.499 75.491)" fill="#073799"/>
            <rect id="Rectángulo_402717" data-name="Rectángulo 402717" width="41.11" height="3.277" transform="translate(64.647 87.137)" fill="#073799"/>
            <rect id="Rectángulo_402718" data-name="Rectángulo 402718" width="6.642" height="3.277" transform="translate(106.437 87.137)" fill="#073799"/>
            <rect id="Rectángulo_402719" data-name="Rectángulo 402719" width="3.597" height="3.277" transform="translate(114.133 87.137)" fill="#073799"/>
            <rect id="Rectángulo_402720" data-name="Rectángulo 402720" width="23.676" height="3.277" transform="translate(64.485 132.201)" fill="#073799"/>
            <rect id="Rectángulo_402721" data-name="Rectángulo 402721" width="13.807" height="3.277" transform="translate(64.485 138.024)" fill="#073799"/>
            <rect id="Rectángulo_402722" data-name="Rectángulo 402722" width="44.229" height="3.277" transform="translate(169.58 132.492)" fill="#073799"/>
            <rect id="Rectángulo_402723" data-name="Rectángulo 402723" width="25.793" height="3.277" transform="translate(188.016 138.316)" fill="#073799"/>
            <rect id="Rectángulo_402724" data-name="Rectángulo 402724" width="49.516" height="3.277" transform="translate(164.292 144.139)" fill="#073799"/>
            <rect id="Rectángulo_402725" data-name="Rectángulo 402725" width="8" height="3.277" transform="translate(155.473 144.139)" fill="#073799"/>
            <rect id="Rectángulo_402726" data-name="Rectángulo 402726" width="4.333" height="3.277" transform="translate(149.871 144.139)" fill="#073799"/>
            <rect id="Rectángulo_402727" data-name="Rectángulo 402727" width="0.876" height="35.032" transform="translate(64.647 94.004)" fill="#073799"/>
            <path id="Trazado_878095" data-name="Trazado 878095" d="M81.846,281.935H261.124a7.777,7.777,0,0,0,7.777-7.777v-6.291H74.069v6.291a7.778,7.778,0,0,0,7.777,7.777" transform="translate(-34.977 -100.856)" fill="#00ffdf"/>
            <path id="Trazado_878096" data-name="Trazado 878096" d="M223.747,300.735H153.988l8.451-14.891H215.3Z" transform="translate(-52.359 -104.766)" fill="#3669b2"/>
            <path id="Trazado_878097" data-name="Trazado 878097" d="M232.254,308.572H138.93v-1.258a4.135,4.135,0,0,1,4.135-4.135h85.054a4.135,4.135,0,0,1,4.135,4.135Z" transform="translate(-49.084 -108.536)" fill="#4f7ac8"/>
            <g id="Grupo_1100825" data-name="Grupo 1100825" transform="translate(105.855 181.079)" style="mix-blend-mode: multiply;isolation: isolate">
              <g id="Grupo_1100824" data-name="Grupo 1100824">
                <g id="Grupo_1100823" data-name="Grupo 1100823" clip-path="url(#clip-path-4)">
                  <path id="Trazado_878098" data-name="Trazado 878098" d="M163.614,285.845l-4.226,7.446H220.7l-4.226-7.446Z" transform="translate(-159.388 -285.845)" fill="#4f7ac8"/>
                </g>
              </g>
            </g>
            <path id="Trazado_878099" data-name="Trazado 878099" d="M343.505,201.809h-58.23a2.058,2.058,0,0,1-2.058-2.057v-53.7a2.058,2.058,0,0,1,2.058-2.057h58.23a2.057,2.057,0,0,1,2.057,2.057v53.7a2.057,2.057,0,0,1-2.057,2.057" transform="translate(-80.465 -73.913)" fill="#f0c518"/>
            <path id="Trazado_878100" data-name="Trazado 878100" d="M342.1,200.165H288.207a1.489,1.489,0,0,1-1.488-1.488V156.208a1.489,1.489,0,0,1,1.488-1.489H342.1a1.488,1.488,0,0,1,1.488,1.489v42.468a1.488,1.488,0,0,1-1.488,1.488" transform="translate(-81.227 -76.247)" fill="#fff"/>
          </g>
        </g>
        <text id="_" data-name="&lt;/&gt;" transform="translate(233.008 147.456)" fill="#f0c518" font-size="20" font-family="SegoeUI, Segoe UI"><tspan x="0" y="0">&lt;/&gt;</tspan></text>
        <g id="Grupo_1100829" data-name="Grupo 1100829">
          <g id="Grupo_1100828" data-name="Grupo 1100828" clip-path="url(#clip-path)">
            <path id="Trazado_878101" data-name="Trazado 878101" d="M291.23,148.89a1.616,1.616,0,1,1-1.616-1.616,1.616,1.616,0,0,1,1.616,1.616" transform="translate(-62.638 -32.031)" fill="#8722e2"/>
            <path id="Trazado_878102" data-name="Trazado 878102" d="M298.261,148.89a1.616,1.616,0,1,1-1.616-1.616,1.616,1.616,0,0,1,1.616,1.616" transform="translate(-64.167 -32.031)" fill="#8722e2"/>
            <path id="Trazado_878103" data-name="Trazado 878103" d="M305.292,148.89a1.616,1.616,0,1,1-1.616-1.616,1.616,1.616,0,0,1,1.616,1.616" transform="translate(-65.696 -32.031)" fill="#8722e2"/>
            <path id="Trazado_878104" data-name="Trazado 878104" d="M242.007,81.6H175.952a2.057,2.057,0,0,1-2.058-2.057v-53.7a2.057,2.057,0,0,1,2.058-2.057h66.055a2.057,2.057,0,0,1,2.057,2.057v53.7a2.057,2.057,0,0,1-2.057,2.057" transform="translate(-37.821 -5.172)" fill="#3a1d71"/>
            <path id="Trazado_878105" data-name="Trazado 878105" d="M240.6,79.953H178.884a1.489,1.489,0,0,1-1.488-1.489V36a1.489,1.489,0,0,1,1.488-1.489H240.6A1.488,1.488,0,0,1,242.086,36V78.463a1.488,1.488,0,0,1-1.488,1.489" transform="translate(-38.583 -7.505)" fill="#fff"/>
          </g>
        </g>
        <text id="MySQL" transform="translate(143.611 55.009)" fill="#8722e2" font-size="17" font-family="SegoeUI, Segoe UI"><tspan x="0" y="0">MySQL</tspan></text>
        <g id="Grupo_1100846" data-name="Grupo 1100846">
          <g id="Grupo_1100845" data-name="Grupo 1100845" clip-path="url(#clip-path)">
            <path id="Trazado_878106" data-name="Trazado 878106" d="M181.907,28.678a1.616,1.616,0,1,1-1.616-1.616,1.616,1.616,0,0,1,1.616,1.616" transform="translate(-38.861 -5.886)" fill="#eef7ff"/>
            <path id="Trazado_878107" data-name="Trazado 878107" d="M188.939,28.678a1.616,1.616,0,1,1-1.616-1.616,1.616,1.616,0,0,1,1.616,1.616" transform="translate(-40.39 -5.886)" fill="#eef7ff"/>
            <path id="Trazado_878108" data-name="Trazado 878108" d="M195.969,28.678a1.616,1.616,0,1,1-1.616-1.616,1.616,1.616,0,0,1,1.616,1.616" transform="translate(-41.919 -5.886)" fill="#eef7ff"/>
            <path id="Trazado_878109" data-name="Trazado 878109" d="M364.255,272.13H331.581a3.346,3.346,0,0,1-3.156-3.508V226.175a3.346,3.346,0,0,1,3.156-3.508h28l7.834,9.967v35.988a3.346,3.346,0,0,1-3.156,3.508" transform="translate(-71.431 -48.429)" fill="#debefb"/>
            <path id="Trazado_878110" data-name="Trazado 878110" d="M368.234,222.667v7.449a2.448,2.448,0,0,0,2.33,2.569l5.5-.052Z" transform="translate(-80.089 -48.429)" fill="#00ffdf"/>
            <g id="Grupo_1100832" data-name="Grupo 1100832" transform="translate(264.814 188.337)" style="mix-blend-mode: multiply;isolation: isolate">
              <g id="Grupo_1100831" data-name="Grupo 1100831">
                <g id="Grupo_1100830" data-name="Grupo 1100830" clip-path="url(#clip-path-7)">
                  <rect id="Rectángulo_402731" data-name="Rectángulo 402731" width="23.346" height="2.027" transform="translate(0.001 0)" fill="#3a1d71"/>
                </g>
              </g>
            </g>
            <g id="Grupo_1100835" data-name="Grupo 1100835" transform="translate(264.814 193.147)" style="mix-blend-mode: multiply;isolation: isolate">
              <g id="Grupo_1100834" data-name="Grupo 1100834">
                <g id="Grupo_1100833" data-name="Grupo 1100833" clip-path="url(#clip-path-7)">
                  <rect id="Rectángulo_402733" data-name="Rectángulo 402733" width="23.346" height="2.027" transform="translate(0.001 0)" fill="#3a1d71"/>
                </g>
              </g>
            </g>
            <g id="Grupo_1100838" data-name="Grupo 1100838" transform="translate(264.814 197.957)" style="mix-blend-mode: multiply;isolation: isolate">
              <g id="Grupo_1100837" data-name="Grupo 1100837">
                <g id="Grupo_1100836" data-name="Grupo 1100836" clip-path="url(#clip-path-7)">
                  <rect id="Rectángulo_402735" data-name="Rectángulo 402735" width="23.346" height="2.027" transform="translate(0.001)" fill="#3a1d71"/>
                </g>
              </g>
            </g>
            <g id="Grupo_1100841" data-name="Grupo 1100841" transform="translate(264.814 202.767)" style="mix-blend-mode: multiply;isolation: isolate">
              <g id="Grupo_1100840" data-name="Grupo 1100840">
                <g id="Grupo_1100839" data-name="Grupo 1100839" clip-path="url(#clip-path-7)">
                  <rect id="Rectángulo_402737" data-name="Rectángulo 402737" width="23.346" height="2.027" transform="translate(0.001 0)" fill="#3a1d71"/>
                </g>
              </g>
            </g>
            <g id="Grupo_1100844" data-name="Grupo 1100844" transform="translate(264.814 207.577)" style="mix-blend-mode: multiply;isolation: isolate">
              <g id="Grupo_1100843" data-name="Grupo 1100843">
                <g id="Grupo_1100842" data-name="Grupo 1100842" clip-path="url(#clip-path-7)">
                  <rect id="Rectángulo_402739" data-name="Rectángulo 402739" width="23.346" height="2.027" transform="translate(0.001 0)" fill="#3a1d71"/>
                </g>
              </g>
            </g>
            <path id="Trazado_878111" data-name="Trazado 878111" d="M108.894,90.96c2.332-5.025,1.38-10.82-1.97-15.385a1.043,1.043,0,0,0-1.76.123l-4.341,8.1a4.659,4.659,0,0,1-6.067,2.025l-4.59-2.13a4.659,4.659,0,0,1-2.37-5.94l3.38-8.543a1.043,1.043,0,0,0-1.042-1.423c-5.649.388-10.688,3.4-13.02,8.428-3.055,6.582-.479,14.488,5.749,19.214a1.031,1.031,0,0,1,.292,1.279L55.163,153.3a4.98,4.98,0,1,0,9.033,4.192L89.343,99.576a1.032,1.032,0,0,1,1.165-.6c7.63,1.705,15.331-1.432,18.386-8.014M59.226,156.372a2.254,2.254,0,0,1-1.1-2.992c.524-1.128,3.386-4.9,4.514-4.375s.1,5.143-.426,6.272a2.253,2.253,0,0,1-2.992,1.1" transform="translate(-13.68 -7.094)" fill="#3a1d71"/>
            <path id="Trazado_878112" data-name="Trazado 878112" d="M50.41,110.142H17.268a2.057,2.057,0,0,1-2.057-2.057V77.648a2.058,2.058,0,0,1,2.057-2.058H50.41a2.058,2.058,0,0,1,2.057,2.058v30.437a2.057,2.057,0,0,1-2.057,2.057" transform="translate(-3.308 -16.44)" fill="#3a1d71"/>
            <path id="Trazado_878113" data-name="Trazado 878113" d="M49.8,109.16h-31a1.489,1.489,0,0,1-1.488-1.488V83.491A1.489,1.489,0,0,1,18.791,82h31a1.488,1.488,0,0,1,1.488,1.489v24.18A1.488,1.488,0,0,1,49.8,109.16" transform="translate(-3.763 -17.835)" fill="#00ffdf"/>
            <path id="Trazado_878114" data-name="Trazado 878114" d="M20,78.519a.966.966,0,1,1-.966-.966.966.966,0,0,1,.966.966" transform="translate(-3.929 -16.867)" fill="#80b2f1"/>
            <path id="Trazado_878115" data-name="Trazado 878115" d="M24.2,78.519a.966.966,0,1,1-.966-.966.966.966,0,0,1,.966.966" transform="translate(-4.843 -16.867)" fill="#80b2f1"/>
            <path id="Trazado_878116" data-name="Trazado 878116" d="M28.4,78.519a.966.966,0,1,1-.966-.966.966.966,0,0,1,.966.966" transform="translate(-5.757 -16.867)" fill="#80b2f1"/>
            <path id="Trazado_878117" data-name="Trazado 878117" d="M37.8,85.714a4.921,4.921,0,1,1-4.922,4.921A4.921,4.921,0,0,1,37.8,85.714" transform="translate(-7.15 -18.642)" fill="#fff"/>
            <path id="Trazado_878118" data-name="Trazado 878118" d="M45.723,113.228H27.556v-3.436a9.084,9.084,0,1,1,18.167,0Z" transform="translate(-5.993 -21.903)" fill="#fff"/>
            <path id="Trazado_878119" data-name="Trazado 878119" d="M139.944,25.336H92.592a4.739,4.739,0,0,1,0-9.478h47.352a4.739,4.739,0,0,1,0,9.478" transform="translate(-19.108 -3.449)" fill="#f0c518"/>
            <path id="Trazado_878120" data-name="Trazado 878120" d="M94.754,25.336H92.592a4.739,4.739,0,0,1,0-9.478h2.162a4.739,4.739,0,0,1,0,9.478" transform="translate(-19.108 -3.449)" fill="#3a1d71"/>
            <path id="Trazado_878121" data-name="Trazado 878121" d="M139.944,41.519H92.592a4.739,4.739,0,0,1,0-9.478h47.352a4.739,4.739,0,0,1,0,9.478" transform="translate(-19.108 -6.969)" fill="#f0c518"/>
            <path id="Trazado_878122" data-name="Trazado 878122" d="M94.754,41.519H92.592a4.739,4.739,0,0,1,0-9.478h2.162a4.739,4.739,0,0,1,0,9.478" transform="translate(-19.108 -6.969)" fill="#3a1d71"/>
            <path id="Trazado_878123" data-name="Trazado 878123" d="M139.944,57.7H92.592a4.74,4.74,0,0,1,0-9.479h47.352a4.74,4.74,0,0,1,0,9.479" transform="translate(-19.108 -10.489)" fill="#f0c518"/>
            <path id="Trazado_878124" data-name="Trazado 878124" d="M94.754,57.7H92.592a4.74,4.74,0,0,1,0-9.479h2.162a4.74,4.74,0,0,1,0,9.479" transform="translate(-19.108 -10.489)" fill="#3a1d71"/>
            <rect id="Rectángulo_402741" data-name="Rectángulo 402741" width="36.076" height="2.668" transform="translate(83.515 15.938)" fill="#fff"/>
            <rect id="Rectángulo_402742" data-name="Rectángulo 402742" width="36.076" height="2.668" transform="translate(83.515 28.478)" fill="#fff"/>
            <rect id="Rectángulo_402743" data-name="Rectángulo 402743" width="36.076" height="2.668" transform="translate(83.515 41.017)" fill="#fff"/>
          </g>
        </g>
      </g>
    </g>
  </g>
</svg>
