<svg xmlns="http://www.w3.org/2000/svg" width="598" height="140.211" viewBox="0 0 598 140.211">
  <g id="Grupo_1103706" data-name="Grupo 1103706" transform="translate(6114 10934)">
    <path id="Trazado_886783" data-name="Trazado 886783" d="M9,0H589a9,9,0,0,1,9,9V55H0V9A9,9,0,0,1,9,0Z" transform="translate(-6114 -10934)" fill="#fff"/>
    <path id="Trazado_886784" data-name="Trazado 886784" d="M0,0H598V76.211a9,9,0,0,1-9,9H9a9,9,0,0,1-9-9Z" transform="translate(-6114 -10879)"/>
    <path id="Trazado_886785" data-name="Trazado 886785" d="M7.539,9.727H2.867V13.8H8.336V15H1.328V3.625H8.25V4.836H2.867v3.68H7.539Zm3.781-3.18L11.43,7.8a3.069,3.069,0,0,1,1.059-1.043,2.824,2.824,0,0,1,1.449-.371,2.759,2.759,0,0,1,2.117.8,3.515,3.515,0,0,1,.75,2.473V15H15.266V9.7a2.287,2.287,0,0,0-.441-1.586,1.768,1.768,0,0,0-1.348-.469,2.386,2.386,0,0,0-1.207.285,2.072,2.072,0,0,0-.785.8V15H9.945V6.547ZM21.18,4.508V6.547h1.6V7.688h-1.6V12.82a1.149,1.149,0,0,0,.246.836.89.89,0,0,0,.652.242,1.429,1.429,0,0,0,.3-.035,2.2,2.2,0,0,0,.273-.074l.211,1.055a1.36,1.36,0,0,1-.508.23,2.562,2.562,0,0,1-.664.09A1.993,1.993,0,0,1,20.2,14.6a2.46,2.46,0,0,1-.555-1.777V7.688H18.3V6.547h1.344V4.508Zm6.75,10.656A3.576,3.576,0,0,1,25.09,14a4.48,4.48,0,0,1-1.02-3.062v-.344a4.386,4.386,0,0,1,1.051-3.012,3.3,3.3,0,0,1,2.566-1.191A3.067,3.067,0,0,1,30.23,7.445a4.345,4.345,0,0,1,.848,2.8v.813H25.672l-.023.039a3.494,3.494,0,0,0,.563,2.066,1.965,1.965,0,0,0,1.719.793,3.872,3.872,0,0,0,1.371-.223,3.061,3.061,0,0,0,1.012-.613l.6,1a3.7,3.7,0,0,1-1.2.738A4.762,4.762,0,0,1,27.93,15.164ZM27.688,7.6a1.673,1.673,0,0,0-1.332.621,2.938,2.938,0,0,0-.645,1.59l.016.039h3.813V9.727A2.462,2.462,0,0,0,29.086,8.2,1.638,1.638,0,0,0,27.688,7.6Zm9.117.3-.789-.047a1.762,1.762,0,0,0-1.027.289,1.855,1.855,0,0,0-.645.813V15H32.8V6.547H34.18l.148,1.234a2.934,2.934,0,0,1,.887-1.023,2.073,2.073,0,0,1,1.215-.367,1.9,1.9,0,0,1,.328.027,2.174,2.174,0,0,1,.258.059Zm12.781,3.188a4.659,4.659,0,0,1-.875,2.949A2.893,2.893,0,0,1,46.3,15.164a3.354,3.354,0,0,1-1.371-.262,2.622,2.622,0,0,1-1-.785V18.25H42.383V6.547h1.18L43.8,7.641a2.792,2.792,0,0,1,1.031-.93,3.078,3.078,0,0,1,1.438-.32,2.809,2.809,0,0,1,2.441,1.246,5.637,5.637,0,0,1,.871,3.293Zm-1.539-.164a4.467,4.467,0,0,0-.566-2.363,1.835,1.835,0,0,0-1.668-.926,2.054,2.054,0,0,0-1.133.3,2.25,2.25,0,0,0-.758.824v4.086a2.186,2.186,0,0,0,.758.816,2.126,2.126,0,0,0,1.148.293,1.894,1.894,0,0,0,1.656-.8,3.516,3.516,0,0,0,.563-2.066ZM56.672,15q-.078-.383-.121-.676a4.96,4.96,0,0,1-.051-.59,3.589,3.589,0,0,1-1.121,1.02,2.867,2.867,0,0,1-1.488.41,2.763,2.763,0,0,1-2.012-.676,2.486,2.486,0,0,1-.691-1.863,2.183,2.183,0,0,1,.98-1.895,4.579,4.579,0,0,1,2.66-.684H56.5V9.211a1.551,1.551,0,0,0-.453-1.176A1.779,1.779,0,0,0,54.766,7.6a1.859,1.859,0,0,0-1.211.375,1.125,1.125,0,0,0-.461.9l-1.461.016-.016-.047a2.023,2.023,0,0,1,.863-1.687,3.578,3.578,0,0,1,2.371-.766,3.49,3.49,0,0,1,2.313.73,2.588,2.588,0,0,1,.875,2.105V13.3a7.923,7.923,0,0,0,.047.875,4.5,4.5,0,0,0,.172.828Zm-2.555-1.125a2.739,2.739,0,0,0,1.508-.43,2.042,2.042,0,0,0,.875-.984V11.086H54.773a2.24,2.24,0,0,0-1.488.469,1.4,1.4,0,0,0-.559,1.1,1.159,1.159,0,0,0,.352.891A1.472,1.472,0,0,0,54.117,13.875Zm11.07-1.148A1.026,1.026,0,0,0,64.8,11.9a3.732,3.732,0,0,0-1.465-.562,6.146,6.146,0,0,1-2.293-.9,1.814,1.814,0,0,1-.8-1.547,2.229,2.229,0,0,1,.879-1.766,3.879,3.879,0,0,1,4.605.047,2.239,2.239,0,0,1,.852,1.82l-.016.047H65.094a1.331,1.331,0,0,0-.48-.992A1.717,1.717,0,0,0,63.4,7.6a1.751,1.751,0,0,0-1.215.367,1.146,1.146,0,0,0-.4.875.927.927,0,0,0,.348.773,3.848,3.848,0,0,0,1.434.5,6.058,6.058,0,0,1,2.359.93,1.872,1.872,0,0,1,.8,1.57,2.226,2.226,0,0,1-.91,1.836,3.754,3.754,0,0,1-2.379.711,3.715,3.715,0,0,1-2.547-.82,2.341,2.341,0,0,1-.883-1.914l.016-.047h1.469a1.424,1.424,0,0,0,.609,1.2,2.358,2.358,0,0,0,1.336.379,2.1,2.1,0,0,0,1.285-.348A1.063,1.063,0,0,0,65.188,12.727Zm8.367,0a1.026,1.026,0,0,0-.387-.828,3.732,3.732,0,0,0-1.465-.562,6.146,6.146,0,0,1-2.293-.9,1.814,1.814,0,0,1-.8-1.547,2.229,2.229,0,0,1,.879-1.766,3.879,3.879,0,0,1,4.605.047,2.239,2.239,0,0,1,.852,1.82l-.016.047H73.461a1.331,1.331,0,0,0-.48-.992A1.717,1.717,0,0,0,71.766,7.6a1.751,1.751,0,0,0-1.215.367,1.146,1.146,0,0,0-.4.875.927.927,0,0,0,.348.773,3.848,3.848,0,0,0,1.434.5,6.058,6.058,0,0,1,2.359.93,1.872,1.872,0,0,1,.8,1.57,2.226,2.226,0,0,1-.91,1.836,3.754,3.754,0,0,1-2.379.711,3.715,3.715,0,0,1-2.547-.82,2.341,2.341,0,0,1-.883-1.914l.016-.047h1.469a1.424,1.424,0,0,0,.609,1.2,2.358,2.358,0,0,0,1.336.379,2.1,2.1,0,0,0,1.285-.348A1.063,1.063,0,0,0,73.555,12.727Zm5.617-.8.2,1.086h.047l.2-1.086L81.3,6.547h1.234l1.7,5.375.219,1.211H84.5l.25-1.211L86,6.547h1.609L85.156,15H83.914L82.242,9.852l-.32-1.344h-.047l-.3,1.344L79.938,15H78.7L76.242,6.547h1.6ZM88.758,10.7a4.654,4.654,0,0,1,1.016-3.09,3.764,3.764,0,0,1,5.535,0,4.639,4.639,0,0,1,1.02,3.094v.172a4.631,4.631,0,0,1-1.016,3.094,3.781,3.781,0,0,1-5.535,0,4.623,4.623,0,0,1-1.02-3.09Zm1.539.172a4.009,4.009,0,0,0,.566,2.219,2.046,2.046,0,0,0,3.355,0,3.988,3.988,0,0,0,.57-2.219V10.7a3.976,3.976,0,0,0-.574-2.211A1.882,1.882,0,0,0,92.531,7.6a1.856,1.856,0,0,0-1.668.883A4.018,4.018,0,0,0,90.3,10.7Zm11.914-2.961-.789-.047a1.762,1.762,0,0,0-1.027.289,1.854,1.854,0,0,0-.645.813V15H98.211V6.547h1.375l.148,1.234a2.934,2.934,0,0,1,.887-1.023,2.073,2.073,0,0,1,1.215-.367,1.9,1.9,0,0,1,.328.027,2.175,2.175,0,0,1,.258.059Zm1.1,3.023a5.641,5.641,0,0,1,.871-3.289,2.807,2.807,0,0,1,2.441-1.25,3.027,3.027,0,0,1,1.316.273,2.7,2.7,0,0,1,.98.8V2.813h1.539V15h-1.18l-.234-1.07a2.743,2.743,0,0,1-1.023.922,3.058,3.058,0,0,1-1.414.313,2.9,2.9,0,0,1-2.422-1.121,4.659,4.659,0,0,1-.875-2.949Zm1.539.164a3.588,3.588,0,0,0,.523,2.051,1.828,1.828,0,0,0,1.625.77,2.039,2.039,0,0,0,1.156-.312,2.334,2.334,0,0,0,.766-.875V8.781a2.37,2.37,0,0,0-.77-.832,2.033,2.033,0,0,0-1.137-.309,1.759,1.759,0,0,0-1.637.914,4.718,4.718,0,0,0-.527,2.375ZM114.438,15H112.9V13.422h1.539Zm0-6.844H112.9V6.578h1.539ZM126.9,16.2h-7.211V15H126.9Z" transform="translate(-6082 -10867)" fill="#fff"/>
    <path id="Trazado_886786" data-name="Trazado 886786" d="M-191.293-2.867a1.711,1.711,0,0,0-.555-1.3,4.62,4.62,0,0,0-1.953-.891,6.5,6.5,0,0,1-2.707-1.266,2.655,2.655,0,0,1-.973-2.1,2.8,2.8,0,0,1,1.047-2.227,4.05,4.05,0,0,1,2.719-.891,3.971,3.971,0,0,1,2.863,1.02,3.088,3.088,0,0,1,1.035,2.379l-.023.047h-1.469a2.1,2.1,0,0,0-.676-1.6,2.431,2.431,0,0,0-1.73-.633,2.37,2.37,0,0,0-1.652.523,1.754,1.754,0,0,0-.574,1.359,1.518,1.518,0,0,0,.629,1.238,5.8,5.8,0,0,0,2.043.871,5.8,5.8,0,0,1,2.617,1.313,2.857,2.857,0,0,1,.9,2.141,2.657,2.657,0,0,1-1.082,2.211,4.491,4.491,0,0,1-2.824.836,4.8,4.8,0,0,1-2.91-.922,2.81,2.81,0,0,1-1.223-2.469l.016-.047h1.469a1.912,1.912,0,0,0,.813,1.652,3.076,3.076,0,0,0,1.836.582,2.761,2.761,0,0,0,1.73-.492A1.6,1.6,0,0,0-191.293-2.867Zm7.008,3.031A3.576,3.576,0,0,1-187.125-1a4.48,4.48,0,0,1-1.02-3.062v-.344a4.386,4.386,0,0,1,1.051-3.012,3.3,3.3,0,0,1,2.566-1.191,3.067,3.067,0,0,1,2.543,1.055,4.345,4.345,0,0,1,.848,2.8v.813h-5.406l-.023.039A3.494,3.494,0,0,0-186-1.832a1.965,1.965,0,0,0,1.719.793,3.872,3.872,0,0,0,1.371-.223,3.061,3.061,0,0,0,1.012-.613l.6,1a3.7,3.7,0,0,1-1.2.738A4.762,4.762,0,0,1-184.285.164Zm-.242-7.562a1.673,1.673,0,0,0-1.332.621,2.938,2.938,0,0,0-.645,1.59l.016.039h3.813v-.125a2.462,2.462,0,0,0-.453-1.523A1.638,1.638,0,0,0-184.527-7.4Zm6.781,7.4h-1.539V-12.187h1.539Zm5.867.164A3.576,3.576,0,0,1-174.719-1a4.48,4.48,0,0,1-1.02-3.062v-.344a4.386,4.386,0,0,1,1.051-3.012,3.3,3.3,0,0,1,2.566-1.191,3.067,3.067,0,0,1,2.543,1.055,4.345,4.345,0,0,1,.848,2.8v.813h-5.406l-.023.039a3.494,3.494,0,0,0,.563,2.066,1.965,1.965,0,0,0,1.719.793,3.872,3.872,0,0,0,1.371-.223,3.061,3.061,0,0,0,1.012-.613l.6,1a3.7,3.7,0,0,1-1.2.738A4.762,4.762,0,0,1-171.879.164Zm-.242-7.562a1.673,1.673,0,0,0-1.332.621,2.938,2.938,0,0,0-.645,1.59l.016.039h3.813v-.125a2.462,2.462,0,0,0-.453-1.523A1.638,1.638,0,0,0-172.121-7.4Zm8.477,6.359a1.81,1.81,0,0,0,1.242-.473,1.493,1.493,0,0,0,.531-1.16h1.391l.023.047a2.428,2.428,0,0,1-.937,1.941,3.312,3.312,0,0,1-2.25.848,3.319,3.319,0,0,1-2.75-1.211,4.674,4.674,0,0,1-.969-3.016v-.328a4.654,4.654,0,0,1,.973-3,3.317,3.317,0,0,1,2.746-1.215,3.189,3.189,0,0,1,2.316.875,2.775,2.775,0,0,1,.871,2.148l-.016.047h-1.4a1.865,1.865,0,0,0-.5-1.316,1.658,1.658,0,0,0-1.27-.543,1.777,1.777,0,0,0-1.652.879,4.114,4.114,0,0,0-.52,2.129v.328a4.192,4.192,0,0,0,.512,2.148A1.776,1.776,0,0,0-163.645-1.039Zm8.375,0a1.81,1.81,0,0,0,1.242-.473,1.493,1.493,0,0,0,.531-1.16h1.391l.023.047a2.428,2.428,0,0,1-.937,1.941,3.312,3.312,0,0,1-2.25.848,3.319,3.319,0,0,1-2.75-1.211,4.674,4.674,0,0,1-.969-3.016v-.328a4.654,4.654,0,0,1,.973-3,3.317,3.317,0,0,1,2.746-1.215,3.189,3.189,0,0,1,2.316.875,2.775,2.775,0,0,1,.871,2.148l-.016.047h-1.4a1.865,1.865,0,0,0-.5-1.316,1.658,1.658,0,0,0-1.27-.543,1.777,1.777,0,0,0-1.652.879,4.114,4.114,0,0,0-.52,2.129v.328a4.192,4.192,0,0,0,.512,2.148A1.776,1.776,0,0,0-155.27-1.039ZM-148.59,0h-1.539V-8.453h1.539Zm0-10.617h-1.539v-1.57h1.539Zm2.008,6.313a4.654,4.654,0,0,1,1.016-3.09,3.406,3.406,0,0,1,2.758-1.215A3.439,3.439,0,0,1-140.031-7.4a4.639,4.639,0,0,1,1.02,3.094v.172a4.631,4.631,0,0,1-1.016,3.094,3.429,3.429,0,0,1-2.766,1.2,3.436,3.436,0,0,1-2.77-1.207,4.623,4.623,0,0,1-1.02-3.09Zm1.539.172a4.009,4.009,0,0,0,.566,2.219,1.875,1.875,0,0,0,1.684.875,1.87,1.87,0,0,0,1.672-.875,3.988,3.988,0,0,0,.57-2.219V-4.3a3.976,3.976,0,0,0-.574-2.211,1.882,1.882,0,0,0-1.684-.883,1.856,1.856,0,0,0-1.668.883,4.018,4.018,0,0,0-.566,2.211Zm9.289-4.32.109,1.258a3.069,3.069,0,0,1,1.059-1.043,2.824,2.824,0,0,1,1.449-.371,2.759,2.759,0,0,1,2.117.8,3.515,3.515,0,0,1,.75,2.473V0h-1.539V-5.3a2.287,2.287,0,0,0-.441-1.586,1.768,1.768,0,0,0-1.348-.469,2.386,2.386,0,0,0-1.207.285,2.072,2.072,0,0,0-.785.8V0h-1.539V-8.453ZM-122.84,0q-.078-.383-.121-.676a4.96,4.96,0,0,1-.051-.59,3.589,3.589,0,0,1-1.121,1.02,2.867,2.867,0,0,1-1.488.41,2.763,2.763,0,0,1-2.012-.676,2.486,2.486,0,0,1-.691-1.863,2.183,2.183,0,0,1,.98-1.895,4.579,4.579,0,0,1,2.66-.684h1.672v-.836a1.551,1.551,0,0,0-.453-1.176,1.779,1.779,0,0,0-1.281-.434,1.859,1.859,0,0,0-1.211.375,1.125,1.125,0,0,0-.461.9l-1.461.016-.016-.047a2.023,2.023,0,0,1,.863-1.687,3.578,3.578,0,0,1,2.371-.766,3.49,3.49,0,0,1,2.313.73,2.588,2.588,0,0,1,.875,2.105V-1.7a7.923,7.923,0,0,0,.047.875,4.5,4.5,0,0,0,.172.828Zm-2.555-1.125a2.739,2.739,0,0,0,1.508-.43,2.042,2.042,0,0,0,.875-.984V-3.914h-1.727a2.24,2.24,0,0,0-1.488.469,1.4,1.4,0,0,0-.559,1.1,1.159,1.159,0,0,0,.352.891A1.472,1.472,0,0,0-125.395-1.125Zm10.156-5.969-.789-.047a1.762,1.762,0,0,0-1.027.289,1.854,1.854,0,0,0-.645.813V0h-1.539V-8.453h1.375l.148,1.234a2.934,2.934,0,0,1,.887-1.023,2.073,2.073,0,0,1,1.215-.367,1.9,1.9,0,0,1,.328.027,2.175,2.175,0,0,1,.258.059Zm11.43,4.961h.047l3.633-9.242h1.914V0h-1.539V-8.523l-.047-.008L-103.246,0h-1.07l-3.547-8.812-.047.008V0h-1.539V-11.375h2.023Zm10.633-1L-92.9-2.07h.047l2.078-6.383h1.711L-92.621,1.3a4.383,4.383,0,0,1-.918,1.484,2.113,2.113,0,0,1-1.613.633,3.363,3.363,0,0,1-.477-.043q-.289-.043-.445-.082l.156-1.211a2.062,2.062,0,0,1,.277.016q.324.023.41.023a.95.95,0,0,0,.8-.437A4.542,4.542,0,0,0-93.9.711l.367-.883-3.141-8.281h1.719Zm11.734.266A1.711,1.711,0,0,0-82-4.164a4.62,4.62,0,0,0-1.953-.891A6.5,6.5,0,0,1-86.656-6.32a2.655,2.655,0,0,1-.973-2.1,2.8,2.8,0,0,1,1.047-2.227,4.05,4.05,0,0,1,2.719-.891A3.971,3.971,0,0,1-81-10.52a3.088,3.088,0,0,1,1.035,2.379l-.023.047h-1.469a2.1,2.1,0,0,0-.676-1.6,2.431,2.431,0,0,0-1.73-.633,2.37,2.37,0,0,0-1.652.523,1.754,1.754,0,0,0-.574,1.359,1.518,1.518,0,0,0,.629,1.238,5.8,5.8,0,0,0,2.043.871A5.8,5.8,0,0,1-80.8-5.023a2.857,2.857,0,0,1,.9,2.141A2.657,2.657,0,0,1-80.984-.672a4.491,4.491,0,0,1-2.824.836,4.8,4.8,0,0,1-2.91-.922,2.81,2.81,0,0,1-1.223-2.469l.016-.047h1.469a1.912,1.912,0,0,0,.813,1.652,3.076,3.076,0,0,0,1.836.582,2.761,2.761,0,0,0,1.73-.492A1.6,1.6,0,0,0-81.441-2.867Zm12.406-1.8a5.436,5.436,0,0,1-.262,1.7,4.781,4.781,0,0,1-.746,1.434l1.7,1.648L-69.4,1.117-71.137-.547a4.36,4.36,0,0,1-1.187.531,5.012,5.012,0,0,1-1.359.18,4.167,4.167,0,0,1-3.238-1.375,4.959,4.959,0,0,1-1.246-3.461V-6.7a4.977,4.977,0,0,1,1.246-3.461,4.156,4.156,0,0,1,3.238-1.383,4.39,4.39,0,0,1,3.355,1.379A4.867,4.867,0,0,1-69.035-6.7Zm-1.539-2.039a3.837,3.837,0,0,0-.844-2.562,2.813,2.813,0,0,0-2.266-1,2.606,2.606,0,0,0-2.145,1,3.972,3.972,0,0,0-.8,2.563v2.039a4,4,0,0,0,.8,2.578,2.606,2.606,0,0,0,2.145,1,2.815,2.815,0,0,0,2.27-1,3.869,3.869,0,0,0,.84-2.582ZM-65.035-1.2h5.547V0h-7.086V-11.375h1.539Zm17.8-7.266a2.563,2.563,0,0,1-.5,1.566,3.028,3.028,0,0,1-1.328,1.012,3.333,3.333,0,0,1,1.555,1.07,2.641,2.641,0,0,1,.586,1.7A3,3,0,0,1-47.945-.7a3.892,3.892,0,0,1-2.6.859A4.194,4.194,0,0,1-53.273-.7a2.952,2.952,0,0,1-1.059-2.43,2.608,2.608,0,0,1,.6-1.7A3.446,3.446,0,0,1-52.121-5.9a3,3,0,0,1-1.383-1,2.536,2.536,0,0,1-.508-1.566,2.787,2.787,0,0,1,.957-2.281,3.8,3.8,0,0,1,2.5-.789,3.558,3.558,0,0,1,2.387.793A2.822,2.822,0,0,1-47.238-8.469Zm-1.219,5.313a2.067,2.067,0,0,0-.605-1.531,2.039,2.039,0,0,0-1.5-.6,2.231,2.231,0,0,0-1.6.6,2.021,2.021,0,0,0-.633,1.531,1.99,1.99,0,0,0,.629,1.539,2.3,2.3,0,0,0,1.621.578,2.049,2.049,0,0,0,1.488-.582A2.046,2.046,0,0,0-48.457-3.156Zm-.32-5.289A1.869,1.869,0,0,0-49.289-9.8a1.692,1.692,0,0,0-1.27-.531,1.917,1.917,0,0,0-1.375.512,1.8,1.8,0,0,0-.539,1.371,1.887,1.887,0,0,0,.547,1.406,1.889,1.889,0,0,0,1.383.539,1.655,1.655,0,0,0,1.262-.539A1.976,1.976,0,0,0-48.777-8.445ZM-43.324,0h-1.539V-1.578h1.539Zm9.609-4.016A4.489,4.489,0,0,1-34.7-.961,3.321,3.321,0,0,1-37.332.164,3.335,3.335,0,0,1-39.969-.961a4.466,4.466,0,0,1-.988-3.055V-7.359a4.5,4.5,0,0,1,.98-3.047,3.3,3.3,0,0,1,2.629-1.133A3.333,3.333,0,0,1-34.7-10.406a4.472,4.472,0,0,1,.988,3.047ZM-35.254-7.68A3.1,3.1,0,0,0-35.8-9.617a1.838,1.838,0,0,0-1.547-.711,1.808,1.808,0,0,0-1.531.711,3.135,3.135,0,0,0-.539,1.938V-3.7a3.121,3.121,0,0,0,.551,1.945,1.824,1.824,0,0,0,1.535.719,1.813,1.813,0,0,0,1.539-.715A3.167,3.167,0,0,0-35.254-3.7ZM-19.41-3.641l.016.047A3.417,3.417,0,0,1-20.52-.914,4.3,4.3,0,0,1-23.574.164,4.012,4.012,0,0,1-26.719-1.2a5.028,5.028,0,0,1-1.215-3.469V-6.7a5.043,5.043,0,0,1,1.215-3.473,4.006,4.006,0,0,1,3.145-1.371,4.416,4.416,0,0,1,3.07,1.027,3.4,3.4,0,0,1,1.109,2.723l-.016.047h-1.477a2.539,2.539,0,0,0-.7-1.891,2.7,2.7,0,0,0-1.984-.7,2.424,2.424,0,0,0-2.055,1.039,4.227,4.227,0,0,0-.766,2.578v2.039a4.254,4.254,0,0,0,.766,2.594,2.424,2.424,0,0,0,2.055,1.039A2.71,2.71,0,0,0-21.59-1.73a2.557,2.557,0,0,0,.7-1.91Zm1.445-.664a4.654,4.654,0,0,1,1.016-3.09,3.406,3.406,0,0,1,2.758-1.215A3.439,3.439,0,0,1-11.414-7.4,4.639,4.639,0,0,1-10.395-4.3v.172A4.631,4.631,0,0,1-11.41-1.039a3.429,3.429,0,0,1-2.766,1.2,3.436,3.436,0,0,1-2.77-1.207,4.623,4.623,0,0,1-1.02-3.09Zm1.539.172a4.009,4.009,0,0,0,.566,2.219,1.875,1.875,0,0,0,1.684.875A1.87,1.87,0,0,0-12.5-1.914a3.988,3.988,0,0,0,.57-2.219V-4.3a3.976,3.976,0,0,0-.574-2.211A1.882,1.882,0,0,0-14.191-7.4a1.856,1.856,0,0,0-1.668.883A4.018,4.018,0,0,0-16.426-4.3Zm9.289-4.32.109,1.109a2.871,2.871,0,0,1,1.051-.934A3.158,3.158,0,0,1-4.5-8.609a2.615,2.615,0,0,1,1.449.391,2.363,2.363,0,0,1,.91,1.172A3.162,3.162,0,0,1-1.078-8.191,2.769,2.769,0,0,1,.449-8.609a2.531,2.531,0,0,1,2.039.887,4.051,4.051,0,0,1,.75,2.668V0H1.7V-5.07a2.81,2.81,0,0,0-.43-1.77,1.567,1.567,0,0,0-1.281-.52,1.631,1.631,0,0,0-1.277.547A2.381,2.381,0,0,0-1.863-5.43V0H-3.41V-5.07a2.772,2.772,0,0,0-.441-1.738,1.532,1.532,0,0,0-1.27-.551,2.115,2.115,0,0,0-1.156.289,1.867,1.867,0,0,0-.7.813V0H-8.512V-8.453Zm13.984,0,.109,1.109a2.871,2.871,0,0,1,1.051-.934,3.158,3.158,0,0,1,1.48-.332,2.615,2.615,0,0,1,1.449.391,2.363,2.363,0,0,1,.91,1.172,3.162,3.162,0,0,1,1.059-1.145,2.769,2.769,0,0,1,1.527-.418,2.531,2.531,0,0,1,2.039.887,4.051,4.051,0,0,1,.75,2.668V0H15.684V-5.07a2.81,2.81,0,0,0-.43-1.77,1.567,1.567,0,0,0-1.281-.52,1.631,1.631,0,0,0-1.277.547,2.381,2.381,0,0,0-.574,1.383V0H10.574V-5.07a2.772,2.772,0,0,0-.441-1.738,1.532,1.532,0,0,0-1.27-.551,2.115,2.115,0,0,0-1.156.289,1.867,1.867,0,0,0-.7.813V0H5.473V-8.453ZM24.652,0q-.078-.383-.121-.676a4.96,4.96,0,0,1-.051-.59,3.589,3.589,0,0,1-1.121,1.02,2.867,2.867,0,0,1-1.488.41,2.763,2.763,0,0,1-2.012-.676,2.486,2.486,0,0,1-.691-1.863,2.183,2.183,0,0,1,.98-1.895,4.579,4.579,0,0,1,2.66-.684H24.48v-.836a1.551,1.551,0,0,0-.453-1.176A1.779,1.779,0,0,0,22.746-7.4a1.859,1.859,0,0,0-1.211.375,1.125,1.125,0,0,0-.461.9l-1.461.016L19.6-6.156a2.023,2.023,0,0,1,.863-1.687,3.578,3.578,0,0,1,2.371-.766,3.49,3.49,0,0,1,2.313.73,2.588,2.588,0,0,1,.875,2.105V-1.7a7.923,7.923,0,0,0,.047.875A4.5,4.5,0,0,0,26.238,0ZM22.1-1.125a2.739,2.739,0,0,0,1.508-.43,2.042,2.042,0,0,0,.875-.984V-3.914H22.754a2.24,2.24,0,0,0-1.488.469,1.4,1.4,0,0,0-.559,1.1,1.159,1.159,0,0,0,.352.891A1.472,1.472,0,0,0,22.1-1.125Zm7.531-7.328L29.738-7.2A3.069,3.069,0,0,1,30.8-8.238a2.824,2.824,0,0,1,1.449-.371,2.759,2.759,0,0,1,2.117.8,3.515,3.515,0,0,1,.75,2.473V0H33.574V-5.3a2.287,2.287,0,0,0-.441-1.586,1.768,1.768,0,0,0-1.348-.469,2.386,2.386,0,0,0-1.207.285,2.072,2.072,0,0,0-.785.8V0H28.254V-8.453ZM37-4.07a5.641,5.641,0,0,1,.871-3.289,2.807,2.807,0,0,1,2.441-1.25,3.027,3.027,0,0,1,1.316.273,2.7,2.7,0,0,1,.98.8v-4.648h1.539V0h-1.18L42.73-1.07a2.743,2.743,0,0,1-1.023.922,3.058,3.058,0,0,1-1.414.313A2.9,2.9,0,0,1,37.871-.957,4.659,4.659,0,0,1,37-3.906Zm1.539.164a3.588,3.588,0,0,0,.523,2.051,1.828,1.828,0,0,0,1.625.77A2.039,2.039,0,0,0,41.84-1.4a2.334,2.334,0,0,0,.766-.875V-6.219a2.37,2.37,0,0,0-.77-.832A2.033,2.033,0,0,0,40.7-7.359a1.759,1.759,0,0,0-1.637.914,4.718,4.718,0,0,0-.527,2.375ZM52.168-1.2h5.547V0H50.629V-11.375h1.539ZM60.879,0H59.34V-8.453h1.539Zm0-10.617H59.34v-1.57h1.539Zm3.742,2.164L64.73-7.2a3.069,3.069,0,0,1,1.059-1.043,2.824,2.824,0,0,1,1.449-.371,2.759,2.759,0,0,1,2.117.8,3.515,3.515,0,0,1,.75,2.473V0H68.566V-5.3a2.287,2.287,0,0,0-.441-1.586,1.768,1.768,0,0,0-1.348-.469,2.386,2.386,0,0,0-1.207.285,2.072,2.072,0,0,0-.785.8V0H63.246V-8.453ZM75.84.164A3.576,3.576,0,0,1,73-1a4.48,4.48,0,0,1-1.02-3.062v-.344a4.386,4.386,0,0,1,1.051-3.012A3.3,3.3,0,0,1,75.6-8.609a3.067,3.067,0,0,1,2.543,1.055,4.345,4.345,0,0,1,.848,2.8v.813H73.582l-.023.039a3.494,3.494,0,0,0,.563,2.066,1.965,1.965,0,0,0,1.719.793,3.872,3.872,0,0,0,1.371-.223,3.061,3.061,0,0,0,1.012-.613l.6,1a3.7,3.7,0,0,1-1.2.738A4.762,4.762,0,0,1,75.84.164ZM75.6-7.4a1.673,1.673,0,0,0-1.332.621,2.938,2.938,0,0,0-.645,1.59l.016.039h3.813v-.125A2.462,2.462,0,0,0,77-6.8,1.638,1.638,0,0,0,75.6-7.4ZM93.02-3.641l.016.047A3.417,3.417,0,0,1,91.91-.914,4.3,4.3,0,0,1,88.855.164,4.012,4.012,0,0,1,85.711-1.2,5.028,5.028,0,0,1,84.5-4.672V-6.7a5.043,5.043,0,0,1,1.215-3.473,4.006,4.006,0,0,1,3.145-1.371,4.416,4.416,0,0,1,3.07,1.027,3.4,3.4,0,0,1,1.109,2.723l-.016.047H91.543a2.539,2.539,0,0,0-.7-1.891,2.7,2.7,0,0,0-1.984-.7A2.424,2.424,0,0,0,86.8-9.289a4.227,4.227,0,0,0-.766,2.578v2.039A4.254,4.254,0,0,0,86.8-2.078a2.424,2.424,0,0,0,2.055,1.039A2.71,2.71,0,0,0,90.84-1.73a2.557,2.557,0,0,0,.7-1.91ZM96.488,0H94.949V-12.187h1.539Zm4.031,0H98.98V-8.453h1.539Zm0-10.617H98.98v-1.57h1.539ZM106.387.164A3.576,3.576,0,0,1,103.547-1a4.48,4.48,0,0,1-1.02-3.062v-.344a4.386,4.386,0,0,1,1.051-3.012,3.3,3.3,0,0,1,2.566-1.191,3.067,3.067,0,0,1,2.543,1.055,4.345,4.345,0,0,1,.848,2.8v.813h-5.406l-.023.039a3.494,3.494,0,0,0,.563,2.066,1.965,1.965,0,0,0,1.719.793,3.872,3.872,0,0,0,1.371-.223,3.061,3.061,0,0,0,1.012-.613l.6,1a3.7,3.7,0,0,1-1.2.738A4.762,4.762,0,0,1,106.387.164ZM106.145-7.4a1.673,1.673,0,0,0-1.332.621,2.938,2.938,0,0,0-.645,1.59l.016.039H108v-.125a2.462,2.462,0,0,0-.453-1.523A1.638,1.638,0,0,0,106.145-7.4Zm6.492-1.055.109,1.258A3.069,3.069,0,0,1,113.8-8.238a2.824,2.824,0,0,1,1.449-.371,2.759,2.759,0,0,1,2.117.8,3.515,3.515,0,0,1,.75,2.473V0h-1.539V-5.3a2.287,2.287,0,0,0-.441-1.586,1.768,1.768,0,0,0-1.348-.469,2.386,2.386,0,0,0-1.207.285,2.072,2.072,0,0,0-.785.8V0h-1.539V-8.453Zm9.859-2.039v2.039h1.6v1.141h-1.6V-2.18a1.149,1.149,0,0,0,.246.836.89.89,0,0,0,.652.242,1.43,1.43,0,0,0,.3-.035,2.2,2.2,0,0,0,.273-.074l.211,1.055a1.36,1.36,0,0,1-.508.23,2.562,2.562,0,0,1-.664.09A1.993,1.993,0,0,1,121.512-.4a2.46,2.46,0,0,1-.555-1.777V-7.312h-1.344V-8.453h1.344v-2.039ZM134.52-4.2H129.91v-1.2h4.609Zm14.992-7.172V-3.82a3.669,3.669,0,0,1-1.219,2.93A4.627,4.627,0,0,1,145.152.164a4.367,4.367,0,0,1-3.031-1.059,3.73,3.73,0,0,1-1.18-2.926v-7.555h1.539V-3.82a2.744,2.744,0,0,0,.746,2.043,2.621,2.621,0,0,0,1.926.738,2.851,2.851,0,0,0,2.035-.738,2.668,2.668,0,0,0,.785-2.043v-7.555Zm3.6,2.922.109,1.258a3.069,3.069,0,0,1,1.059-1.043,2.824,2.824,0,0,1,1.449-.371,2.759,2.759,0,0,1,2.117.8,3.515,3.515,0,0,1,.75,2.473V0h-1.539V-5.3a2.287,2.287,0,0,0-.441-1.586,1.768,1.768,0,0,0-1.348-.469,2.386,2.386,0,0,0-1.207.285,2.072,2.072,0,0,0-.785.8V0h-1.539V-8.453ZM162.5,0h-1.539V-8.453H162.5Zm0-10.617h-1.539v-1.57H162.5Zm5.727,9.578a1.81,1.81,0,0,0,1.242-.473A1.493,1.493,0,0,0,170-2.672h1.391l.023.047a2.428,2.428,0,0,1-.937,1.941,3.312,3.312,0,0,1-2.25.848,3.319,3.319,0,0,1-2.75-1.211,4.674,4.674,0,0,1-.969-3.016v-.328a4.654,4.654,0,0,1,.973-3,3.317,3.317,0,0,1,2.746-1.215,3.189,3.189,0,0,1,2.316.875,2.775,2.775,0,0,1,.871,2.148l-.016.047H170a1.865,1.865,0,0,0-.5-1.316,1.658,1.658,0,0,0-1.27-.543,1.777,1.777,0,0,0-1.652.879,4.114,4.114,0,0,0-.52,2.129v.328a4.192,4.192,0,0,0,.512,2.148A1.776,1.776,0,0,0,168.223-1.039ZM172.879-4.3a4.654,4.654,0,0,1,1.016-3.09,3.406,3.406,0,0,1,2.758-1.215A3.439,3.439,0,0,1,179.43-7.4a4.639,4.639,0,0,1,1.02,3.094v.172a4.631,4.631,0,0,1-1.016,3.094,3.429,3.429,0,0,1-2.766,1.2,3.436,3.436,0,0,1-2.77-1.207,4.623,4.623,0,0,1-1.02-3.09Zm1.539.172a4.009,4.009,0,0,0,.566,2.219,1.875,1.875,0,0,0,1.684.875,1.87,1.87,0,0,0,1.672-.875,3.988,3.988,0,0,0,.57-2.219V-4.3a3.976,3.976,0,0,0-.574-2.211,1.882,1.882,0,0,0-1.684-.883,1.856,1.856,0,0,0-1.668.883,4.018,4.018,0,0,0-.566,2.211Zm7.563.063a5.641,5.641,0,0,1,.871-3.289,2.807,2.807,0,0,1,2.441-1.25,3.027,3.027,0,0,1,1.316.273,2.7,2.7,0,0,1,.98.8v-4.648h1.539V0h-1.18l-.234-1.07a2.743,2.743,0,0,1-1.023.922,3.058,3.058,0,0,1-1.414.313,2.9,2.9,0,0,1-2.422-1.121,4.659,4.659,0,0,1-.875-2.949Zm1.539.164a3.588,3.588,0,0,0,.523,2.051,1.828,1.828,0,0,0,1.625.77,2.039,2.039,0,0,0,1.156-.312,2.334,2.334,0,0,0,.766-.875V-6.219a2.37,2.37,0,0,0-.77-.832,2.033,2.033,0,0,0-1.137-.309,1.759,1.759,0,0,0-1.637.914,4.718,4.718,0,0,0-.527,2.375ZM194.926.164A3.576,3.576,0,0,1,192.086-1a4.48,4.48,0,0,1-1.02-3.062v-.344a4.386,4.386,0,0,1,1.051-3.012,3.3,3.3,0,0,1,2.566-1.191,3.067,3.067,0,0,1,2.543,1.055,4.345,4.345,0,0,1,.848,2.8v.813h-5.406l-.023.039a3.494,3.494,0,0,0,.563,2.066,1.965,1.965,0,0,0,1.719.793,3.872,3.872,0,0,0,1.371-.223,3.061,3.061,0,0,0,1.012-.613l.6,1a3.7,3.7,0,0,1-1.2.738A4.762,4.762,0,0,1,194.926.164ZM194.684-7.4a1.673,1.673,0,0,0-1.332.621,2.938,2.938,0,0,0-.645,1.59l.016.039h3.813v-.125a2.462,2.462,0,0,0-.453-1.523A1.638,1.638,0,0,0,194.684-7.4Z" transform="translate(-5870 -10900.789)" fill="#12263f"/>
    <path id="Trazado_886787" data-name="Trazado 886787" d="M0,0H22V20H0Z" transform="translate(-6101 -10915.789)" fill="#12263f"/>
    <path id="Trazado_886788" data-name="Trazado 886788" d="M0,0H22V6H0Z" transform="translate(-6101 -10915.789)" fill="#707274"/>
  </g>
</svg>
