<svg id="_7" data-name="7" xmlns="http://www.w3.org/2000/svg" xmlns:xlink="http://www.w3.org/1999/xlink" width="98.196" height="95.437" viewBox="0 0 98.196 95.437">
  <defs>
    <clipPath id="clip-path">
      <rect id="Rectángulo_401164" data-name="Rectángulo 401164" width="98.196" height="95.437" fill="none"/>
    </clipPath>
    <clipPath id="clip-path-4">
      <rect id="Rectángulo_401148" data-name="Rectángulo 401148" width="15.742" height="22.177" fill="none"/>
    </clipPath>
    <clipPath id="clip-path-5">
      <rect id="Rectángulo_401149" data-name="Rectángulo 401149" width="24.979" height="22.095" fill="none"/>
    </clipPath>
    <clipPath id="clip-path-6">
      <rect id="Rectángulo_401150" data-name="Rectángulo 401150" width="13.893" height="25.007" fill="none"/>
    </clipPath>
    <clipPath id="clip-path-7">
      <rect id="Rectángulo_401151" data-name="Rectángulo 401151" width="14.937" height="6.377" fill="none"/>
    </clipPath>
    <clipPath id="clip-path-8">
      <rect id="Rectángulo_401152" data-name="Rectángulo 401152" width="5.003" height="8.235" fill="none"/>
    </clipPath>
    <clipPath id="clip-path-9">
      <rect id="Rectángulo_401153" data-name="Rectángulo 401153" width="5.345" height="3.343" fill="none"/>
    </clipPath>
    <clipPath id="clip-path-10">
      <rect id="Rectángulo_401154" data-name="Rectángulo 401154" width="12.237" height="7.925" fill="none"/>
    </clipPath>
    <clipPath id="clip-path-11">
      <rect id="Rectángulo_401155" data-name="Rectángulo 401155" width="28.706" height="40.152" fill="none"/>
    </clipPath>
    <clipPath id="clip-path-12">
      <rect id="Rectángulo_401156" data-name="Rectángulo 401156" width="21.166" height="45.389" fill="none"/>
    </clipPath>
    <clipPath id="clip-path-13">
      <rect id="Rectángulo_401157" data-name="Rectángulo 401157" width="5.91" height="10.963" fill="none"/>
    </clipPath>
    <clipPath id="clip-path-14">
      <rect id="Rectángulo_401158" data-name="Rectángulo 401158" width="2.397" height="4.033" fill="none"/>
    </clipPath>
    <clipPath id="clip-path-15">
      <rect id="Rectángulo_401159" data-name="Rectángulo 401159" width="12.116" height="7.343" fill="none"/>
    </clipPath>
    <clipPath id="clip-path-16">
      <rect id="Rectángulo_401160" data-name="Rectángulo 401160" width="2.154" height="3.329" fill="none"/>
    </clipPath>
    <clipPath id="clip-path-17">
      <rect id="Rectángulo_401161" data-name="Rectángulo 401161" width="21.061" height="13.539" fill="none"/>
    </clipPath>
    <clipPath id="clip-path-18">
      <rect id="Rectángulo_401162" data-name="Rectángulo 401162" width="18.937" height="43.634" fill="none"/>
    </clipPath>
  </defs>
  <g id="Grupo_1100535" data-name="Grupo 1100535" clip-path="url(#clip-path)">
    <g id="Grupo_1100487" data-name="Grupo 1100487">
      <g id="Grupo_1100486" data-name="Grupo 1100486" clip-path="url(#clip-path)">
        <path id="Trazado_873874" data-name="Trazado 873874" d="M171.392,232.126l-24.831-.232-7.525-.035-2.046,0-.532.007a1.191,1.191,0,0,0-.181.01,1.128,1.128,0,0,0,.181.012l.532.012,2.046.025,7.525.04,24.833.015c9.692,0,18.469.011,24.822.057,3.177.022,5.748.052,7.525.085.888.017,1.578.034,2.046.052a3.848,3.848,0,0,1,.713.053,3.9,3.9,0,0,1-.714.045c-.468.013-1.158.024-2.046.031-1.777.016-4.348.019-7.525.01-6.354-.018-15.13-.093-24.822-.19" transform="translate(-108.303 -184.266)" fill="#f5f5f5"/>
        <path id="Trazado_873875" data-name="Trazado 873875" d="M172.255,222.043l-24.492-3.982-7.428-1.171-2.022-.3-.527-.073a1.119,1.119,0,0,0-.181-.017,1.119,1.119,0,0,0,.177.039l.523.093,2.017.334,7.427,1.176,24.529,3.764c9.575,1.462,18.243,2.8,24.512,3.8,3.135.5,5.67.919,7.42,1.221.875.151,1.553.272,2.013.361a3.8,3.8,0,0,1,.7.16,3.778,3.778,0,0,1-.712-.062c-.464-.058-1.148-.151-2.027-.278-1.758-.253-4.3-.637-7.435-1.126-6.274-.977-14.931-2.378-24.489-3.939" transform="translate(-109.359 -172.055)" fill="#f5f5f5"/>
        <path id="Trazado_873876" data-name="Trazado 873876" d="M174.81,211.867l-23.541-7.682-7.146-2.293-1.948-.609-.508-.153a1.124,1.124,0,0,0-.176-.045,1.083,1.083,0,0,0,.169.066l.5.172,1.938.639,7.144,2.3,23.613,7.47c9.218,2.908,17.562,5.555,23.59,7.507,3.014.975,5.45,1.776,7.129,2.342.84.283,1.49.507,1.929.665a3.712,3.712,0,0,1,.661.265,3.747,3.747,0,0,1-.694-.17c-.449-.128-1.109-.325-1.957-.584-1.7-.518-4.142-1.287-7.16-2.25-6.037-1.925-14.36-4.634-23.545-7.639" transform="translate(-112.447 -159.808)" fill="#f5f5f5"/>
        <path id="Trazado_873877" data-name="Trazado 873877" d="M178.974,202.217l-22.005-11.184-6.686-3.358-1.825-.9-.477-.229a1.139,1.139,0,0,0-.166-.071,1.1,1.1,0,0,0,.156.091l.468.247,1.81.927,6.683,3.362,22.109,10.99c8.632,4.283,16.443,8.173,22.08,11.022,2.819,1.424,5.095,2.587,6.662,3.4.783.407,1.389.728,1.8.951a3.734,3.734,0,0,1,.61.362,3.8,3.8,0,0,1-.657-.275c-.423-.2-1.043-.491-1.837-.876-1.59-.771-3.882-1.9-6.707-3.317-5.65-2.824-13.431-6.772-22.016-11.143" transform="translate(-117.473 -148.197)" fill="#f5f5f5"/>
        <path id="Trazado_873878" data-name="Trazado 873878" d="M184.57,193.438l-19.936-14.39-6.063-4.332-1.657-1.166-.435-.3a1.074,1.074,0,0,0-.153-.1,1.1,1.1,0,0,0,.139.113l.422.314,1.639,1.191,6.06,4.336,20.07,14.213c7.837,5.541,14.927,10.57,20.036,14.241,2.555,1.835,4.616,3.329,6.032,4.372.708.522,1.255.93,1.622,1.212a3.687,3.687,0,0,1,.545.451,3.75,3.75,0,0,1-.6-.371c-.386-.257-.951-.643-1.674-1.145-1.446-1-3.528-2.471-6.09-4.3-5.127-3.648-12.177-8.729-19.953-14.351" transform="translate(-124.238 -137.613)" fill="#f5f5f5"/>
        <path id="Trazado_873879" data-name="Trazado 873879" d="M191.438,185.692l-17.391-17.228-5.3-5.2-1.451-1.4-.382-.36a1.151,1.151,0,0,0-.135-.118,1.047,1.047,0,0,0,.119.133l.367.374,1.428,1.424,5.292,5.2,17.551,17.074c6.855,6.659,13.053,12.7,17.513,17.1,2.23,2.2,4.027,3.986,5.259,5.231.616.622,1.091,1.109,1.409,1.443a3.635,3.635,0,0,1,.466.528,3.693,3.693,0,0,1-.538-.458c-.34-.312-.836-.779-1.47-1.384-1.268-1.21-3.089-2.974-5.329-5.164-4.48-4.379-10.632-10.463-17.414-17.192" transform="translate(-132.548 -128.26)" fill="#f5f5f5"/>
        <path id="Trazado_873880" data-name="Trazado 873880" d="M199.463,179.079l-14.422-19.648-4.4-5.933-1.209-1.6-.319-.414a.089.089,0,1,0-.018.013l.3.426,1.183,1.622,4.4,5.936L199.581,179c5.706,7.614,10.862,14.517,14.564,19.536,1.851,2.509,3.34,4.546,4.358,5.962.509.708.9,1.26,1.161,1.638a3.591,3.591,0,0,1,.376.592,3.643,3.643,0,0,1-.458-.534c-.286-.36-.7-.9-1.231-1.589-1.059-1.387-2.576-3.4-4.438-5.906-3.725-5-8.828-11.943-14.45-19.615" transform="translate(-142.255 -120.277)" fill="#f5f5f5"/>
        <path id="Trazado_873881" data-name="Trazado 873881" d="M208.548,173.705l-11.083-21.6-3.392-6.529-.936-1.768-.249-.457a1.05,1.05,0,0,0-.092-.152,1.016,1.016,0,0,0,.072.162l.23.466.907,1.782,3.387,6.531,11.286,21.5c4.411,8.387,8.394,15.989,11.243,21.508,1.425,2.759,2.567,5,3.345,6.551.389.777.686,1.382.883,1.795a3.551,3.551,0,0,1,.276.641,3.556,3.556,0,0,1-.367-.6c-.225-.4-.549-.991-.96-1.756-.823-1.531-2-3.754-3.433-6.508-2.875-5.507-6.8-13.138-11.116-21.57" transform="translate(-153.221 -113.806)" fill="#f5f5f5"/>
        <path id="Trazado_873882" data-name="Trazado 873882" d="M218.509,169.734l-7.448-23.024-2.293-6.966-.638-1.889-.172-.489a.994.994,0,0,0-.066-.165,1.052,1.052,0,0,0,.045.171l.152.5.607,1.9,2.287,6.968,7.665,22.956c3,8.957,5.7,17.073,7.621,22.959.96,2.943,1.727,5.329,2.243,6.981.258.826.454,1.47.581,1.907a3.493,3.493,0,0,1,.168.676,3.514,3.514,0,0,1-.266-.645c-.158-.428-.382-1.063-.664-1.882-.565-1.637-1.364-4.013-2.337-6.952-1.947-5.878-4.586-14.013-7.486-23" transform="translate(-165.218 -109.038)" fill="#f5f5f5"/>
        <path id="Trazado_873883" data-name="Trazado 873883" d="M228.986,167.334l-3.628-23.876-1.136-7.23-.324-1.963-.09-.51a1.042,1.042,0,0,0-.038-.173,1.065,1.065,0,0,0,.016.176l.07.513.292,1.968,1.131,7.231,3.853,23.842c1.511,9.3,2.866,17.732,3.809,23.839.472,3.053.842,5.526,1.085,7.237.121.856.211,1.521.265,1.972a3.484,3.484,0,0,1,.057.693,3.529,3.529,0,0,1-.158-.678c-.086-.447-.2-1.108-.351-1.96-.293-1.7-.7-4.171-1.182-7.223-.971-6.1-2.261-14.54-3.669-23.86" transform="translate(-177.835 -106.163)" fill="#f5f5f5"/>
        <path id="Trazado_873884" data-name="Trazado 873884" d="M237.808,166.575c.087-9.424.166-17.952.224-24.134.013-3.084.024-5.58.032-7.314,0-.859,0-1.527-.006-1.988,0-.223-.006-.394-.008-.517a1.089,1.089,0,0,0-.01-.176,1.073,1.073,0,0,0-.012.176c0,.123-.007.294-.012.517-.006.461-.014,1.13-.025,1.988-.008,1.733-.021,4.23-.036,7.314,0,6.182,0,14.71,0,24.135s0,17.95-.044,24.125c-.021,3.088-.049,5.586-.083,7.313-.016.864-.034,1.534-.052,1.988a3.556,3.556,0,0,1-.054.693,3.552,3.552,0,0,1-.047-.694c-.014-.455-.025-1.125-.033-1.989-.017-1.727-.023-4.226-.015-7.314.014-6.175.086-14.705.181-24.124" transform="translate(-188.847 -105.259)" fill="#f5f5f5"/>
        <path id="Trazado_873885" data-name="Trazado 873885" d="M206.392,167.408l4.081-23.807,1.2-7.22.311-1.965.075-.512a1.037,1.037,0,0,0,.018-.176,1.055,1.055,0,0,0-.04.172l-.1.509-.343,1.96-1.205,7.219-3.857,23.842c-1.5,9.306-2.868,17.732-3.9,23.825-.514,3.047-.942,5.511-1.252,7.212-.155.85-.279,1.51-.37,1.956a3.52,3.52,0,0,1-.164.677,3.479,3.479,0,0,1,.063-.692c.059-.451.155-1.116.284-1.97.259-1.709.653-4.178,1.154-7.227,1-6.1,2.437-14.513,4.037-23.8" transform="translate(-159.62 -106.278)" fill="#f5f5f5"/>
        <path id="Trazado_873886" data-name="Trazado 873886" d="M175.154,169.884,183.043,147l2.355-6.946.626-1.893.157-.494a1.027,1.027,0,0,0,.046-.171,1.014,1.014,0,0,0-.068.164l-.177.488-.656,1.883-2.36,6.945-7.671,22.954c-2.987,8.961-5.7,17.072-7.709,22.932-1,2.93-1.824,5.3-2.4,6.93-.29.816-.521,1.448-.683,1.875a3.506,3.506,0,0,1-.273.643,3.481,3.481,0,0,1,.174-.674c.131-.437.333-1.078.6-1.9.532-1.648,1.321-4.026,2.31-6.96,1.977-5.869,4.759-13.959,7.845-22.888" transform="translate(-130.513 -109.272)" fill="#f5f5f5"/>
        <path id="Trazado_873887" data-name="Trazado 873887" d="M145.522,173.925l11.494-21.394,3.45-6.5.925-1.774.235-.464a1.076,1.076,0,0,0,.073-.162,1.06,1.06,0,0,0-.093.152l-.253.455L160.4,146l-3.455,6.5L145.651,173.99c-4.4,8.392-8.4,15.986-11.327,21.467-1.464,2.741-2.658,4.953-3.5,6.476-.419.762-.748,1.351-.977,1.748a3.609,3.609,0,0,1-.373.593,3.555,3.555,0,0,1,.282-.639c.2-.411.5-1.013.9-1.786.793-1.546,1.957-3.774,3.409-6.52,2.9-5.493,6.959-13.058,11.451-21.4" transform="translate(-102.9 -114.149)" fill="#f5f5f5"/>
        <path id="Trazado_873888" data-name="Trazado 873888" d="M118.334,179.359l14.794-19.385,4.454-5.9,1.2-1.612.307-.422a1.076,1.076,0,0,0,.1-.148,1.112,1.112,0,0,0-.116.135l-.323.411-1.224,1.593-4.458,5.892-14.612,19.515c-5.7,7.621-10.867,14.514-14.64,19.482-1.886,2.485-3.422,4.488-4.495,5.865-.536.689-.957,1.221-1.246,1.578a3.606,3.606,0,0,1-.464.53,3.6,3.6,0,0,1,.382-.588c.264-.376.661-.924,1.176-1.628,1.032-1.406,2.54-3.43,4.416-5.922,3.75-4.985,8.973-11.84,14.753-19.4" transform="translate(-77.571 -120.717)" fill="#f5f5f5"/>
        <path id="Trazado_873889" data-name="Trazado 873889" d="M94.19,186.028l17.716-16.912,5.343-5.15,1.442-1.411.371-.371a1.044,1.044,0,0,0,.121-.132,1.13,1.13,0,0,0-.137.117l-.385.357-1.464,1.389-5.346,5.147L94.293,186.129c-6.847,6.667-13.057,12.694-17.58,17.032-2.261,2.169-4.1,3.917-5.379,5.115-.64.6-1.14,1.061-1.483,1.37a3.69,3.69,0,0,1-.543.453,3.637,3.637,0,0,1,.471-.523c.321-.331.8-.813,1.423-1.43,1.244-1.233,3.058-3,5.31-5.183,4.5-4.357,10.759-10.339,17.678-16.935" transform="translate(-55.081 -128.787)" fill="#f5f5f5"/>
        <path id="Trazado_873890" data-name="Trazado 873890" d="M73.581,193.824,93.788,179.8l6.1-4.28,1.65-1.176.426-.311a1.047,1.047,0,0,0,.14-.112,1.182,1.182,0,0,0-.153.094l-.438.295-1.669,1.151-6.105,4.276L73.667,193.939c-7.831,5.551-14.93,10.566-20.092,14.167-2.58,1.8-4.676,3.249-6.132,4.239-.728.5-1.3.876-1.685,1.129a3.741,3.741,0,0,1-.609.366,3.7,3.7,0,0,1,.549-.446c.37-.279.921-.682,1.634-1.2,1.426-1.03,3.5-2.505,6.075-4.317,5.145-3.623,12.283-8.587,20.174-14.056" transform="translate(-35.881 -138.217)" fill="#f5f5f5"/>
        <path id="Trazado_873891" data-name="Trazado 873891" d="M56.963,202.649l22.216-10.785,6.715-3.3,1.819-.911.47-.242a1.066,1.066,0,0,0,.157-.089,1.128,1.128,0,0,0-.167.07l-.479.224-1.833.883-6.718,3.3L57.029,202.776c-8.627,4.293-16.446,8.168-22.123,10.94-2.838,1.387-5.141,2.5-6.739,3.255-.8.379-1.421.668-1.846.859a3.792,3.792,0,0,1-.66.268,3.7,3.7,0,0,1,.614-.357c.41-.219,1.02-.534,1.807-.934,1.574-.8,3.862-1.943,6.694-3.341,5.665-2.8,13.513-6.615,22.187-10.818" transform="translate(-20.394 -148.87)" fill="#f5f5f5"/>
        <path id="Trazado_873892" data-name="Trazado 873892" d="M44.789,212.328l23.685-7.253,7.166-2.233,1.944-.621.5-.167a1.088,1.088,0,0,0,.169-.064,1.115,1.115,0,0,0-.176.043l-.51.148-1.953.591L68.448,205l-23.615,7.464c-9.214,2.92-17.563,5.552-23.619,7.422-3.028.935-5.481,1.681-7.182,2.184-.85.251-1.512.442-1.962.566a3.75,3.75,0,0,1-.7.164,3.756,3.756,0,0,1,.664-.259c.441-.154,1.093-.372,1.935-.647,1.684-.55,4.128-1.328,7.152-2.276,6.047-1.9,14.416-4.466,23.662-7.29" transform="translate(-9.04 -160.527)" fill="#f5f5f5"/>
        <path id="Trazado_873893" data-name="Trazado 873893" d="M37.446,222.509l24.564-3.541,7.438-1.109,2.02-.316.524-.088a1.13,1.13,0,0,0,.178-.037,1.118,1.118,0,0,0-.181.016l-.528.068-2.025.285L62,218.891l-24.53,3.759c-9.572,1.475-18.243,2.8-24.526,3.717-3.141.461-5.686.822-7.446,1.059-.88.118-1.564.205-2.029.259a3.791,3.791,0,0,1-.713.056,3.8,3.8,0,0,1,.7-.154c.46-.084,1.14-.2,2.016-.342,1.753-.286,4.292-.68,7.431-1.154,6.279-.948,14.959-2.206,24.547-3.581" transform="translate(-2.189 -172.788)" fill="#f5f5f5"/>
        <path id="Trazado_873894" data-name="Trazado 873894" d="M35.107,231.23l24.832.2,7.525.026,2.046-.007.532-.008a1.136,1.136,0,0,0,.181-.01,1.2,1.2,0,0,0-.181-.011l-.532-.012-2.046-.023-7.525-.031-24.833.014c-9.692.013-18.469.011-24.822-.027-3.177-.018-5.748-.045-7.525-.076-.888-.016-1.578-.032-2.046-.049A3.865,3.865,0,0,1,0,231.169a3.883,3.883,0,0,1,.714-.046c.468-.014,1.158-.025,2.046-.034,1.777-.018,4.348-.025,7.525-.019,6.354.01,15.13.075,24.822.161" transform="translate(0 -183.637)" fill="#f5f5f5"/>
        <path id="Trazado_873895" data-name="Trazado 873895" d="M37.724,200.716l24.5,3.951,7.43,1.162,2.022.3.527.072a1.132,1.132,0,0,0,.181.017,1.1,1.1,0,0,0-.177-.039l-.524-.092-2.017-.332-7.429-1.167L37.7,200.857c-9.576-1.45-18.246-2.776-24.517-3.773-3.135-.5-5.671-.912-7.421-1.212-.875-.15-1.554-.271-2.013-.358a3.78,3.78,0,0,1-.7-.16,3.785,3.785,0,0,1,.712.061c.465.057,1.148.15,2.027.275,1.759.25,4.3.632,7.437,1.117,6.275.969,14.934,2.359,24.494,3.909" transform="translate(-2.426 -155.25)" fill="#f5f5f5"/>
        <path id="Trazado_873896" data-name="Trazado 873896" d="M45.348,170.351,68.9,178l7.149,2.284,1.949.607.508.152a1.112,1.112,0,0,0,.176.045,1.07,1.07,0,0,0-.169-.066l-.5-.171-1.938-.637-7.147-2.29L45.3,170.487c-9.222-2.9-17.569-5.533-23.6-7.478-3.015-.972-5.452-1.769-7.132-2.333-.84-.282-1.491-.505-1.93-.662a3.711,3.711,0,0,1-.661-.265,3.745,3.745,0,0,1,.694.169c.45.127,1.109.323,1.958.581,1.7.516,4.143,1.281,7.163,2.241,6.04,1.918,14.366,4.616,23.555,7.61" transform="translate(-9.52 -126.956)" fill="#f5f5f5"/>
        <path id="Trazado_873897" data-name="Trazado 873897" d="M57.791,141.545,79.811,152.7l6.69,3.349,1.826.9.477.228a1.142,1.142,0,0,0,.166.071,1.1,1.1,0,0,0-.156-.091l-.468-.246-1.811-.925-6.688-3.354L57.724,141.671c-8.638-4.272-16.454-8.153-22.095-10.995-2.821-1.421-5.1-2.581-6.666-3.394-.784-.407-1.39-.726-1.8-.949a3.713,3.713,0,0,1-.611-.362,3.792,3.792,0,0,1,.657.274c.423.195,1.043.489,1.839.874,1.591.77,3.884,1.9,6.711,3.309,5.654,2.818,13.44,6.755,22.03,11.116" transform="translate(-21.103 -100.113)" fill="#f5f5f5"/>
        <path id="Trazado_873898" data-name="Trazado 873898" d="M74.652,115.11l19.954,14.366,6.069,4.325,1.659,1.164.435.3a1.089,1.089,0,0,0,.153.1,1.089,1.089,0,0,0-.14-.113l-.423-.314-1.64-1.189-6.066-4.329L74.565,115.225c-7.845-5.532-14.94-10.552-20.054-14.216-2.558-1.832-4.62-3.323-6.038-4.365-.709-.521-1.256-.929-1.624-1.21a3.67,3.67,0,0,1-.545-.45,3.761,3.761,0,0,1,.605.37c.387.257.951.642,1.675,1.143,1.448,1,3.531,2.467,6.1,4.288,5.131,3.642,12.188,8.714,19.972,14.326" transform="translate(-36.798 -75.485)" fill="#f5f5f5"/>
        <path id="Trazado_873899" data-name="Trazado 873899" d="M95.478,91.632l17.413,17.207,5.3,5.189,1.452,1.4.382.36a1.092,1.092,0,0,0,.135.117,1.086,1.086,0,0,0-.12-.133l-.367-.374-1.43-1.422-5.3-5.193L95.374,91.732C88.51,85.082,82.3,79.05,77.838,74.657c-2.233-2.2-4.032-3.981-5.266-5.224-.617-.622-1.093-1.107-1.411-1.441a3.621,3.621,0,0,1-.466-.527,3.707,3.707,0,0,1,.538.457c.341.312.837.778,1.472,1.382,1.27,1.208,3.093,2.97,5.336,5.157,4.486,4.373,10.645,10.45,17.436,17.171" transform="translate(-56.183 -53.616)" fill="#f5f5f5"/>
        <path id="Trazado_873900" data-name="Trazado 873900" d="M119.8,71.587l14.447,19.63,4.408,5.928,1.211,1.6.32.413a1.087,1.087,0,0,0,.115.137,1.053,1.053,0,0,0-.1-.149l-.3-.425L138.72,97.1l-4.4-5.931-14.63-19.5c-5.716-7.607-10.881-14.5-14.589-19.518-1.855-2.507-3.346-4.543-4.366-5.957-.51-.707-.9-1.259-1.163-1.637a3.581,3.581,0,0,1-.376-.591,3.648,3.648,0,0,1,.459.533c.287.359.7.895,1.233,1.588,1.061,1.386,2.58,3.4,4.445,5.9,3.732,5,8.843,11.932,14.476,19.6" transform="translate(-78.83 -34.942)" fill="#f5f5f5"/>
        <path id="Trazado_873901" data-name="Trazado 873901" d="M147.144,55.419,158.255,77l3.4,6.525.938,1.767.25.457a1.033,1.033,0,0,0,.092.152,1.062,1.062,0,0,0-.072-.162l-.231-.466-.91-1.781-3.4-6.527L147.013,55.484c-4.422-8.382-8.415-15.978-11.271-21.494-1.428-2.758-2.574-5-3.353-6.547-.39-.776-.688-1.381-.885-1.793a3.53,3.53,0,0,1-.277-.641,3.588,3.588,0,0,1,.368.6c.225.4.55.99.962,1.755.825,1.53,2,3.752,3.442,6.5,2.882,5.5,6.815,13.129,11.144,21.557" transform="translate(-104.289 -19.874)" fill="#f5f5f5"/>
        <path id="Trazado_873902" data-name="Trazado 873902" d="M176.878,43.569l7.478,23.014,2.3,6.963.64,1.889.172.489a1.025,1.025,0,0,0,.066.164,1.053,1.053,0,0,0-.045-.171l-.153-.5-.61-1.9-2.3-6.965-7.7-22.947c-3.011-8.954-5.724-17.066-7.651-22.95-.964-2.942-1.734-5.327-2.252-6.979-.259-.826-.456-1.469-.584-1.907a3.5,3.5,0,0,1-.169-.676,3.548,3.548,0,0,1,.267.645c.158.428.383,1.062.667,1.881.567,1.637,1.369,4.011,2.346,6.949,1.955,5.876,4.6,14.008,7.516,22.992" transform="translate(-131.989 -8.823)" fill="#f5f5f5"/>
        <path id="Trazado_873903" data-name="Trazado 873903" d="M208.158,36.413l3.659,23.871,1.146,7.229.326,1.963.091.51a.088.088,0,1,0,.022,0l-.071-.513-.295-1.968-1.14-7.229-3.884-23.838c-1.523-9.3-2.889-17.729-3.84-23.834-.476-3.053-.849-5.525-1.094-7.236-.122-.855-.213-1.52-.268-1.972a3.509,3.509,0,0,1-.058-.693,3.507,3.507,0,0,1,.159.678c.087.447.206,1.107.354,1.959.3,1.7.7,4.171,1.192,7.221.979,6.1,2.279,14.537,3.7,23.855" transform="translate(-161.13 -2.145)" fill="#f5f5f5"/>
        <path id="Trazado_873904" data-name="Trazado 873904" d="M238.944,34.12c-.075,9.424-.143,17.952-.192,24.134-.009,3.084-.017,5.58-.022,7.314,0,.859.006,1.527.009,1.988,0,.223.006.394.008.517a1.035,1.035,0,0,0,.01.176,1.119,1.119,0,0,0,.011-.176c0-.123.007-.294.012-.517.005-.461.013-1.13.022-1.988.007-1.733.016-4.23.027-7.314-.008-6.182-.019-14.71-.031-24.135s-.023-17.95.012-24.125c.017-3.087.043-5.586.074-7.313.015-.864.032-1.534.049-1.989A3.519,3.519,0,0,1,238.985,0a3.579,3.579,0,0,1,.048.694c.014.455.026,1.125.036,1.989.019,1.727.028,4.226.024,7.313-.006,6.175-.067,14.705-.149,24.124" transform="translate(-189.726)" fill="#f5f5f5"/>
        <path id="Trazado_873905" data-name="Trazado 873905" d="M228.592,36.644l-4.05,23.812-1.191,7.222-.309,1.966-.074.512a1.006,1.006,0,0,0-.017.176,1.052,1.052,0,0,0,.04-.172l.095-.509.34-1.961,1.2-7.221,3.825-23.847c1.486-9.308,2.845-17.735,3.866-23.83.51-3.047.935-5.512,1.242-7.213.154-.851.277-1.51.367-1.957a3.491,3.491,0,0,1,.164-.677,3.487,3.487,0,0,1-.063.692c-.058.451-.153,1.116-.282,1.97-.257,1.709-.647,4.179-1.145,7.229-.993,6.1-2.418,14.516-4.006,23.808" transform="translate(-177.186 -2.34)" fill="#f5f5f5"/>
        <path id="Trazado_873906" data-name="Trazado 873906" d="M218.117,44.034l-7.859,22.894-2.346,6.949-.623,1.894-.156.494a.089.089,0,1,0,.022.007l.176-.488.654-1.884,2.351-6.948,7.641-22.964c2.975-8.965,5.682-17.079,7.678-22.941,1-2.931,1.817-5.3,2.4-6.933.289-.817.519-1.449.68-1.876A3.509,3.509,0,0,1,229,11.6a3.488,3.488,0,0,1-.174.675c-.131.437-.332,1.078-.6,1.9-.53,1.649-1.316,4.028-2.3,6.963-1.969,5.871-4.74,13.965-7.814,22.9" transform="translate(-164.579 -9.215)" fill="#f5f5f5"/>
        <path id="Trazado_873907" data-name="Trazado 873907" d="M208.18,56.108,196.714,77.516l-3.442,6.5L192.35,85.8l-.234.464a1.043,1.043,0,0,0-.073.162,1.06,1.06,0,0,0,.093-.151l.253-.455.95-1.761,3.447-6.5,11.265-21.508c4.39-8.4,8.378-16,11.3-21.481,1.46-2.742,2.652-4.957,3.488-6.481.418-.762.747-1.352.975-1.749a3.6,3.6,0,0,1,.372-.594,3.574,3.574,0,0,1-.281.639c-.2.411-.5,1.014-.9,1.787-.791,1.547-1.952,3.776-3.4,6.524-2.9,5.5-6.942,13.066-11.423,21.418" transform="translate(-152.622 -20.456)" fill="#f5f5f5"/>
        <path id="Trazado_873908" data-name="Trazado 873908" d="M199.135,72.479l-14.768,19.4-4.446,5.9-1.2,1.613-.306.423a1.078,1.078,0,0,0-.1.148,1.086,1.086,0,0,0,.116-.136l.323-.411,1.222-1.595,4.45-5.9,14.586-19.533c5.687-7.628,10.848-14.527,14.615-19.5,1.883-2.487,3.416-4.493,4.487-5.871.536-.689.955-1.222,1.245-1.579a3.618,3.618,0,0,1,.463-.53,3.608,3.608,0,0,1-.381.589c-.264.376-.66.925-1.175,1.629-1.03,1.408-2.536,3.433-4.408,5.928-3.744,4.989-8.958,11.851-14.728,19.419" transform="translate(-141.717 -35.695)" fill="#f5f5f5"/>
        <path id="Trazado_873909" data-name="Trazado 873909" d="M191.151,92.7l-17.693,16.934-5.336,5.157-1.44,1.412-.37.372a1.091,1.091,0,0,0-.121.132,1.074,1.074,0,0,0,.136-.116l.385-.358,1.462-1.391,5.34-5.153L191.048,92.6c6.839-6.675,13.041-12.71,17.558-17.053,2.258-2.172,4.094-3.922,5.372-5.121.639-.6,1.139-1.062,1.482-1.372A3.711,3.711,0,0,1,216,68.6a3.628,3.628,0,0,1-.47.524c-.321.332-.8.814-1.421,1.432-1.243,1.235-3.054,3.008-5.3,5.189-4.5,4.363-10.745,10.353-17.656,16.957" transform="translate(-132.077 -54.52)" fill="#f5f5f5"/>
        <path id="Trazado_873910" data-name="Trazado 873910" d="M184.332,116.335l-20.189,14.053-6.1,4.288-1.649,1.178-.425.311a1.068,1.068,0,0,0-.14.112,1.1,1.1,0,0,0,.153-.095l.437-.295,1.667-1.153,6.1-4.284,20.056-14.231c7.823-5.56,14.916-10.584,20.073-14.192,2.578-1.8,4.671-3.255,6.126-4.247.727-.5,1.3-.877,1.683-1.131a3.719,3.719,0,0,1,.608-.366,3.714,3.714,0,0,1-.548.446c-.37.279-.92.684-1.633,1.2-1.425,1.032-3.5,2.51-6.069,4.324-5.14,3.63-12.271,8.6-20.155,14.081" transform="translate(-123.845 -76.519)" fill="#f5f5f5"/>
        <path id="Trazado_873911" data-name="Trazado 873911" d="M178.786,142.895l-22.2,10.813-6.711,3.309-1.818.913-.47.243a1.094,1.094,0,0,0-.157.089,1.109,1.109,0,0,0,.167-.07l.479-.225,1.832-.885,6.714-3.3,22.1-11.009c8.621-4.3,16.435-8.189,22.109-10.968,2.837-1.39,5.138-2.5,6.734-3.264.8-.379,1.42-.67,1.845-.861a3.767,3.767,0,0,1,.66-.269,3.717,3.717,0,0,1-.613.358c-.41.219-1.019.535-1.806.937-1.573.8-3.859,1.948-6.69,3.349-5.661,2.8-13.5,6.632-22.173,10.845" transform="translate(-117.167 -101.252)" fill="#f5f5f5"/>
        <path id="Trazado_873912" data-name="Trazado 873912" d="M174.682,171.785l-23.675,7.283-7.163,2.242-1.943.624-.5.168a1.046,1.046,0,0,0-.169.064,1.177,1.177,0,0,0,.176-.044l.51-.149,1.953-.594,7.165-2.236,23.605-7.494c9.211-2.932,17.556-5.574,23.609-7.451,3.026-.939,5.479-1.688,7.179-2.193.85-.252,1.511-.444,1.961-.568a3.751,3.751,0,0,1,.7-.165,3.765,3.765,0,0,1-.664.26c-.441.154-1.093.373-1.935.649-1.684.552-4.126,1.333-7.148,2.285-6.045,1.9-14.41,4.484-23.652,7.319" transform="translate(-112.239 -128.166)" fill="#f5f5f5"/>
        <path id="Trazado_873913" data-name="Trazado 873913" d="M172.193,202.182l-24.559,3.572-7.437,1.118-2.02.319-.524.089a1.167,1.167,0,0,0-.178.038,1.077,1.077,0,0,0,.181-.016l.528-.069,2.024-.288,7.438-1.113,24.525-3.79c9.571-1.487,18.24-2.819,24.521-3.747,3.141-.465,5.684-.829,7.444-1.068.88-.119,1.564-.208,2.029-.262a3.8,3.8,0,0,1,.713-.057,3.8,3.8,0,0,1-.7.155c-.46.085-1.139.2-2.016.345-1.753.288-4.291.686-7.429,1.163-6.277.956-14.956,2.225-24.543,3.612" transform="translate(-109.257 -156.484)" fill="#f5f5f5"/>
        <path id="Trazado_873914" data-name="Trazado 873914" d="M340.5,47.851l3.629-4.429-1.482-.571,1.159-3.228-3.308,3.818,1.7.5Z" transform="translate(-270.601 -31.49)" fill="#e0e0e0"/>
        <path id="Trazado_873915" data-name="Trazado 873915" d="M397.1,264.284l3.432,4.583.909-1.3,2.857,1.9-2.916-4.125-.889,1.534Z" transform="translate(-315.585 -210.035)" fill="#e0e0e0"/>
        <path id="Trazado_873916" data-name="Trazado 873916" d="M94.063,76.036l3.657,10.705,2.5-1.893,4.214,5.308-2.966-9.531-2.605,2.341Z" transform="translate(-74.755 -60.428)" fill="#e0e0e0"/>
        <path id="Trazado_873917" data-name="Trazado 873917" d="M217.389,318.634l2.461-8.815-2.536.118-.381-5.469-2.385,7.716,2.81-.369Z" transform="translate(-170.509 -241.969)" fill="#e0e0e0"/>
        <path id="Trazado_873918" data-name="Trazado 873918" d="M168.631,83.842l-.022,4.127,1.089-.353.816,2.334.119-3.64-1.178.495Z" transform="translate(-133.999 -66.632)" fill="#e0e0e0"/>
        <path id="Trazado_873919" data-name="Trazado 873919" d="M78.383,143.637l2.611,3.2.615-.966,2.115,1.28L81.5,144.265l-.593,1.132Z" transform="translate(-62.294 -114.153)" fill="#e0e0e0"/>
        <path id="Trazado_873920" data-name="Trazado 873920" d="M265.329,309.311l-.022,4.127,1.089-.353.816,2.334.119-3.64-1.178.495Z" transform="translate(-210.848 -245.82)" fill="#e0e0e0"/>
      </g>
    </g>
    <g id="Grupo_1100534" data-name="Grupo 1100534">
      <g id="Grupo_1100533" data-name="Grupo 1100533" clip-path="url(#clip-path)">
        <path id="Trazado_873921" data-name="Trazado 873921" d="M62.244,228.08c1.171,4.085-.884,8.257-4.59,9.319s-7.659-1.388-8.83-5.472.884-8.257,4.59-9.319,7.659,1.388,8.83,5.472" transform="translate(-38.541 -176.716)" fill="#455a64"/>
        <path id="Trazado_873922" data-name="Trazado 873922" d="M70.371,218.428c1.915,5.456.821,10.808-2.441,11.953s-7.46-2.35-9.375-7.807S57.733,211.766,61,210.621s7.46,2.35,9.375,7.807" transform="translate(-45.786 -167.215)" fill="#f0c518"/>
        <path id="Trazado_873923" data-name="Trazado 873923" d="M139.764,190.516c2.1,5.975.71,11.9-3.1,13.238s-8.593-2.425-10.69-8.4-.71-11.9,3.1-13.238,8.593,2.425,10.69,8.4" transform="translate(-99.341 -144.519)" fill="#ff725e"/>
        <path id="Trazado_873924" data-name="Trazado 873924" d="M92.33,222.014c-2.577-5.315-1.772-13.8-1.772-13.8a7.2,7.2,0,0,1,0-2.2c.215-.644,3.3-1.522,3.3-1.522l-7.346-21.717-15.379,6.164,4.91,19.495s.773,7.565,1.309,11,1.288,8.268,1.986,10.093,3.919,2.04,5.637,2.255,8.214-2.953,8.881-3.919,1.05-.537-1.527-5.852" transform="translate(-56.531 -145.26)" fill="#f0c518"/>
        <g id="Grupo_1100490" data-name="Grupo 1100490" transform="translate(25.658 37.327)" opacity="0.3">
          <g id="Grupo_1100489" data-name="Grupo 1100489">
            <g id="Grupo_1100488" data-name="Grupo 1100488" clip-path="url(#clip-path-4)">
              <path id="Trazado_873925" data-name="Trazado 873925" d="M139.764,190.516c2.1,5.975.71,11.9-3.1,13.238s-8.593-2.425-10.69-8.4-.71-11.9,3.1-13.238,8.593,2.425,10.69,8.4" transform="translate(-124.999 -181.846)"/>
            </g>
          </g>
        </g>
        <path id="Trazado_873926" data-name="Trazado 873926" d="M144.266,117.381s7.568-4.479,11.478-8.933c3.18-3.624,7.546-9.728,7.546-9.728L183.382,140.9s-10.455-4-20.092-4.091c-9.193-.087-12.649-.027-12.649-.027Z" transform="translate(-114.653 -78.456)" fill="#e0e0e0"/>
        <path id="Trazado_873927" data-name="Trazado 873927" d="M144.616,195.285c1.887,5.378.994,10.589-1.994,11.637s-6.941-2.461-8.828-7.84-.994-10.589,1.994-11.637,6.941,2.461,8.828,7.84" transform="translate(-105.543 -148.822)" fill="#e0e0e0"/>
        <g id="Grupo_1100493" data-name="Grupo 1100493" transform="translate(27.364 30.113)" opacity="0.3">
          <g id="Grupo_1100492" data-name="Grupo 1100492">
            <g id="Grupo_1100491" data-name="Grupo 1100491" clip-path="url(#clip-path-5)">
              <path id="Trazado_873928" data-name="Trazado 873928" d="M135.006,168.8c7.1-4.283,14.757-7.727,23.284-6.67A47.409,47.409,0,0,1,154.5,146.7c-5.392,7.374-12.337,14.118-21.19,16.371a26.608,26.608,0,0,0,.712,3.256c.358,1.021.984,2.468.984,2.468" transform="translate(-133.31 -146.702)" fill="#fff"/>
            </g>
          </g>
        </g>
        <g id="Grupo_1100496" data-name="Grupo 1100496" transform="translate(19.512 59.433)" opacity="0.2">
          <g id="Grupo_1100495" data-name="Grupo 1100495">
            <g id="Grupo_1100494" data-name="Grupo 1100494" clip-path="url(#clip-path-6)">
              <path id="Trazado_873929" data-name="Trazado 873929" d="M99.521,313.95l.314-.161q.2-.1.4-.2l.324-.159.4-.193.326-.153.415-.189.314-.141c.15-.066.3-.131.453-.2l.282-.121q.354-.149.71-.292l.218-.086c.177-.07.353-.14.531-.208l.306-.115.435-.163.33-.119.412-.147.336-.116.409-.139.333-.111.415-.134.322-.1.441-.136.29-.089q.349-.105.7-.2l.008,0c-.176-.446-1.7-3.582-3.395-8.257-1.822-5.023-.675-12.118-1.08-12.455s-9.419,3.724-9.419,3.724.773,7.565,1.31,11,1.288,8.268,1.986,10.093q.034.087.074.169c.13-.073.259-.147.39-.219.1-.052.191-.1.287-.154.14-.075.279-.15.42-.224" transform="translate(-95.054 -289.539)" fill="#f5f5f5"/>
            </g>
          </g>
        </g>
        <g id="Grupo_1100499" data-name="Grupo 1100499" transform="translate(22.882 80.159)" opacity="0.3">
          <g id="Grupo_1100498" data-name="Grupo 1100498">
            <g id="Grupo_1100497" data-name="Grupo 1100497" clip-path="url(#clip-path-7)">
              <path id="Trazado_873930" data-name="Trazado 873930" d="M122,390.513l-.008,0q-.346.1-.7.2l-.29.089-.441.136-.322.1-.415.134-.333.111-.409.139-.336.116-.412.147-.33.119-.435.162-.306.115c-.177.068-.354.138-.531.208l-.218.086q-.355.143-.71.292l-.282.121c-.151.065-.3.129-.453.2l-.314.141q-.208.094-.415.189l-.326.153-.4.193-.324.159q-.2.1-.4.2l-.314.161c-.141.073-.28.148-.42.224-.1.051-.192.1-.287.154-.131.072-.26.146-.39.219.827,1.669,3.9,1.877,5.563,2.085,1.718.215,8.214-2.953,8.881-3.919.358-.518.633-.636.415-1.451-1.421-.347-2.725-.663-4.317-1l-.02.006" transform="translate(-111.473 -390.507)"/>
            </g>
          </g>
        </g>
        <path id="Trazado_873931" data-name="Trazado 873931" d="M148.453,298.586a1.847,1.847,0,0,0-.773.221c-.165.165-.385,7.947.387,9.217.046.076-.055.055.386.331s2.494,1.149,3.124.74,2.12-1.733,2.01-2.285-.673-.974-1.332-2.253c-.592-1.149-.82-4.814-.82-4.814a18.372,18.372,0,0,0-2.98-1.157" transform="translate(-117.238 -237.294)" fill="#f5f5f5"/>
        <g id="Grupo_1100502" data-name="Grupo 1100502" transform="translate(31.346 61.302)" opacity="0.3">
          <g id="Grupo_1100501" data-name="Grupo 1100501">
            <g id="Grupo_1100500" data-name="Grupo 1100500" clip-path="url(#clip-path-8)">
              <path id="Trazado_873932" data-name="Trazado 873932" d="M157.709,306.881c0-.007,0-.015,0-.022-.11-.552-.673-.974-1.332-2.253-.592-1.148-.82-4.814-.82-4.814a24.874,24.874,0,0,0-2.85-1.146c.03.2.477,2.6.867,4.354a8.539,8.539,0,0,0,1.271,2.947c.04-.027.07-.041.083-.038a15.71,15.71,0,0,1,2.782.972" transform="translate(-152.706 -298.646)"/>
            </g>
          </g>
        </g>
        <g id="Grupo_1100505" data-name="Grupo 1100505" transform="translate(31.008 68.565)" opacity="0.5">
          <g id="Grupo_1100504" data-name="Grupo 1100504">
            <g id="Grupo_1100503" data-name="Grupo 1100503" clip-path="url(#clip-path-9)">
              <path id="Trazado_873933" data-name="Trazado 873933" d="M153.623,334.028c-.013,0-.042.011-.083.038-.4.266-2.044,1.89-2.478,2.321.051.035.118.079.209.136.442.276,2.494,1.149,3.124.74a6.6,6.6,0,0,0,1.964-2.008A.527.527,0,0,0,156.4,335a15.71,15.71,0,0,0-2.782-.972" transform="translate(-151.062 -334.028)"/>
            </g>
          </g>
        </g>
        <path id="Trazado_873934" data-name="Trazado 873934" d="M128.739,391.758a.767.767,0,0,1-.147-.009c-.1-.009-.237-.03-.418-.065-.361-.066-.873-.212-1.5-.4-.314-.091-.658-.188-1.034-.263a3.041,3.041,0,0,0-1.2-.039,20.609,20.609,0,0,0-2.659.889,41.049,41.049,0,0,0-4.714,1.967c-.586.29-1.053.539-1.375.714l-.37.2a.785.785,0,0,1-.133.064.739.739,0,0,1,.122-.083c.082-.051.2-.127.361-.219.316-.186.778-.445,1.361-.745a36.971,36.971,0,0,1,4.713-2,19.675,19.675,0,0,1,2.679-.885,2.745,2.745,0,0,1,.641-.038,4.53,4.53,0,0,1,.6.087c.38.079.725.181,1.038.277.625.2,1.13.352,1.487.431.178.041.317.069.412.084a.761.761,0,0,1,.144.031" transform="translate(-91.541 -310.615)" fill="#263238"/>
        <path id="Trazado_873935" data-name="Trazado 873935" d="M153.738,334.167a2.693,2.693,0,0,1-.376.342c-.238.2-.567.484-.92.805s-.665.621-.89.839a2.687,2.687,0,0,1-.376.342,2.175,2.175,0,0,1,.322-.395c.212-.232.517-.542.873-.865s.693-.6.945-.785a2.166,2.166,0,0,1,.423-.283" transform="translate(-120.143 -265.572)" fill="#263238"/>
        <path id="Trazado_873936" data-name="Trazado 873936" d="M155.284,307.639a1.038,1.038,0,0,1-.147-.208,4.908,4.908,0,0,1-.319-.616,11.284,11.284,0,0,1-.629-2.194c-.188-.87-.334-1.664-.411-2.243-.039-.289-.063-.525-.075-.688a1.12,1.12,0,0,1-.006-.254,1.185,1.185,0,0,1,.048.249l.109.681c.1.574.253,1.363.441,2.232a13.272,13.272,0,0,0,.594,2.187c.216.539.414.843.4.853" transform="translate(-122.144 -239.562)" fill="#263238"/>
        <path id="Trazado_873937" data-name="Trazado 873937" d="M165.992,334.927c-.014.029-.574-.241-1.3-.479s-1.334-.362-1.328-.393a1.375,1.375,0,0,1,.407.044,7.413,7.413,0,0,1,1.868.621,1.366,1.366,0,0,1,.352.208" transform="translate(-129.831 -265.479)" fill="#263238"/>
        <g id="Grupo_1100508" data-name="Grupo 1100508" transform="translate(12.778 45.362)" opacity="0.3">
          <g id="Grupo_1100507" data-name="Grupo 1100507">
            <g id="Grupo_1100506" data-name="Grupo 1100506" clip-path="url(#clip-path-10)">
              <path id="Trazado_873938" data-name="Trazado 873938" d="M74.189,220.988a7.331,7.331,0,0,0,.3,3.808s-7.773,2.472-11.5,4.117a5.149,5.149,0,0,1-.685-3.358Z" transform="translate(-62.251 -220.988)" fill="#fff"/>
            </g>
          </g>
        </g>
        <path id="Trazado_873939" data-name="Trazado 873939" d="M128.889,183.158a.413.413,0,0,1-.07.033l-.208.088a5.244,5.244,0,0,0-.758.418,5.962,5.962,0,0,0-2.012,2.417,10.835,10.835,0,0,0-.974,4.584,17.292,17.292,0,0,0,3.762,10.723,10.836,10.836,0,0,0,3.625,2.971,5.964,5.964,0,0,0,3.081.63,5.243,5.243,0,0,0,.853-.148l.217-.061a.442.442,0,0,1,.075-.017.4.4,0,0,1-.072.028l-.215.071a4.783,4.783,0,0,1-.855.168,5.927,5.927,0,0,1-3.117-.6,10.827,10.827,0,0,1-3.669-2.977,17.252,17.252,0,0,1-3.785-10.786,10.823,10.823,0,0,1,1-4.616,5.924,5.924,0,0,1,2.057-2.419,4.8,4.8,0,0,1,.773-.4l.213-.079a.42.42,0,0,1,.073-.023" transform="translate(-99.156 -145.561)" fill="#263238"/>
        <path id="Trazado_873940" data-name="Trazado 873940" d="M147.12,291.332a.723.723,0,0,1-.2,0c-.129-.007-.314-.025-.543-.054a13.749,13.749,0,0,1-3.472-.926c-.213-.089-.383-.166-.5-.224a.727.727,0,0,1-.175-.1,7.174,7.174,0,0,1,.7.252c.43.159,1.03.363,1.706.544s1.3.3,1.75.377a7.144,7.144,0,0,1,.733.13" transform="translate(-113.037 -230.494)" fill="#263238"/>
        <path id="Trazado_873941" data-name="Trazado 873941" d="M103.845,289.487c.011.027-1.967.892-4.418,1.93s-4.449,1.859-4.46,1.832,1.966-.891,4.418-1.931,4.448-1.859,4.46-1.832" transform="translate(-75.473 -230.064)" fill="#263238"/>
        <path id="Trazado_873942" data-name="Trazado 873942" d="M163.29,98.719a.329.329,0,0,1-.036.06l-.115.169-.452.64c-.4.554-.974,1.352-1.7,2.329s-1.6,2.134-2.6,3.4c-.5.632-1.026,1.292-1.587,1.965q-.418.507-.865,1.02c-.295.343-.617.673-.93,1.017a39.669,39.669,0,0,1-3.941,3.454c-1.273.988-2.459,1.824-3.467,2.507s-1.843,1.208-2.423,1.565c-.29.179-.517.314-.672.4l-.177.1a.035.035,0,1,1-.006-.009l.172-.11.661-.421c.573-.368,1.4-.9,2.4-1.592s2.182-1.531,3.449-2.522a40.6,40.6,0,0,0,3.925-3.451c.312-.343.632-.67.927-1.012s.585-.68.864-1.017c.561-.671,1.09-1.33,1.59-1.96,1-1.261,1.878-2.413,2.612-3.384l1.727-2.308.468-.629.123-.162a.357.357,0,0,1,.045-.053" transform="translate(-114.653 -78.455)" fill="#263238"/>
        <path id="Trazado_873943" data-name="Trazado 873943" d="M175.321,284.051a.27.27,0,0,1,.063-.005l.185,0,.712-.008,2.619-.012,8.641,0a47.461,47.461,0,0,1,8.595.861c1.088.2,1.962.4,2.564.537.3.069.534.128.692.168l.179.047a.276.276,0,0,1,.06.02.283.283,0,0,1-.063-.009l-.182-.037-.7-.148c-.6-.128-1.48-.311-2.569-.5a49.6,49.6,0,0,0-8.582-.829l-8.64-.034-2.619-.023-.712-.012-.185-.006a.28.28,0,0,1-.063-.006" transform="translate(-139.333 -225.721)" fill="#263238"/>
        <g id="Grupo_1100511" data-name="Grupo 1100511" transform="translate(46.393 20.686)" opacity="0.3">
          <g id="Grupo_1100510" data-name="Grupo 1100510">
            <g id="Grupo_1100509" data-name="Grupo 1100509" clip-path="url(#clip-path-11)">
              <path id="Trazado_873944" data-name="Trazado 873944" d="M254.718,114.214,227.9,100.775l-1.623,2.279c-.719,5.528.013,12.515,2.373,19.71a46.869,46.869,0,0,0,9.361,16.86l5.362,1.3Z" transform="translate(-226.013 -100.775)"/>
            </g>
          </g>
        </g>
        <path id="Trazado_873945" data-name="Trazado 873945" d="M259.572,76.262c4.8,14.647,2.863,28.435-4.336,30.8s-16.928-7.6-21.732-22.246-2.863-28.435,4.336-30.8,16.928,7.6,21.732,22.246" transform="translate(-183.477 -42.653)" fill="#f0c518"/>
        <path id="Trazado_873946" data-name="Trazado 873946" d="M274.208,96.787c3.957,12.063,3.259,23.123-1.557,24.7s-11.929-6.919-15.885-18.982-3.259-23.123,1.557-24.7,11.928,6.919,15.885,18.982" transform="translate(-202.022 -61.683)" fill="#e0e0e0"/>
        <g id="Grupo_1100514" data-name="Grupo 1100514" transform="translate(55.902 15.074)" opacity="0.3">
          <g id="Grupo_1100513" data-name="Grupo 1100513">
            <g id="Grupo_1100512" data-name="Grupo 1100512" clip-path="url(#clip-path-12)">
              <path id="Trazado_873947" data-name="Trazado 873947" d="M291,92.975c-4.07-12.411-11.675-21.06-16.986-19.318a4.653,4.653,0,0,0-1.679.994,3.718,3.718,0,0,1,.415-.165c4.816-1.58,11.928,6.919,15.885,18.982s3.259,23.123-1.557,24.7a4.167,4.167,0,0,1-2.308.05,5.463,5.463,0,0,0,3.984.38c5.31-1.742,6.316-13.215,2.245-25.625" transform="translate(-272.335 -73.435)"/>
            </g>
          </g>
        </g>
        <path id="Trazado_873948" data-name="Trazado 873948" d="M259.758,165.943l12.548-2.718,2.277,6.942-11.4,6.037s-3.223-7.122-3.43-10.262" transform="translate(-206.438 -129.72)" fill="#8722e2"/>
        <g id="Grupo_1100517" data-name="Grupo 1100517" transform="translate(53.32 35.464)" opacity="0.2">
          <g id="Grupo_1100516" data-name="Grupo 1100516">
            <g id="Grupo_1100515" data-name="Grupo 1100515" clip-path="url(#clip-path-13)">
              <path id="Trazado_873949" data-name="Trazado 873949" d="M263.259,172.77c-.2.08-2.517,4.168-.92,6.511a9.843,9.843,0,0,0,3.329,3.2l-2.324,1.256-2.427-6.432-1.16-3.772Z" transform="translate(-259.757 -172.77)"/>
            </g>
          </g>
        </g>
        <path id="Trazado_873950" data-name="Trazado 873950" d="M320.091,165.936c.629,1.917.353,3.729-.616,4.047s-2.264-.979-2.893-2.9-.353-3.729.616-4.047,2.264.979,2.893,2.9" transform="translate(-251.33 -129.535)" fill="#ff725e"/>
        <path id="Trazado_873951" data-name="Trazado 873951" d="M319.9,165.771a1.152,1.152,0,0,1-.071-.166c-.04-.111-.107-.271-.2-.476a6.806,6.806,0,0,0-.382-.719,4.758,4.758,0,0,0-.653-.852,2.189,2.189,0,0,0-1.08-.663.945.945,0,0,0-.674.107,1.248,1.248,0,0,0-.477.561,3.508,3.508,0,0,0-.255,1.6A6.858,6.858,0,0,0,317.2,168.5a3.515,3.515,0,0,0,1.156,1.142,1.251,1.251,0,0,0,.717.17.945.945,0,0,0,.606-.313,2.187,2.187,0,0,0,.478-1.174,4.755,4.755,0,0,0,.021-1.073,6.774,6.774,0,0,0-.118-.805c-.048-.219-.089-.388-.122-.5a1.143,1.143,0,0,1-.041-.176,1.118,1.118,0,0,1,.062.17c.04.111.088.28.142.5a6.322,6.322,0,0,1,.137.809,4.706,4.706,0,0,1-.006,1.089,2.25,2.25,0,0,1-.488,1.224,1.035,1.035,0,0,1-.662.346,1.344,1.344,0,0,1-.772-.176,3.585,3.585,0,0,1-1.2-1.171A6.9,6.9,0,0,1,316,165.172a3.588,3.588,0,0,1,.271-1.652,1.343,1.343,0,0,1,.518-.6,1.034,1.034,0,0,1,.738-.113,2.251,2.251,0,0,1,1.118.7,4.7,4.7,0,0,1,.649.874,6.314,6.314,0,0,1,.369.733c.085.209.147.372.18.486a1.142,1.142,0,0,1,.05.173" transform="translate(-251.134 -129.37)" fill="#263238"/>
        <g id="Grupo_1100520" data-name="Grupo 1100520" transform="translate(65.84 34.949)" opacity="0.3">
          <g id="Grupo_1100519" data-name="Grupo 1100519">
            <g id="Grupo_1100518" data-name="Grupo 1100518" clip-path="url(#clip-path-14)">
              <path id="Trazado_873952" data-name="Trazado 873952" d="M322.957,171.947c.36,1.1.2,2.137-.353,2.319s-1.3-.561-1.658-1.659-.2-2.137.353-2.319,1.3.561,1.658,1.659" transform="translate(-320.753 -170.26)"/>
            </g>
          </g>
        </g>
        <path id="Trazado_873953" data-name="Trazado 873953" d="M258.153,78.536s-.042.021-.125.056-.21.079-.366.16a4.415,4.415,0,0,0-1.208.932,9.856,9.856,0,0,0-2.1,5.162,24.984,24.984,0,0,0-.281,3.892,38.391,38.391,0,0,0,.293,4.473,55.23,55.23,0,0,0,6.371,19.425,38.4,38.4,0,0,0,2.414,3.778,25,25,0,0,0,2.532,2.97,9.855,9.855,0,0,0,4.747,2.917,4.415,4.415,0,0,0,1.526.036c.173-.027.3-.07.39-.087s.134-.029.134-.029a5.117,5.117,0,0,1-.52.138,4.328,4.328,0,0,1-1.537-.016,6.943,6.943,0,0,1-2.26-.9,13.325,13.325,0,0,1-2.532-2,24.853,24.853,0,0,1-2.55-2.971,38.147,38.147,0,0,1-2.428-3.782,54.845,54.845,0,0,1-6.383-19.462,38.134,38.134,0,0,1-.283-4.485,24.89,24.89,0,0,1,.3-3.9,13.324,13.324,0,0,1,.854-3.114,6.942,6.942,0,0,1,1.288-2.065,4.33,4.33,0,0,1,1.229-.923,5.075,5.075,0,0,1,.5-.2" transform="translate(-201.852 -62.415)" fill="#263238"/>
        <g id="Grupo_1100523" data-name="Grupo 1100523" transform="translate(55.675 39.083)" opacity="0.2">
          <g id="Grupo_1100522" data-name="Grupo 1100522">
            <g id="Grupo_1100521" data-name="Grupo 1100521" clip-path="url(#clip-path-15)">
              <path id="Trazado_873954" data-name="Trazado 873954" d="M271.232,194.766l10.3-4.363s.8,1.359,1.819,1.41l-10.884,5.933Z" transform="translate(-271.232 -190.403)"/>
            </g>
          </g>
        </g>
        <g id="Grupo_1100526" data-name="Grupo 1100526" transform="translate(48.601 26.008)" opacity="0.3">
          <g id="Grupo_1100525" data-name="Grupo 1100525">
            <g id="Grupo_1100524" data-name="Grupo 1100524" clip-path="url(#clip-path-16)">
              <path id="Trazado_873955" data-name="Trazado 873955" d="M237.012,126.7s-.545,2.408,0,3.329h1.912V126.7Z" transform="translate(-236.77 -126.703)" fill="#fff"/>
            </g>
          </g>
        </g>
        <g id="Grupo_1100529" data-name="Grupo 1100529" transform="translate(48.743 11.066)" opacity="0.3">
          <g id="Grupo_1100528" data-name="Grupo 1100528">
            <g id="Grupo_1100527" data-name="Grupo 1100527" clip-path="url(#clip-path-17)">
              <path id="Trazado_873956" data-name="Trazado 873956" d="M246.144,53.911a8.578,8.578,0,0,0-4.252,2.11c-3.159,2.672-4.454,7.344-4.43,11.43a3.093,3.093,0,0,1,2.088,0,21.5,21.5,0,0,1,1.085-6.064,6.848,6.848,0,0,1,8.948-4.562c3.629,1.038,6.427,3.767,8.939,6.652-3.825-5.561-8.31-9.117-12.378-9.565" transform="translate(-237.461 -53.911)" fill="#fff"/>
            </g>
          </g>
        </g>
        <path id="Trazado_873957" data-name="Trazado 873957" d="M324.042,280.266a.813.813,0,0,1-.057.142c-.043.091-.1.23-.189.4a7.989,7.989,0,0,1-.886,1.354,7.764,7.764,0,0,1-1.769,1.621,6.858,6.858,0,0,1-1.261.659,6.408,6.408,0,0,1-1.48.38,5.42,5.42,0,0,1-2.881-.505,10.416,10.416,0,0,1-2.046-1.255c-.542-.416-.958-.781-1.24-1.038-.142-.127-.249-.231-.321-.3a.835.835,0,0,1-.107-.11.813.813,0,0,1,.121.094l.334.284c.29.247.712.6,1.258,1.009a10.7,10.7,0,0,0,2.041,1.225,5.376,5.376,0,0,0,2.828.489,6.382,6.382,0,0,0,1.455-.372,6.861,6.861,0,0,0,1.245-.644,7.879,7.879,0,0,0,1.764-1.587,8.641,8.641,0,0,0,.908-1.326c.1-.163.157-.3.206-.387a.856.856,0,0,1,.076-.133" transform="translate(-247.802 -222.736)" fill="#fff"/>
        <g id="Grupo_1100532" data-name="Grupo 1100532" transform="translate(52.079 16.361)" opacity="0.3">
          <g id="Grupo_1100531" data-name="Grupo 1100531">
            <g id="Grupo_1100530" data-name="Grupo 1100530" clip-path="url(#clip-path-18)">
              <path id="Trazado_873958" data-name="Trazado 873958" d="M261.9,113.233a69.927,69.927,0,0,1-6.164-21.3,27.465,27.465,0,0,1-.107-7.371,13.654,13.654,0,0,1,1.64-4.852c-4.3,2.241-4.787,12.889-.991,24.462,3.957,12.063,11.068,20.562,15.885,18.982a3.777,3.777,0,0,0,.487-.2,10.132,10.132,0,0,1-6.489-3.137,23.009,23.009,0,0,1-4.26-6.582" transform="translate(-253.709 -79.707)"/>
            </g>
          </g>
        </g>
      </g>
    </g>
    <path id="Trazado_873959" data-name="Trazado 873959" d="M374.859,137.155l12.613-2.271-1.94-2.763,6.912-2.914-11.019,1.331,2,3.029Z" transform="translate(-297.912 -102.684)" fill="#debefb"/>
    <path id="Trazado_873960" data-name="Trazado 873960" d="M369.189,78.744l8.007-6.4L374.084,71l2.783-5.062-6.514,5.474,2.7,1.276Z" transform="translate(-293.407 -52.402)" fill="#debefb"/>
    <path id="Trazado_873961" data-name="Trazado 873961" d="M389.6,201.114l8.038,6.391.211-2.4,5.343,2.194-6.92-5.574-.217,2.545Z" transform="translate(-309.626 -159.832)" fill="#debefb"/>
  </g>
</svg>
