<svg xmlns="http://www.w3.org/2000/svg" width="44" height="44" viewBox="0 0 44 44">
  <g id="n2-1" transform="translate(-641 -1816)">
    <circle id="Elipse_11736" data-name="Elipse 11736" cx="22" cy="22" r="22" transform="translate(641 1816)" fill="#3a1d71"/>
    <path id="Trazado_886790" data-name="Trazado 886790" d="M10.713,0H.967V-1.934l4.6-4.9a11.347,11.347,0,0,0,1.4-1.807,2.9,2.9,0,0,0,.454-1.465A2.172,2.172,0,0,0,6.943-11.6a1.727,1.727,0,0,0-1.367-.542,1.863,1.863,0,0,0-1.509.659,2.611,2.611,0,0,0-.552,1.733H.684a4.661,4.661,0,0,1,.62-2.373A4.371,4.371,0,0,1,3.057-13.8a5.328,5.328,0,0,1,2.568-.61,5.045,5.045,0,0,1,3.413,1.055,3.731,3.731,0,0,1,1.216,2.979,4.781,4.781,0,0,1-.547,2.148A11.939,11.939,0,0,1,7.832-5.684L4.6-2.275h6.113Z" transform="translate(657 1845)" fill="#fff"/>
  </g>
</svg>
